<?xml version="1.0" encoding="UTF-8"?>
<svg width="90px" height="90px" viewBox="0 0 90 90" version="1.1" xmlns="http://www.w3.org/2000/svg" xmlns:xlink="http://www.w3.org/1999/xlink">
    <!-- Generator: Sketch 55.2 (78181) - https://sketchapp.com -->
    <title>1</title>
    <desc>Created with Sketch.</desc>
    <g id="官网主页" stroke="none" stroke-width="1" fill="none" fill-rule="evenodd">
        <g id="ONT-ID-2.0-Landingpage" transform="translate(-375.000000, -2495.000000)">
            <g id="1" transform="translate(375.000000, 2495.000000)">
                <circle id="椭圆形" fill="#000000" cx="45" cy="45" r="45"></circle>
                <path d="M72.6381795,25.1365785 L48.1406162,10.8651744 C46.150434,9.71160853 43.7018986,9.71160853 41.7118012,10.8651744 L17.2142379,25.1365785 C15.2277015,26.2968094 14.0033067,28.4343243 14,30.7484628 L14,59.2515372 C14.0033067,61.5656757 15.2277015,63.7035324 17.2142379,64.8637633 L41.7118012,79.1348256 C43.7018986,80.2883915 46.150434,80.2883915 48.1406162,79.1348256 L72.6381795,64.8637633 C74.6246311,63.7035324 75.8491108,61.5656757 75.8524174,59.2515372 L75.8524174,30.7484628 C75.8491108,28.4343243 74.6246311,26.2968094 72.6381795,25.1365785 Z M62.6052804,54.3388847 C62.1167434,55.1920107 61.0340259,55.4840765 60.1875223,54.9917175 L44.9048426,46.0969557 L29.6225021,54.9917175 C28.776592,55.4763861 27.7012509,55.1820132 27.2146639,54.3328178 C26.7281618,53.4837079 27.012958,52.3979033 27.8522548,51.90187 L43.156131,42.9824133 L43.156131,25.26142 C43.1564702,24.2760184 43.9487107,23.4776654 44.9263783,23.4776654 C45.9037067,23.4776654 46.6959473,24.2760184 46.6962864,25.26142 L46.6962864,43.0218054 L61.9574305,51.90187 C62.8039341,52.3945708 63.0940718,53.4853314 62.6052804,54.3388847 Z" id="Fill-1" fill="#FFFFFF"></path>
            </g>
        </g>
    </g>
</svg>