<?xml version="1.0" encoding="UTF-8"?>
<svg width="70px" height="87px" viewBox="0 0 70 87" version="1.1" xmlns="http://www.w3.org/2000/svg" xmlns:xlink="http://www.w3.org/1999/xlink">
    <!-- Generator: Sketch 55.2 (78181) - https://sketchapp.com -->
    <title>编组</title>
    <desc>Created with Sketch.</desc>
    <g id="页面1" stroke="none" stroke-width="1" fill="none" fill-rule="evenodd">
        <g id="ONT-ID-2.0-Landingpage" transform="translate(-367.000000, -2523.000000)">
            <g id="编组" transform="translate(367.000000, 2523.587302)">
                <path d="M26.702157,13.0488923 C31.5550913,13.0488923 35.5094248,17.0034979 35.5094248,21.8561601 C35.5094248,26.7090944 31.5550913,30.6568986 26.702157,30.6568986 C21.8497668,30.6568986 17.8954333,26.7090944 17.8954333,21.8561601 C17.8954333,17.0029538 21.8497668,13.0488923 26.702157,13.0488923 L26.702157,13.0488923 Z M39.2281578,44.2319471 C40.7497668,42.6638166 42.612262,41.0252235 44.1795764,39.7272445 C41.9114458,37.3200933 39.1778274,35.3991061 36.1446755,34.0807229 C39.8177031,31.2480762 42.2243101,26.8410416 42.2243101,21.8567042 C42.2243101,13.2989118 35.2604936,6.33373494 26.7016129,6.33373494 C18.1438204,6.33373494 11.1786436,13.2983677 11.1786436,21.8567042 C11.1786436,26.8274388 13.5735523,31.2143412 17.2256316,34.0540614 C8.66756704,37.7401477 2.65322581,46.2508745 2.65322581,56.1482705 C2.65322581,58.0020599 4.15524679,59.5051694 6.00876409,59.5051694 L6.0117567,59.5051694 C7.86554606,59.5059852 9.36865527,58.0039642 9.36947143,56.1501749 L9.36947143,56.1482705 C9.36947143,46.5931209 17.140206,38.816129 26.7016129,38.816129 C31.6331714,38.8150408 36.0674116,40.9071512 39.2281578,44.2319471 L39.2281578,44.2319471 Z M57.5968325,38.1406141 L39.6340653,56.082705 L32.1070929,47.5447726 C30.8793043,46.1559269 28.7594442,46.0212592 27.3654295,47.2433346 C25.9752235,48.4637777 25.8372911,50.580101 27.0577342,51.970307 C27.061815,51.975204 27.0661679,51.979829 27.0702487,51.9844539 L36.9597551,63.204314 C37.5729693,63.8980567 38.4459969,64.3066848 39.3715313,64.3330742 C39.4117956,64.3390595 39.4447143,64.3390595 39.4781772,64.3390595 C40.3691605,64.3390595 41.2226001,63.9919161 41.8518655,63.3626506 L62.3458414,42.9021376 C63.656335,41.5902837 63.656335,39.4655266 62.3515546,38.1474155 C61.0388846,36.8355616 58.9084143,36.842363 57.5968325,38.140342 L57.5968325,38.1406141 Z" id="Fill-1" fill="#000000"></path>
                <path d="M24.2600222,14.8632608 C29.1132286,14.8632608 33.06729,18.8178663 33.06729,23.6705286 C33.06729,28.5234629 29.1132286,32.4715391 24.2600222,32.4715391 C19.407632,32.4715391 15.4535706,28.5234629 15.4535706,23.6705286 C15.4535706,18.8173222 19.407632,14.8632608 24.2600222,14.8632608 M36.786023,46.0463156 C38.307632,44.478185 40.1701272,42.8395919 41.7377137,41.5416129 C39.469311,39.1344617 36.7356927,37.2137466 33.7025407,35.8950913 C37.3758404,33.0624446 39.7821754,28.65541 39.7821754,23.6710727 C39.7821754,15.1132802 32.8183588,8.14837544 24.2594781,8.14837544 C15.7016857,8.14837544 8.73650884,15.1127361 8.73650884,23.6710727 C8.73650884,28.6418072 11.1314175,33.0289817 14.7834968,35.8684298 C6.22570433,39.5545161 0.21109104,48.065515 0.21109104,57.9626389 C0.21109104,59.8164283 1.71311203,61.3195378 3.56662932,61.3195378 L3.56989399,61.3195378 C5.42341129,61.3203537 6.92679256,59.8183327 6.92733667,57.9645433 L6.92733667,57.9626389 C6.92733667,48.4074893 14.6980712,40.6304975 24.2594781,40.6304975 C29.1910366,40.6294092 33.6252768,42.7215196 36.786023,46.0463156 M55.1546977,39.9549825 L37.1919305,57.8970735 L29.6652302,49.3591411 C28.4371695,47.9702954 26.3173095,47.8356277 24.9232947,49.0577031 C23.5330887,50.2781461 23.3954284,52.3944695 24.6155994,53.7846755 C24.6199523,53.7895725 24.6240331,53.7941974 24.628386,53.7990944 L34.5176204,65.0186825 C35.1308345,65.7124252 36.0041342,66.1210532 36.9296686,66.1474427 C36.9699329,66.1534279 37.0025796,66.1534279 37.0360425,66.1534279 C37.9270257,66.1534279 38.7804653,65.8062845 39.4097308,65.177019 L59.9037067,44.716506 C61.2142003,43.4046522 61.2142003,41.2798951 59.9094198,39.9617839 C58.5967498,38.64993 56.4665516,38.6567314 55.1546977,39.9549825" id="Fill-3备份" fill="#FFFFFF" opacity="0.2"></path>
                <path d="M30.41904,17.5498951 C35.2722464,17.5498951 39.2263078,21.5045006 39.2263078,26.3571628 C39.2263078,31.2100972 35.2722464,35.1581733 30.41904,35.1581733 C25.5666498,35.1581733 21.6125884,31.2100972 21.6125884,26.3571628 C21.6125884,21.5039565 25.5666498,17.5498951 30.41904,17.5498951 M42.9450408,48.7329499 C44.4666498,47.1648193 46.329145,45.5262262 47.8967314,44.2282472 C45.6283288,41.821096 42.8947105,39.9003809 39.8615585,38.5817256 C43.5348581,35.7490789 45.9411932,31.3420443 45.9411932,26.357707 C45.9411932,17.7999145 38.9773766,10.8350097 30.4184959,10.8350097 C21.8607035,10.8350097 14.8955266,17.7993704 14.8955266,26.357707 C14.8955266,31.3284415 17.2904353,35.715616 20.9425146,38.5550641 C12.3847221,42.2411504 6.37010882,50.7521492 6.37010882,60.6492732 C6.37010882,62.5030626 7.87212981,64.0061721 9.7256471,64.0061721 L9.72891178,64.0061721 C11.5824291,64.006988 13.0858103,62.504967 13.0863545,60.6511776 L13.0863545,60.6492732 C13.0863545,51.0941236 20.857089,43.3171318 30.4184959,43.3171318 C35.3500544,43.3160435 39.7842946,45.4081539 42.9450408,48.7329499 M61.3137155,42.6416168 L43.3509483,60.5837077 L35.824248,52.0457754 C34.5961873,50.6569297 32.4763272,50.522262 31.0823125,51.7443373 C29.6921065,52.9647804 29.5544462,55.0811038 30.7746172,56.4713098 C30.7789701,56.4762068 30.7830509,56.4808317 30.7874038,56.4857287 L40.6766382,67.7053168 C41.2898523,68.3990595 42.163152,68.8076875 43.0886864,68.834077 C43.1289506,68.8400622 43.1615974,68.8400622 43.1950602,68.8400622 C44.0860435,68.8400622 44.9394831,68.4929188 45.5687485,67.8636533 L66.0627244,47.4031403 C67.373218,46.0912864 67.373218,43.9665293 66.0684376,42.6484182 C64.7557676,41.3365643 62.6255694,41.3433657 61.3137155,42.6416168" id="Fill-3" fill="#FFFFFF"></path>
                <path d="M67.7936533,4.30776137 L41.4093937,30.20096" id="Stroke-5" stroke="#FFFFFF" stroke-width="0.283"></path>
                <path d="M69.970101,8.38860086 L69.3555266,8.99174893" id="Stroke-7" stroke="#FFFFFF" stroke-width="0.283"></path>
                <path d="M68.157773,10.1671939 L44.7993199,33.0909017" id="Stroke-9" stroke="#FFFFFF" stroke-width="0.283" stroke-dasharray="6.169,6.169"></path>
                <path d="M44.2002254,33.6787874 L43.585651,34.2819355" id="Stroke-11" stroke="#FFFFFF" stroke-width="0.283"></path>
                <path d="M65.4779946,0.0272600078 L42.2776059,23.3680295" id="Stroke-13" stroke="#FFFFFF" stroke-width="0.283"></path>
                <path d="M29.7058181,55.182227 L3.65727555,80.6795841" id="Stroke-15" stroke="#FFFFFF" stroke-width="0.283"></path>
                <path d="M32.4953168,58.3710494 L31.8780218,58.9714769" id="Stroke-17" stroke="#FFFFFF" stroke-width="0.283"></path>
                <path d="M30.6124446,60.2026389 L5.93179946,84.2123941" id="Stroke-19" stroke="#FFFFFF" stroke-width="0.283" stroke-dasharray="6.49,6.49"></path>
                <path d="M5.29888846,84.8279479 L4.68159347,85.4283754" id="Stroke-21" stroke="#FFFFFF" stroke-width="0.283"></path>
                <path d="M26.7821415,51.5696502 L2.55746211,75.8748581" id="Stroke-23" stroke="#FFFFFF" stroke-width="0.283"></path>
            </g>
        </g>
    </g>
</svg>