<?xml version="1.0" encoding="UTF-8"?>
<svg width="90px" height="90px" viewBox="0 0 90 90" version="1.1" xmlns="http://www.w3.org/2000/svg" xmlns:xlink="http://www.w3.org/1999/xlink">
    <!-- Generator: Sketch 55 (78076) - https://sketchapp.com -->
    <title>编组 13</title>
    <desc>Created with Sketch.</desc>
    <g id="官网h5" stroke="none" stroke-width="1" fill="none" fill-rule="evenodd">
        <g id="ONT-ID-2.0-Landingpage" transform="translate(-375.000000, -2495.000000)">
            <g id="编组-13" transform="translate(375.000000, 2495.000000)">
                <circle id="椭圆形" fill="#000000" cx="45" cy="45" r="45"></circle>
                <path d="M74.5313386,52.1432469 C75.4837802,53.098252 75.4837802,55.0034283 74.5313386,55.9530135 L58.8357535,73.5511381 C58.8222769,73.5662993 58.8088736,73.5802885 58.7948111,73.594644 C58.5525259,73.8375152 58.0707386,74.4563386 57.3400011,74.7427156 C56.3272079,75.2609042 55.0883892,74.9765047 54.4031352,74.0681549 L49.8996184,68.040834 L46.9089926,64.0530888 C46.0672932,63.2088259 45.972298,61.9952025 46.6163167,61.0670773 C46.7644857,60.8413448 46.9513266,60.6430782 47.1679038,60.4817256 L47.1764731,60.4751338 C47.3404624,60.3529658 47.5195396,60.2528437 47.7095299,60.1778437 C48.3326746,59.9177606 49.0396084,59.9509393 49.6355802,60.2685175 C49.9539641,60.4296504 50.2306731,60.6621944 50.4441009,60.9483517 L55.9615828,68.3335098 L70.721572,52.1432469 C72.150088,51.1905123 73.578604,51.1905123 74.5313386,52.1432469 Z M62.1490844,55.0034283 C61.1963498,55.9558699 59.2923454,55.9558699 58.3365346,55.0034283 C54.0501077,51.1936617 48.8118984,48.8124111 43.0969555,48.8124111 C30.7152873,48.8124111 20.7143569,59.288903 20.7143569,71.6711572 C20.7143569,73.5760405 19.7619153,74.5284821 17.857032,74.5284821 C15.9524417,74.5284821 15,73.5760405 15,71.6711572 C15,59.7644647 22.6217305,49.2884854 32.622734,45.478792 C28.3366734,42.62176 25.9554227,37.3826718 25.9554227,32.1443892 C25.9554227,22.61946 33.5754687,15 43.0998119,15 C52.6244482,15 60.2444941,22.61946 60.2439081,32.1443892 C60.2439081,37.3826718 57.8627308,42.1450998 54.0529642,45.478792 C56.9108751,46.4312337 59.7678338,48.3363367 62.1490844,51.1936617 C63.1015261,52.1461033 63.1015261,54.0506937 62.1490844,55.0034283 Z M43.5758863,43.0975414 C49.7674162,43.0975414 55.0056988,37.8592588 55.0056988,31.6680219 C55.0056988,25.476492 49.7669035,20.2382826 43.5758863,20.2382826 C37.3852353,20.2382826 32.1463667,25.476492 32.1463667,31.6680219 C32.1463667,37.8592588 37.3852353,43.0975414 43.5758863,43.0975414 Z" id="形状结合" fill="#FFFFFF"></path>
            </g>
        </g>
    </g>
</svg>