<?xml version="1.0" encoding="UTF-8"?>
<svg width="90px" height="90px" viewBox="0 0 90 90" version="1.1" xmlns="http://www.w3.org/2000/svg" xmlns:xlink="http://www.w3.org/1999/xlink">
    <!-- Generator: Sketch 55 (78076) - https://sketchapp.com -->
    <title>编组 12</title>
    <desc>Created with Sketch.</desc>
    <g id="官网h5" stroke="none" stroke-width="1" fill="none" fill-rule="evenodd">
        <g id="ONT-ID-2.0-Landingpage" transform="translate(-735.000000, -2495.000000)">
            <g id="编组-12" transform="translate(735.000000, 2495.000000)">
                <circle id="椭圆形复制" fill="#000000" cx="45" cy="45" r="45"></circle>
                <path d="M45.2978557,75 C36.589493,75 20.25,61.2273449 20.25,49.001024 L20.25,23.8549843 L21.2148225,23.8396239 C21.2581107,23.8396239 27.5047143,23.7203193 33.9657519,21.1122877 C40.4438954,18.4936959 44.6815213,15.4451885 44.7230641,15.4159515 L45.2978557,15 L45.8880076,15.4244172 C45.900226,15.4333192 50.0737923,18.4609678 56.6333631,21.1122877 C63.1012082,23.7219775 69.3581102,23.8392748 69.4187661,23.8392748 L70.3440531,23.8549843 L70.3559225,49.0030313 C70.3542642,61.2290031 54.0076147,75 45.2978557,75 Z M44.3726559,17.9741492 C42.7345087,19.014988 39.3011197,21.0362714 34.7079365,22.8969692 C30.4856709,24.598827 26.4155253,25.2998179 23.7454413,25.5881737 L22.20382,25.7539085 L22.20382,49.0030313 C22.20382,60.4834149 38.4140591,73.0738461 45.2978557,73.0738461 C52.1813031,73.0738461 68.3932877,60.4834149 68.3932877,49.0030313 L68.3932877,25.7539085 L66.8520155,25.5881737 C64.1799242,25.2998179 60.1096913,24.598827 55.8911786,22.895311 C51.5564159,21.141612 48.2389277,19.2515899 46.2197389,17.972491 L45.2944519,17.3870519 L44.3726559,17.9741492 Z M34.9357236,49.2567391 L36.1889019,47.7879922 L43.4698858,53.951772 L57.3011896,38.0991849 L58.7753475,39.3711272 L43.6839708,56.6702934 L34.9357236,49.2567391 Z" id="Fill-3" stroke="#FFFFFF" stroke-width="4" fill="#FFFFFF"></path>
            </g>
        </g>
    </g>
</svg>