<?xml version="1.0" encoding="UTF-8"?>
<svg width="90px" height="90px" viewBox="0 0 90 90" version="1.1" xmlns="http://www.w3.org/2000/svg" xmlns:xlink="http://www.w3.org/1999/xlink">
    <!-- Generator: Sketch 55.2 (78181) - https://sketchapp.com -->
    <title>2</title>
    <desc>Created with Sketch.</desc>
    <g id="官网主页" stroke="none" stroke-width="1" fill="none" fill-rule="evenodd">
        <g id="ONT-ID-2.0-Landingpage" transform="translate(-735.000000, -2495.000000)">
            <g id="2" transform="translate(735.000000, 2495.000000)">
                <circle id="椭圆形复制" fill="#000000" cx="45" cy="45" r="45"></circle>
                <g id="编组" transform="translate(13.000000, 10.000000)" fill="#FFFFFF">
                    <path d="M18.5299436,44.7812327 L20.9388536,43.4928659 L30.2037169,48.6468721 L30.2037169,35.9457011 L28.3507008,35.025131 L19.0859461,29.6870108 L19.0859461,40.1795686 L17.0472702,41.2838213 L9.26475465,36.8658398 L0,42.0202773 L0,52.6966256 L9.26475465,57.8510632 L18.5299436,52.6966256 L18.5299436,44.7812327 Z M46.8806444,41.2838213 L45.0273026,40.1795686 L45.0273026,29.6870108 L33.9095319,35.9457011 L33.9095319,48.6468721 L43.1742865,43.4928659 L45.5833051,44.7812327 L45.5833051,52.6966256 L54.8480598,57.8510632 L64.1132487,52.6966256 L64.1132487,42.0202773 L54.8480598,36.8658398 L46.8806444,41.2838213 Z M46.8806444,8.14987673 L46.8806444,16.6176117 L56.7009673,21.9557319 L56.7009673,31.5277196 L57.6276382,32.0800616 L64.1132487,35.7615871 L64.1132487,17.5377504 L46.8806444,8.14987673 Z M41.321379,56.562265 L32.0566244,61.5325886 L22.7918697,56.562265 L21.3091963,57.4828351 L15.1942541,60.7960247 L32.0566244,69.9997843 L48.9185603,60.7960247 L42.8036182,57.4828351 L41.321379,56.562265 Z M7.41184715,31.5277196 L7.41184715,21.9557319 L17.2326043,16.6176117 L17.2326043,8.14987673 L0,17.5377504 L0,35.7615871 L6.48550197,32.0800616 L7.41184715,31.5277196 Z M20.9388536,26.5578274 L32.0566244,32.8160863 L33.9095319,31.7118336 L43.1742865,26.5578274 L33.9095319,21.4033898 L33.9095319,20.1150231 L41.321379,15.8811556 L41.321379,5.38848998 L32.0566244,0.0503697997 L22.7918697,5.38848998 L22.7918697,15.8811556 L30.2037169,20.1150231 L30.2037169,21.4033898 L20.9388536,26.5578274 Z" id="Fill-1"></path>
                </g>
            </g>
        </g>
    </g>
</svg>