<?xml version="1.0" encoding="UTF-8"?>
<svg width="94px" height="71px" viewBox="0 0 94 71" version="1.1" xmlns="http://www.w3.org/2000/svg" xmlns:xlink="http://www.w3.org/1999/xlink">
    <!-- Generator: Sketch 55.2 (78181) - https://sketchapp.com -->
    <title>编组</title>
    <desc>Created with Sketch.</desc>
    <g id="页面1" stroke="none" stroke-width="1" fill="none" fill-rule="evenodd">
        <g id="ONT-ID-2.0-Landingpage" transform="translate(-715.000000, -2516.000000)">
            <g id="编组" transform="translate(715.500000, 2516.793651)">
                <g transform="translate(22.872378, 9.300834)" fill="#000000">
                    <path d="M4.91815227,9.29597675 L4.91815227,34.7883981 C4.94025367,35.197274 5.77445297,46.1698474 26.1010579,51.8385991 C27.1287729,51.5790362 30.8690491,50.5456673 34.9022974,48.3082862 C40.9963726,44.9270292 44.9746243,40.3355921 46.4222659,35.0150659 C46.4330596,34.0647058 46.4330596,29.130954 46.4276628,9.2905799 L26.1398638,5.15761836 L4.91815227,9.29597675 Z M26.0458044,56.8001061 C25.8304442,56.8001061 25.6148271,56.7726079 25.399467,56.7117005 L25.1010981,56.6289488 C1.01185857,50.0265414 0.0671522727,35.5729977 0.039654021,34.9598124 C0.039654021,34.937711 0.039654021,34.8547023 0.0340001748,34.8382547 L0.0340001748,7.28500647 C0.0340001748,6.11928619 0.862802622,5.11367255 2.0064215,4.88700472 L25.6865281,0.268069406 C26.0016016,0.207419056 26.3277257,0.207419056 26.6425421,0.273723252 L49.3612379,4.90370927 C50.49946,5.13577395 51.3118149,6.13573374 51.3118149,7.29605717 L51.3118149,8.31246451 C51.3172117,35.4293386 51.3172117,35.4293386 51.2619582,35.7662565 C51.2563044,35.7940117 51.2288061,35.932274 51.2231523,35.9651691 C49.4388498,42.7942442 44.6263988,48.5015449 37.2725439,52.578996 C32.1067274,55.446524 27.4104372,56.5569907 26.8910544,56.6731516 L26.5651872,56.7448526 C26.3937729,56.7836586 26.2169617,56.8001061 26.0458044,56.8001061 L26.0458044,56.8001061 Z" id="Fill-1"></path>
                    <path d="M12.6531535,35.6946068 C11.9238073,35.6946068 11.200115,35.3684827 10.7195381,34.7442467 C9.89613252,33.6779827 10.0893913,32.1419355 11.1613091,31.3187869 L20.8689629,23.815876 C21.9074717,23.0145719 23.3936622,23.1749355 24.2391692,24.185946 L28.2336115,28.9816925 L37.1787671,21.8599023 C38.2339804,21.0200491 39.7700276,21.1968603 40.6096238,22.2520736 C41.4494769,23.3075439 41.2726657,24.8433341 40.2174524,25.6831872 L29.4049857,34.291168 C28.3662199,35.1145736 26.857928,34.9652607 26.0070241,33.9431995 L21.9904804,29.1199547 L14.1449979,35.1806208 C13.6973161,35.5288463 13.1725364,35.6946068 12.6531535,35.6946068" id="Fill-3"></path>
                </g>
                <path d="M36.6319948,44.2253083 C35.9026486,44.2253083 35.1789563,43.8994412 34.6983794,43.2749482 C33.8749738,42.2086842 34.0684895,40.672894 35.1401504,39.8494884 L44.8478042,32.3465775 C45.886313,31.5455303 47.3725035,31.705637 48.2180105,32.7166475 L52.2124528,37.512394 L61.1576084,30.3906038 C62.2128217,29.5507506 63.7488689,29.7275618 64.5884651,30.7830321 C65.4285752,31.8382454 65.251507,33.3742926 64.1962937,34.2138887 L53.383827,42.8221265 C52.3453182,43.6452751 50.8367693,43.4962192 49.9858654,42.473901 L45.9693217,37.6506562 L38.1238392,43.7115793 C37.6761574,44.0595478 37.1513777,44.2253083 36.6319948,44.2253083 L36.6319948,44.2253083 Z M28.8970193,17.8267296 L28.8970193,43.319408 C28.9191207,43.7280268 29.75332,54.7008573 50.0799249,60.369352 C51.1076399,60.1097891 54.8479161,59.0766772 58.8811644,56.8390391 C64.9752395,53.4575251 68.9534913,48.866345 70.4008759,43.5458188 C70.4119266,42.5954587 70.4119266,37.6617069 70.4065298,17.8213328 L50.1187308,13.6886282 L28.8970193,17.8267296 Z M50.0246714,65.330859 C49.8090542,65.330859 49.5936941,65.3033608 49.378334,65.2424534 L49.0799651,65.1597017 C24.9907256,58.5572943 24.0460193,44.1037506 24.018264,43.4905653 C24.018264,43.4684639 24.018264,43.3854552 24.0128672,43.3690076 L24.0128672,15.8157594 C24.0128672,14.6497821 24.8416696,13.6444254 25.9852885,13.4180146 L49.6653951,8.7988223 C49.9804686,8.73817195 50.3063357,8.73817195 50.6214091,8.80447615 L73.3403619,13.4344622 C74.478584,13.6665268 75.2906819,14.6664866 75.2906819,15.8268101 L75.2906819,16.8434744 C75.2960787,43.9600915 75.2960787,43.9600915 75.2408252,44.2972664 C75.2354284,44.3247646 75.2076731,44.4630268 75.2020193,44.4961789 C73.4177168,51.3249971 68.6052658,57.0322978 61.2514109,61.1097489 C56.0855944,63.9772768 51.3893042,65.0877436 50.8699214,65.2039045 L50.5440542,65.2756055 C50.3726399,65.3144115 50.1958287,65.330859 50.0246714,65.330859 L50.0246714,65.330859 Z" id="Fill-5备份" fill="#FFFFFF" opacity="0.2"></path>
                <path d="M41.3008579,48.8455815 C40.5715117,48.8455815 39.8478194,48.5197143 39.3672425,47.8952213 C38.5438369,46.8289573 38.7373526,45.2931671 39.8090135,44.4697615 L49.5166673,36.9668507 C50.555176,36.1658035 52.0413666,36.3259101 52.8868736,37.3369206 L56.8813159,42.1326671 L65.8264715,35.0108769 C66.8816848,34.1710238 68.417732,34.347835 69.2573281,35.4033052 C70.0974383,36.4585185 69.9203701,37.9945657 68.8651568,38.8341619 L58.05269,47.4423997 C57.0141813,48.2655483 55.5056323,48.1164923 54.6547285,47.0941741 L50.6381848,42.2709294 L42.7927023,48.3318524 C42.3450205,48.679821 41.8202407,48.8455815 41.3008579,48.8455815 L41.3008579,48.8455815 Z M33.5658823,22.4470028 L33.5658823,47.9396811 C33.5879837,48.3483 34.422183,59.3211304 54.7487879,64.9896252 C55.776503,64.7300622 59.5167792,63.6969503 63.5500274,61.4593122 C69.6441026,58.0777983 73.6223544,53.4866182 75.069739,48.166092 C75.0807897,47.2157318 75.0807897,42.2819801 75.0753928,22.4416059 L54.7875939,18.3089014 L33.5658823,22.4470028 Z M54.6935344,69.9511322 C54.4779173,69.9511322 54.2625572,69.9236339 54.047197,69.8627266 L53.7488281,69.7799748 C29.6595886,63.1775675 28.7148823,48.7240238 28.6871271,48.1108385 C28.6871271,48.0887371 28.6871271,48.0057283 28.6817302,47.9892808 L28.6817302,20.4360325 C28.6817302,19.2700552 29.5105327,18.2646986 30.6541516,18.0382878 L54.3342582,13.4190955 C54.6493316,13.3584451 54.9751988,13.3584451 55.2902722,13.4247493 L78.009225,18.0547353 C79.147447,18.2868 79.9595449,19.2867598 79.9595449,20.4470832 L79.9595449,21.4637476 C79.9649418,48.5803647 79.9649418,48.5803647 79.9096883,48.9175395 C79.9042914,48.9450378 79.8765362,49.0833 79.8708823,49.1164521 C78.0865799,55.9452703 73.2741288,61.652571 65.920274,65.730022 C60.7544575,68.59755 56.0581673,69.7080168 55.5387844,69.8241776 L55.2129173,69.8958787 C55.041503,69.9346846 54.8646918,69.9511322 54.6935344,69.9511322 L54.6935344,69.9511322 Z" id="Fill-5" fill="#FFFFFF"></path>
                <path d="M22.3301738,42.5077227 L0.550787413,63.5094483" id="Stroke-7" stroke="#FFFFFF" stroke-width="0.283"></path>
                <path d="M23.3581458,47.6475829 L22.7727157,48.2121965" id="Stroke-9" stroke="#FFFFFF" stroke-width="0.283"></path>
                <path d="M21.560454,49.3811549 L2.77041031,67.5001899" id="Stroke-11" stroke="#FFFFFF" stroke-width="0.283" stroke-dasharray="6.553,6.553"></path>
                <path d="M2.1643951,68.0847976 L1.57896503,68.6494112" id="Stroke-13" stroke="#FFFFFF" stroke-width="0.283"></path>
                <path d="M21.9416774,36.6652694 L0.0258277972,58.7137274" id="Stroke-15" stroke="#FFFFFF" stroke-width="0.283"></path>
                <path d="M91.211958,3.79110944 L73.976979,20.7169259" id="Stroke-17" stroke="#FFFFFF" stroke-width="0.236"></path>
                <path d="M93.5386956,7.38073636 L93.0560628,7.85463147" id="Stroke-19" stroke="#FFFFFF" stroke-width="0.236"></path>
                <path d="M92.0988923,8.79455769 L77.264485,23.3627203" id="Stroke-21" stroke="#FFFFFF" stroke-width="0.236" stroke-dasharray="5.22,5.22"></path>
                <path d="M76.786221,23.8325549 L76.3033311,24.30645" id="Stroke-23" stroke="#FFFFFF" stroke-width="0.236"></path>
                <path d="M88.7454163,0.0211762238 L69.167946,20.0776815" id="Stroke-25" stroke="#FFFFFF" stroke-width="0.236"></path>
            </g>
        </g>
    </g>
</svg>