<?xml version="1.0" encoding="UTF-8"?>
<svg width="90px" height="90px" viewBox="0 0 90 90" version="1.1" xmlns="http://www.w3.org/2000/svg" xmlns:xlink="http://www.w3.org/1999/xlink">
    <!-- Generator: Sketch 55.2 (78181) - https://sketchapp.com -->
    <title>3</title>
    <desc>Created with Sketch.</desc>
    <g id="官网主页" stroke="none" stroke-width="1" fill="none" fill-rule="evenodd">
        <g id="ONT-ID-2.0-Landingpage" transform="translate(-1095.000000, -2495.000000)">
            <g id="3" transform="translate(1095.000000, 2495.000000)">
                <circle id="椭圆形复制-2" fill="#000000" cx="45" cy="45" r="45"></circle>
                <path d="M27.6312523,49.6744676 L39.6548456,49.6744676 L35.4052547,68.0977272 L35.4303514,68.0977272 C35.4052547,68.2227223 35.3554276,68.3725089 35.3554276,68.497504 C35.3804632,69.372409 36.1303731,70.0474561 36.9802424,69.9973848 C37.4301517,69.9725323 37.8301117,69.7724302 38.1051377,69.4225414 L62.9776464,39.8254969 C63.0024989,39.8004612 63.0275345,39.7756698 63.0275345,39.7506341 L63.0275345,39.7255985 C63.2774638,39.4255368 63.4024589,39.0505514 63.4024589,38.6507745 C63.3774233,37.8256966 62.6775848,37.1509548 61.8527511,37.1509548 L61.727817,37.1509548 L51.7786426,37.0507511 L58.5780857,22.2022796 C58.6779841,21.977325 58.7281165,21.7273957 58.7281165,21.5024411 C58.7030198,20.6275361 57.95311,19.952489 57.1032406,20.0026214 L57.0531693,20.0026214 L38.9299714,20.0276571 L38.8550476,20.0276571 C38.2551685,20.0526927 37.7051166,20.4276782 37.480223,20.9774248 C37.480223,21.0275572 37.480223,21.0525929 37.4551874,21.0773843 L26.1313716,47.4998451 C26.0314731,47.699764 25.9813407,47.9496933 26.0063764,48.1746479 C26.0314731,49.0495529 26.7811387,49.7246 27.6312523,49.6744676 Z" id="Fill-1" fill="#FFFFFF"></path>
            </g>
        </g>
    </g>
</svg>