<?xml version="1.0" encoding="UTF-8"?>
<svg width="71px" height="90px" viewBox="0 0 71 90" version="1.1" xmlns="http://www.w3.org/2000/svg" xmlns:xlink="http://www.w3.org/1999/xlink">
    <!-- Generator: Sketch 55.2 (78181) - https://sketchapp.com -->
    <title>编组</title>
    <desc>Created with Sketch.</desc>
    <g id="页面1" stroke="none" stroke-width="1" fill="none" fill-rule="evenodd">
        <g id="ONT-ID-2.0-Landingpage" transform="translate(-1090.000000, -2516.000000)">
            <g id="编组" transform="translate(1091.000000, 2516.793651)">
                <path d="M17.7337454,34.4357616 L17.5347756,34.6197204 C16.1257984,35.7802796 15.7711258,37.7643856 16.6923915,39.3334805 L27.6530979,58.0289919 C28.254128,59.0529801 29.3207947,59.662546 30.5116703,59.662546 L54.2918028,59.662546 C56.1154967,59.662546 57.6098308,58.1679176 57.6207211,56.329507 L57.7811332,30.7754231 C57.7811332,29.6575423 56.9428698,28.7212656 55.8291096,28.6100074 L39.8829728,27.5089036 C37.582752,27.3508462 35.7940839,25.415894 35.8155703,23.1006623 L35.9374246,10.5108168 C35.9459603,9.60220751 35.6015894,8.74922737 34.9646505,8.11022811 C34.3359529,7.47505519 33.4979838,7.12450331 32.6088006,7.12450331 C30.7359529,7.12450331 29.2327888,8.62737307 29.2327888,10.476674 L29.2327888,44.7571744 L22.5478734,35.1368653 C21.4812068,33.6684327 19.2322001,33.3025754 17.7337454,34.4357616 L17.7337454,34.4357616 Z M54.2918028,64.0428256 L30.5116703,64.0428256 C27.7923179,64.0428256 25.2480942,62.584989 23.8756144,60.2441501 L12.9125533,41.5483444 C10.9372774,38.1767476 11.6448565,33.9377483 14.5826049,31.384989 L14.8260191,31.1521707 C17.6842973,28.7980868 22.092833,28.883738 24.8545695,31.2375276 L24.8545695,10.476674 C24.8545695,6.2138337 28.3224135,2.74422369 32.5852539,2.74422369 C34.6762031,2.74422369 36.6182193,3.55629139 38.0763503,5.02531273 C39.5409566,6.50463576 40.3362472,8.46931567 40.3168212,10.5534952 L40.1952612,23.1433407 L56.1993819,24.2488595 C59.6260191,24.588521 62.1593525,27.4 62.1593525,30.7863135 L61.9992347,56.3548197 C61.971273,60.5923473 58.5143194,64.0428256 54.2918028,64.0428256 Z" id="Fill-1" fill="#000000"></path>
                <path d="M17.1711473,36.4233407 L16.9721775,36.6070052 C15.5634946,37.7678587 15.2085277,39.7519647 16.1300877,41.3210596 L27.0907941,60.016571 C27.6915299,61.0405592 28.7584909,61.6501251 29.9493666,61.6501251 L53.729499,61.6501251 C55.5531929,61.6501251 57.0472327,60.1554967 57.058123,58.3170861 L57.2188294,32.7630022 C57.2188294,31.6451214 56.380566,30.7088447 55.2668059,30.5975865 L39.3203747,29.4964827 C37.0201539,29.3384253 35.2317801,27.4034731 35.2532665,25.0882414 L35.3748265,12.4983959 C35.3833622,11.5897866 35.0392857,10.7368065 34.4020524,10.0978072 C33.7736492,9.46263429 32.9356801,9.11208241 32.0462025,9.11208241 C30.1736492,9.11208241 28.6704851,10.6149522 28.6704851,12.4642531 L28.6704851,46.7447535 L21.9852753,37.1244444 C20.9186087,35.6557174 18.6698964,35.2901545 17.1711473,36.4233407 M53.729499,66.0304047 L29.9493666,66.0304047 C27.2300141,66.0304047 24.6857904,64.5725681 23.3133107,62.2314349 L12.3502496,43.5359235 C10.3749737,40.1643267 11.0825528,35.9250331 14.0200068,33.3725681 L14.2637154,33.1397498 C17.1219935,30.7856659 21.5305292,30.8713171 24.2922658,33.2251067 L24.2922658,12.4642531 C24.2922658,8.2014128 27.7601098,4.73150846 32.0229501,4.73150846 C34.113605,4.73150846 36.0559155,5.54387049 37.5140465,7.01289183 C38.9786528,8.49221486 39.7739435,10.4566004 39.7545174,12.5410743 L39.6326631,25.1309198 L55.6367838,26.2361442 C59.0637154,26.5761001 61.5970487,29.3875791 61.5970487,32.7738926 L61.4366366,58.3423988 C61.4089692,62.5799264 57.9520156,66.0304047 53.729499,66.0304047" id="Fill-3备份-2" fill="#FFFFFF" opacity="0.2"></path>
                <path d="M22.1185578,36.8914496 L21.9195879,37.0751141 C20.5109051,38.2359676 20.1559382,40.2200736 21.0774982,41.7891685 L32.0382046,60.4846799 C32.6389404,61.5086681 33.7059014,62.118234 34.896777,62.118234 L58.6769095,62.118234 C60.5006034,62.118234 61.9946431,60.6236056 62.0055335,58.785195 L62.1662399,33.2311111 C62.1662399,32.1132303 61.3279765,31.1769536 60.2142163,31.0656954 L44.2677851,29.9645916 C41.9675644,29.8065342 40.1791906,27.871582 40.200677,25.5563503 L40.3222369,12.9665048 C40.3307726,12.0578955 39.9866961,11.2049154 39.3494628,10.5659161 C38.7210596,9.93074319 37.8830905,9.58019132 36.993613,9.58019132 C35.1210596,9.58019132 33.6178955,11.0830611 33.6178955,12.932362 L33.6178955,47.2128624 L26.9326858,37.5925533 C25.8660191,36.1238263 23.6173068,35.7582634 22.1185578,36.8914496 M58.6769095,66.4985136 L34.896777,66.4985136 C32.1774246,66.4985136 29.6332009,65.040677 28.2607211,62.6995438 L17.29766,44.0040324 C15.3223841,40.6324356 16.0299632,36.393142 18.9674172,33.840677 L19.2111258,33.6078587 C22.069404,31.2537748 26.4779397,31.339426 29.2396762,33.6932156 L29.2396762,12.932362 C29.2396762,8.66952171 32.7075202,5.19961737 36.9703606,5.19961737 C39.0610155,5.19961737 41.003326,6.0119794 42.461457,7.48100074 C43.9260633,8.96032377 44.7213539,10.9247093 44.7019279,13.0091832 L44.5800736,25.5990287 L60.5841943,26.7042531 C64.0111258,27.044209 66.5444592,29.855688 66.5444592,33.2420015 L66.3840471,58.8105077 C66.3563797,63.0480353 62.899426,66.4985136 58.6769095,66.4985136" id="Fill-3" fill="#FFFFFF"></path>
                <path d="M67.067167,4.34210449 L44.7637086,26.2329065" id="Stroke-5" stroke="#FFFFFF" stroke-width="0.236"></path>
                <path d="M69.7319794,8.4533039 L69.1786313,8.99576159" id="Stroke-7" stroke="#FFFFFF" stroke-width="0.236"></path>
                <path d="M68.1085504,10.0448271 L49.3838999,28.4036203" id="Stroke-9" stroke="#FFFFFF" stroke-width="0.236" stroke-dasharray="5.091,5.091"></path>
                <path d="M48.8489183,28.9280648 L48.2955703,29.4705224" id="Stroke-11" stroke="#FFFFFF" stroke-width="0.236"></path>
                <path d="M64.2422664,0.0244002943 L41.8201913,22.9951141" id="Stroke-13" stroke="#FFFFFF" stroke-width="0.236"></path>
                <path d="M25.2717292,63.5032524 L2.96827079,85.3940545" id="Stroke-15" stroke="#FFFFFF" stroke-width="0.236"></path>
                <path d="M27.9365416,67.6144518 L27.3831935,68.1569095" id="Stroke-17" stroke="#FFFFFF" stroke-width="0.236"></path>
                <path d="M26.3131126,69.205975 L7.5884621,87.5647682" id="Stroke-19" stroke="#FFFFFF" stroke-width="0.236" stroke-dasharray="5.091,5.091"></path>
                <path d="M7.0534805,88.0892127 L6.50013245,88.6316703" id="Stroke-21" stroke="#FFFFFF" stroke-width="0.236"></path>
                <path d="M22.4468286,59.1855188 L0.0247534952,82.1562325" id="Stroke-23" stroke="#FFFFFF" stroke-width="0.236"></path>
            </g>
        </g>
    </g>
</svg>