<?xml version="1.0" encoding="UTF-8"?>
<svg width="90px" height="90px" viewBox="0 0 90 90" version="1.1" xmlns="http://www.w3.org/2000/svg" xmlns:xlink="http://www.w3.org/1999/xlink">
    <!-- Generator: Sketch 55 (78076) - https://sketchapp.com -->
    <title>编组 11</title>
    <desc>Created with Sketch.</desc>
    <g id="官网h5" stroke="none" stroke-width="1" fill="none" fill-rule="evenodd">
        <g id="ONT-ID-2.0-Landingpage" transform="translate(-1095.000000, -2495.000000)">
            <g id="编组-11" transform="translate(1095.000000, 2495.000000)">
                <circle id="椭圆形复制-2" fill="#000000" cx="45" cy="45" r="45"></circle>
                <path d="M65.2070842,43.9065435 C65.1959233,43.315409 65.1495381,42.9189974 65.1037861,42.7819789 C65.028984,42.5386544 64.9183244,42.3076781 64.7760816,42.0968074 C64.641517,41.9047757 64.4909629,41.7248549 64.3264774,41.558153 C64.1462399,41.3738786 63.946451,41.2100264 63.730356,41.0696042 C63.4081133,40.8544591 63.051042,40.6964644 62.6750526,40.6030607 C62.4304616,40.5406069 61.8549998,40.45219 61.0761872,40.3612401 L45.7787201,39.1278364 C44.7453428,39.0446438 43.9491159,38.1816887 43.9491159,37.1449077 L43.9491159,23.8112137 C43.9491159,20.8336148 42.9176383,19.7291557 40.2641027,19.7291557 C37.6717544,19.7291557 36.6151845,20.9993668 36.6534959,24.4716887 L36.6534959,48.4935356 C36.6534959,50.4041161 34.2216753,51.216095 33.0736014,49.688628 C32.0068204,48.2693668 31.2270579,47.3396042 30.8049998,46.9598945 C29.256794,45.5657256 27.4816489,45.3162269 26.0534431,46.1000264 C25.5207254,46.3925858 25.1642083,46.7168865 24.7272689,47.3306596 C23.8062135,48.6224802 24.1317808,50.6907388 26.1721766,53.8248285 L36.284947,70.4447493 L36.6461344,70.8773351 C36.7453956,70.9982058 36.8545513,71.1057784 36.9747887,71.2029024 C37.2153428,71.396438 37.4902505,71.5427177 37.7851845,71.633905 C37.8603824,71.6583641 38.0498811,71.6898681 38.3269259,71.7136939 C38.4868204,71.7269921 38.8225988,71.7409235 39.262546,71.7520844 L60.1763455,71.7520844 C60.7063718,71.7254881 61.0693798,71.7003958 61.2353692,71.679657 C61.3825988,71.6620844 61.5189048,71.6385752 61.6642346,71.6067546 C61.7597755,71.5860158 62.0943666,71.5059103 62.1549207,71.4916623 C62.3980077,71.4387863 62.594947,71.3711082 62.7980605,71.2796042 C62.875079,71.2446174 62.9514642,71.2075726 63.0265829,71.1691821 L63.3052109,71.0269393 C63.6205671,70.8698945 64.0051845,70.5647493 64.2822294,70.2626121 C64.4223349,70.1101583 64.6579813,69.7351187 64.8119391,69.4079683 C64.9829154,69.0446438 65.1428098,68.0447493 65.2070842,66.536438 L65.2070842,43.9065435 Z M32.6744193,24.4945646 C32.6137861,18.9679156 35.2902769,15.75 40.2641027,15.75 C45.177612,15.75 47.9282716,18.6939578 47.9282716,23.8112137 L47.9282716,35.3095251 L61.4629418,36.4022691 C62.4783507,36.5179156 63.1910684,36.6276253 63.6610948,36.7485752 C64.4578758,36.9486016 65.2153956,37.2819261 65.9012795,37.7346174 C66.3610156,38.0335884 66.7846568,38.3813984 67.1699075,38.7756728 C67.5001449,39.1130343 67.7919919,39.4639314 68.0455275,39.8285224 C68.4079813,40.3553826 68.6908837,40.9326649 68.8853692,41.5417678 C69.0798547,42.135752 69.1676383,42.8778364 69.1862399,43.8688654 L69.1862399,66.5775198 C69.1005935,68.6866227 68.8730209,70.1240897 68.4122558,71.1021372 C68.1006199,71.7653034 67.657823,72.4697098 67.2135222,72.953905 C66.6269787,73.5926913 65.8651054,74.1962533 65.0831265,74.5868074 L64.8230209,74.7194723 C64.6844985,74.7893668 64.5636278,74.847467 64.4346832,74.9065172 C63.9792215,75.1127968 63.5034167,75.2707916 63.0148679,75.3774142 C63.0090104,75.3786807 62.6595381,75.4627441 62.5006726,75.4974142 C62.2434167,75.5527441 61.9892478,75.5960422 61.7156067,75.6300792 C61.4230473,75.6653034 60.9707518,75.6965699 60.3229418,75.7287071 L39.2156067,75.7302111 C38.8065302,75.7243536 38.3980869,75.7070185 37.9901977,75.6786016 C37.4453692,75.6322164 36.9865829,75.5543272 36.5901713,75.429657 C35.8221238,75.1887863 35.1056858,74.8063061 34.478298,74.3023219 C34.1480605,74.0358047 33.8460025,73.7368338 33.5763191,73.4090501 C33.4322558,73.2353034 33.2872426,73.0621108 33.1415961,72.8896306 C33.0763718,72.8119789 33.0173217,72.7294195 32.9647623,72.6428232 L22.8052901,55.9453298 C20.0030209,51.6436939 19.4179813,47.9236939 21.4865565,45.0212137 C22.2623613,43.93219 23.0662663,43.2012665 24.1392215,42.6119525 C26.812546,41.1438522 30.0267412,41.4255673 32.6750526,43.3583113 L32.6750526,24.4945646 L32.6744193,24.4945646 Z" id="Fill-1" stroke="#FFFFFF" stroke-width="2" fill="#FFFFFF"></path>
            </g>
        </g>
    </g>
</svg>