<?xml version="1.0" encoding="UTF-8"?>
<svg width="90px" height="90px" viewBox="0 0 90 90" version="1.1" xmlns="http://www.w3.org/2000/svg" xmlns:xlink="http://www.w3.org/1999/xlink">
    <!-- Generator: Sketch 55.2 (78181) - https://sketchapp.com -->
    <title>4</title>
    <desc>Created with Sketch.</desc>
    <g id="官网主页" stroke="none" stroke-width="1" fill="none" fill-rule="evenodd">
        <g id="ONT-ID-2.0-Landingpage" transform="translate(-1455.000000, -2495.000000)">
            <g id="4" transform="translate(1455.000000, 2495.000000)">
                <circle id="椭圆形复制-3" fill="#000000" cx="45" cy="45" r="45"></circle>
                <g id="编组-9" transform="translate(17.000000, 17.000000)">
                    <path d="M27.9365652,-2.48689958e-13 C12.5070987,-2.48689958e-13 1.13686838e-13,12.4991181 1.13686838e-13,27.9155566 C1.13686838e-13,42.1577686 10.6713082,53.9095152 24.4610865,55.6152302 C25.2383337,55.7796833 26.1852862,55.8758587 27.3131303,55.8758587 C27.6192546,55.8758587 27.9253788,55.8595566 28.2299342,55.8281121 C43.5235274,55.6725262 55.8771547,43.2368429 55.8771547,27.9155566 C55.8771547,12.4991181 43.3657588,-2.48689958e-13 27.9365652,-2.48689958e-13 Z M23.5333691,53.1242875 C11.5098076,51.0250037 2.37027258,40.5433861 2.37027258,27.9277661 C2.36891596,26.1554105 2.55199026,24.3875566 2.91595615,22.652989 C4.0219732,23.834173 6.62750792,23.8062071 7.26137881,22.0391035 C8.3985676,22.7166967 9.92686967,22.8387235 9.92686967,24.1943873 C9.92686967,28.6639513 10.0859342,33.4559415 14.1486967,33.5297442 C14.2619245,33.5297442 16.4118197,34.3485311 17.4357808,36.9983337 C17.7898563,37.9173203 19.1892424,36.9983337 20.7245018,36.9983337 C21.491313,36.9983337 20.7245018,38.2905627 20.7245018,41.0815591 C20.7245018,43.8728283 26.720799,48.1452667 26.720799,48.1452667 C26.6928331,49.9871961 26.7671815,51.4739586 26.9214714,52.6638733 C25.5684677,52.6385676 24.4248672,52.8186407 23.5333691,53.1242875 Z M34.2712497,52.725944 C34.1391279,52.0763849 33.5569598,51.7201267 32.4975981,51.9993764 C33.3427138,48.3996882 33.7536078,46.3843021 35.5192789,44.8525213 C38.070246,42.6413057 35.8187868,40.1783289 33.8804093,40.4682192 C32.3486285,40.7010865 33.3161121,38.5738368 31.950285,38.4549476 C30.5845262,38.3363995 28.79962,35.623503 26.8332765,34.6869184 C25.7896029,34.1929452 24.7661876,32.8657929 23.1565798,32.8058368 C21.7314105,32.7485408 19.6491108,34.0115079 19.6491108,33.0384312 C19.6491108,29.9104117 19.3312546,27.6765505 19.2662509,26.7855298 C19.2137978,26.0690572 18.7984019,26.5446821 20.7250475,26.5897004 C21.7729501,26.6176663 21.2613788,24.483732 22.3004823,24.401676 C23.3183045,24.3211888 25.7477223,25.3568819 26.3667235,24.9428502 C26.9432984,24.5586261 30.5933252,34.5265579 30.5933252,26.5897004 C30.5933252,25.6488867 30.1041267,24.0121315 30.5933252,23.1198149 C32.5212667,19.5966577 34.3258855,16.7236054 34.1649793,16.3026163 C34.07276,16.0673618 32.1911328,15.8715323 30.6854762,16.376419 C30.178475,16.5469428 30.8477467,17.3417199 30.1177004,17.5109476 C27.384,18.1434543 24.9687016,16.7742168 25.8140901,15.4886041 C26.6805554,14.1718879 29.819011,14.9141437 30.0932132,12.2697296 C30.250095,10.7552741 30.3831035,9.00181242 30.4704799,7.69860171 C34.1505871,8.27388063 33.7452862,2.92291352 28.2749525,2.35111328 C39.3411937,2.48002923 48.7189086,9.62661145 52.1594641,19.5441364 C51.9916005,19.3853447 51.7755128,19.2870548 51.5455786,19.2644093 C49.8931352,15.1339829 45.8780512,18.1242875 47.2398538,21.7676297 C39.947849,27.3791571 41.815084,31.2919269 44.2106699,33.5311084 C45.4733642,34.7079951 46.6747381,36.4793276 47.4594202,37.7510256 C46.6073471,40.2364434 50.5978758,39.2422899 52.5682436,35.021827 C50.0378076,43.748687 43.076687,50.4841023 34.2712497,52.725944 Z" id="Fill-1" fill="#FFFFFF"></path>
                    <circle id="椭圆形" stroke="#FFFFFF" stroke-width="5" cx="28" cy="28" r="28"></circle>
                </g>
            </g>
        </g>
    </g>
</svg>