<?xml version="1.0" encoding="UTF-8"?>
<svg width="70px" height="94px" viewBox="0 0 70 94" version="1.1" xmlns="http://www.w3.org/2000/svg" xmlns:xlink="http://www.w3.org/1999/xlink">
    <!-- Generator: Sketch 55.2 (78181) - https://sketchapp.com -->
    <title>编组</title>
    <desc>Created with Sketch.</desc>
    <defs>
        <polygon id="path-1" points="0 0.220684953 60.2328757 0.220684953 60.2328757 60.4533479 0 60.4533479"></polygon>
    </defs>
    <g id="页面1" stroke="none" stroke-width="1" fill="none" fill-rule="evenodd">
        <g id="ONT-ID-2.0-Landingpage" transform="translate(-1465.000000, -2512.000000)">
            <g id="编组" transform="translate(1465.000000, 2512.349206)">
                <g transform="translate(0.864198, 11.053050)">
                    <mask id="mask-2" fill="white">
                        <use xlink:href="#path-1"></use>
                    </mask>
                    <g id="Clip-2"></g>
                    <path d="M28.5420652,56.0812563 C29.121186,56.0754708 29.5955907,56.5403296 29.6013761,57.1197397 L29.6013761,57.1217646 L29.6013761,59.412792 C29.5967478,59.9916235 29.1240787,60.4573501 28.5452472,60.4533265 L24.37685,60.4533265 C22.3681512,60.4533265 20.7294302,58.9132207 20.6328137,56.9412594 L20.0201374,52.5223534 C18.1945472,51.7618596 16.4673093,50.7835446 14.8766073,49.6085252 L10.6983749,51.288612 C9.86903456,51.7123942 8.9124149,51.8147962 8.01191384,51.5764368 C7.05298001,51.3285314 6.23260706,50.7083341 5.73245726,49.8535379 L0.505906297,40.939937 C-0.498443101,39.2326587 0.0364192365,37.0665964 1.7217129,35.9905078 L5.29768273,33.2615238 C5.03820652,31.3208038 5.03820652,29.3543386 5.29768273,27.4136185 L1.72286998,24.6866594 C0.0468329976,23.6400765 -0.493525492,21.4508725 0.502724314,19.744462 L5.73245726,10.8236293 C6.73246759,9.11432615 8.90605093,8.48516142 10.6902753,9.38334831 L14.8734253,11.0637244 C16.4644166,9.88783718 18.1919438,8.90865437 20.0181125,8.147582 L20.6296317,3.73388295 C20.7262483,1.76192159 22.3649693,0.220684953 24.3736681,0.220684953 L34.8270592,0.220684953 C36.8354688,0.220684953 38.4753469,1.76307867 38.5687814,3.73590785 L39.1791436,8.1536567 C41.0093621,8.91212563 42.7400713,9.89044062 44.3333767,11.0677742 L48.5110305,9.38768738 C49.3423958,8.96564079 50.3001725,8.86439589 51.2009629,9.10420166 C52.1564254,9.35326411 52.9736164,9.97317217 53.4711628,10.8259435 L58.6896141,19.738098 C59.6922279,21.4433514 59.1562085,23.6366052 57.48075,24.6878165 L53.9042017,27.4147756 C54.1619422,29.3554956 54.1619422,31.3216716 53.9042017,33.2623917 L55.7089643,34.6384545 L49.1789576,34.6384545 L49.3285108,33.8180815 C49.7705171,31.5192438 49.7705171,29.1570556 49.3285108,26.8582179 L49.0915977,25.5547621 L54.5417553,21.3988037 L49.8758118,13.4354584 L43.5618906,16.1065882 L42.5303497,15.2445602 C40.7114128,13.733697 38.6382065,12.5583883 36.4073475,11.7741743 L35.141497,11.3243577 L34.1779348,4.20655199 L24.9903941,4.20655199 L24.057784,11.3171259 L22.7951155,11.7666532 C20.5645457,12.5549171 18.4910502,13.7313828 16.6700883,15.2413782 L15.6417294,16.0961744 L9.26763986,13.5312072 L4.65897205,21.3956217 L10.1140472,25.553605 L9.32462627,26.8582179 C9.10767292,28.0054672 9.1108549,32.6693858 9.32462627,33.8169244 L10.1076832,35.1192231 L4.65897205,39.2786528 L9.32578336,47.2373697 L15.6388367,44.5705791 L16.6709561,45.4305822 C18.4922072,46.939999 20.5662813,48.1150183 22.7971403,48.9012573 L24.0589411,49.3519417 L24.9903941,56.0812563 L28.5420652,56.0812563 Z M29.5961692,39.3336143 L29.5941443,43.837566 C22.4387334,43.837566 16.6157054,38.0116452 16.6157054,30.8542094 C16.6157054,23.6979307 22.4387334,17.8751919 29.597037,17.8751919 C36.7544729,17.8751919 42.5780854,23.6979307 42.5780854,30.8542094 C42.5795258,32.3662297 42.3157105,33.8669683 41.7982045,35.2875789 L36.8094344,35.2875789 C37.6355927,33.9563531 38.0735493,32.4209019 38.0744171,30.8542094 C38.0744171,26.1810341 34.2705016,22.3791436 29.597037,22.3791436 C24.9238618,22.3791436 21.1219712,26.1798771 21.1219712,30.8542094 C21.1219712,35.5294096 24.9206798,39.3336143 29.5961692,39.3336143 L29.5961692,39.3336143 Z M34.2650054,60.4533003 C33.9942476,60.4556144 33.7330358,60.3511876 33.538067,60.1625828 C33.3451232,59.9762922 33.2349109,59.7205765 33.2320182,59.4521329 L33.2320182,57.4448804 C33.2320182,56.676287 34.1935555,56.3792055 34.4646025,56.3815063 L59.1993099,56.3815063 C59.9262483,56.3815063 60.2305615,57.1770153 60.2328757,57.4448804 L60.2328757,59.451265 C60.2305615,59.7199979 60.1206385,59.9765814 59.9274053,60.1637399 C59.7324366,60.3517661 59.471514,60.4559037 59.2001777,60.4533003 L34.2641376,60.4533003 L34.2650054,60.4533003 Z M59.1993099,51.1141877 L34.4646025,51.1141877 C34.1935555,51.1162064 33.538067,50.6209742 33.2320182,50.0997076 L33.2320182,48.0557178 C33.2320182,47.6579699 34.1935555,47.0256232 34.4646025,47.0276412 L59.1993099,47.0276412 C59.471514,47.0256232 59.7330151,47.4699437 59.9262483,47.6579699 C60.1206385,47.8448391 60.2305615,48.1017119 60.2328757,48.3692877 L60.2328757,50.0994184 C60.2328757,50.7757343 59.8877752,51.1141877 59.1993099,51.1141877 L59.1993099,51.1141877 Z M59.3997748,42.7117227 L34.4657596,42.7117227 C34.1935555,42.7137476 33.7313002,42.9049558 33.538067,42.7169296 C33.3451232,42.5303497 33.2346216,42.2743447 33.2320182,42.0056119 L33.2320182,39.6460272 C33.2346216,39.3775836 33.3451232,39.1212893 33.538067,38.9347094 C33.7330358,38.7466832 33.9942476,38.6425456 34.2650054,38.645149 L59.1993099,38.645149 C59.4703569,38.6428349 59.7315688,38.7472617 59.9262483,38.9358665 C60.1206385,39.1227357 60.2305615,39.3781621 60.2328757,39.6460272 L60.2328757,42.0044548 C60.2305615,42.2734769 60.1206385,42.5300604 59.9274053,42.7169296 C59.7324366,42.9052451 59.471514,43.0090934 59.2001777,43.0068171 L59.3997748,42.7117227 Z" id="Fill-1" fill="#000000" mask="url(#mask-2)"></path>
                </g>
                <path d="M29.1916525,69.5931214 C29.7710626,69.587336 30.2454672,70.0521947 30.2509634,70.6316048 L30.2509634,70.6336297 L30.2509634,72.9246571 C30.246335,73.5034887 29.773666,73.9692152 29.1948344,73.9651916 L25.0264373,73.9651916 C23.0177385,73.9651916 21.3790175,72.4250859 21.282401,70.4531245 L20.6697247,66.0342186 C18.8441345,65.2737247 17.1171858,64.2954097 15.5261945,63.1201011 L11.3482515,64.8004772 C10.5189111,65.2242594 9.56229144,65.3266614 8.66179038,65.0880127 C7.70285655,64.8403966 6.88219433,64.2201992 6.38204453,63.365403 L1.15549357,54.4518021 C0.151144171,52.7445239 0.686006509,50.5784616 2.37158944,49.5023729 L5.94727,46.7730997 C5.68808306,44.8326689 5.68808306,42.8662037 5.94727,40.9254836 L2.37274653,38.1985246 C0.696709541,37.1519416 0.15606178,34.9627376 1.15231159,33.2563271 L6.38204453,24.3354945 C7.38205486,22.6261913 9.55592748,21.9967373 11.3398626,22.8952135 L15.5230126,24.5755895 C17.1142931,23.3997023 18.8418203,22.4205195 20.6676998,21.6594471 L21.279219,17.2457481 C21.3758355,15.2737867 23.0145565,13.7325501 25.0232553,13.7325501 L35.4769358,13.7325501 C37.485056,13.7325501 39.1249341,15.2746545 39.2183687,17.247773 L39.8290201,21.6655218 C41.6592386,22.4239908 43.3899478,23.4023058 44.982964,24.5796393 L49.1609071,22.8992632 C49.9919831,22.4772167 50.9497598,22.376261 51.8505501,22.6157775 C52.8060127,22.8651293 53.6232037,23.4850373 54.12075,24.3375194 L59.3392014,33.2499632 C60.3418152,34.9552166 59.806085,37.1484703 58.1303373,38.1993924 L54.5537889,40.9266407 C54.8115295,42.8673608 54.8115295,44.8335367 54.5537889,46.7742568 L56.3585516,48.1503196 L49.8288341,48.1503196 L49.978098,47.3299467 C50.4203936,45.0308196 50.4203936,42.6689208 49.978098,40.370083 L49.7414742,39.0666273 L55.1913425,34.9106688 L50.525399,26.9473236 L44.2114779,29.6184533 L43.1802263,28.7564253 C41.3610001,27.2455621 39.2877938,26.0702535 37.057224,25.2857502 L35.7910843,24.8362228 L34.8275221,17.7181279 L25.6402707,17.7181279 L24.7073712,24.8287018 L23.4447027,25.2785184 C21.214133,26.0667822 19.1406374,27.243248 17.3196756,28.7532433 L16.291606,29.6080395 L9.91722713,27.0427831 L5.30855933,34.9074868 L10.7636345,39.0654702 L9.97421354,40.370083 C9.75726019,41.5173324 9.76044217,46.181251 9.97421354,47.3287896 L10.7572705,48.6310882 L5.30855933,52.7902287 L9.97537063,60.7492348 L16.2887133,58.0824442 L17.3208327,58.9424473 C19.1417945,60.4518641 21.2158686,61.6268835 23.4470169,62.4128332 L24.7085283,62.8635176 L25.6402707,69.5931214 L29.1916525,69.5931214 Z M30.2460458,52.8454795 L30.2437316,57.3491419 C23.0883207,57.3491419 17.2655819,51.5232211 17.2655819,44.3660746 C17.2655819,37.2097958 23.0883207,31.3867678 30.2466243,31.3867678 C37.4043494,31.3867678 43.2279619,37.2097958 43.2279619,44.3660746 C43.2294023,45.8780948 42.9652978,47.3785442 42.448081,48.799444 L37.4590216,48.799444 C38.28518,47.4682183 38.7231365,45.932767 38.7240043,44.3660746 C38.7240043,39.6928993 34.9200888,35.8910087 30.2466243,35.8910087 C25.573449,35.8910087 21.7718477,39.6917422 21.7718477,44.3660746 C21.7718477,49.0412747 25.5702671,52.8454795 30.2460458,52.8454795 L30.2460458,52.8454795 Z M34.914882,73.9651654 C34.6438349,73.9674796 34.3826231,73.8630527 34.1876543,73.6744479 C33.9947105,73.4881573 33.8844982,73.2324416 33.8816055,72.963998 L33.8816055,70.9567456 C33.8816055,70.1881521 34.8431427,69.8910707 35.1144791,69.8933714 L59.8488972,69.8933714 C60.5761248,69.8933714 60.880438,70.6888805 60.8824629,70.9567456 L60.8824629,72.9628409 C60.880438,73.2318631 60.7702257,73.4884466 60.5769926,73.6753157 C60.3820239,73.8636312 60.1211013,73.9677689 59.8500542,73.9651654 L34.9137249,73.9651654 L34.914882,73.9651654 Z M59.8488972,64.6260528 L35.1144791,64.6260528 C34.8431427,64.6280716 34.1876543,64.1328394 33.8816055,63.6112835 L33.8816055,61.5675829 C33.8816055,61.1698351 34.8431427,60.5374884 35.1144791,60.5395064 L59.8488972,60.5395064 C60.1211013,60.5374884 60.3828917,60.9818088 60.5761248,61.1698351 C60.7702257,61.3567042 60.880438,61.6132877 60.8824629,61.8811528 L60.8824629,63.6112835 C60.8824629,64.2873102 60.5376517,64.6260528 59.8488972,64.6260528 L59.8488972,64.6260528 Z M60.0496513,56.2235879 L35.1153469,56.2235879 C34.8431427,56.2256128 34.3808874,56.416821 34.1876543,56.2287947 C33.9947105,56.0422148 33.8842089,55.7859206 33.8816055,55.517477 L33.8816055,53.1578923 C33.8842089,52.8891594 33.9947105,52.6331545 34.1876543,52.4465746 C34.3829123,52.2582591 34.6441242,52.1544107 34.914882,52.156687 L59.8488972,52.156687 C60.1202335,52.1547 60.3811561,52.2591269 60.5761248,52.4477317 C60.7702257,52.6346008 60.880438,52.8900272 60.8824629,53.1578923 L60.8824629,55.5163199 C60.880438,55.7850528 60.7702257,56.0419256 60.5769926,56.2287947 C60.3820239,56.416821 60.1211013,56.5209586 59.8500542,56.5183551 L60.0496513,56.2235879 Z" id="Fill-3备份-3" fill="#FFFFFF" opacity="0.2"></path>
                <path d="M33.6809381,70.3404432 C34.2603482,70.3346578 34.7347528,70.7995165 34.740249,71.3789266 L34.740249,71.3809515 L34.740249,73.6719789 C34.7356206,74.2508105 34.2629516,74.716537 33.68412,74.7125134 L29.5157229,74.7125134 C27.5070241,74.7125134 25.8683031,73.1724077 25.7716866,71.2004463 L25.1590103,66.7815404 C23.3334201,66.0210465 21.6064714,65.0427315 20.0154801,63.8674229 L15.8375371,65.547799 C15.0081967,65.9715812 14.051577,66.0739832 13.151076,65.8353345 C12.1921422,65.5877184 11.3714799,64.967521 10.8713301,64.1127248 L5.64477917,55.1991239 C4.64042977,53.4918457 5.17529211,51.3257834 6.86087505,50.2496947 L10.4365556,47.5204215 C10.1773687,45.5799907 10.1773687,43.6135255 10.4365556,41.6728054 L6.86203213,38.9458464 C5.18599514,37.8992634 4.64534738,35.7100594 5.64159719,34.0036489 L10.8713301,25.0828163 C11.8713405,23.3735131 14.0452131,22.7440591 15.8291482,23.6425353 L20.0122982,25.3229113 C21.6035787,24.1470241 23.3311059,23.1678413 25.1569854,22.4067689 L25.7685046,17.9930699 C25.8651211,16.0211085 27.5038421,14.4798719 29.5125409,14.4798719 L39.9662214,14.4798719 C41.9743416,14.4798719 43.6142197,16.0219763 43.7076543,17.9950948 L44.3183057,22.4128436 C46.1485242,23.1713126 47.8792334,24.1496276 49.4722496,25.3269611 L53.6501927,23.6465851 C54.4812687,23.2245385 55.4390454,23.1235828 56.3398357,23.3630993 C57.2952983,23.6124511 58.1124893,24.2323591 58.6100356,25.0848412 L63.828487,33.997285 C64.8311008,35.7025384 64.2953706,37.8957921 62.6196229,38.9467142 L59.0430745,41.6739625 C59.3008151,43.6146826 59.3008151,45.5808585 59.0430745,47.5215786 L60.8478372,48.8976414 L54.3181197,48.8976414 L54.4673836,48.0772685 C54.9096792,45.7781414 54.9096792,43.4162426 54.4673836,41.1174048 L54.2307599,39.8139491 L59.6806281,35.6579906 L55.0146846,27.6946454 L48.7007635,30.3657751 L47.6695119,29.5037471 C45.8502857,27.9928839 43.7770794,26.8175753 41.5465096,26.033072 L40.2803699,25.5835446 L39.3168077,18.4654497 L30.1295563,18.4654497 L29.1966569,25.5760236 L27.9339883,26.0258402 C25.7034186,26.814104 23.629923,27.9905698 21.8089612,29.5005651 L20.7808916,30.3553613 L14.4065127,27.7901049 L9.79784493,35.6548086 L15.2529201,39.812792 L14.4634991,41.1174048 C14.2465458,42.2646542 14.2497278,46.9285728 14.4634991,48.0761114 L15.2465561,49.37841 L9.79784493,53.5375505 L14.4646562,61.4965566 L20.7779989,58.829766 L21.8101183,59.6897691 C23.6310801,61.1991859 25.7051542,62.3742053 27.9363025,63.160155 L29.1978139,63.6108394 L30.1295563,70.3404432 L33.6809381,70.3404432 Z M34.7353314,53.5928013 L34.7330172,58.0964637 C27.5776063,58.0964637 21.7548675,52.2705429 21.7548675,45.1133964 C21.7548675,37.9571176 27.5776063,32.1340896 34.7359099,32.1340896 C41.893635,32.1340896 47.7172475,37.9571176 47.7172475,45.1133964 C47.7186879,46.6254166 47.4545834,48.125866 46.9373666,49.5467658 L41.9483072,49.5467658 C42.7744656,48.2155401 43.2124221,46.6800888 43.2132899,45.1133964 C43.2132899,40.4402211 39.4093745,36.6383305 34.7359099,36.6383305 C30.0627346,36.6383305 26.2611333,40.439064 26.2611333,45.1133964 C26.2611333,49.7885965 30.0595527,53.5928013 34.7353314,53.5928013 L34.7353314,53.5928013 Z M39.4041676,74.7124872 C39.1331205,74.7148014 38.8719087,74.6103745 38.6769399,74.4217697 C38.4839961,74.2354791 38.3737838,73.9797634 38.3708911,73.7113198 L38.3708911,71.7040674 C38.3708911,70.9354739 39.3324283,70.6383925 39.6037647,70.6406932 L64.3381828,70.6406932 C65.0654104,70.6406932 65.3697236,71.4362023 65.3717485,71.7040674 L65.3717485,73.7101627 C65.3697236,73.9791849 65.2595113,74.2357684 65.0662782,74.4226375 C64.8713095,74.610953 64.6103869,74.7150907 64.3393398,74.7124872 L39.4030105,74.7124872 L39.4041676,74.7124872 Z M64.3381828,65.3733746 L39.6037647,65.3733746 C39.3324283,65.3753934 38.6769399,64.8801612 38.3708911,64.3586053 L38.3708911,62.3149047 C38.3708911,61.9171569 39.3324283,61.2848102 39.6037647,61.2868282 L64.3381828,61.2868282 C64.6103869,61.2848102 64.8721773,61.7291306 65.0654104,61.9171569 C65.2595113,62.104026 65.3697236,62.3606095 65.3717485,62.6284746 L65.3717485,64.3586053 C65.3717485,65.034632 65.0269373,65.3733746 64.3381828,65.3733746 L64.3381828,65.3733746 Z M64.5389369,56.9709097 L39.6046325,56.9709097 C39.3324283,56.9729346 38.870173,57.1641428 38.6769399,56.9761165 C38.4839961,56.7895366 38.3734945,56.5332424 38.3708911,56.2647988 L38.3708911,53.9052141 C38.3734945,53.6364812 38.4839961,53.3804763 38.6769399,53.1938964 C38.8721979,53.0055809 39.1334098,52.9017325 39.4041676,52.9040088 L64.3381828,52.9040088 C64.6095191,52.9020218 64.8704417,53.0064487 65.0654104,53.1950535 C65.2595113,53.3819226 65.3697236,53.637349 65.3717485,53.9052141 L65.3717485,56.2636417 C65.3697236,56.5323746 65.2595113,56.7892474 65.0662782,56.9761165 C64.8713095,57.1641428 64.6103869,57.2682804 64.3393398,57.2656769 L64.5389369,56.9709097 Z" id="Fill-3" fill="#FFFFFF"></path>
                <path d="M67.3318787,4.26741464 L45.4120688,25.7816664" id="Stroke-5" stroke="#FFFFFF" stroke-width="0.236"></path>
                <path d="M69.9508528,8.30789607 L69.4070231,8.84102278" id="Stroke-7" stroke="#FFFFFF" stroke-width="0.236"></path>
                <path d="M68.3553489,9.87204298 L49.9527868,27.9150411" id="Stroke-9" stroke="#FFFFFF" stroke-width="0.236" stroke-dasharray="5.091,5.091"></path>
                <path d="M49.4270076,28.4304644 L48.8831779,28.9635911" id="Stroke-11" stroke="#FFFFFF" stroke-width="0.236"></path>
                <path d="M64.5555411,0.0239805775 L42.5191549,22.5995682" id="Stroke-13" stroke="#FFFFFF" stroke-width="0.236"></path>
                <path d="M29.4373594,68.1963366 L7.51754946,89.7105884" id="Stroke-15" stroke="#FFFFFF" stroke-width="0.236"></path>
                <path d="M32.0563335,72.236818 L31.5125037,72.7699447" id="Stroke-17" stroke="#FFFFFF" stroke-width="0.236"></path>
                <path d="M30.4608296,73.8009649 L12.0582675,91.843963" id="Stroke-19" stroke="#FFFFFF" stroke-width="0.236" stroke-dasharray="5.091,5.091"></path>
                <path d="M11.5324882,92.3593863 L10.9886585,92.892513" id="Stroke-21" stroke="#FFFFFF" stroke-width="0.236"></path>
                <path d="M26.6610217,63.9528736 L4.62463557,86.5284612" id="Stroke-23" stroke="#FFFFFF" stroke-width="0.236"></path>
            </g>
        </g>
    </g>
</svg>