<?xml version="1.0" encoding="UTF-8"?>
<svg width="90px" height="90px" viewBox="0 0 90 90" version="1.1" xmlns="http://www.w3.org/2000/svg" xmlns:xlink="http://www.w3.org/1999/xlink">
    <!-- Generator: Sketch 55.1 (78136) - https://sketchapp.com -->
    <title>编组 10</title>
    <desc>Created with Sketch.</desc>
    <g id="官网主页" stroke="none" stroke-width="1" fill="none" fill-rule="evenodd">
        <g id="ONT-ID-2.0-Landingpage" transform="translate(-1455.000000, -2495.000000)">
            <g id="编组-10" transform="translate(1455.000000, 2495.000000)">
                <circle id="椭圆形复制-3" fill="#000000" cx="45" cy="45" r="45"></circle>
                <g id="编组-9" transform="translate(15.000000, 15.000000)">
                    <path d="M29.9320341,-2.48689958e-13 C13.4004629,-2.48689958e-13 1.13686838e-13,13.3919123 1.13686838e-13,29.909525 C1.13686838e-13,45.1690378 11.4335445,57.7601949 26.2083069,59.5877467 C27.0410719,59.7639464 28.0556638,59.8669915 29.2640682,59.8669915 C29.5920585,59.8669915 29.9200487,59.849525 30.2463581,59.8158343 C46.6323508,59.6491352 59.86838,46.3251888 59.86838,29.909525 C59.86838,13.3919123 46.463313,-2.48689958e-13 29.9320341,-2.48689958e-13 Z M25.214324,56.9188794 C12.3319367,54.6696468 2.53957776,43.4393423 2.53957776,29.9226066 C2.53812424,28.0236541 2.73427527,26.129525 3.12423873,24.2710597 C4.309257,25.5366139 7.10090134,25.5066504 7.78004872,23.6133252 C8.99846529,24.3393179 10.6359318,24.4700609 10.6359318,25.9225579 C10.6359318,30.7113764 10.8063581,35.8456516 15.1593179,35.9247259 C15.2806334,35.9247259 17.5840926,36.8019976 18.6811937,39.6410719 C19.0605603,40.6257004 20.5599026,39.6410719 22.2048234,39.6410719 C23.0264068,39.6410719 22.2048234,41.0256029 22.2048234,44.0159562 C22.2048234,47.0066017 28.6294275,51.5842144 28.6294275,51.5842144 C28.5994641,53.5577101 28.679123,55.1506699 28.8444336,56.4255786 C27.3947868,56.3984653 26.1695006,56.5914007 25.214324,56.9188794 Z M36.7191961,56.4920828 C36.577637,55.7961267 35.9538855,55.4144214 34.8188551,55.7136175 C35.7243362,51.8568088 36.1645798,49.6974665 38.0563703,48.0562728 C40.7895493,45.6871133 38.3772716,43.0482095 36.3004385,43.3588063 C34.6592448,43.6083069 35.6958343,41.3291108 34.2324482,41.2017296 C32.7691352,41.0747138 30.8567357,38.168039 28.7499391,37.1645554 C27.6317174,36.6352984 26.535201,35.2133496 24.8106212,35.1491108 C23.2836541,35.0877223 21.0526188,36.4409013 21.0526188,35.3983191 C21.0526188,32.0468697 20.7120585,29.653447 20.6424117,28.698782 C20.5862119,27.9311328 20.1411449,28.4407308 22.205408,28.4889647 C23.3281608,28.5189281 22.7800487,26.23257 23.8933739,26.1446529 C24.9838977,26.0584166 27.5868453,27.1680877 28.2500609,26.7244823 C28.8678197,26.3128136 32.7785627,36.9927406 32.7785627,28.4889647 C32.7785627,27.4809501 32.2544214,25.7272838 32.7785627,24.7712302 C34.8442144,20.996419 36.7777345,17.9181486 36.605335,17.4670889 C36.5065286,17.2150305 34.4904994,17.0052132 32.877296,17.5461632 C32.3340804,17.7288672 33.0511571,18.5804141 32.2689647,18.7617296 C29.34,19.4394153 26.7521803,17.9723752 27.6579537,16.594933 C28.5863094,15.1841657 31.9489403,15.9794397 32.2427284,13.1461389 C32.4108161,11.5235079 32.5533252,9.64479903 32.6469428,8.24850183 C36.5899147,8.86487211 36.1556638,3.13169306 30.294592,2.51904994 C42.1512789,2.65717418 52.1988307,10.3142266 55.8851401,20.9401462 C55.7052862,20.7700122 55.4737637,20.6647016 55.2274056,20.6404385 C53.4569306,16.2149817 49.1550548,19.4188794 50.6141291,23.3224604 C42.8012667,29.3348112 44.8018758,33.5270646 47.3685749,35.9261876 C48.7214616,37.1871376 50.008648,39.0849939 50.8493788,40.4475274 C49.9364434,43.110475 54.2120097,42.0453106 56.3231181,37.5233861 C53.6119367,46.8735932 46.1535932,54.0901096 36.7191961,56.4920828 Z" id="Fill-1" fill="#FFFFFF"></path>
                    <circle id="椭圆形" stroke="#FFFFFF" stroke-width="5" cx="30" cy="30" r="30"></circle>
                </g>
            </g>
        </g>
    </g>
</svg>