<?xml version="1.0" encoding="UTF-8"?>
<svg width="203px" height="64px" viewBox="0 0 203 64" version="1.1" xmlns="http://www.w3.org/2000/svg" xmlns:xlink="http://www.w3.org/1999/xlink">
    <!-- Generator: Sketch 55.1 (78136) - https://sketchapp.com -->
    <title>Group 11</title>
    <desc>Created with Sketch.</desc>
    <g id="官网主页" stroke="none" stroke-width="1" fill="none" fill-rule="evenodd">
        <g id="ONT-ID-2.0-Landingpage" transform="translate(-747.000000, -4244.000000)">
            <g id="Group-11" transform="translate(747.000000, 4244.000000)">
                <rect id="Rectangle" fill="#000000" x="0" y="0" width="203" height="64" rx="6"></rect>
                <g id="Group" transform="translate(67.310526, 12.000000)" fill="#FFFFFF">
                    <text id="Download-from" font-family="ProximaNova-Regular, Proxima Nova" font-size="14" font-weight="normal">
                        <tspan x="0" y="13">Download from</tspan>
                    </text>
                    <text id="App-Store" font-family="ProximaNova-Semibold, Proxima Nova" font-size="22" font-weight="500">
                        <tspan x="0" y="33">App Store</tspan>
                    </text>
                </g>
                <path d="M41.6976356,32.8900183 C41.7359478,37.1312376 45.6609662,38.5322001 45.7072051,38.5470382 C45.6847462,38.6459588 45.0928888,40.5699638 43.6224932,42.523645 C42.3938607,44.2436263 41.1044571,45.925276 39.0606997,45.9549521 C37.0737499,45.9982299 36.4052682,44.8606434 34.1263531,44.8606434 C31.8263002,44.8606434 31.1142218,45.925276 29.2091809,45.9982299 C27.2618645,46.0662378 25.7729733,44.1620169 24.499423,42.4581101 C21.9549648,38.9785792 19.9732995,32.6501359 22.6300521,28.3446183 C23.9181346,26.2326642 26.2657474,24.8737429 28.7745356,24.8366477 C30.7244943,24.7995524 32.5344153,26.0694452 33.7326622,26.0694452 C34.9084503,26.0694452 37.1450899,24.5510145 39.4517483,24.7772953 C40.4161587,24.803262 43.1640679,25.1334094 44.9343556,27.5520172 C44.7916757,27.6323902 41.6632868,29.353608 41.6976356,32.8900183 Z M37.9443615,22.4885207 C36.8755834,23.669385 35.1634246,24.5720351 33.4975046,24.4558035 C33.2795214,22.8631824 34.1237108,21.1679311 35.0683046,20.1342112 C36.1370828,18.9595295 37.9919215,18.0605888 39.4755283,18 C39.6697315,19.6569195 38.9695431,21.2878723 37.9443615,22.4885207 Z" id="Combined-Shape" fill="#FFFFFF"></path>
            </g>
        </g>
    </g>
</svg>