<?xml version="1.0" encoding="UTF-8"?>
<svg width="47px" height="48px" viewBox="0 0 47 48" version="1.1" xmlns="http://www.w3.org/2000/svg" xmlns:xlink="http://www.w3.org/1999/xlink">
    <!-- Generator: Sketch 55.2 (78181) - https://sketchapp.com -->
    <title>编组</title>
    <desc>Created with Sketch.</desc>
    <g id="页面1" stroke="none" stroke-width="1" fill="none" fill-rule="evenodd">
        <g id="插画" transform="translate(-1392.000000, -520.000000)" fill="#0978D3">
            <g id="编组" transform="translate(1184.500000, 470.000000)">
                <g transform="translate(207.658537, 49.683995)">
                    <path d="M8.85335268,9.15740341 L21.6320795,22.2587254 L8.85335268,9.15740341 Z M29.6167917,9.15740341 L25.9871137,20.8036668 L29.6167917,9.15740341 Z M30.3522893,39.0800327 L26.4309234,29.8889693 L30.3522893,39.0800327 Z M18.3249966,28.8782034 L8.82679171,36.7093449 L18.3249966,28.8782034 Z" id="Fill-3"></path>
                    <path d="M36.1250517,25.7193307 L32.0926127,25.7193307 C32.1776078,25.2112917 32.2254176,24.6979405 32.2307298,24.1845893 C32.2307298,20.9518771 30.4685298,17.9780137 27.6323005,16.4331307 L29.167042,11.1943405 C29.5794615,11.3005844 29.9976761,11.3479112 30.42072,11.3479112 C31.8492176,11.3319746 33.2149346,10.7500478 34.209281,9.72334537 C35.2094224,8.70243805 35.7546468,7.32126732 35.733398,5.89276976 C35.733398,2.95609171 33.3525688,0.574779512 30.4158907,0.574779512 C27.4792127,0.574779512 25.0979005,2.95609171 25.0979005,5.89276976 C25.0819639,8.08863805 26.3834517,10.0836088 28.4049834,10.9509454 L26.870242,16.0834917 C23.7964127,14.7554429 20.2242029,15.3537893 17.7535493,17.6182332 L9.95911024,9.64945756 C10.8588029,8.63869171 11.3509054,7.32657951 11.340281,5.97196976 C11.3721541,4.5328478 10.832242,3.14105268 9.83258341,2.10420878 C8.83195902,1.06688195 7.46141268,0.474330732 6.02229073,0.453081951 C3.04891024,0.495579512 0.667598049,2.94015512 0.704783415,5.90870634 C0.683534634,7.3372039 1.23407122,8.71789171 2.22890049,9.74459415 C3.22324683,10.7712966 4.58848098,11.3585356 6.02229073,11.3797844 C7.3986322,11.3797844 8.71557366,10.8398722 9.69977854,9.8769161 L9.42499317,10.1521844 L17.3618956,18.2740478 C14.5416029,21.4439795 14.3242859,26.152999 16.8432322,29.5658429 L10.0494176,35.1431649 C9.05410537,33.8044917 7.48797366,33.0052478 5.82139317,33.0004185 C2.81082732,33.0004185 0.366251707,35.4449941 0.366251707,38.45556 C0.366251707,41.4661259 2.81082732,43.9107015 5.82139317,43.9107015 C7.24989073,43.8952478 8.61512488,43.312838 9.61043707,42.2866185 C10.6100956,41.2652283 11.15532,39.8845405 11.1340712,38.45556 C11.1393834,37.5346185 10.9119249,36.6300966 10.4724615,35.8207112 L17.3512712,30.1535649 C18.9545883,31.9630917 21.2509054,33.0004185 23.6636078,33.0052478 C24.8912078,33.0110429 26.1086663,32.7410868 27.219881,32.2064868 L29.6113346,37.7519356 C27.9341298,38.7467649 26.9074273,40.5509795 26.9127395,42.5034527 C26.9813151,45.4295063 29.3940176,47.7576966 32.3258663,47.7103698 C35.25192,47.6678722 37.5960468,45.2657941 37.574798,42.3397405 C37.5535493,39.4132039 35.1722371,37.0478283 32.2466663,37.0478283 C31.5850566,37.042999 30.9340712,37.1646966 30.315442,37.4022966 L27.9235054,31.8413941 C29.9020566,30.6562917 31.3416615,28.740521 31.9235883,26.5074673 L35.9082176,26.5074673 C35.384242,29.380882 37.2203298,32.1586771 40.0724956,32.7937259 C42.9241785,33.4287746 45.7715151,31.6984478 46.5176371,28.8728429 C47.2632761,26.047238 45.6440224,23.137121 42.8502907,22.2799259 C40.056559,21.4227307 37.0826956,22.9309112 36.1250517,25.6927698 L36.1250517,25.7193307 Z" id="Fill-5"></path>
                </g>
            </g>
        </g>
    </g>
</svg>