<?xml version="1.0" encoding="UTF-8"?>
<svg width="145px" height="50px" viewBox="0 0 145 50" version="1.1" xmlns="http://www.w3.org/2000/svg" xmlns:xlink="http://www.w3.org/1999/xlink">
    <!-- Generator: Sketch 55.2 (78181) - https://sketchapp.com -->
    <title>即将发布</title>
    <desc>Created with Sketch.</desc>
    <g id="页面1" stroke="none" stroke-width="1" fill="none" fill-rule="evenodd">
        <g id="ONT.IO-Web" transform="translate(-1175.000000, -2825.000000)">
            <g id="即将发布" transform="translate(1175.000000, 2825.000000)">
                <rect id="Rectangle-Copy-3" fill="#F2F2F2" x="0" y="0" width="145" height="50" rx="6"></rect>
                <path d="M40.753843,32.4329667 C40.8422076,32.7751804 40.8235537,33.0995751 40.6978031,33.4061247 C40.5729657,33.7134831 40.3776871,33.9835337 40.1127239,34.2196682 C39.8469258,34.4539765 39.5225572,34.6399412 39.1395659,34.7749796 C38.7566007,34.9108267 38.3439458,34.9788155 37.9023578,34.9788155 C35.1170352,34.9923558 32.6271219,35 30.4311311,35 L22.9157873,35 C22.3851304,35 21.91714,34.9074612 21.5121554,34.7224096 C21.1070664,34.5364187 20.7826717,34.3079284 20.5398062,34.0370429 C20.296158,33.7661574 20.1339084,33.4706175 20.0531881,33.1495884 C19.972572,32.8285853 19.9835817,32.5398547 20.0863215,32.2834488 C20.1769036,32.0777866 20.2652682,31.8711331 20.3512847,31.6635403 C20.4251697,31.4776538 20.5134299,31.2669825 20.6170567,31.0317872 C20.7197965,30.7964615 20.8301543,30.5579007 20.9482868,30.3150351 L21.7881283,28.3474303 L24.3085139,28.3474303 L23.3573753,31.0427969 L37.5923383,31.0427969 L36.6420346,28.3474303 L39.0512013,28.3474303 C39.3612208,29.0751921 39.6405593,29.7307908 39.891069,30.3150351 C39.9947219,30.5715454 40.0974356,30.8211159 40.2010884,31.0639815 C40.3038021,31.306847 40.396341,31.5243276 40.4770614,31.7162146 C40.5585905,31.9089365 40.6248313,32.0729079 40.6757838,32.2087551 C40.727545,32.3436891 40.753843,32.4192959 40.753843,32.4329667 Z M29.6354066,28.4757376 C29.3552594,28.1614395 29.035039,27.7699952 28.6733627,27.2986654 C28.3123907,26.8282487 27.9404091,26.3442656 27.5575482,25.8448898 C27.1745569,25.3455401 26.7949311,24.853104 26.4186708,24.3690166 C26.0434541,23.8841203 25.7079454,23.463743 25.4132142,23.1071541 C25.0744704,22.721606 24.9419888,22.4039684 25.0158738,22.1543719 C25.08895,21.9055058 25.3394336,21.7806683 25.7673508,21.7806683 C26.0026765,21.794313 26.3193227,21.7908693 26.7175763,21.7696586 C27.1150472,21.7484741 27.4470599,21.7382732 27.7120492,21.7382732 C28.0067543,21.7382732 28.1910232,21.6516566 28.2649082,21.4809541 C28.3387931,21.3102517 28.375266,21.0817613 28.375266,20.7965006 C28.375266,20.4831417 28.3718222,20.1367276 28.3642824,19.7596586 C28.3566382,19.3809459 28.3532727,18.9928672 28.3532727,18.5928656 C28.3532727,18.1938033 28.3498028,17.8014459 28.3421587,17.4167066 C28.3345145,17.0320977 28.331149,16.6754044 28.331149,16.3475659 C28.331149,16.2049878 28.3421587,16.0554959 28.3642824,15.8983338 C28.3862757,15.7413021 28.4381674,15.5986196 28.5187573,15.4704167 C28.6002865,15.3422137 28.7175058,15.2351953 28.8729199,15.1493875 C29.0274209,15.063684 29.2372313,15.0211845 29.5021162,15.0211845 C29.8121357,15.0211845 30.0957528,15.017819 30.3538806,15.0109836 C30.6112257,15.0033655 30.9101311,15 31.2489793,15 C31.7354931,15 32.0632533,15.1103579 32.2323122,15.3320128 C32.4021015,15.5528589 32.4938316,15.9051692 32.5091199,16.3901698 L32.5091199,17.2240108 C32.5091199,17.5518493 32.5124854,17.9017072 32.5201296,18.2727757 C32.5269389,18.6438442 32.5312176,19.0140778 32.5312176,19.3843114 L32.5312176,20.389768 C32.5312176,20.8041448 32.5753607,21.1353749 32.6636992,21.3850498 C32.7519594,21.6347246 32.9506818,21.7519179 33.2607013,21.7382732 C33.4814431,21.7382732 33.7506849,21.7451086 34.0673311,21.7586489 C34.384186,21.7739373 34.6601589,21.7807727 34.896189,21.7807727 C35.2936338,21.7807727 35.5483178,21.8843212 35.65878,22.0907922 C35.769164,22.2970544 35.6919135,22.5653831 35.4260111,22.8932216 C35.1466726,23.2354614 34.822304,23.6490033 34.4537923,24.1329864 C34.0730446,24.6346842 33.6937319,25.1374255 33.3158541,25.6411844 C32.9352108,26.1495088 32.5519064,26.6559026 32.1660714,27.1603659 C31.7907503,27.6520975 31.4552415,28.0766491 31.1606148,28.4332381 C30.8947384,28.7611026 30.6408632,28.9283352 30.3980237,28.9359794 C30.1543494,28.9426844 29.9003698,28.7899313 29.6354066,28.4757376 Z" id="Fill-1" fill="#8F8F8F"></path>
                <path d="M63.896,22.904 L63.896,24.76 L67.256,24.76 L67.256,22.904 L63.896,22.904 Z M67.256,21.544 L67.256,19.784 L63.896,19.784 L63.896,21.544 L67.256,21.544 Z M62.28,32.2 L61.752,30.744 C62.184,30.584 62.408,30.328 62.408,29.96 L62.408,18.424 L68.664,18.424 L68.664,26.168 L63.896,26.168 L63.896,30.248 C65.112,29.896 66.2,29.528 67.16,29.144 C66.888,28.696 66.616,28.264 66.344,27.816 L67.496,27.08 C68.488,28.6 69.24,29.928 69.768,31.048 L68.584,31.88 C68.36,31.4 68.12,30.92 67.864,30.408 C66.232,31.096 64.36,31.688 62.28,32.2 Z M74.12,30.456 L72.84,30.456 L72.44,28.984 L73.624,29.032 C74.072,29.032 74.296,28.808 74.296,28.392 L74.296,19.864 L71.848,19.864 L71.848,32.6 L70.328,32.6 L70.328,18.44 L75.816,18.44 L75.816,28.728 C75.816,29.88 75.24,30.456 74.12,30.456 Z M83.112,25.512 L89.064,25.512 L89.064,24.024 L90.568,24.024 L90.568,25.512 L92.376,25.512 L92.376,26.968 L90.568,26.968 L90.568,31 C90.568,32.056 89.992,32.6 88.872,32.6 L86.744,32.6 L86.408,31.144 C87.08,31.208 87.72,31.24 88.344,31.24 C88.824,31.24 89.064,31.032 89.064,30.616 L89.064,26.968 L83.112,26.968 L83.112,25.512 Z M80.872,17.88 L82.408,17.88 L82.408,32.632 L80.872,32.632 L80.872,27.672 C79.912,28.584 79.016,29.32 78.184,29.896 L77.512,28.424 C78.456,27.848 79.576,27 80.872,25.848 L80.872,17.88 Z M85.352,27.368 C86.216,28.296 86.872,29.112 87.32,29.816 L86.136,30.648 C85.656,29.88 85.032,29.016 84.232,28.072 L85.352,27.368 Z M86.376,20.344 C85.672,21.144 84.792,21.8 83.736,22.344 L82.76,21.16 C84.44,20.328 85.576,19.24 86.152,17.864 L87.72,18.152 C87.592,18.424 87.464,18.696 87.336,18.952 L91.864,18.952 L91.864,20.248 C91.032,22.568 88.504,24.184 84.264,25.096 L83.512,23.736 C84.664,23.512 85.688,23.224 86.552,22.904 C86.12,22.52 85.704,22.184 85.304,21.896 L86.376,21.08 C86.904,21.48 87.4,21.896 87.864,22.328 C88.92,21.768 89.704,21.112 90.184,20.344 L86.376,20.344 Z M78.856,19.704 C79.544,20.824 80.136,21.992 80.632,23.24 L79.304,23.8 C78.76,22.44 78.184,21.256 77.544,20.232 L78.856,19.704 Z M94.648,23.016 L95.912,18.344 L97.432,18.6 L96.6,21.56 L98.968,21.56 C99.272,20.376 99.512,19.128 99.704,17.816 L101.256,18.008 C101.064,19.272 100.824,20.456 100.552,21.56 L107.88,21.56 L107.88,23.016 L100.168,23.016 C100.008,23.544 99.832,24.04 99.672,24.52 L106.072,24.52 L106.072,25.8 C105.656,27.112 104.872,28.296 103.688,29.352 C104.904,30.024 106.376,30.648 108.088,31.224 L107.304,32.664 C105.368,31.96 103.736,31.176 102.424,30.344 C101.16,31.224 99.608,32.024 97.768,32.744 L96.968,31.304 C98.568,30.728 99.944,30.088 101.08,29.4 C100.04,28.568 99.256,27.672 98.744,26.728 C97.592,29.096 96.136,30.984 94.392,32.392 L93.608,30.984 C95.816,29.032 97.464,26.376 98.552,23.016 L94.648,23.016 Z M99.848,25.896 C100.376,26.84 101.208,27.72 102.344,28.52 C103.352,27.704 104.088,26.824 104.536,25.896 L99.848,25.896 Z M103.944,17.832 C105.048,18.664 105.976,19.512 106.728,20.36 L105.64,21.448 C105,20.616 104.104,19.752 102.92,18.84 L103.944,17.832 Z M117.304,22.136 L118.776,22.136 L118.776,23.976 L123.192,23.976 L123.192,29.416 C123.192,30.52 122.632,31.08 121.512,31.08 L120.056,31.08 L119.688,29.672 L121.032,29.72 C121.496,29.72 121.736,29.496 121.736,29.08 L121.736,25.384 L118.776,25.384 L118.776,32.648 L117.304,32.648 L117.304,25.384 L114.312,25.384 L114.312,31.208 L112.856,31.208 L112.856,25.256 C112.136,25.992 111.352,26.68 110.504,27.32 L109.528,26.04 C111.416,24.648 112.936,23.064 114.056,21.304 L110.072,21.304 L110.072,19.816 L114.888,19.816 C115.208,19.144 115.48,18.472 115.704,17.8 L117.24,17.992 C117.032,18.632 116.808,19.24 116.552,19.816 L124.088,19.816 L124.088,21.304 L115.832,21.304 C115.288,22.248 114.68,23.144 114.008,23.976 L117.304,23.976 L117.304,22.136 Z" fill="#8F8F8F" fill-rule="nonzero"></path>
            </g>
        </g>
    </g>
</svg>