<?xml version="1.0" encoding="UTF-8"?>
<svg width="185px" height="50px" viewBox="0 0 185 50" version="1.1" xmlns="http://www.w3.org/2000/svg" xmlns:xlink="http://www.w3.org/1999/xlink">
    <!-- Generator: Sketch 55.2 (78181) - https://sketchapp.com -->
    <title>Coming Soon</title>
    <desc>Created with Sketch.</desc>
    <g id="页面1" stroke="none" stroke-width="1" fill="none" fill-rule="evenodd">
        <g id="ONT.IO-Web" transform="translate(-975.000000, -2825.000000)">
            <g id="Coming-Soon" transform="translate(975.000000, 2825.000000)">
                <rect id="Rectangle-Copy-3" fill="#F2F2F2" x="0" y="0" width="185" height="50" rx="6"></rect>
                <path d="M40.753843,32.4329667 C40.8422076,32.7751804 40.8235537,33.0995751 40.6978031,33.4061247 C40.5729657,33.7134831 40.3776871,33.9835337 40.1127239,34.2196682 C39.8469258,34.4539765 39.5225572,34.6399412 39.1395659,34.7749796 C38.7566007,34.9108267 38.3439458,34.9788155 37.9023578,34.9788155 C35.1170352,34.9923558 32.6271219,35 30.4311311,35 L22.9157873,35 C22.3851304,35 21.91714,34.9074612 21.5121554,34.7224096 C21.1070664,34.5364187 20.7826717,34.3079284 20.5398062,34.0370429 C20.296158,33.7661574 20.1339084,33.4706175 20.0531881,33.1495884 C19.972572,32.8285853 19.9835817,32.5398547 20.0863215,32.2834488 C20.1769036,32.0777866 20.2652682,31.8711331 20.3512847,31.6635403 C20.4251697,31.4776538 20.5134299,31.2669825 20.6170567,31.0317872 C20.7197965,30.7964615 20.8301543,30.5579007 20.9482868,30.3150351 L21.7881283,28.3474303 L24.3085139,28.3474303 L23.3573753,31.0427969 L37.5923383,31.0427969 L36.6420346,28.3474303 L39.0512013,28.3474303 C39.3612208,29.0751921 39.6405593,29.7307908 39.891069,30.3150351 C39.9947219,30.5715454 40.0974356,30.8211159 40.2010884,31.0639815 C40.3038021,31.306847 40.396341,31.5243276 40.4770614,31.7162146 C40.5585905,31.9089365 40.6248313,32.0729079 40.6757838,32.2087551 C40.727545,32.3436891 40.753843,32.4192959 40.753843,32.4329667 Z M29.6354066,28.4757376 C29.3552594,28.1614395 29.035039,27.7699952 28.6733627,27.2986654 C28.3123907,26.8282487 27.9404091,26.3442656 27.5575482,25.8448898 C27.1745569,25.3455401 26.7949311,24.853104 26.4186708,24.3690166 C26.0434541,23.8841203 25.7079454,23.463743 25.4132142,23.1071541 C25.0744704,22.721606 24.9419888,22.4039684 25.0158738,22.1543719 C25.08895,21.9055058 25.3394336,21.7806683 25.7673508,21.7806683 C26.0026765,21.794313 26.3193227,21.7908693 26.7175763,21.7696586 C27.1150472,21.7484741 27.4470599,21.7382732 27.7120492,21.7382732 C28.0067543,21.7382732 28.1910232,21.6516566 28.2649082,21.4809541 C28.3387931,21.3102517 28.375266,21.0817613 28.375266,20.7965006 C28.375266,20.4831417 28.3718222,20.1367276 28.3642824,19.7596586 C28.3566382,19.3809459 28.3532727,18.9928672 28.3532727,18.5928656 C28.3532727,18.1938033 28.3498028,17.8014459 28.3421587,17.4167066 C28.3345145,17.0320977 28.331149,16.6754044 28.331149,16.3475659 C28.331149,16.2049878 28.3421587,16.0554959 28.3642824,15.8983338 C28.3862757,15.7413021 28.4381674,15.5986196 28.5187573,15.4704167 C28.6002865,15.3422137 28.7175058,15.2351953 28.8729199,15.1493875 C29.0274209,15.063684 29.2372313,15.0211845 29.5021162,15.0211845 C29.8121357,15.0211845 30.0957528,15.017819 30.3538806,15.0109836 C30.6112257,15.0033655 30.9101311,15 31.2489793,15 C31.7354931,15 32.0632533,15.1103579 32.2323122,15.3320128 C32.4021015,15.5528589 32.4938316,15.9051692 32.5091199,16.3901698 L32.5091199,17.2240108 C32.5091199,17.5518493 32.5124854,17.9017072 32.5201296,18.2727757 C32.5269389,18.6438442 32.5312176,19.0140778 32.5312176,19.3843114 L32.5312176,20.389768 C32.5312176,20.8041448 32.5753607,21.1353749 32.6636992,21.3850498 C32.7519594,21.6347246 32.9506818,21.7519179 33.2607013,21.7382732 C33.4814431,21.7382732 33.7506849,21.7451086 34.0673311,21.7586489 C34.384186,21.7739373 34.6601589,21.7807727 34.896189,21.7807727 C35.2936338,21.7807727 35.5483178,21.8843212 35.65878,22.0907922 C35.769164,22.2970544 35.6919135,22.5653831 35.4260111,22.8932216 C35.1466726,23.2354614 34.822304,23.6490033 34.4537923,24.1329864 C34.0730446,24.6346842 33.6937319,25.1374255 33.3158541,25.6411844 C32.9352108,26.1495088 32.5519064,26.6559026 32.1660714,27.1603659 C31.7907503,27.6520975 31.4552415,28.0766491 31.1606148,28.4332381 C30.8947384,28.7611026 30.6408632,28.9283352 30.3980237,28.9359794 C30.1543494,28.9426844 29.9003698,28.7899313 29.6354066,28.4757376 Z" id="Fill-1" fill="#8F8F8F"></path>
                <path d="M67.32,31.16 C63.736,31.16 61.736,28.872 61.736,25.352 L61.736,25.224 C61.736,21.784 64.104,19.384 67.288,19.384 C69.912,19.384 71.944,20.696 72.2,23.384 L70.04,23.384 C69.8,21.864 68.952,21.08 67.304,21.08 C65.288,21.08 63.976,22.648 63.976,25.208 L63.976,25.336 C63.976,27.912 65.208,29.432 67.32,29.432 C68.904,29.432 70.024,28.632 70.248,27.016 L72.328,27.016 C71.992,29.768 70.04,31.16 67.32,31.16 Z M77.752,29.656 C79.192,29.656 80.056,28.584 80.056,26.872 L80.056,26.76 C80.056,25.032 79.192,23.976 77.752,23.976 C76.312,23.976 75.432,25.016 75.432,26.744 L75.432,26.872 C75.432,28.584 76.28,29.656 77.752,29.656 Z M77.736,31.16 C75.272,31.16 73.448,29.448 73.448,26.904 L73.448,26.776 C73.448,24.184 75.288,22.456 77.752,22.456 C80.2,22.456 82.04,24.168 82.04,26.728 L82.04,26.856 C82.04,29.464 80.2,31.16 77.736,31.16 Z M83.784,31 L83.784,22.632 L85.72,22.632 L85.72,23.912 C86.12,23.128 87.032,22.456 88.264,22.456 C89.352,22.456 90.216,22.92 90.632,23.96 C91.272,22.92 92.424,22.456 93.464,22.456 C95,22.456 96.248,23.4 96.248,25.704 L96.248,31 L94.312,31 L94.312,25.832 C94.312,24.6 93.784,24.072 92.824,24.072 C91.864,24.072 90.984,24.712 90.984,25.992 L90.984,31 L89.048,31 L89.048,25.832 C89.048,24.6 88.504,24.072 87.56,24.072 C86.6,24.072 85.72,24.712 85.72,25.992 L85.72,31 L83.784,31 Z M98.52,31 L98.52,22.632 L100.456,22.632 L100.456,31 L98.52,31 Z M99.464,21.256 C98.824,21.256 98.312,20.776 98.312,20.152 C98.312,19.512 98.824,19.032 99.464,19.032 C100.104,19.032 100.616,19.512 100.616,20.152 C100.616,20.776 100.104,21.256 99.464,21.256 Z M102.808,31 L102.808,22.632 L104.744,22.632 L104.744,23.96 C105.144,23.144 106.072,22.456 107.448,22.456 C109.128,22.456 110.312,23.432 110.312,25.736 L110.312,31 L108.376,31 L108.376,25.912 C108.376,24.648 107.864,24.072 106.712,24.072 C105.624,24.072 104.744,24.744 104.744,26.072 L104.744,31 L102.808,31 Z M116.104,34.072 C113.48,34.072 112.296,32.888 112.072,31.288 L114.024,31.288 C114.184,32.12 114.824,32.6 116.088,32.6 C117.592,32.6 118.424,31.848 118.424,30.344 L118.424,29.112 C117.96,29.912 116.92,30.664 115.688,30.664 C113.592,30.664 111.976,29.096 111.976,26.68 L111.976,26.568 C111.976,24.216 113.576,22.456 115.736,22.456 C117.112,22.456 117.944,23.08 118.424,23.912 L118.424,22.632 L120.36,22.632 L120.36,30.376 C120.344,32.84 118.696,34.072 116.104,34.072 Z M116.168,29.176 C117.512,29.176 118.488,28.216 118.488,26.616 L118.488,26.504 C118.488,24.92 117.624,23.976 116.232,23.976 C114.792,23.976 113.96,25.016 113.96,26.536 L113.96,26.664 C113.96,28.216 114.92,29.176 116.168,29.176 Z M130.52,31.16 C127.4,31.16 126.088,29.608 125.928,27.448 L127.976,27.448 C128.12,28.6 128.584,29.56 130.52,29.56 C131.784,29.56 132.68,28.856 132.68,27.8 C132.68,26.744 132.152,26.344 130.296,26.04 C127.56,25.672 126.264,24.84 126.264,22.696 C126.264,20.824 127.864,19.416 130.248,19.416 C132.712,19.416 134.184,20.536 134.408,22.728 L132.456,22.728 C132.248,21.528 131.56,21.016 130.248,21.016 C128.952,21.016 128.28,21.64 128.28,22.52 C128.28,23.448 128.664,23.912 130.648,24.2 C133.336,24.568 134.728,25.336 134.728,27.624 C134.728,29.608 133.048,31.16 130.52,31.16 Z M140.376,29.656 C141.816,29.656 142.68,28.584 142.68,26.872 L142.68,26.76 C142.68,25.032 141.816,23.976 140.376,23.976 C138.936,23.976 138.056,25.016 138.056,26.744 L138.056,26.872 C138.056,28.584 138.904,29.656 140.376,29.656 Z M140.36,31.16 C137.896,31.16 136.072,29.448 136.072,26.904 L136.072,26.776 C136.072,24.184 137.912,22.456 140.376,22.456 C142.824,22.456 144.664,24.168 144.664,26.728 L144.664,26.856 C144.664,29.464 142.824,31.16 140.36,31.16 Z M150.152,29.656 C151.592,29.656 152.456,28.584 152.456,26.872 L152.456,26.76 C152.456,25.032 151.592,23.976 150.152,23.976 C148.712,23.976 147.832,25.016 147.832,26.744 L147.832,26.872 C147.832,28.584 148.68,29.656 150.152,29.656 Z M150.136,31.16 C147.672,31.16 145.848,29.448 145.848,26.904 L145.848,26.776 C145.848,24.184 147.688,22.456 150.152,22.456 C152.6,22.456 154.44,24.168 154.44,26.728 L154.44,26.856 C154.44,29.464 152.6,31.16 150.136,31.16 Z M156.184,31 L156.184,22.632 L158.12,22.632 L158.12,23.96 C158.52,23.144 159.448,22.456 160.824,22.456 C162.504,22.456 163.688,23.432 163.688,25.736 L163.688,31 L161.752,31 L161.752,25.912 C161.752,24.648 161.24,24.072 160.088,24.072 C159,24.072 158.12,24.744 158.12,26.072 L158.12,31 L156.184,31 Z" id="ComingSoon" fill="#8F8F8F" fill-rule="nonzero"></path>
            </g>
        </g>
    </g>
</svg>