<?xml version="1.0" encoding="UTF-8"?>
<svg width="24px" height="16px" viewBox="0 0 24 16" version="1.1" xmlns="http://www.w3.org/2000/svg" xmlns:xlink="http://www.w3.org/1999/xlink">
    <!-- Generator: Sketch 55.1 (78136) - https://sketchapp.com -->
    <title>Fill 1 Copy 13</title>
    <desc>Created with Sketch.</desc>
    <g id="组件库" stroke="none" stroke-width="1" fill="none" fill-rule="evenodd">
        <g id="Footer2" transform="translate(-804.000000, -370.000000)" fill="#000">
            <g id="编组" transform="translate(804.000000, 370.000000)">
                <path d="M21.8265104,6.84424527 C21.8185377,6.08536029 21.8157909,5.32099498 21.813178,4.55940496 L19.647795,4.55940496 C19.6398224,5.31811429 19.6344626,6.07973944 19.6291028,6.84424527 C18.9001063,6.84698544 18.1766036,6.85260629 17.4530003,6.86110782 L17.4530003,9.13470644 C18.1766036,9.14306745 18.9054661,9.1486883 19.6291028,9.15722497 C19.6370755,9.9159343 19.6370755,10.6777 19.6424353,11.4364093 L21.8105651,11.4364093 C21.813178,10.6777 21.8185377,9.9159343 21.8238975,9.15156899 C22.55276,9.14306745 23.2763968,9.14032729 24,9.13196627 L24,6.85822714 C23.2791436,6.85260629 22.5501471,6.85260629 21.8265104,6.84424527 Z M7.62310446,6.85548697 C7.62049157,7.76325422 7.62310446,8.67376162 7.62585134,9.58152887 C9.07835059,9.63215164 10.5335632,9.60963311 11.9860625,9.63215164 C11.3455358,13.0130225 6.96388553,14.1091936 4.64581598,11.9001294 C2.26071574,9.96381691 2.37327103,5.71719463 4.85216735,3.91852269 C6.58608833,2.46830831 9.04890532,2.82523227 10.7827258,4.08156246 C11.4634173,3.42107748 12.1011972,2.71285041 12.7148915,1.9821048 C11.2731453,0.776573042 9.50441927,-0.0834521078 7.62310446,0.00644635871 C3.69448927,-0.131334722 0.0846132524,3.47735624 0.0203629397,7.60021444 C-0.231513026,10.9698436 1.88020515,14.2720929 4.86027401,15.4637833 C7.82948933,16.6638347 11.6375766,15.845966 13.5349707,13.0467828 C14.7864449,11.2790255 15.0571805,9.00254621 14.9098537,6.86384799 C12.4790949,6.84424527 10.0511164,6.84698544 7.62310446,6.85548697 Z" id="Fill-1-Copy-13"></path>
            </g>
        </g>
    </g>
</svg>