<?xml version="1.0" encoding="UTF-8"?>
<svg width="20px" height="16px" viewBox="0 0 20 16" version="1.1" xmlns="http://www.w3.org/2000/svg" xmlns:xlink="http://www.w3.org/1999/xlink">
    <!-- Generator: Sketch 55.1 (78136) - https://sketchapp.com -->
    <title>Fill 1 Copy 12</title>
    <desc>Created with Sketch.</desc>
    <g id="组件库" stroke="none" stroke-width="1" fill="none" fill-rule="evenodd">
        <g id="Footer2" transform="translate(-858.000000, -370.000000)" fill="#000">
            <g id="编组" transform="translate(804.000000, 370.000000)">
                <path d="M68.8120997,7.7885795 C68.0339453,7.63706831 68.4120123,7.21815284 68.4120123,7.21815284 C68.4120123,7.21815284 69.1732764,5.96188372 68.2611695,5.04843143 C67.1311087,3.91718365 64.385248,5.19245506 64.385248,5.19245506 C63.3365186,5.51802961 63.6141438,5.04365848 63.7627365,4.2358971 C63.7627365,3.28420157 63.4372905,1.6736904 60.6431589,2.62478931 C57.8521474,3.58134727 55.4554032,6.93231306 55.4554032,6.93231306 C53.7884824,9.15927999 54.0097365,10.880255 54.0097365,10.880255 C54.4256642,14.6796092 58.4573186,15.7224382 61.5936665,15.9693486 C64.8926774,16.229325 69.3456595,14.8306431 70.6959245,11.9591794 C72.0461594,9.08258472 69.5930441,7.94435651 68.8120997,7.7885795 Z M61.837661,14.8985681 C58.5625605,15.0516902 55.9146517,13.4071419 55.9146517,11.2182989 C55.9146517,9.02760635 58.5624405,7.27047626 61.837661,7.11947219 C65.1151015,6.96855761 67.7682904,8.32028564 67.7682904,10.50713 C67.7682904,12.6954062 65.1151015,14.7497715 61.837661,14.8985681 Z M61.1847889,8.56230382 C57.8901281,8.94834562 58.2707452,12.0379628 58.2707452,12.0379628 C58.2707452,12.0379628 58.2371145,13.0167746 59.1541415,13.5150403 C61.081797,14.5599574 63.0663937,13.9269754 64.0696422,12.6307328 C65.0728007,11.3337743 64.4839198,8.17894679 61.1847889,8.56230382 Z M60.3535636,12.899211 C59.7381022,12.9715808 59.2430931,12.615698 59.2430931,12.1009955 C59.2430931,11.5876951 59.6827812,11.0506193 60.2987226,10.9865426 C61.0047856,10.919065 61.4646341,11.3266746 61.4646341,11.8416158 C61.4646341,12.3550356 60.9663549,12.829168 60.3535636,12.899211 Z M62.2954094,11.2426707 C62.0871456,11.3984478 61.8306409,11.3769098 61.7205988,11.1897507 C61.6056367,11.0075137 61.6489875,10.7152603 61.8593514,10.5616907 C62.1039159,10.3799012 62.3577506,10.4322246 62.4677926,10.6144616 C62.5778346,10.8015909 62.4993232,11.0819716 62.2954094,11.2426707 Z M70.4160493,6.45084217 C70.6818542,6.45084217 70.9074284,6.25401783 70.9454091,5.99744217 C70.9497291,5.9785592 70.9523092,5.9617644 70.9523092,5.94022648 C71.3547366,2.3179784 67.9884645,2.94126543 67.9884645,2.94126543 C67.689629,2.94126543 67.4499846,3.18343276 67.4499846,3.4853514 C67.4499846,3.78306388 67.689629,4.02508206 67.9884645,4.02508206 C70.4063291,3.49024367 69.8727693,5.91120101 69.8727693,5.91120101 C69.8727693,6.21091216 70.1167638,6.45084217 70.4160493,6.45084217 Z M70.0234621,0.128896723 C68.8598906,-0.143877118 67.6625685,0.0911307911 67.3274023,0.155356741 C67.3013918,0.158041522 67.2776014,0.182264221 67.2536909,0.187156491 C67.2417507,0.189363978 67.2341306,0.201713975 67.2341306,0.201713975 C66.9040045,0.295054892 66.66211,0.60177631 66.66211,0.963595418 C66.66211,1.39542767 67.0118265,1.75026635 67.4472845,1.75026635 C67.4472845,1.75026635 67.8708323,1.69316999 68.1581776,1.5809461 C68.4434229,1.46615676 70.8542374,1.49530156 72.0515595,3.50853002 C72.7044315,4.97782166 72.3389048,5.96131694 72.2928539,6.11933127 C72.2928539,6.11933127 72.1372111,6.50104759 72.1372111,6.87733469 C72.1372111,7.31092697 72.4874975,7.58370081 72.9201655,7.58370081 C73.2819422,7.58370081 73.5860278,7.53406218 73.6750994,6.92160376 L73.6793295,6.92160376 C74.9651233,2.63132228 72.1062805,0.615289712 70.0234621,0.128896723 Z" id="Fill-1-Copy-12"></path>
            </g>
        </g>
    </g>
</svg>