<?xml version="1.0" encoding="UTF-8"?>
<svg width="16px" height="16px" viewBox="0 0 16 16" version="1.1" xmlns="http://www.w3.org/2000/svg" xmlns:xlink="http://www.w3.org/1999/xlink">
    <!-- Generator: Sketch 55.1 (78136) - https://sketchapp.com -->
    <title>Fill 1 Copy 10</title>
    <desc>Created with Sketch.</desc>
    <g id="组件库" stroke="none" stroke-width="1" fill="none" fill-rule="evenodd">
        <g id="Footer2" transform="translate(-958.000000, -370.000000)" fill="#000">
            <g id="编组" transform="translate(804.000000, 370.000000)">
                <path d="M161.758944,0.00199124946 C157.745224,0.00199124946 154,3.67438948 154,8.20385062 C154,11.8282403 156.412386,14.901831 159.590918,15.9862363 C159.99134,16.0623166 160.198041,15.8079952 160.198041,15.5917261 C160.198041,15.3954666 160.220329,14.7496704 160.217368,14.0648991 C157.991882,14.561473 157.538168,13.0966905 157.538168,13.0966905 C157.173913,12.1485886 156.657007,11.8962585 156.657007,11.8962585 C155.931458,11.3865958 156.716481,11.3987375 156.716481,11.3987375 C157.519196,11.4557552 157.943967,12.2426873 157.943967,12.2426873 C158.657744,13.4971745 159.816851,13.1336743 160.272886,12.9244231 C160.345221,12.3948479 160.552656,12.032392 160.781195,11.8281675 C159.003975,11.6209804 157.136988,10.9170494 157.136988,7.77432354 C157.136988,6.87935405 157.449633,6.14742417 157.960333,5.57268158 C157.87734,5.36542166 157.603942,4.5324723 158.037594,3.40204969 C158.037594,3.40204969 158.709473,3.18179808 160.238637,4.24315832 C160.876291,4.06188177 161.560864,3.9707214 162.240606,3.96778309 C162.920253,3.9707214 163.605751,4.06188177 164.244399,4.24315832 C165.77174,3.18179808 166.4426,3.40204969 166.4426,3.40204969 C166.877176,4.5324723 166.604796,5.36646585 166.521803,5.57268158 C167.034351,6.14742417 167.344959,6.87935405 167.344959,7.77432354 C167.344959,10.9241645 165.472903,11.6179449 163.691775,11.8201782 C163.978864,12.0744996 164.234593,12.5740118 164.234593,13.338943 C164.234593,14.4362671 164.225901,15.3193863 164.225901,15.5896377 C164.225901,15.8078981 164.369409,16.0633608 164.775753,15.9831037 C167.952342,14.8969014 170,11.8232136 170,8.20185937 C170,3.67239823 165.753242,0 161.758944,0 L161.758944,0.00199124946 Z" id="Fill-1-Copy-10"></path>
            </g>
        </g>
    </g>
</svg>