<?xml version="1.0" encoding="UTF-8"?>
<svg width="16px" height="16px" viewBox="0 0 16 16" version="1.1" xmlns="http://www.w3.org/2000/svg" xmlns:xlink="http://www.w3.org/1999/xlink">
    <!-- Generator: Sketch 55.1 (78136) - https://sketchapp.com -->
    <title>Fill 1 Copy 8</title>
    <desc>Created with Sketch.</desc>
    <g id="组件库" stroke="none" stroke-width="1" fill="none" fill-rule="evenodd">
        <g id="Footer2" transform="translate(-1004.000000, -370.000000)" fill="#000">
            <g id="编组" transform="translate(804.000000, 370.000000)">
                <path d="M215.117362,0 L200.882638,0 C200.395352,0 200,0.395352045 200,0.882637796 L200,15.1173622 C200,15.6053315 200.395352,16 200.882638,16 L208.545323,16 L208.545323,9.80401587 L206.459363,9.80401587 L206.459363,7.38998949 L208.545323,7.38998949 L208.545323,5.60668653 C208.545323,3.54064885 209.807981,2.41668264 211.651323,2.41668264 C212.534644,2.41668264 213.294001,2.48131162 213.515329,2.51068666 L213.515329,4.67065023 L212.234663,4.67065023 C211.234682,4.67065023 211.039974,5.15137348 211.039974,5.85137433 L211.039974,7.39198168 L213.429352,7.39198168 L213.119371,9.8120237 L211.039974,9.8120237 L211.039974,16 L215.116679,16 C215.605332,16 216,15.6053315 216,15.1173622 L216,0.882637796 C216,0.395352045 215.605332,0 215.117362,0" id="Fill-1-Copy-8"></path>
            </g>
        </g>
    </g>
</svg>