<?xml version="1.0" encoding="UTF-8"?>
<svg width="20px" height="16px" viewBox="0 0 20 16" version="1.1" xmlns="http://www.w3.org/2000/svg" xmlns:xlink="http://www.w3.org/1999/xlink">
    <!-- Generator: Sketch 55.1 (78136) - https://sketchapp.com -->
    <title>Fill 1 Copy 7</title>
    <desc>Created with Sketch.</desc>
    <g id="组件库" stroke="none" stroke-width="1" fill="none" fill-rule="evenodd">
        <g id="Footer2" transform="translate(-1051.000000, -370.000000)" fill="#000">
            <g id="编组" transform="translate(804.000000, 370.000000)">
                <path d="M260.538876,4.84077435 C260.766685,4.8422065 260.994242,4.85591028 261.22073,4.8816891 C260.608567,2.08142935 257.559045,0 254.078652,0 C250.187444,0 247,2.60599189 247,5.91236464 C247,7.82190709 248.06073,9.38888323 249.832584,10.6051494 L249.124747,12.6969128 L251.599073,11.4778665 C252.485197,11.6497534 253.194579,11.827032 254.078876,11.827032 C254.300843,11.827032 254.520618,11.8162767 254.739522,11.7989505 C254.596348,11.3267318 254.522612,10.836176 254.520618,10.3427558 C254.520618,7.30568475 257.176433,4.84077435 260.538876,4.84077435 Z M256.733483,2.95580322 C257.266517,2.95580322 257.619298,3.30055988 257.619298,3.82357793 C257.619298,4.34659599 257.266517,4.69368342 256.733483,4.69368342 C256.200421,4.69368342 255.670562,4.34451796 255.670562,3.82357793 C255.670562,3.30263791 256.2025,2.95580322 256.733483,2.95580322 Z M251.779354,4.69368342 C251.248258,4.69368342 250.713034,4.34451796 250.713034,3.82357793 C250.713034,3.30263791 251.248258,2.95580322 251.779354,2.95580322 C252.310309,2.95580322 252.662978,3.30055988 252.662978,3.82357793 C252.662978,4.34659599 252.309635,4.69368342 251.779354,4.69368342 Z M267,10.2594099 C267,7.47976201 264.168511,5.21417414 260.987219,5.21417414 C257.619073,5.21417414 254.966994,7.47976201 254.966994,10.2594099 C254.966994,13.042877 257.618624,15.3037752 260.987219,15.3037752 C261.691882,15.3037752 262.402921,15.1301192 263.110758,14.9554803 L265.052809,16 L264.520197,14.262878 C265.941348,13.2152132 267,11.827032 267,10.2594099 Z M259.035084,9.38910789 C258.68264,9.38910789 258.327135,9.0449971 258.327135,8.69265844 C258.327135,8.34624498 258.682865,7.99786581 259.035084,7.99786581 C259.570337,7.99786581 259.920899,8.34624498 259.920899,8.69265844 C259.921348,9.0449971 259.570337,9.38910789 259.035084,9.38910789 Z M262.928511,9.38910789 C262.578904,9.38910789 262.22559,9.0449971 262.22559,8.69265844 C262.22559,8.34624498 262.579129,7.99786581 262.928511,7.99786581 C263.459354,7.99786581 263.814438,8.34624498 263.814438,8.69265844 C263.814438,9.0449971 263.459579,9.38910789 262.928511,9.38910789 Z" id="Fill-1-Copy-7"></path>
            </g>
        </g>
    </g>
</svg>