<?xml version="1.0" encoding="UTF-8"?>
<svg width="16px" height="16px" viewBox="0 0 16 16" version="1.1" xmlns="http://www.w3.org/2000/svg" xmlns:xlink="http://www.w3.org/1999/xlink">
    <!-- Generator: Sketch 55.1 (78136) - https://sketchapp.com -->
    <title>Fill 1 Copy 5</title>
    <desc>Created with Sketch.</desc>
    <g id="组件库" stroke="none" stroke-width="1" fill="none" fill-rule="evenodd">
        <g id="Footer2" transform="translate(-1101.000000, -370.000000)" fill="#000">
            <g id="编组" transform="translate(804.000000, 370.000000)">
                <path d="M301.639983,0 L308.359923,0 C310.92002,0 313,2.07998031 313,4.63998313 L313,11.3599466 C313,12.5906004 312.511118,13.7707934 311.640909,14.6409089 C310.770793,15.5111181 309.590577,16 308.359923,16 L301.639983,16 C299.07998,16 297,13.9200197 297,11.3599466 L297,4.63998313 C297,3.40942303 297.488882,2.22923002 298.358997,1.35902078 C299.229207,0.488905295 300.409423,0 301.639983,0 L301.639983,0 Z M301.480022,1.59998125 C299.889393,1.59998125 298.599981,2.88941623 298.599981,4.48004594 L298.599981,11.5199775 C298.599981,13.11199 299.888033,14.3999484 301.480022,14.3999484 L308.519978,14.3999484 C309.283781,14.3999484 310.016295,14.0965272 310.556458,13.5564579 C311.096527,13.0163183 311.399925,12.2838041 311.399925,11.5199775 L311.399925,4.48004594 C311.399925,2.88803342 310.111967,1.59998125 308.519978,1.59998125 L301.480022,1.59998125 L301.480022,1.59998125 Z M309.200015,2.79995547 C309.465163,2.79995547 309.719577,2.90533026 309.907076,3.09292365 C310.094576,3.28042328 310.199951,3.53476653 310.199951,3.79998477 C310.199951,4.06522644 310.094576,4.31954625 309.907076,4.50713963 C309.719577,4.69463927 309.465163,4.80001406 309.200015,4.80001406 C308.934797,4.80001406 308.68036,4.69463927 308.49286,4.50713963 C308.305361,4.31954625 308.199986,4.06522644 308.199986,3.79998477 C308.199986,3.53476653 308.305361,3.28042328 308.49286,3.09292365 C308.68036,2.90533026 308.934797,2.79995547 309.200015,2.79995547 L309.200015,2.79995547 Z M304.999953,4.00002344 C306.060873,4.00002344 307.078293,4.4214523 307.828385,5.17154459 C308.578571,5.92170718 308.999977,6.93915051 308.999977,7.99995313 C308.999977,9.06087293 308.578571,10.0782928 307.828385,10.8283851 C307.078293,11.5785711 306.060873,11.9999766 304.999953,11.9999766 C303.939127,11.9999766 302.921707,11.5785711 302.171521,10.8283851 C301.421429,10.0782928 301.000023,9.06087293 301.000023,7.99995313 C301.000023,6.93915051 301.421429,5.92170718 302.171521,5.17154459 C302.921707,4.4214523 303.939127,4.00002344 304.999953,4.00002344 L304.999953,4.00002344 Z M304.999953,5.60000469 C303.674542,5.60000469 302.600005,6.67456509 302.600005,7.99995313 C302.600005,8.63653782 302.852871,9.24698975 303.302941,9.69708262 C303.75301,10.1471521 304.363486,10.4000187 304.999953,10.4000187 C306.325458,10.4000187 307.399995,9.32545835 307.399995,7.99995313 C307.399995,6.67456509 306.325458,5.60000469 304.999953,5.60000469 Z" id="Fill-1-Copy-5"></path>
            </g>
        </g>
    </g>
</svg>