<?xml version="1.0" encoding="UTF-8"?>
<svg width="91px" height="22px" viewBox="0 0 91 22" version="1.1" xmlns="http://www.w3.org/2000/svg" xmlns:xlink="http://www.w3.org/1999/xlink">
    <!-- Generator: Sketch 55.1 (78136) - https://sketchapp.com -->
    <title>形状结合</title>
    <desc>Created with Sketch.</desc>
    <g id="组件库" stroke="none" stroke-width="1" fill="none" fill-rule="evenodd">
        <g id="Footer2" transform="translate(-240.000000, -60.000000)" fill="#FFFFFF">
            <path d="M250.295259,64.6884258 C249.372328,64.6884258 248.534253,64.9394101 247.78167,65.4397923 C247.029087,65.9408091 246.431915,66.6521959 245.990472,67.5736352 C245.548711,68.4957092 245.328466,69.6376722 245.328466,71.0001587 C245.328466,72.3026754 245.538858,73.4144948 245.960597,74.3359342 C246.382018,75.2576909 246.97347,75.9846254 247.736541,76.5148338 C248.499294,77.0459941 249.372328,77.3112569 250.355326,77.3112569 C251.358982,77.3112569 252.232017,77.0558304 252.974747,76.5449773 C253.716843,76.0341242 254.299077,75.3230547 254.720816,74.4111343 C255.14192,73.4998486 255.35263,72.3823177 255.35263,71.0598111 C255.35263,69.7179491 255.126982,68.5756689 254.675051,67.6339223 C254.223756,66.6921757 253.611328,65.9658758 252.839041,65.4550227 C252.066118,64.9441696 251.218191,64.6884258 250.295259,64.6884258 Z M250.355326,60 C251.800426,60 253.160033,60.270657 254.434466,60.8116536 C255.708899,61.3523329 256.812667,62.1141703 257.745768,63.0955794 C258.679187,64.0776231 259.40126,65.2497296 259.913258,66.6118988 C260.425256,67.9747025 260.681096,69.4273022 260.681096,70.9700151 C260.681096,72.5926877 260.425256,74.0909786 259.913258,75.4629841 C259.40126,76.8356241 258.683954,78.0080479 257.761023,78.9793034 C256.837456,79.9518281 255.738774,80.6978005 254.464658,81.2184899 C253.18959,81.7391793 251.82013,82 250.355326,82 C248.870183,82 247.490553,81.7391793 246.216437,81.2184899 C244.941686,80.6978005 243.843004,79.9518281 242.920073,78.9793034 C241.997142,78.0080479 241.279518,76.8356241 240.76752,75.4629841 C240.256158,74.0909786 240,72.5926877 240,70.9700151 C240,69.406995 240.250755,67.9496358 240.752901,66.5969856 C241.254411,65.2446528 241.966632,64.0776231 242.889881,63.0955794 C243.812812,62.1141703 244.916579,61.3523329 246.201182,60.8116536 C247.48515,60.270657 248.870183,60 250.355326,60 Z M262.937955,60.1803851 L263.449635,60.1803851 L275.460771,70.9098868 L275.460771,60.3307853 L280.488267,60.3307853 L280.488267,81.9998413 L279.825626,81.9998413 L267.964816,71.3604529 L267.964816,81.6692147 L262.937955,81.6692147 L262.937955,60.1803851 Z M282.745158,60.3306901 L298.609469,60.3306901 L298.609469,64.8988592 L293.190744,64.8988592 L293.190744,81.6691195 L288.163883,81.6691195 L288.163883,64.8988592 L282.745158,64.8988592 L282.745158,60.3306901 Z M317.814542,64.8989861 L317.814542,77.1010774 L319.319708,77.1010774 C320.825192,77.1010774 322.049093,76.8653234 322.992364,76.3947674 C323.935635,75.9245287 324.627516,75.222661 325.069277,74.2907507 C325.510403,73.3591577 325.731601,72.2321079 325.731601,70.9099185 C325.731601,69.6676888 325.505635,68.5955318 325.05434,67.6940824 C324.602726,66.7923156 323.895273,66.101236 322.932615,65.6202091 C321.968686,65.1391822 320.77466,64.8989861 319.3499,64.8989861 L317.814542,64.8989861 Z M312.787682,60.330817 L319.319708,60.330817 C321.125844,60.330817 322.761313,60.5611769 324.227071,61.0218966 C325.691239,61.4829336 326.92531,62.1540232 327.928965,63.0354828 C328.932621,63.9172597 329.695057,65.0192428 330.217225,66.3417495 C330.738757,67.6639388 331,69.1466821 331,70.7896618 C331,72.6331752 330.728905,74.2460114 330.18735,75.6281705 C329.64516,77.0106469 328.862385,78.1481676 327.839024,79.0394635 C326.815346,79.9310767 325.57619,80.59233 324.121239,81.0229062 C322.665969,81.4537997 321.025415,81.6692464 319.199257,81.6692464 L312.787682,81.6692464 L312.787682,60.330817 Z M302.885526,81.734515 L302.885526,67.7733122 L308.28836,67.7733122 L308.28836,81.734515 L302.885526,81.734515 Z M302.885526,65.409744 L302.885526,60.332943 L308.28836,60.332943 L308.28836,65.409744 L302.885526,65.409744 Z" id="形状结合"></path>
        </g>
    </g>
</svg>