<?xml version="1.0" encoding="UTF-8"?>
<svg width="213px" height="304px" viewBox="0 0 213 304" version="1.1" xmlns="http://www.w3.org/2000/svg" xmlns:xlink="http://www.w3.org/1999/xlink">
    <!-- Generator: Sketch 55.2 (78181) - https://sketchapp.com -->
    <title>编组</title>
    <desc>Created with Sketch.</desc>
    <g id="页面1" stroke="none" stroke-width="1" fill="none" fill-rule="evenodd">
        <g id="插画" transform="translate(-1217.000000, -467.000000)">
            <g id="编组" transform="translate(1217.000000, 417.000000)">
                <polygon id="Fill-1" fill="#F2F2F2" points="0 352.858069 148.369149 352.858069 148.369149 224.018565 0 224.018565"></polygon>
                <g transform="translate(8.459656, 0.335743)">
                    <path d="M86.2754319,95.4847721 C86.2754319,95.4847721 110.935858,96.1842799 115.016056,97.6419844 C119.097311,99.0991601 120.904505,109.709155 120.904505,109.709155 L101.72435,115.713925 L87.3831181,114.898096 L76.5975854,115.655764 L82.6028837,99.8573568 L86.2754319,95.4847721 Z" id="Fill-2" fill="#0066CC"></path>
                    <path d="M87.3246407,87.3811089 C87.3246407,87.3811089 88.9568256,93.6772079 85.3424376,98.1079528 C81.7280495,102.538698 100.850045,118.395794 100.850045,118.395794 L110.935541,116.647289 C110.935541,116.647289 108.720168,97.3502848 111.693737,92.5113616 C114.666778,87.5561181 87.3246407,87.3811089 87.3246407,87.3811089" id="Fill-4" fill="#FFE5CF"></path>
                    <path d="M87.3246407,87.2646829 C87.3246407,87.2646829 88.9568256,93.5607819 85.3424376,97.9915268 C81.7280495,102.422272 100.850045,118.279368 100.850045,118.279368 L110.935541,116.530334 C110.935541,116.530334 108.720168,97.2333301 111.693737,92.3949356 C114.666778,87.4978522 87.3246407,87.2646829 87.3246407,87.2646829" id="Fill-6" fill="#000000" opacity="0.1"></path>
                    <polygon id="Fill-8" fill="#FFE5CF" points="154.367838 270.787721 132.155953 300.28707 147.313542 309.14856 168.184571 274.927136"></polygon>
                    <path d="M138.744016,300.753303 C138.744016,300.753303 130.581506,291.250465 130.932053,293.349517 C131.282071,295.448041 125.101763,313.46235 130.873364,315.211384 C136.644964,316.959889 186.023976,321.565643 186.723484,315.969051 C187.422992,310.37246 171.974074,306.466743 171.974074,306.466743 C171.974074,306.466743 162.821255,297.663413 160.780891,298.538459 C158.739999,299.412447 138.744016,300.753303 138.744016,300.753303" id="Fill-10" fill="#000000"></path>
                    <polygon id="Fill-12" fill="#FFE5CF" points="149.354223 298.946109 167.135362 329.203126 180.543388 321.449322 162.646457 296.672047"></polygon>
                    <path d="M177.395392,226.947615 L172.148819,234.409561 C172.148819,234.409561 147.022054,269.330492 149.703765,272.128523 C152.385476,274.927083 163.462338,285.595767 169.117618,283.554875 C174.772369,281.514512 194.827042,245.836441 194.827042,245.836441 L189.57994,224.907252 L177.395392,226.947615 Z" id="Fill-14" fill="#000000"></path>
                    <path d="M69.1940117,219.893478 C69.1940117,219.893478 74.848763,230.387153 89.0736746,233.943381 C103.356746,237.499609 118.222477,244.786545 118.747504,244.670225 C119.272003,244.553904 120.787868,243.795708 121.137357,245.89476 C121.487375,247.993283 125.393622,251.72452 125.393622,251.72452 C125.393622,251.72452 141.133869,305.242419 147.138639,305.301172 C153.143408,305.359268 165.502437,301.044844 165.794295,299.35397 C166.085625,297.663625 147.371808,242.979351 147.196799,241.930353 L144.981955,229.221306 C144.981955,229.221306 169.700541,233.185713 171.974074,233.885221 C174.306295,234.584728 194.768617,245.777911 194.768617,245.777911 C194.768617,245.777911 215.639646,230.737171 196.109473,215.520893 C176.579828,200.305145 142.999752,189.170651 142.999752,189.170651 L130.932053,185.788904 L120.438378,185.147556 L118.863825,179.200947 L93.970758,180.658651 L68.0281653,191.677353 L69.1940117,219.893478 Z" id="Fill-16" fill="#000000"></path>
                    <path d="M102.015944,58.8150712 C112.684627,58.8150712 120.019149,66.7793086 118.303954,77.3094655 C117.764122,80.6219495 116.638459,86.8207625 115.841137,89.3909117 C113.830382,95.871537 109.450924,101.139788 104.530577,101.139788 C96.2073324,101.139788 87.7196538,88.7236563 86.1588473,78.1697067 C83.7150641,61.6511709 91.3467313,58.8150712 102.015944,58.8150712" id="Fill-18" fill="#FFE5CF"></path>
                    <path d="M84.4682907,96.0676952 L86.7999834,95.6595168 C86.7999834,95.6595168 90.997559,111.866632 104.056624,114.548343 C104.056624,114.548343 110.469572,106.852699 110.177714,105.570533 C109.885856,104.287837 115.249807,97.3503906 118.106527,101.197948 C120.962718,105.103665 117.407019,173.371503 119.796872,174.59551 C122.187253,175.820045 127.317506,177.10274 123.178619,181.649805 C119.039204,186.196871 102.59892,192.260329 98.9845318,190.161277 C95.3701437,188.062225 87.9076697,170.222925 84.7009313,164.218684 C81.4947217,158.213915 76.3649977,137.809224 76.3649977,137.809224 C76.3649977,137.809224 69.7770406,115.48102 73.8577672,110.408927 C77.8803336,105.395523 84.4682907,96.0676952 84.4682907,96.0676952" id="Fill-20" fill="#FFFFFF"></path>
                    <path d="M103.006834,180.133994 C102.599184,184.914228 101.840987,189.636831 100.791461,194.300216 C99.8587843,198.089614 98.7510981,200.363675 97.4684028,200.304986 C94.2621931,200.071817 92.8044887,204.79442 92.0468207,210.216002 C91.2309926,215.987602 91.2309926,222.575559 90.8222855,224.907252 C90.2396267,227.996613 86.5083897,230.328834 78.9877555,229.628797 C74.4988505,229.104299 70.1262658,228.055301 65.9868503,226.423117 C55.9013542,222.75004 56.1932123,192.901201 57.8835573,170.806165 C58.9336121,157.222602 60.448948,146.553918 60.448948,146.553918 C60.448948,146.553918 57.3590586,137.401099 56.3682214,131.105 C56.1932123,129.938625 56.0763633,128.772778 56.0763633,127.665621 C56.2513724,122.18535 66.2205483,107.377779 72.2834781,98.1081114 C78.3464078,88.8966034 86.6252387,95.6595697 86.6252387,95.6595697 L83.7679898,104.34605 C83.7679898,104.34605 88.1992634,111.225337 88.2574236,117.754605 C88.3155837,124.283873 98.9261073,129.006476 102.773665,132.212686 C105.105886,134.194889 105.047197,160.778829 103.006834,180.133994" id="Fill-22" fill="#0066CC"></path>
                    <path d="M111.401932,98.8076721 C111.401932,98.8076721 112.10144,99.6235002 115.308178,99.2158505 C119.155736,98.7495119 124.402309,100.031679 125.626315,103.704755 C127.900376,110.409033 134.196475,137.75117 134.196475,137.75117 C134.196475,137.75117 136.820026,168.940864 138.044561,175.878311 C139.268568,182.815758 138.62722,188.878687 139.793066,192.493075 C140.958913,196.107463 128.249866,185.730638 123.58648,187.071493 C118.922566,188.412349 115.890837,170.923067 116.474025,164.801449 C117.056683,158.67983 117.581711,152.033713 115.949526,145.796303 C114.317341,139.558364 117.231693,122.943071 117.115372,119.095513 C116.998523,115.247956 106.796178,105.686959 111.401932,98.8076721" id="Fill-24" fill="#0066CC"></path>
                    <path d="M125.101869,195.816187 C125.101869,195.816187 145.62288,207.009369 147.605612,222.924626 C149.587815,238.840411 120.146626,207.476236 120.146626,207.476236 L125.101869,195.816187 Z" id="Fill-26" fill="#FFE5CF"></path>
                    <path d="M136.820132,184.506314 C136.820132,184.506314 143.116231,216.162347 152.910398,214.529633 C162.704564,212.839288 147.430127,182.69912 147.430127,182.69912 L136.820132,184.506314 Z" id="Fill-28" fill="#FFE5CF"></path>
                    <path d="M170.400049,322.614957 C170.400049,322.614957 165.386117,328.386558 164.161582,327.512569 C162.938104,326.637524 160.080855,338.588903 162.646246,340.862964 C165.211636,343.136497 175.180283,346.925365 175.238444,350.714762 C175.297132,354.504159 201.997393,353.746491 202.93007,349.782614 C203.863276,345.818208 199.607012,336.723549 196.575811,335.032675 C193.544082,333.34233 182.409588,318.009732 182.409588,318.009732 C182.409588,318.009732 173.60573,319.350587 170.400049,322.614957" id="Fill-30" fill="#000000"></path>
                    <path d="M121.837076,215.171034 C117.056842,211.789815 103.823296,210.973987 91.9887663,210.21579 C86.7998248,209.866301 81.9027414,209.574443 78.1720331,209.049944 C74.5571164,208.525445 71.2922179,205.260547 68.4360265,200.305303 C64.0634418,192.843358 60.5072139,181.649647 57.7673428,170.864643 C58.8168689,157.281079 60.3327335,146.612395 60.3327335,146.612395 C60.3327335,146.612395 57.2423154,137.459576 56.2514782,131.163477 C56.950986,130.172111 57.8260317,129.414443 58.875029,128.831256 C71.4090669,123.467834 83.3017571,176.286225 84.8176217,184.564527 C84.8176217,184.681376 84.8763105,184.855856 84.8763105,184.914017 C85.6339785,189.170281 93.5622624,192.843358 100.675247,194.300005 C105.047303,195.175051 109.128558,195.233211 110.993912,194.067364 C115.949156,191.036164 131.106745,203.161495 132.272591,203.511513 C133.555286,203.919691 128.716363,220.009957 121.837076,215.171034" id="Fill-32" fill="#000000" opacity="0.1"></path>
                    <path d="M58.9333478,125.566516 C58.9333478,125.566516 49.8386888,129.88094 53.8612552,149.935084 C57.8843504,169.990285 65.9289546,204.09433 78.2303519,205.843364 C90.5312205,207.534238 115.016109,207.18422 121.895395,211.964454 C128.715993,216.803906 133.613605,200.654951 132.447759,200.304933 C131.281912,199.955444 116.124324,187.829584 111.168551,190.860785 C106.213308,193.892514 86.2173246,188.586723 85.0509496,181.707966 C83.8269431,174.770519 71.7005549,120.086774 58.9333478,125.566516" id="Fill-34" fill="#0066CC"></path>
                    <path d="M124.460574,115.947464 L134.429222,139.150185 C134.429222,139.150185 135.420588,138.625687 136.586963,142.298235 C137.752809,145.971312 138.277308,149.119361 140.37636,151.509214 C142.416723,153.899596 151.511382,187.82969 151.802711,189.403186 C152.09457,190.977739 139.209985,196.457482 136.353793,192.084897 C133.497073,187.537832 124.460574,115.947464 124.460574,115.947464" id="Fill-36" fill="#0066CC"></path>
                    <path d="M88.4481888,79.34433 C87.8121284,77.0422461 86.6235467,74.4456604 84.6487458,75.801849 L83.0049289,75.3006144 C83.0049289,75.3006144 80.9487037,60.5765831 83.9925937,57.1789737 C83.9925937,57.1789737 90.2077973,50.6095221 95.4184166,50.1564018 C95.4184166,50.1564018 101.534219,48.3444492 108.103142,53.5545398 C108.103142,53.5545398 111.086757,54.0943716 114.89889,54.6870763 C119.880041,55.4616635 118.028962,60.4174358 121.694637,62.6153602 C125.379875,64.8254453 119.309543,71.048051 118.523323,75.0743186 C117.650393,79.5404882 121.015221,66.4666186 110.59504,65.3335534 C100.174858,64.2010169 98.1360811,67.1460347 94.0585269,63.7478966 C89.9815015,60.3502873 91.3429773,66.313816 91.3429773,66.313816 L91.5666295,72.808717 L90.6038149,72.8890837 C89.6177362,72.9715653 88.8658843,73.8064276 88.8875622,74.7956787 L88.9859057,79.2650207 C88.9927792,79.5891313 88.5343715,79.6568085 88.4481888,79.34433" id="Fill-52" fill="#000000"></path>
                    <path d="M86.5718371,75.7356522 C86.5718371,75.7356522 81.9407041,72.6563374 84.305178,78.3480997 C86.6691231,84.0403908 88.9484717,83.1283341 88.9484717,83.1283341 L86.5718371,75.7356522 Z" id="Fill-54" fill="#FFE5CF"></path>
                </g>
            </g>
        </g>
    </g>
</svg>