<?xml version="1.0" encoding="UTF-8"?>
<svg width="379px" height="142px" viewBox="0 0 379 142" version="1.1" xmlns="http://www.w3.org/2000/svg" xmlns:xlink="http://www.w3.org/1999/xlink">
    <!-- Generator: Sketch 55.1 (78136) - https://sketchapp.com -->
    <title>编组 7</title>
    <desc>Created with Sketch.</desc>
    <g id="官网主页" stroke="none" stroke-width="1" fill="none" fill-rule="evenodd">
        <g id="ONT-ID-2.0-Lite" transform="translate(-1127.000000, -1471.000000)">
            <g id="编组-5" transform="translate(1127.000000, 1413.000000)">
                <g id="编组-7" transform="translate(0.000000, 57.500000)">
                    <g id="1" transform="translate(325.500000, 110.000000) scale(1, -1) translate(-325.500000, -110.000000) translate(271.500000, 77.500000)" fill="#FAFAFA">
                        <path d="M36.5854974,0.0690758339 C55.4508803,-0.819050395 63.877952,6.98449197 61.4612384,16.1297313 C58.8581961,23.2649419 60.0998324,28.5185702 65.1861476,31.8906162 C72.8156204,36.9486853 79.6730797,39.4693307 97.1963384,42.3037285 C114.719597,45.1381263 106.880991,55.2022519 95.8836931,59.2894222 C84.8863952,63.3765926 54.6805355,69.4279312 30.2302918,59.9901919 C5.7800481,50.5524525 -1.32825998,41.6600047 0.196299682,28.4516438 C1.72085934,15.2432829 17.7201146,0.957202063 36.5854974,0.0690758339 Z" id="Path"></path>
                    </g>
                    <g id="1" transform="translate(54.000000, 76.000000) scale(-1, -1) translate(-54.000000, -76.000000) translate(0.000000, 43.500000)" fill="#FAFAFA">
                        <path d="M36.5854974,0.0690758339 C55.4508803,-0.819050395 63.877952,6.98449197 61.4612384,16.1297313 C58.8581961,23.2649419 60.0998324,28.5185702 65.1861476,31.8906162 C72.8156204,36.9486853 79.6730797,39.4693307 97.1963384,42.3037285 C114.719597,45.1381263 106.880991,55.2022519 95.8836931,59.2894222 C84.8863952,63.3765926 54.6805355,69.4279312 30.2302918,59.9901919 C5.7800481,50.5524525 -1.32825998,41.6600047 0.196299682,28.4516438 C1.72085934,15.2432829 17.7201146,0.957202063 36.5854974,0.0690758339 Z" id="Path"></path>
                    </g>
                    <g id="Page-1" transform="translate(29.500000, 0.000000)">
                        <polygon id="Fill-1" fill="#3AAB25" points="32.7955328 36.6886475 32.2820082 36.3591393 39.779959 19.2538115 40.2938934 19.5837295"></polygon>
                        <g id="Group-82" transform="translate(0.000000, 0.367213)">
                            <path d="M34.4695082,37.3964344 C33.785082,38.4628279 32.365,38.7718443 31.2990164,38.087418 C30.2330328,37.4029918 29.9236066,35.9829098 30.6080328,34.9169262 C31.2928689,33.8509426 32.7121311,33.5415164 33.7785246,34.2259426 C34.8445082,34.9107787 35.1539344,36.3304508 34.4695082,37.3964344" id="Fill-2" fill="#3AAB25"></path>
                            <path d="M40.5434016,21.3736066 C43.4442213,20.3190984 42.6081557,16.4818033 39.5315164,16.7293443 L39.5311066,16.7293443 C36.629877,17.7838525 37.4663525,21.6219672 40.5434016,21.3736066" id="Fill-4" fill="#3AAB25"></path>
                            <polygon id="Fill-6" fill="#3AAB25" points="59.809918 68.8929918 32.325082 36.4364344 32.7730328 36.0216803 60.257459 68.4782377"></polygon>
                            <path d="M60.2107377,66.3268852 C63.1345082,66.9092623 62.9890164,70.694918 60.0291803,71.0510656 C59.9734426,71.0580328 59.9119672,71.0555738 59.8570492,71.0445082 C56.9328689,70.462541 57.0779508,66.6764754 60.0386066,66.3203279 C60.0943443,66.3133607 60.1558197,66.3158197 60.2107377,66.3268852" id="Fill-8" fill="#3AAB25"></path>
                            <path d="M60.2107377,66.3268852 C63.1345082,66.9092623 62.9890164,70.694918 60.0291803,71.0510656 C59.9734426,71.0580328 59.9119672,71.0555738 59.8570492,71.0445082 C56.9328689,70.462541 57.0779508,66.6764754 60.0386066,66.3203279 C60.0943443,66.3133607 60.1558197,66.3158197 60.2107377,66.3268852 Z" id="Stroke-10"></path>
                            <path d="M34.232582,34.670082 C33.3715164,33.7405738 31.9194672,33.6848361 30.989959,34.5459016 C30.0604508,35.4065574 30.0047131,36.8586066 30.8657787,37.7881148 C31.7264344,38.7180328 33.1784836,38.7737705 34.1079918,37.9127049 C35.0375,37.0516393 35.0936475,35.5995902 34.232582,34.670082" id="Fill-12" fill="#3AAB25"></path>
                            <polygon id="Fill-14" fill="#3AAB25" points="6.50659836 37.6119672 6.47995902 37.002541 32.525041 35.8521311 32.5520902 36.4615574"></polygon>
                            <path d="M32.4373361,33.8643852 C33.7033197,33.8086475 34.775041,34.7897951 34.8307787,36.0553689 C34.8869262,37.3213525 33.9057787,38.3930738 32.6402049,38.4492213 C31.3742213,38.504959 30.3025,37.5238115 30.2463525,36.2578279 C30.1906148,34.9922541 31.1717623,33.9205328 32.4373361,33.8643852" id="Fill-16" fill="#3AAB25"></path>
                            <path d="M6.3917623,35.015082 C5.12618852,35.0712295 4.14504098,36.142541 4.20077869,37.4085246 C4.25692623,38.6745082 5.32864754,39.6556557 6.59422131,39.5995082 C7.86020492,39.5437705 8.84135246,38.4720492 8.78520492,37.2060656 C8.72946721,35.940082 7.6577459,34.9593443 6.3917623,35.015082" id="Fill-18" fill="#3AAB25"></path>
                            <path d="M6.3917623,35.015082 C5.12618852,35.0712295 4.14504098,36.142541 4.20077869,37.4085246 C4.25692623,38.6745082 5.32864754,39.6556557 6.59422131,39.5995082 C7.86020492,39.5437705 8.84135246,38.4720492 8.78520492,37.2060656 C8.72946721,35.940082 7.6577459,34.9593443 6.3917623,35.015082 Z" id="Stroke-20"></path>
                            <polygon id="Fill-22" fill="#3AAB25" points="40.1357787 19.3402459 39.9386475 18.7627869 64.6107787 10.3386066 64.8083197 10.9160656"></polygon>
                            <path d="M62.5759016,9.58040984 C64.2943443,7.0152459 67.8209836,8.74639344 66.8427049,11.6746721 C65.1238525,14.2386066 61.5992623,12.5078689 62.5759016,9.58040984" id="Fill-24" fill="#3AAB25"></path>
                            <path d="M62.5759016,9.58040984 C64.2943443,7.0152459 67.8209836,8.74639344 66.8427049,11.6746721 C65.1238525,14.2386066 61.5992623,12.5078689 62.5759016,9.58040984 Z" id="Stroke-26"></path>
                            <path d="M41.0841393,16.9182377 C38.1562705,15.9407787 36.4255328,19.4661885 38.989877,21.185041 C41.9177459,22.1629098 43.6488934,18.6366803 41.0841393,16.9182377" id="Fill-28" fill="#3AAB25"></path>
                            <polygon id="Fill-30" fill="#3AAB25" points="39.7323361 19.0640574 33.1323361 2.65463115 33.7421721 2.62963115 40.3417623 19.0390574"></polygon>
                            <path d="M31.8247951,4.38762295 C29.8588115,2.01180328 32.5182377,-0.872622951 35.0456967,0.893360656 C35.0473361,0.894590164 35.0489754,0.895819672 35.0502049,0.897459016 C37.0145492,3.27286885 34.3567623,6.15647541 31.8293033,4.39213115 C31.8276639,4.39090164 31.8260246,4.3892623 31.8247951,4.38762295" id="Fill-32" fill="#3AAB25"></path>
                            <path d="M31.8247951,4.38762295 C29.8588115,2.01180328 32.5182377,-0.872622951 35.0456967,0.893360656 C35.0473361,0.894590164 35.0489754,0.895819672 35.0502049,0.897459016 C37.0145492,3.27286885 34.3567623,6.15647541 31.8293033,4.39213115 C31.8276639,4.39090164 31.8260246,4.3892623 31.8247951,4.38762295 Z" id="Stroke-34"></path>
                            <path d="M38.2879098,17.4435246 C36.5223361,19.9709836 39.4067623,22.6295902 41.7821721,20.6640164 C41.7838115,20.6627869 41.7854508,20.6615574 41.7866803,20.6595082 C43.5518443,18.132459 40.6678279,15.4738525 38.292418,17.4386066 C38.2907787,17.4402459 38.2891393,17.4418852 38.2879098,17.4435246" id="Fill-36" fill="#3AAB25"></path>
                            <path d="M38.2879098,17.4435246 C36.5223361,19.9709836 39.4067623,22.6295902 41.7821721,20.6640164 C41.7838115,20.6627869 41.7854508,20.6615574 41.7866803,20.6595082 C43.5518443,18.132459 40.6678279,15.4738525 38.292418,17.4386066 C38.2907787,17.4402459 38.2891393,17.4418852 38.2879098,17.4435246 Z" id="Stroke-38"></path>
                            <polygon id="Fill-40" fill="#3AAB25" points="32.7533197 51.0843033 32.2672541 50.7154508 32.2959426 35.9720082 32.7815984 36.3412705"></polygon>
                            <path d="M30.7117623,34.7687295 C31.4781557,33.7597131 32.9179098,33.5634016 33.9269262,34.3297951 C34.9355328,35.0961885 35.1322541,36.5359426 34.3658607,37.5445492 C33.5990574,38.5535656 32.1597131,38.7502869 31.1506967,37.9838934 C30.1416803,37.2175 29.9453689,35.7773361 30.7117623,34.7687295" id="Fill-42" fill="#3AAB25"></path>
                            <path d="M30.8006148,49.3695492 C29.8190574,50.4715984 30.1030738,52.2043852 31.4280738,52.9244672 C32.3428279,53.4215984 33.5272541,53.2084836 34.219877,52.4306148 C35.2014344,51.3285656 34.917418,49.5953689 33.592418,48.8756967 C32.6776639,48.3785656 31.4932377,48.5920902 30.8006148,49.3695492" id="Fill-44" fill="#3AAB25"></path>
                            <polygon id="Fill-46" fill="#3AAB25" points="54.8144262 35.0552869 32.4586885 36.4511885 32.6185246 35.8622541 54.9742623 34.4663525"></polygon>
                            <path d="M31.9390574,38.3713934 C30.7161066,38.0402459 29.9927459,36.78 30.3238934,35.5570492 C30.655041,34.3340984 31.9152869,33.6107377 33.1382377,33.9418852 C34.3615984,34.2730328 35.0845492,35.5332787 34.7534016,36.7566393 C34.4222541,37.9791803 33.1620082,38.702541 31.9390574,38.3713934" id="Fill-48" fill="#3AAB25"></path>
                            <path d="M54.2945492,36.9755738 C55.5175,37.3067213 56.7781557,36.5833607 57.1088934,35.3604098 C57.440041,34.137459 56.7170902,32.8772131 55.4941393,32.5460656 C54.2711885,32.214918 53.0109426,32.9378689 52.6797951,34.1612295 C52.3482377,35.3841803 53.0715984,36.6444262 54.2945492,36.9755738" id="Fill-50" fill="#3AAB25"></path>
                            <path d="M54.2945492,36.9755738 C55.5175,37.3067213 56.7781557,36.5833607 57.1088934,35.3604098 C57.440041,34.137459 56.7170902,32.8772131 55.4941393,32.5460656 C54.2711885,32.214918 53.0109426,32.9378689 52.6797951,34.1612295 C52.3482377,35.3841803 53.0715984,36.6444262 54.2945492,36.9755738 Z" id="Stroke-52"></path>
                            <polygon id="Fill-54" fill="#3AAB25" points="32.3226639 36.3720492 2.38331967 18.3794262 2.81528689 17.9486885 32.7546311 35.9413115"></polygon>
                            <path d="M34.1627459,34.5357787 C35.0578279,35.4325 35.0565984,36.8857787 34.1594672,37.7804508 C33.2627459,38.6759426 31.809877,38.6743033 30.9147951,37.777582 C30.0197131,36.8808607 30.0213525,35.427582 30.9180738,34.5329098 C31.8147951,33.6378279 33.2676639,33.6390574 34.1627459,34.5357787" id="Fill-56" fill="#3AAB25"></path>
                            <path d="M34.1627459,34.5357787 C35.0578279,35.4325 35.0565984,36.8857787 34.1594672,37.7804508 C33.2627459,38.6759426 31.809877,38.6743033 30.9147951,37.777582 C30.0197131,36.8808607 30.0213525,35.427582 30.9180738,34.5329098 C31.8147951,33.6378279 33.2676639,33.6390574 34.1627459,34.5357787 Z" id="Stroke-58"></path>
                            <path d="M4.22348361,16.5432377 C3.32840164,15.6465164 1.87553279,15.6452869 0.978811475,16.539959 C0.0820901639,17.435041 0.0804508197,18.8883197 0.975532787,19.785041 C1.87061475,20.6817623 3.32348361,20.6834016 4.22020492,19.7879098 C5.11733607,18.8928279 5.11856557,17.439959 4.22348361,16.5432377" id="Fill-60" fill="#3AAB25"></path>
                            <path d="M4.22348361,16.5432377 C3.32840164,15.6465164 1.87553279,15.6452869 0.978811475,16.539959 C0.0820901639,17.435041 0.0804508197,18.8883197 0.975532787,19.785041 C1.87061475,20.6817623 3.32348361,20.6834016 4.22020492,19.7879098 C5.11733607,18.8928279 5.11856557,17.439959 4.22348361,16.5432377 Z" id="Stroke-62"></path>
                            <polygon id="Fill-64" fill="#3AAB25" points="19.3718033 53.6543852 19.2603279 53.0543852 32.4545902 50.599877 32.5660656 51.199877"></polygon>
                            <path d="M31.9104508,48.685123 C33.3358607,48.3027459 34.7567623,49.3347131 34.805123,50.8416803 C34.8383197,51.8826639 34.1161885,52.844959 33.1104508,53.1146311 C31.685041,53.497418 30.2637295,52.4654508 30.2153689,50.9576639 C30.1821721,49.9170902 30.9047131,48.9547951 31.9104508,48.685123" id="Fill-66" fill="#3AAB25"></path>
                            <path d="M19.2579508,51.0597131 C17.7509836,51.1076639 16.7190164,52.5285656 17.1009836,53.9539754 C17.3706557,54.9597131 18.332541,55.6822541 19.3735246,55.6490574 C20.8809016,55.6015164 21.9132787,54.1802049 21.5304918,52.7543852 C21.2608197,51.7486475 20.2989344,51.0265164 19.2579508,51.0597131" id="Fill-68" fill="#3AAB25"></path>
                            <path d="M19.2579508,51.0597131 C17.7509836,51.1076639 16.7190164,52.5285656 17.1009836,53.9539754 C17.3706557,54.9597131 18.332541,55.6822541 19.3735246,55.6490574 C20.8809016,55.6015164 21.9132787,54.1802049 21.5304918,52.7543852 C21.2608197,51.7486475 20.2989344,51.0265164 19.2579508,51.0597131 Z" id="Stroke-70"></path>
                            <polygon id="Fill-72" fill="#3AAB25" points="28.560123 72.0479918 32.2105328 50.9578279 32.8097131 50.8422541 29.1593033 71.932418"></polygon>
                            <path d="M30.2990984,51.5137705 C29.9081148,50.0908197 30.9306557,48.6633607 32.4372131,48.6055738 C33.4777869,48.5658197 34.445,49.2818033 34.7212295,50.2854918 C35.1130328,51.7088525 34.0896721,53.1367213 32.5827049,53.1945082 C31.5421311,53.2342623 30.5753279,52.5178689 30.2990984,51.5137705" id="Fill-74" fill="#3AAB25"></path>
                            <path d="M30.2990984,51.5137705 C29.9081148,50.0908197 30.9306557,48.6633607 32.4372131,48.6055738 C33.4777869,48.5658197 34.445,49.2818033 34.7212295,50.2854918 C35.1130328,51.7088525 34.0896721,53.1367213 32.5827049,53.1945082 C31.5421311,53.2342623 30.5753279,52.5178689 30.2990984,51.5137705 Z" id="Stroke-76"></path>
                            <path d="M26.8911475,70.6586066 C25.5190164,73.4229508 28.7710656,75.6241803 30.827623,73.322541 C32.2009836,70.557377 28.9472951,68.3557377 26.8911475,70.6586066" id="Fill-78" fill="#3AAB25"></path>
                            <path d="M26.8911475,70.6586066 C25.5190164,73.4229508 28.7710656,75.6241803 30.827623,73.322541 C32.2009836,70.557377 28.9472951,68.3557377 26.8911475,70.6586066 Z" id="Stroke-80"></path>
                        </g>
                    </g>
                    <g id="Page-1" transform="translate(318.713115, 69.000000) scale(-1, 1) translate(-318.713115, -69.000000) translate(284.713115, 31.000000)">
                        <polygon id="Fill-1" fill="#3AAB25" points="32.7955328 36.6886475 32.2820082 36.3591393 39.779959 19.2538115 40.2938934 19.5837295"></polygon>
                        <g id="Group-82" transform="translate(0.000000, 0.367213)">
                            <path d="M34.4695082,37.3964344 C33.785082,38.4628279 32.365,38.7718443 31.2990164,38.087418 C30.2330328,37.4029918 29.9236066,35.9829098 30.6080328,34.9169262 C31.2928689,33.8509426 32.7121311,33.5415164 33.7785246,34.2259426 C34.8445082,34.9107787 35.1539344,36.3304508 34.4695082,37.3964344" id="Fill-2" fill="#3AAB25"></path>
                            <path d="M40.5434016,21.3736066 C43.4442213,20.3190984 42.6081557,16.4818033 39.5315164,16.7293443 L39.5311066,16.7293443 C36.629877,17.7838525 37.4663525,21.6219672 40.5434016,21.3736066" id="Fill-4" fill="#3AAB25"></path>
                            <polygon id="Fill-6" fill="#3AAB25" points="59.809918 68.8929918 32.325082 36.4364344 32.7730328 36.0216803 60.257459 68.4782377"></polygon>
                            <path d="M60.2107377,66.3268852 C63.1345082,66.9092623 62.9890164,70.694918 60.0291803,71.0510656 C59.9734426,71.0580328 59.9119672,71.0555738 59.8570492,71.0445082 C56.9328689,70.462541 57.0779508,66.6764754 60.0386066,66.3203279 C60.0943443,66.3133607 60.1558197,66.3158197 60.2107377,66.3268852" id="Fill-8" fill="#3AAB25"></path>
                            <path d="M60.2107377,66.3268852 C63.1345082,66.9092623 62.9890164,70.694918 60.0291803,71.0510656 C59.9734426,71.0580328 59.9119672,71.0555738 59.8570492,71.0445082 C56.9328689,70.462541 57.0779508,66.6764754 60.0386066,66.3203279 C60.0943443,66.3133607 60.1558197,66.3158197 60.2107377,66.3268852 Z" id="Stroke-10"></path>
                            <path d="M34.232582,34.670082 C33.3715164,33.7405738 31.9194672,33.6848361 30.989959,34.5459016 C30.0604508,35.4065574 30.0047131,36.8586066 30.8657787,37.7881148 C31.7264344,38.7180328 33.1784836,38.7737705 34.1079918,37.9127049 C35.0375,37.0516393 35.0936475,35.5995902 34.232582,34.670082" id="Fill-12" fill="#3AAB25"></path>
                            <polygon id="Fill-14" fill="#3AAB25" points="6.50659836 37.6119672 6.47995902 37.002541 32.525041 35.8521311 32.5520902 36.4615574"></polygon>
                            <path d="M32.4373361,33.8643852 C33.7033197,33.8086475 34.775041,34.7897951 34.8307787,36.0553689 C34.8869262,37.3213525 33.9057787,38.3930738 32.6402049,38.4492213 C31.3742213,38.504959 30.3025,37.5238115 30.2463525,36.2578279 C30.1906148,34.9922541 31.1717623,33.9205328 32.4373361,33.8643852" id="Fill-16" fill="#3AAB25"></path>
                            <path d="M6.3917623,35.015082 C5.12618852,35.0712295 4.14504098,36.142541 4.20077869,37.4085246 C4.25692623,38.6745082 5.32864754,39.6556557 6.59422131,39.5995082 C7.86020492,39.5437705 8.84135246,38.4720492 8.78520492,37.2060656 C8.72946721,35.940082 7.6577459,34.9593443 6.3917623,35.015082" id="Fill-18" fill="#3AAB25"></path>
                            <path d="M6.3917623,35.015082 C5.12618852,35.0712295 4.14504098,36.142541 4.20077869,37.4085246 C4.25692623,38.6745082 5.32864754,39.6556557 6.59422131,39.5995082 C7.86020492,39.5437705 8.84135246,38.4720492 8.78520492,37.2060656 C8.72946721,35.940082 7.6577459,34.9593443 6.3917623,35.015082 Z" id="Stroke-20"></path>
                            <polygon id="Fill-22" fill="#3AAB25" points="40.1357787 19.3402459 39.9386475 18.7627869 64.6107787 10.3386066 64.8083197 10.9160656"></polygon>
                            <path d="M62.5759016,9.58040984 C64.2943443,7.0152459 67.8209836,8.74639344 66.8427049,11.6746721 C65.1238525,14.2386066 61.5992623,12.5078689 62.5759016,9.58040984" id="Fill-24" fill="#3AAB25"></path>
                            <path d="M62.5759016,9.58040984 C64.2943443,7.0152459 67.8209836,8.74639344 66.8427049,11.6746721 C65.1238525,14.2386066 61.5992623,12.5078689 62.5759016,9.58040984 Z" id="Stroke-26"></path>
                            <path d="M41.0841393,16.9182377 C38.1562705,15.9407787 36.4255328,19.4661885 38.989877,21.185041 C41.9177459,22.1629098 43.6488934,18.6366803 41.0841393,16.9182377" id="Fill-28" fill="#3AAB25"></path>
                            <polygon id="Fill-30" fill="#3AAB25" points="39.7323361 19.0640574 33.1323361 2.65463115 33.7421721 2.62963115 40.3417623 19.0390574"></polygon>
                            <path d="M31.8247951,4.38762295 C29.8588115,2.01180328 32.5182377,-0.872622951 35.0456967,0.893360656 C35.0473361,0.894590164 35.0489754,0.895819672 35.0502049,0.897459016 C37.0145492,3.27286885 34.3567623,6.15647541 31.8293033,4.39213115 C31.8276639,4.39090164 31.8260246,4.3892623 31.8247951,4.38762295" id="Fill-32" fill="#3AAB25"></path>
                            <path d="M31.8247951,4.38762295 C29.8588115,2.01180328 32.5182377,-0.872622951 35.0456967,0.893360656 C35.0473361,0.894590164 35.0489754,0.895819672 35.0502049,0.897459016 C37.0145492,3.27286885 34.3567623,6.15647541 31.8293033,4.39213115 C31.8276639,4.39090164 31.8260246,4.3892623 31.8247951,4.38762295 Z" id="Stroke-34"></path>
                            <path d="M38.2879098,17.4435246 C36.5223361,19.9709836 39.4067623,22.6295902 41.7821721,20.6640164 C41.7838115,20.6627869 41.7854508,20.6615574 41.7866803,20.6595082 C43.5518443,18.132459 40.6678279,15.4738525 38.292418,17.4386066 C38.2907787,17.4402459 38.2891393,17.4418852 38.2879098,17.4435246" id="Fill-36" fill="#3AAB25"></path>
                            <path d="M38.2879098,17.4435246 C36.5223361,19.9709836 39.4067623,22.6295902 41.7821721,20.6640164 C41.7838115,20.6627869 41.7854508,20.6615574 41.7866803,20.6595082 C43.5518443,18.132459 40.6678279,15.4738525 38.292418,17.4386066 C38.2907787,17.4402459 38.2891393,17.4418852 38.2879098,17.4435246 Z" id="Stroke-38"></path>
                            <polygon id="Fill-40" fill="#3AAB25" points="32.7533197 51.0843033 32.2672541 50.7154508 32.2959426 35.9720082 32.7815984 36.3412705"></polygon>
                            <path d="M30.7117623,34.7687295 C31.4781557,33.7597131 32.9179098,33.5634016 33.9269262,34.3297951 C34.9355328,35.0961885 35.1322541,36.5359426 34.3658607,37.5445492 C33.5990574,38.5535656 32.1597131,38.7502869 31.1506967,37.9838934 C30.1416803,37.2175 29.9453689,35.7773361 30.7117623,34.7687295" id="Fill-42" fill="#3AAB25"></path>
                            <path d="M30.8006148,49.3695492 C29.8190574,50.4715984 30.1030738,52.2043852 31.4280738,52.9244672 C32.3428279,53.4215984 33.5272541,53.2084836 34.219877,52.4306148 C35.2014344,51.3285656 34.917418,49.5953689 33.592418,48.8756967 C32.6776639,48.3785656 31.4932377,48.5920902 30.8006148,49.3695492" id="Fill-44" fill="#3AAB25"></path>
                            <polygon id="Fill-46" fill="#3AAB25" points="54.8144262 35.0552869 32.4586885 36.4511885 32.6185246 35.8622541 54.9742623 34.4663525"></polygon>
                            <path d="M31.9390574,38.3713934 C30.7161066,38.0402459 29.9927459,36.78 30.3238934,35.5570492 C30.655041,34.3340984 31.9152869,33.6107377 33.1382377,33.9418852 C34.3615984,34.2730328 35.0845492,35.5332787 34.7534016,36.7566393 C34.4222541,37.9791803 33.1620082,38.702541 31.9390574,38.3713934" id="Fill-48" fill="#3AAB25"></path>
                            <path d="M54.2945492,36.9755738 C55.5175,37.3067213 56.7781557,36.5833607 57.1088934,35.3604098 C57.440041,34.137459 56.7170902,32.8772131 55.4941393,32.5460656 C54.2711885,32.214918 53.0109426,32.9378689 52.6797951,34.1612295 C52.3482377,35.3841803 53.0715984,36.6444262 54.2945492,36.9755738" id="Fill-50" fill="#3AAB25"></path>
                            <path d="M54.2945492,36.9755738 C55.5175,37.3067213 56.7781557,36.5833607 57.1088934,35.3604098 C57.440041,34.137459 56.7170902,32.8772131 55.4941393,32.5460656 C54.2711885,32.214918 53.0109426,32.9378689 52.6797951,34.1612295 C52.3482377,35.3841803 53.0715984,36.6444262 54.2945492,36.9755738 Z" id="Stroke-52"></path>
                            <polygon id="Fill-54" fill="#3AAB25" points="32.3226639 36.3720492 2.38331967 18.3794262 2.81528689 17.9486885 32.7546311 35.9413115"></polygon>
                            <path d="M34.1627459,34.5357787 C35.0578279,35.4325 35.0565984,36.8857787 34.1594672,37.7804508 C33.2627459,38.6759426 31.809877,38.6743033 30.9147951,37.777582 C30.0197131,36.8808607 30.0213525,35.427582 30.9180738,34.5329098 C31.8147951,33.6378279 33.2676639,33.6390574 34.1627459,34.5357787" id="Fill-56" fill="#3AAB25"></path>
                            <path d="M34.1627459,34.5357787 C35.0578279,35.4325 35.0565984,36.8857787 34.1594672,37.7804508 C33.2627459,38.6759426 31.809877,38.6743033 30.9147951,37.777582 C30.0197131,36.8808607 30.0213525,35.427582 30.9180738,34.5329098 C31.8147951,33.6378279 33.2676639,33.6390574 34.1627459,34.5357787 Z" id="Stroke-58"></path>
                            <path d="M4.22348361,16.5432377 C3.32840164,15.6465164 1.87553279,15.6452869 0.978811475,16.539959 C0.0820901639,17.435041 0.0804508197,18.8883197 0.975532787,19.785041 C1.87061475,20.6817623 3.32348361,20.6834016 4.22020492,19.7879098 C5.11733607,18.8928279 5.11856557,17.439959 4.22348361,16.5432377" id="Fill-60" fill="#3AAB25"></path>
                            <path d="M4.22348361,16.5432377 C3.32840164,15.6465164 1.87553279,15.6452869 0.978811475,16.539959 C0.0820901639,17.435041 0.0804508197,18.8883197 0.975532787,19.785041 C1.87061475,20.6817623 3.32348361,20.6834016 4.22020492,19.7879098 C5.11733607,18.8928279 5.11856557,17.439959 4.22348361,16.5432377 Z" id="Stroke-62"></path>
                            <polygon id="Fill-64" fill="#3AAB25" points="19.3718033 53.6543852 19.2603279 53.0543852 32.4545902 50.599877 32.5660656 51.199877"></polygon>
                            <path d="M31.9104508,48.685123 C33.3358607,48.3027459 34.7567623,49.3347131 34.805123,50.8416803 C34.8383197,51.8826639 34.1161885,52.844959 33.1104508,53.1146311 C31.685041,53.497418 30.2637295,52.4654508 30.2153689,50.9576639 C30.1821721,49.9170902 30.9047131,48.9547951 31.9104508,48.685123" id="Fill-66" fill="#3AAB25"></path>
                            <path d="M19.2579508,51.0597131 C17.7509836,51.1076639 16.7190164,52.5285656 17.1009836,53.9539754 C17.3706557,54.9597131 18.332541,55.6822541 19.3735246,55.6490574 C20.8809016,55.6015164 21.9132787,54.1802049 21.5304918,52.7543852 C21.2608197,51.7486475 20.2989344,51.0265164 19.2579508,51.0597131" id="Fill-68" fill="#3AAB25"></path>
                            <path d="M19.2579508,51.0597131 C17.7509836,51.1076639 16.7190164,52.5285656 17.1009836,53.9539754 C17.3706557,54.9597131 18.332541,55.6822541 19.3735246,55.6490574 C20.8809016,55.6015164 21.9132787,54.1802049 21.5304918,52.7543852 C21.2608197,51.7486475 20.2989344,51.0265164 19.2579508,51.0597131 Z" id="Stroke-70"></path>
                            <polygon id="Fill-72" fill="#3AAB25" points="28.560123 72.0479918 32.2105328 50.9578279 32.8097131 50.8422541 29.1593033 71.932418"></polygon>
                            <path d="M30.2990984,51.5137705 C29.9081148,50.0908197 30.9306557,48.6633607 32.4372131,48.6055738 C33.4777869,48.5658197 34.445,49.2818033 34.7212295,50.2854918 C35.1130328,51.7088525 34.0896721,53.1367213 32.5827049,53.1945082 C31.5421311,53.2342623 30.5753279,52.5178689 30.2990984,51.5137705" id="Fill-74" fill="#3AAB25"></path>
                            <path d="M30.2990984,51.5137705 C29.9081148,50.0908197 30.9306557,48.6633607 32.4372131,48.6055738 C33.4777869,48.5658197 34.445,49.2818033 34.7212295,50.2854918 C35.1130328,51.7088525 34.0896721,53.1367213 32.5827049,53.1945082 C31.5421311,53.2342623 30.5753279,52.5178689 30.2990984,51.5137705 Z" id="Stroke-76"></path>
                            <path d="M26.8911475,70.6586066 C25.5190164,73.4229508 28.7710656,75.6241803 30.827623,73.322541 C32.2009836,70.557377 28.9472951,68.3557377 26.8911475,70.6586066" id="Fill-78" fill="#3AAB25"></path>
                            <path d="M26.8911475,70.6586066 C25.5190164,73.4229508 28.7710656,75.6241803 30.827623,73.322541 C32.2009836,70.557377 28.9472951,68.3557377 26.8911475,70.6586066 Z" id="Stroke-80"></path>
                        </g>
                    </g>
                </g>
            </g>
        </g>
    </g>
</svg>