<?xml version="1.0" encoding="UTF-8"?>
<svg width="148px" height="190px" viewBox="0 0 148 190" version="1.1" xmlns="http://www.w3.org/2000/svg" xmlns:xlink="http://www.w3.org/1999/xlink">
    <!-- Generator: Sketch 55.1 (78136) - https://sketchapp.com -->
    <title>Page 1</title>
    <desc>Created with Sketch.</desc>
    <defs>
        <polygon id="path-1" points="0.142482916 0.0810933941 24.8687945 0.0810933941 24.8687945 19.1308884 0.142482916 19.1308884"></polygon>
    </defs>
    <g id="官网主页" stroke="none" stroke-width="1" fill="none" fill-rule="evenodd">
        <g id="ONT-ID-2.0-Lite" transform="translate(-1251.000000, -1413.000000)">
            <g id="编组-5" transform="translate(1127.000000, 1413.000000)">
                <g id="Page-1" transform="translate(125.000000, 0.000000)">
                    <path d="M40.0210023,46.4858998 L40.0210023,32.4105011 C36.3483371,33.6451253 32.8920729,35.0692711 29.6977677,36.6626651 L29.6977677,50.7380638 C32.8920729,49.1446697 36.3483371,47.7205239 40.0210023,46.4858998" id="Fill-4" fill="#FA6400"></path>
                    <path d="M104.473235,45.1153759 C110.837016,46.9058087 116.646355,49.2465831 121.710592,52.0317768 L121.710592,37.9563781 C116.646355,35.1711845 110.837016,32.83041 104.473235,31.040205 L104.473235,45.1153759 Z" id="Fill-6" fill="#3AAB25"></path>
                    <path d="M74.4698633,28.8490433 C82.206082,28.8490433 89.6416173,29.5889066 96.5753303,30.9506378 L96.5753303,11.5643052 C89.6416173,10.2028018 82.206082,9.46271071 74.4698633,9.46271071 C68.8623462,9.46271071 63.4142825,9.85359909 58.1990205,10.5857175 L58.1990205,29.9722779 C63.4142825,29.2399317 68.8623462,28.8490433 74.4698633,28.8490433" id="Fill-8" fill="#F6DBA3"></path>
                    <path d="M27.9022779,41.7383371 L27.9022779,20.2868565 C20.953303,24.0073576 15.3535308,28.5490433 11.5756264,33.6447153 L11.5756264,55.0964237 C15.3535308,50.0005239 20.953303,45.4590661 27.9022779,41.7383371" id="Fill-10" fill="#434343"></path>
                    <path d="M79.6313895,114.290023 C79.6313895,114.290023 80.1924374,125.847882 80.6414123,130.448565 C81.0901595,135.049248 84.4566743,165.682733 84.4566743,168.824647 C84.4566743,171.96656 83.1099772,181.841048 83.1099772,181.841048 C83.1099772,181.841048 85.918861,183.324419 89.0571298,182.963371 C89.1275171,182.861321 91.6940319,181.616446 91.2452847,171.629886 C91.4136219,169.722369 91.4912984,168.779544 90.9787699,167.323736 C89.0571298,161.867472 92.5357175,137.517813 90.0671526,128.597084 C89.1694305,125.286606 92.5357175,111.933531 92.5357175,111.933531 L79.6313895,114.290023 Z" id="Fill-12" fill="#F1B287"></path>
                    <path d="M66.1101139,111.933599 C66.1101139,111.933599 66.2782232,121.752278 67.7932574,128.652961 C69.3080638,135.5541 76.0408656,162.652961 75.8723007,164.672779 C75.7039636,166.692825 75.7039636,173.930182 71.4962187,177.465034 C72.6743508,179.652961 76.6299317,179.737016 77.0504328,178.558884 C77.4713895,177.380524 79.154533,172.75205 80.0802733,172.415376 C81.0062415,172.078702 84.0356264,167.618337 83.1101139,166.019476 C82.1841458,164.420387 81.1743508,162.232232 81.0062415,160.717426 C80.8376765,159.20262 78.4422323,131.753417 77.4994077,126.633371 C76.5568109,121.513326 79.0704784,108.455011 79.0704784,108.455011 L66.1101139,111.933599 Z" id="Fill-14" fill="#F1B287"></path>
                    <path d="M79.1756036,174.140638 C79.1756036,174.140638 81.1323235,173.698952 81.3635308,174.729704 C81.5951936,175.760683 81.763303,178.054077 81.763303,178.054077 C81.763303,178.054077 82.2074943,178.180046 82.5218451,177.906697 C82.5628474,175.929021 82.6471298,173.319909 83.2995216,172.499636 C83.9516856,171.678907 84.1838041,169.499408 84.1838041,169.499408 C84.1838041,169.499408 80.7038497,171.329932 79.1756036,174.140638" id="Fill-16" fill="#000000"></path>
                    <path d="M70.9702506,182.535285 C69.9199089,182.495421 69.3661503,181.524123 69.1000911,180.813417 C68.9709339,181.367631 69.0174032,181.898838 69.350205,182.345991 C70.9912073,184.113417 75.9984966,182.724806 77.6818679,181.335968 C78.3085194,180.819112 78.5672893,180.109089 78.6825513,179.313417 C76.3379043,181.877426 72.6324374,182.598383 70.9702506,182.535285" id="Fill-18" fill="#000000"></path>
                    <path d="M83.2464692,166.396196 C83.1726651,167.741071 82.1002278,168.964761 80.2487472,171.153144 C78.3972665,173.341071 78.018451,175.192551 77.8501139,175.781617 C77.6817768,176.370683 77.2501139,178.008041 76.1669704,178.559066 C72.7585421,179.484579 72.1671982,176.833098 72.1671982,176.833098 C71.529385,177.223531 69.4933941,179.125125 69.1,180.813508 C69.3660592,181.523986 69.9198178,182.495513 70.9701595,182.535376 C72.6323462,182.598474 76.338041,181.877517 78.6826879,179.313508 C78.8769932,177.972278 78.6635535,176.386856 79.1125285,175.066355 C79.8277904,172.962255 81.2583144,172.41533 83.2838269,170.774328 C85.3091116,169.133326 83.6990888,166.860888 83.2464692,166.396196" id="Fill-20" fill="#626262"></path>
                    <path d="M84.8772437,188.545695 C84.0064009,188.685558 83.2401139,187.549795 82.7289522,186.509704 C83.1205239,188.388747 83.9979727,189.72246 84.6811162,189.555718 C90.5248519,187.729294 91.2724601,182.653895 91.3262187,178.793075 C91.0152847,181.591025 90.4874943,181.534533 90.0389749,183.524282 C89.59,185.515854 86.4480866,188.293303 84.8772437,188.545695" id="Fill-22" fill="#000000"></path>
                    <path d="M92.339385,169.441777 C92.0589749,167.954989 90.9787927,167.323781 90.9787927,167.323781 L90.7892711,170.479818 C90.6022551,172.271617 91.2942825,173.368428 90.9366515,176.735626 C90.5790205,180.102597 90.2074943,180.690979 89.4031663,182.662961 C85.8498633,182.9518 83.8956492,181.61672 83.2058998,181.124465 C82.4131891,182.932437 82.3972437,184.916264 82.7291344,186.509658 C83.2400683,187.549749 84.0063554,188.685513 84.8771982,188.545649 C86.4482688,188.293257 89.5901822,185.515809 90.0389294,183.524237 C90.4874487,181.534487 91.015467,181.590979 91.3261731,178.79303 C91.3300456,178.502141 91.3314123,178.21672 91.3293622,177.941549 C91.301344,174.014214 92.619795,170.928565 92.339385,169.441777" id="Fill-24" fill="#626262"></path>
                    <path d="M90.4318679,70.3315945 C90.4318679,70.3315945 78.8459909,66.9370615 65.7883599,63.6534624 C57.7503189,71.3379727 51.8751481,94.3165604 51.8751481,106.719977 C52.9052164,108.228405 54.1778815,109.659613 55.6268565,111.009954 C57.3883599,112.65164 59.4254897,114.164396 61.6674032,115.524533 C64.719795,117.376697 68.1402961,118.94549 71.7484966,120.160524 C78.5236674,122.441845 83.9134169,122.805171 90.6926879,122.164852 C95.9940547,121.664169 100.278337,120.06918 104.473326,114.206765 C100.882437,78.9728246 90.4318679,70.3315945 90.4318679,70.3315945" id="Fill-26" fill="#3AAB25"></path>
                    <path d="M142.806105,98.1317995 C142.806105,119.822232 112.211116,137.405604 74.4698861,137.405604 C36.7284282,137.405604 6.13343964,119.822232 6.13343964,98.1317995 C6.13343964,76.4413667 36.7284282,58.8579954 74.4698861,58.8579954 C112.211116,58.8579954 142.806105,76.4413667 142.806105,98.1317995 Z" id="Stroke-28" stroke="#3AAB25" opacity="0.300000012"></path>
                    <path d="M137.47615,55.2473804 L137.47615,33.7958998 C133.331276,28.13918 126.94631,23.1585421 118.961344,19.2182232 L118.961344,40.6697039 C126.94631,44.6100228 133.331276,49.5908884 137.47615,55.2473804" id="Fill-30" fill="#F7B500"></path>
                    <path d="M11.575672,64.4081549 L11.575672,85.8598633 C16.8465148,92.9692027 25.6608656,99.0008656 36.7426424,103.22615 L36.7426424,81.7746697 C25.6608656,77.549385 16.8465148,71.5174943 11.575672,64.4081549" id="Fill-32" fill-opacity="0.3" fill="#3AAB25"></path>
                    <path d="M123.436128,79.9230296 L123.436128,99.0904556 C129.957084,95.2407973 135.114715,90.6255353 138.462551,85.5007062 L138.462551,66.333508 C135.114715,71.4583371 129.957084,76.0733713 123.436128,79.9230296" id="Fill-34" fill="#FA6400"></path>
                    <path d="M74.4698633,91.8057175 C66.5507289,91.8057175 58.948451,91.02918 51.8753303,89.605262 L51.8753303,108.772688 C58.948451,110.196378 66.5507289,110.973371 74.4698633,110.973371 C78.3033485,110.973371 82.0614351,110.788861 85.7227107,110.440342 L85.7227107,91.2726879 C82.0614351,91.6214351 78.3033485,91.8057175 74.4698633,91.8057175" id="Fill-36" fill="#434343"></path>
                    <path d="M38.7165604,42.1385194 C38.7165604,42.1385194 34.13,41.8581093 32.783303,41.2970615 C31.4368337,40.7360137 30.4830752,39.8380638 30.2026651,36.9767882 C29.9222551,34.1152847 26.0507289,33.8348747 24.6479954,36.4717768 C23.2454897,39.1086788 25.5459453,43.99 26.7803417,44.3829385 C25.6019818,44.4950114 23.5258998,43.4849886 23.3015262,44.0460364 C23.0771526,44.6070843 24.1429841,46.1779271 27.397426,46.2904556 C29.8097267,46.5708656 36.9516401,48.4877221 36.9516401,48.4877221 C36.9516401,48.4877221 38.9270387,45.2804328 38.7165604,42.1385194" id="Fill-38" fill="#F1B287"></path>
                    <path d="M111.892005,70.9206378 C111.639613,70.1632346 104.317973,64.6087927 102.971276,63.178041 C101.624806,61.7472893 101.204077,41.8860137 99.9416629,39.2771298 C99.0655809,37.4668793 93.4598861,34.5636902 89.4623918,32.5680182 C88.9983827,36.1523007 85.471959,38.9404556 81.186082,38.9404556 C76.5844875,38.9404556 72.8541913,35.7279271 72.8541913,31.7646014 C72.8541913,28.8917084 74.8195672,26.4201822 77.6512301,25.2739408 C77.2298178,25.2427335 76.8400683,25.1869248 76.5036219,25.096492 C73.6844875,24.3390888 69.5605695,20.6782688 65.8576082,21.141139 C62.1546469,21.6040091 52.1819818,41.0445558 49.4888155,42.8538952 C48.7314123,43.5270159 39.0530524,42.1805467 38.7166059,42.1384055 C38.3799317,42.096492 37.2858542,42.2648292 36.8651253,45.2944419 C36.4441686,48.3242825 37.243713,49.0393166 37.243713,49.0393166 C37.243713,49.0393166 49.2783371,51.0593622 52.0555581,50.3422779 C54.8330068,49.6251936 61.5653531,39.2771298 64.3428018,35.2338497 C59.1642141,44.4472893 63.3020273,46.6135763 64.7815262,48.7372665 C64.781754,48.7370387 64.781754,48.7365831 64.781754,48.7363554 C73.0054442,56.2602733 85.466492,55.4775854 85.466492,55.4775854 C77.9006606,57.8646014 70.2336902,55.2671071 67.456697,54.1732574 C66.1849431,58.1336219 65.8548747,62.5261048 65.7883599,63.6534396 C65.7835763,63.7527563 65.7785649,63.8472893 65.7733257,63.9354442 C76.424123,75.3885194 85.5530524,73.5623235 89.1671754,71.3379499 C90.5655809,57.6053759 93.2931435,52.5320273 93.2931435,52.5320273 L93.8822096,54.9306606 C93.8822096,54.9306606 96.0703645,65.1138041 96.743713,67.0493394 C97.4168337,68.9851025 104.654647,74.2869248 106.926629,76.0543508 C109.199066,77.821549 112.144396,71.678041 111.892005,70.9206378" id="Fill-40" fill="#3AAB25"></path>
                    <path d="M89.1672437,71.3379727 C89.7225968,70.9960592 90.1515262,70.645262 90.4319362,70.3315945 C91.1891116,62.5889977 93.8822779,54.9306834 93.8822779,54.9306834 L93.2929841,52.5320501 C93.2929841,52.5320501 90.5656492,57.6053986 89.1672437,71.3379727" id="Fill-42" fill="#30941E"></path>
                    <path d="M65.788451,63.6533713 C65.8549658,62.5262642 66.1848064,58.1337813 67.4565604,54.1731891 C70.2337813,55.2672665 77.9007517,57.864533 85.4665831,55.4775171 C85.4665831,55.4775171 73.0055353,56.260205 64.7816173,48.7365148 C64.7816173,48.7367426 64.7816173,48.7371982 64.7813895,48.737426 C64.9096355,48.9210251 65.0196583,49.1043964 65.1002961,49.2918679 C66.079795,51.5777449 65.9506378,60.4360592 65.788451,63.6533713" id="Fill-44" fill="#30941E"></path>
                    <path d="M106.337608,74.9601367 C106.337608,74.9601367 105.888861,72.2111617 108.862437,70.752164 C110.545581,70.1350797 111.443303,70.752164 111.443303,70.752164 C111.443303,70.752164 114.641253,74.1747153 116.099795,74.2870159 C116.829408,74.2309795 117.670866,73.7321185 118.232141,72.7191344 C118.793189,71.7061503 121.205718,70.8082005 122.832597,72.4915718 C124.459704,74.1747153 123.113235,81.3002278 114.865626,80.5148064 C114.641253,81.8612756 113.631458,83.6567198 112.677472,83.1517084 C111.723941,82.646697 113.294784,81.2439636 112.901845,79.9535308 C112.060387,79.6168565 106.337608,74.9601367 106.337608,74.9601367" id="Fill-46" fill="#F1B287"></path>
                    <path d="M85.6551708,30.628656 C85.3590433,30.4514351 85.1592711,30.1771754 85.0262415,29.8455125 C84.4943508,31.7726196 82.8683827,33.1758087 80.9433257,33.1758087 C78.5863781,33.1758087 76.675672,31.0730752 76.675672,28.4792255 C76.675672,27.2423235 77.1134852,26.1204556 77.8237358,25.2815034 C77.7672437,25.2785421 77.7066515,25.2783144 77.6510706,25.2739863 C74.8196355,26.42 72.8542597,28.891754 72.8542597,31.7646469 C72.8542597,35.7279727 76.5845558,38.9405011 81.1861503,38.9405011 C85.4717995,38.9405011 88.998451,36.1523462 89.4624601,32.5680638 C87.6993622,31.6876538 86.2476538,30.9835535 85.6551708,30.628656" id="Fill-48" fill="#F1B287"></path>
                    <path d="M85.3185877,25.5394077 C85.5279271,24.814123 85.7226879,24.3123007 85.7226879,24.3123007 C85.7226879,24.3123007 84.8140319,24.5287016 83.5415945,24.7594533 C83.4384055,24.7781321 83.3377221,24.7968109 83.2297494,24.8157175 C81.5985421,25.1002278 79.4810023,25.3767654 77.8238269,25.281549 C77.1133485,26.1205011 76.6757631,27.242369 76.6757631,28.4792711 C76.6757631,31.0731207 78.5862415,33.1756264 80.9434169,33.1756264 C82.868246,33.1756264 84.4944419,31.7726651 85.0263326,29.8455581 C84.7163098,29.0735763 84.7876082,27.9763098 84.978041,26.9589977 C85.0739408,26.4471526 85.1983144,25.9562642 85.3185877,25.5394077" id="Fill-50" fill="#E8A57A"></path>
                    <path d="M88.1146014,22.2896128 C88.1146014,22.2896128 86.5656264,28.6572665 88.7171071,32.8738952 C90.8683599,37.0905239 91.8649431,46.126287 81.2984282,45.8679727 C84.5865831,43.2864237 86.7319134,40.9629613 85.7020729,34.5950797 C84.6726879,28.2269704 86.4720046,23.288246 88.1146014,22.2896128" id="Fill-52" fill="#311C0B"></path>
                    <path d="M85.9468109,24.074123 C85.9468109,24.074123 80.6279043,30.1201367 83.0376993,38.2092027 C85.4470387,46.298041 78.8210706,48.4495216 78.8210706,48.4495216 C78.8210706,48.4495216 85.9632118,49.3101139 87.4263098,42.8561276 C88.88918,36.4021412 83.3816629,32.7884738 88.1146925,22.2896128 C88.372779,20.0520273 85.8771071,22.6622779 85.8771071,22.6622779 L85.9468109,24.074123 Z" id="Fill-54" fill="#4C290D"></path>
                    <path d="M69.871344,21.3833485 C69.871344,21.3833485 69.0435535,28.3457631 66.8649658,32.2715034 C64.6863781,36.1972437 63.5034624,38.9838041 64.708246,41.1350569 C62.7289749,38.9838041 63.2023235,34.9391572 64.7510706,32.0562415 C66.3000456,29.1735535 68.8818223,25.4685421 69.871344,21.3833485" id="Fill-56" fill="#4C290D"></path>
                    <path d="M69.7287472,21.9801822 C69.981139,25.722779 67.1200911,27.3268793 64.595262,30.6287016 C64.3310251,30.9740319 64.1383144,31.31959 63.9850114,31.6642369 C62.6740774,34.6123007 65.1606378,37.4687927 67.1200911,39.277221 C66.2968565,37.6307517 66.9310251,34.8519362 68.7009567,31.3446469 C68.7405923,31.2665148 68.7727107,31.1927107 68.8132574,31.1138952 C70.6747608,27.4949886 69.7287472,21.9801822 69.7287472,21.9801822" id="Fill-58" fill="#311C0B"></path>
                    <path d="M71.0761276,5.59505695 C71.0761276,5.59505695 68.2362642,8.52079727 68.7526651,13.684123 C68.1501595,15.6631663 67.0549431,20.1381093 70.2271526,26.6782005 C70.7319362,28.0549658 72.7112073,29.7759226 81.6606378,27.6246697 C83.9841002,26.6782005 87.3401367,22.4615718 87.3401367,22.4615718 C87.3401367,22.4615718 90.3519818,22.2032574 90.6102961,19.2775171 C90.8683827,13.2538269 86.8239636,4.56248292 86.8239636,4.56248292 L71.0761276,5.59505695 Z" id="Fill-60" fill="#F1B287"></path>
                    <g id="Group-64" transform="translate(68.792711, 0.146697)">
                        <mask id="mask-2" fill="white">
                            <use xlink:href="#path-1"></use>
                        </mask>
                        <g id="Clip-63"></g>
                        <path d="M8.40261959,5.0470615 C8.40261959,5.0470615 10.2290433,13.6807745 17.5149203,18.3276993 C19.2932802,16.434533 21.4732346,17.2951253 21.8176538,19.1308884 C22.8502278,18.2128929 28.6443052,10.2960364 20.8994305,3.58396355 C13.1547836,-3.12833713 0.267539863,0.252756264 0.142482916,9.92109339 C1.91059226,6.79649203 5.08485194,4.90400911 8.40261959,5.0470615" id="Fill-62" fill="#351D05" mask="url(#mask-2)"></path>
                    </g>
                    <path d="M23.6894305,127.22246 C23.6894305,128.288722 22.8248836,129.152984 21.7586788,129.152984 C20.6923126,129.152984 19.8279271,128.288789 19.8279271,127.22246 C19.8279271,126.156113 20.6923314,125.291708 21.7586788,125.291708 C22.8248648,125.291708 23.6894305,126.156179 23.6894305,127.22246 Z" id="Stroke-65" stroke="#3AAB25"></path>
                    <path d="M136.189431,124.637813 C136.189431,125.588458 135.419089,126.358998 134.468474,126.358998 C133.517829,126.358998 132.747062,125.588428 132.747062,124.637813 C132.747062,123.687213 133.517815,122.916856 134.468474,122.916856 C135.419104,122.916856 136.189431,123.687183 136.189431,124.637813 Z" id="Stroke-67" stroke="#3AAB25"></path>
                    <path d="M104.615535,129.030342 C104.615535,129.783422 104.005173,130.393895 103.25221,130.393895 C102.499074,130.393895 101.888656,129.783477 101.888656,129.030342 C101.888656,128.277206 102.499074,127.666788 103.25221,127.666788 C104.005173,127.666788 104.615535,128.277262 104.615535,129.030342 Z" id="Stroke-69" stroke="#3AAB25"></path>
                    <path d="M134.610683,110.97328 C134.610683,111.726416 134.000265,112.336834 133.24713,112.336834 C132.493997,112.336834 131.883804,111.726418 131.883804,110.97328 C131.883804,110.220145 132.493994,109.609954 133.24713,109.609954 C134.000268,109.609954 134.610683,110.220147 134.610683,110.97328 Z" id="Stroke-71" stroke="#3AAB25"></path>
                    <path d="M146.508724,91.6940547 C146.508724,92.3073626 146.011711,92.8047608 145.398246,92.8047608 C144.78496,92.8047608 144.287768,92.3073127 144.287768,91.6940547 C144.287768,91.0807825 144.784974,90.5835763 145.398246,90.5835763 C146.011696,90.5835763 146.508724,91.0807326 146.508724,91.6940547 Z" id="Stroke-73" stroke="#3AAB25"></path>
                    <path d="M126.618223,75.7614123 C126.618223,76.6933496 125.862717,77.448656 124.930752,77.448656 C123.998801,77.448656 123.243508,76.6933633 123.243508,75.7614123 C123.243508,74.8294475 123.998814,74.0739408 124.930752,74.0739408 C125.862703,74.0739408 126.618223,74.8294613 126.618223,75.7614123 Z" id="Stroke-75" stroke="#3AAB25"></path>
                    <path d="M28.4022779,64.4081549 C28.4022779,65.3401059 27.6467574,66.0956264 26.7148064,66.0956264 C25.7830331,66.0956264 25.0275626,65.3400559 25.0275626,64.4081549 C25.0275626,63.4764317 25.7830831,62.7209112 26.7148064,62.7209112 C27.6467074,62.7209112 28.4022779,63.4763816 28.4022779,64.4081549 Z" id="Stroke-77" stroke="#3AAB25"></path>
                    <path d="M132.976788,71.0202961 C132.976788,71.8561109 132.299181,72.533508 131.463349,72.533508 C130.627516,72.533508 129.949909,71.8561109 129.949909,71.0202961 C129.949909,70.1843062 130.627464,69.5068565 131.463349,69.5068565 C132.299233,69.5068565 132.976788,70.1843062 132.976788,71.0202961 Z" id="Stroke-79" stroke="#3AAB25"></path>
                    <path d="M117.301071,65.0494761 C117.301071,65.6055469 116.850588,66.0563098 116.294465,66.0563098 C115.738526,66.0563098 115.287859,65.6055029 115.287859,65.0494761 C115.287859,64.4934492 115.738526,64.0426424 116.294465,64.0426424 C116.850588,64.0426424 117.301071,64.4934053 117.301071,65.0494761 Z" id="Stroke-81" stroke="#3AAB25"></path>
                    <path d="M62.1232802,57.5475171 C62.1232802,58.1035879 61.6727972,58.5543508 61.1166743,58.5543508 C60.5607353,58.5543508 60.1100683,58.1035439 60.1100683,57.5475171 C60.1100683,56.9914902 60.5607353,56.5406834 61.1166743,56.5406834 C61.6727972,56.5406834 62.1232802,56.9914463 62.1232802,57.5475171 Z" id="Stroke-83" stroke="#3AAB25"></path>
                    <path d="M16.3202733,112.404077 C16.3202733,113.238815 15.6435157,113.915467 14.808656,113.915467 C13.9737964,113.915467 13.2970387,113.238815 13.2970387,112.404077 C13.2970387,111.569165 13.9737437,110.89246 14.808656,110.89246 C15.6435683,110.89246 16.3202733,111.569165 16.3202733,112.404077 Z" id="Stroke-85" stroke="#3AAB25"></path>
                    <path d="M4.54658314,84.8287472 C4.54658314,85.6636595 3.86987814,86.3403645 3.03496583,86.3403645 C2.20005352,86.3403645 1.52334852,85.6636595 1.52334852,84.8287472 C1.52334852,83.99401 2.20010616,83.3173576 3.03496583,83.3173576 C3.8698255,83.3173576 4.54658314,83.99401 4.54658314,84.8287472 Z" id="Stroke-87" stroke="#3AAB25"></path>
                    <path d="M50.2850797,63.6533713 C50.2850797,64.4882836 49.6083747,65.1649886 48.7734624,65.1649886 C47.9385501,65.1649886 47.2618451,64.4882836 47.2618451,63.6533713 C47.2618451,62.818459 47.9385501,62.141754 48.7734624,62.141754 C49.6083747,62.141754 50.2850797,62.818459 50.2850797,63.6533713 Z" id="Stroke-89" stroke="#3AAB25"></path>
                    <path d="M2.5233713,92.6592711 C2.5233713,93.2245484 2.06527624,93.6825057 1.49990888,93.6825057 C0.93488321,93.6825057 0.47667426,93.2244345 0.47667426,92.6592711 C0.47667426,92.0941076 0.93488321,91.6360364 1.49990888,91.6360364 C2.06527624,91.6360364 2.5233713,92.0939938 2.5233713,92.6592711 Z" id="Stroke-91" stroke="#3AAB25"></path>
                    <path d="M41.567631,134.544237 C41.567631,135.109469 41.1093532,135.567472 40.5441686,135.567472 C39.9791429,135.567472 39.5209339,135.1094 39.5209339,134.544237 C39.5209339,133.979073 39.9791429,133.521002 40.5441686,133.521002 C41.1093532,133.521002 41.567631,133.979005 41.567631,134.544237 Z" id="Stroke-93" stroke="#3AAB25"></path>
                    <path d="M47.3140091,128.129841 C47.3140091,128.695049 46.8559829,129.153075 46.2907745,129.153075 C45.7257488,129.153075 45.2675399,128.695004 45.2675399,128.129841 C45.2675399,127.564677 45.7257488,127.106606 46.2907745,127.106606 C46.8559829,127.106606 47.3140091,127.564632 47.3140091,128.129841 Z" id="Stroke-95" stroke="#3AAB25"></path>
                    <path d="M59.0491343,133.302665 C59.5439184,133.797449 59.5439184,134.600033 59.0491343,135.095193 C58.5543501,135.589978 57.7517664,135.589978 57.2564717,135.095059 C56.7618219,134.600033 56.7618219,133.797449 57.2567405,133.302531 C57.7517664,132.807881 58.5543501,132.807881 59.0491343,133.302665 Z" id="Stroke-97" stroke="#3AAB25"></path>
                    <path d="M2.5233713,107.150661 C2.5233713,107.985573 1.84666629,108.662278 1.01175399,108.662278 C0.176666516,108.662278 -0.500091116,107.985626 -0.500091116,107.150661 C-0.500091116,106.315862 0.176727785,105.639043 1.01175399,105.639043 C1.84660504,105.639043 2.5233713,106.315915 2.5233713,107.150661 Z" id="Stroke-99" stroke="#3AAB25"></path>
                    <path d="M9.49974943,67.2955809 L9.49974943,87.9607289 C13.5680866,95.1217768 21.1163781,101.378724 31.0024829,106.067335 L31.0024829,85.4021868 C21.1163781,80.7135763 13.5680866,74.4566287 9.49974943,67.2955809" id="Fill-101" fill="#3AAB25"></path>
                </g>
            </g>
        </g>
    </g>
</svg>