<?xml version="1.0" encoding="UTF-8"?>
<svg width="400px" height="300px" viewBox="0 0 400 300" version="1.1" xmlns="http://www.w3.org/2000/svg" xmlns:xlink="http://www.w3.org/1999/xlink">
    <!-- Generator: Sketch 55.2 (78181) - https://sketchapp.com -->
    <title>2</title>
    <desc>Created with Sketch.</desc>
    <defs>
        <polygon id="path-1" points="0 0.211053199 43.8193189 0.211053199 43.8193189 27.7220868 0 27.7220868"></polygon>
        <polygon id="path-3" points="0 0.211053199 43.8193189 0.211053199 43.8193189 27.7220868 0 27.7220868"></polygon>
        <polygon id="path-5" points="0 0.0335161539 26.1079764 0.0335161539 26.1079764 35.9105144 0 35.9105144"></polygon>
        <polygon id="path-7" points="4.6670307e-05 0.121218134 45.9702523 0.121218134 45.9702523 55.2492296 4.6670307e-05 55.2492296"></polygon>
        <polygon id="path-9" points="0.0971442439 0.146778115 19.8209977 0.146778115 19.8209977 15.5211725 0.0971442439 15.5211725"></polygon>
        <linearGradient x1="101.999998%" y1="29.7699163%" x2="13.4039324%" y2="64.5327292%" id="linearGradient-11">
            <stop stop-color="#19FFF3" offset="0%"></stop>
            <stop stop-color="#00A4FF" stop-opacity="0" offset="100%"></stop>
        </linearGradient>
        <linearGradient x1="101.999998%" y1="29.4833501%" x2="13.4039324%" y2="64.7385904%" id="linearGradient-12">
            <stop stop-color="#B619FF" offset="0%"></stop>
            <stop stop-color="#00A4FF" stop-opacity="0" offset="100%"></stop>
        </linearGradient>
        <linearGradient x1="101.999998%" y1="26.0536351%" x2="13.4039324%" y2="67.2024023%" id="linearGradient-13">
            <stop stop-color="#96FF19" offset="0%"></stop>
            <stop stop-color="#00A4FF" stop-opacity="0" offset="100%"></stop>
        </linearGradient>
        <linearGradient x1="101.999998%" y1="26.0642114%" x2="13.4039324%" y2="67.1948045%" id="linearGradient-14">
            <stop stop-color="#196DFF" offset="0%"></stop>
            <stop stop-color="#00A4FF" stop-opacity="0" offset="100%"></stop>
        </linearGradient>
        <linearGradient x1="101.999998%" y1="29.7699163%" x2="13.4039324%" y2="64.5327292%" id="linearGradient-15">
            <stop stop-color="#19FFF3" offset="0%"></stop>
            <stop stop-color="#00A4FF" stop-opacity="0" offset="100%"></stop>
        </linearGradient>
        <linearGradient x1="101.999998%" y1="29.4833501%" x2="13.4039324%" y2="64.7385904%" id="linearGradient-16">
            <stop stop-color="#B619FF" offset="0%"></stop>
            <stop stop-color="#00A4FF" stop-opacity="0" offset="100%"></stop>
        </linearGradient>
        <linearGradient x1="101.999998%" y1="26.0536351%" x2="13.4039324%" y2="67.2024023%" id="linearGradient-17">
            <stop stop-color="#96FF19" offset="0%"></stop>
            <stop stop-color="#00A4FF" stop-opacity="0" offset="100%"></stop>
        </linearGradient>
        <linearGradient x1="101.999998%" y1="26.0642114%" x2="13.4039324%" y2="67.1948045%" id="linearGradient-18">
            <stop stop-color="#196DFF" offset="0%"></stop>
            <stop stop-color="#00A4FF" stop-opacity="0" offset="100%"></stop>
        </linearGradient>
    </defs>
    <g id="2" stroke="none" stroke-width="1" fill="none" fill-rule="evenodd">
        <g id="编组-6" transform="translate(56.000000, 10.000000)">
            <g id="编组-8" transform="translate(88.402895, 53.904205)">
                <g id="Group-6" transform="translate(0.000000, 122.750655)">
                    <g id="1" transform="translate(83.659325, 50.961035) scale(-1, -1) translate(-83.659325, -50.961035) translate(0.215617, 0.431234)" fill="#FAFAFA">
                        <path d="M56.749583,0.136172434 C86.0077524,-1.2336599 99.0772295,10.8024047 95.3291681,24.9078822 C91.2921307,35.913122 93.2177745,44.0162381 101.1061,49.2172304 C112.938587,57.0187188 123.573765,60.9065238 150.750445,65.2782557 C177.927125,69.6499876 165.770294,85.1727412 148.714674,91.4767303 C131.659054,97.7807194 84.8130308,107.114212 46.893346,92.5575867 C8.97366125,78.0009616 -2.05055613,64.285386 0.313871087,43.9130118 C2.6782983,23.5406377 27.4914135,1.50600477 56.749583,0.136172434 Z" id="Path"></path>
                    </g>
                    <g id="Page-1" transform="translate(14.015093, 16.861235)">
                        <g id="Group-3" transform="translate(0.000000, 4.381074)">
                            <mask id="mask-2" fill="white">
                                <use xlink:href="#path-1"></use>
                            </mask>
                            <g id="Clip-2"></g>
                            <path d="M0.00184814416,23.1844578 L-9.7270745e-05,16.5907171 L2.97273987,14.3201748 L5.49351123,7.04359351 C6.19750825,5.01136447 9.76637188,3.92460707 13.4247246,4.62836091 C14.0088354,4.74095179 14.5610901,4.89293733 15.0741933,5.07653586 L18.9163877,2.14163431 L18.8366257,8.28792951 C18.8723727,8.42191996 18.8959608,8.55663994 18.9078765,8.6916031 L28.2033121,5.52689941 L31.934861,3.37235241 C33.294706,2.58713432 35.2330688,2.29653797 37.1702157,2.4738139 L43.815753,0.211053199 L43.815753,6.76418329 C43.8687656,7.70843905 43.3311015,8.61719098 42.1752819,9.28446829 L38.3073107,11.5175614 L40.3667756,14.5677288 L40.3667756,21.1325314 C40.3713959,21.2127798 40.3706664,21.2922986 40.3667756,21.3710879 L40.3667756,21.3713311 C40.2872567,22.9269335 38.544165,24.2354682 35.8162069,24.5506254 L9.16475232,27.6280286 C8.03130497,27.7805005 6.77067611,27.7525351 5.49886112,27.5078992 C4.33744843,27.2844197 3.30151499,26.9057933 2.45039597,26.4284371 C2.41489215,26.4087398 2.38060421,26.3880697 2.34558675,26.3678861 C2.31081245,26.3477024 2.27506546,26.3280051 2.24102069,26.3075782 C1.41421936,25.8158746 0.758128187,25.2179027 0.370990621,24.5472209 C0.135838595,24.1398996 0.0200864088,23.7350102 0.00549579709,23.3427659 L0.00184814416,23.3430091 L0.00184814416,23.2253115 C0.00209132102,23.2116936 0.00136179043,23.1980757 0.00184814416,23.1844578" id="Fill-1" fill="#2A8819" mask="url(#mask-2)"></path>
                        </g>
                        <path d="M2.34563538,23.9456743 C2.31086109,23.9252474 2.27511409,23.9055501 2.24082615,23.8851233 C1.414268,23.3934196 0.758176822,22.7956909 0.371039257,22.1250091 C-0.0528180145,21.3908582 -0.10121021,20.6630298 0.163123039,20.0086409 L5.49331669,4.62113855 C6.19731371,2.58890951 9.76642052,1.50215212 13.4247732,2.20614913 C17.0828828,2.91014615 19.4998176,5.14907552 18.7958206,7.18154774 L18.209278,8.87430188 L31.9349097,0.950140637 C34.3737304,-0.458096574 38.6730973,-0.279847933 41.4893286,1.34578939 C44.3053167,2.97191307 44.6139081,5.45426249 42.1753305,6.86225652 L28.4496989,14.7866609 L31.3821687,14.4479156 C34.9021537,14.0413239 38.7800952,15.437159 39.999384,17.5489069 L39.999384,17.5489069 C41.2186727,19.6611411 39.3364838,21.7215787 35.8162556,22.1281704 L9.16480096,25.2058168 C8.03111043,25.3582887 6.77072475,25.3303233 5.49890976,25.0854442 C4.33725388,24.8622079 3.30156363,24.4833383 2.45044461,24.0059822 C2.41494079,23.9862848 2.38065285,23.9656148 2.34563538,23.9456743" id="Fill-4" fill="#3AAB25"></path>
                    </g>
                    <g id="Page-1" transform="translate(144.664943, 65.428923) scale(-1, 1) translate(-144.664943, -65.428923) translate(122.413287, 49.203758)">
                        <g id="Group-3" transform="translate(0.000000, 4.381074)">
                            <mask id="mask-4" fill="white">
                                <use xlink:href="#path-3"></use>
                            </mask>
                            <g id="Clip-2"></g>
                            <path d="M0.00184814416,23.1844578 L-9.7270745e-05,16.5907171 L2.97273987,14.3201748 L5.49351123,7.04359351 C6.19750825,5.01136447 9.76637188,3.92460707 13.4247246,4.62836091 C14.0088354,4.74095179 14.5610901,4.89293733 15.0741933,5.07653586 L18.9163877,2.14163431 L18.8366257,8.28792951 C18.8723727,8.42191996 18.8959608,8.55663994 18.9078765,8.6916031 L28.2033121,5.52689941 L31.934861,3.37235241 C33.294706,2.58713432 35.2330688,2.29653797 37.1702157,2.4738139 L43.815753,0.211053199 L43.815753,6.76418329 C43.8687656,7.70843905 43.3311015,8.61719098 42.1752819,9.28446829 L38.3073107,11.5175614 L40.3667756,14.5677288 L40.3667756,21.1325314 C40.3713959,21.2127798 40.3706664,21.2922986 40.3667756,21.3710879 L40.3667756,21.3713311 C40.2872567,22.9269335 38.544165,24.2354682 35.8162069,24.5506254 L9.16475232,27.6280286 C8.03130497,27.7805005 6.77067611,27.7525351 5.49886112,27.5078992 C4.33744843,27.2844197 3.30151499,26.9057933 2.45039597,26.4284371 C2.41489215,26.4087398 2.38060421,26.3880697 2.34558675,26.3678861 C2.31081245,26.3477024 2.27506546,26.3280051 2.24102069,26.3075782 C1.41421936,25.8158746 0.758128187,25.2179027 0.370990621,24.5472209 C0.135838595,24.1398996 0.0200864088,23.7350102 0.00549579709,23.3427659 L0.00184814416,23.3430091 L0.00184814416,23.2253115 C0.00209132102,23.2116936 0.00136179043,23.1980757 0.00184814416,23.1844578" id="Fill-1" fill="#2A8819" mask="url(#mask-4)"></path>
                        </g>
                        <path d="M2.34563538,23.9456743 C2.31086109,23.9252474 2.27511409,23.9055501 2.24082615,23.8851233 C1.414268,23.3934196 0.758176822,22.7956909 0.371039257,22.1250091 C-0.0528180145,21.3908582 -0.10121021,20.6630298 0.163123039,20.0086409 L5.49331669,4.62113855 C6.19731371,2.58890951 9.76642052,1.50215212 13.4247732,2.20614913 C17.0828828,2.91014615 19.4998176,5.14907552 18.7958206,7.18154774 L18.209278,8.87430188 L31.9349097,0.950140637 C34.3737304,-0.458096574 38.6730973,-0.279847933 41.4893286,1.34578939 C44.3053167,2.97191307 44.6139081,5.45426249 42.1753305,6.86225652 L28.4496989,14.7866609 L31.3821687,14.4479156 C34.9021537,14.0413239 38.7800952,15.437159 39.999384,17.5489069 L39.999384,17.5489069 C41.2186727,19.6611411 39.3364838,21.7215787 35.8162556,22.1281704 L9.16480096,25.2058168 C8.03111043,25.3582887 6.77072475,25.3303233 5.49890976,25.0854442 C4.33725388,24.8622079 3.30156363,24.4833383 2.45044461,24.0059822 C2.41494079,23.9862848 2.38065285,23.9656148 2.34563538,23.9456743" id="Fill-4" fill="#3AAB25"></path>
                    </g>
                </g>
                <g id="Page-1" transform="translate(108.347451, 0.000000)">
                    <path d="M83.5376326,114.87224 C83.9114618,115.383747 84.2458545,116.011929 84.2787571,116.655512 C84.3566965,118.172297 84.0843752,120.389137 83.3649525,121.322543 C82.6452963,122.255949 82.684266,124.861553 82.4509145,126.339601 C82.217563,127.817416 80.8960932,133.768581 78.4069324,135.187825 C78.7235904,135.175457 79.0782848,135.03988 79.4731156,134.740256 C81.9842114,132.834474 83.3453509,128.011798 83.6953782,122.21698 C84.590048,121.905922 85.3678087,120.81687 85.8345118,117.316597 C85.7509719,116.344455 84.8147656,115.59353 83.5376326,114.87224" id="Fill-1" fill="#000000"></path>
                    <path d="M82.4508678,126.339624 C82.6842194,124.861576 82.6452497,122.255973 83.3649058,121.322566 C84.0843286,120.38916 84.3566498,118.172321 84.2787104,116.655536 C84.2458078,116.011952 83.9114151,115.38377 83.5375859,114.872263 C81.23884,113.573429 77.8319076,112.370502 76.2817533,110.145261 C76.2038139,113.373446 73.1168064,116.733242 73.1168064,116.733242 C73.1168064,116.733242 74.7502672,117.588942 75.4503218,119.105727 C76.1503764,120.622512 76.4572337,129.685185 76.264952,130.81274 C76.1027727,131.762714 76.7092533,135.253886 78.4068857,135.187848 C80.8960466,133.768604 82.2175163,127.81744 82.4508678,126.339624" id="Fill-3" fill="#626262"></path>
                    <path d="M75.9559712,114.477549 C75.9559712,114.477549 78.9505715,117.083386 79.7673018,116.383331 C80.5840322,115.683277 81.0117656,114.321904 76.6560258,112.22174" id="Fill-5" fill="#FB9FA1"></path>
                    <path d="M73.7778913,160.720006 C75.3464804,160.643 77.2312607,159.209522 78.5625312,157.401281 C79.2824207,155.878895 79.6627837,154.063187 79.3783282,152.163705 C77.9005129,145.785508 79.9229707,145.785508 77.978219,138.862668 C76.6560492,140.224041 71.6389912,140.651774 71.6389912,140.651774 C71.6389912,140.651774 72.3390458,145.591126 71.6389912,150.219187 C71.1398522,153.518311 70.2470493,156.500777 70.943837,158.815158 C71.5722526,159.762565 72.5399615,160.780911 73.7778913,160.720006" id="Fill-7" fill="#626262"></path>
                    <path d="M73.7778913,160.720006 C72.5399615,160.780911 71.5722526,159.762565 70.943837,158.815158 C71.2245588,159.74763 71.7619674,160.572061 72.6890731,161.264415 C74.2905647,162.329198 77.1157517,160.461453 78.5625312,157.401281 C77.2312607,159.209522 75.3464804,160.643 73.7778913,160.720006" id="Fill-9" fill="#000000"></path>
                    <path d="M76.9281371,112.537021 C76.9281371,114.96201 75.136464,116.92753 72.9266249,116.92753 C70.7163192,116.92753 68.9246461,114.96201 68.9246461,112.537021 C68.9246461,110.112032 70.7163192,108.146279 72.9266249,108.146279 C75.136464,108.146279 76.9281371,110.112032 76.9281371,112.537021" id="Fill-11" fill="#B2AAA8"></path>
                    <path d="M78.7172433,137.754248 C78.7172433,140.213773 76.7234878,142.207529 74.2641959,142.207529 C71.8046708,142.207529 69.8109153,140.213773 69.8109153,137.754248 C69.8109153,135.294956 71.8046708,133.301201 74.2641959,133.301201 C76.7234878,133.301201 78.7172433,135.294956 78.7172433,137.754248" id="Fill-13" fill="#B2AAA8"></path>
                    <path d="M62.0642743,102.041103 C62.0444395,103.738735 62.1634487,106.67243 62.8273339,111.072274 C63.2328988,111.276456 63.6370637,111.478539 64.0377283,111.677821 C63.9863909,109.798174 63.9443877,106.7058 63.9098516,103.190359 C63.2585675,102.793895 62.6357523,102.407464 62.0642743,102.041103" id="Fill-15" fill="#B2AAA8"></path>
                    <path d="M77.7227457,136.807168 C77.7227457,136.807168 75.0613715,125.756339 73.0778834,118.055738 C72.8881686,117.318814 72.739757,116.509784 72.6272816,115.641483 C76.5653221,115.116442 75.98311,110.458979 74.0502593,109.304822 C73.8600778,109.114641 73.265498,108.727277 72.4167985,108.211104 C72.7502579,100.565341 74.4175546,91.3710569 76.1602238,84.452884 C78.7758612,74.0687407 77.3171807,67.4571917 77.3171807,67.4571917 C77.3171807,67.4571917 55.226491,63.645861 50.6373997,63.0900177 C49.5483481,68.4459021 50.1706966,100.437464 50.6373997,103.159976 C50.9181216,104.797404 57.0235312,108.151366 62.8272172,111.072227 C62.1633321,106.672384 62.0443228,103.738688 62.0641577,102.041056 C60.1509084,100.814794 58.8096038,99.8144155 58.8824095,99.4263519 C59.115761,98.1818882 61.2159248,80.21382 61.2159248,79.9025291 C61.2159248,79.5914715 63.7827917,81.1472262 63.7827917,81.1472262 C63.7827917,81.1472262 63.8173278,93.7008387 63.9099683,103.190312 C63.944271,106.705753 63.9865076,109.798128 64.0376116,111.678008 C64.0555797,112.322991 64.0740144,112.828431 64.0938493,113.155123 C64.3272009,117.005656 69.752624,134.565359 70.5693544,137.190564 C70.4526786,139.699093 73.1945592,141.040865 75.5864124,140.224134 C77.9782656,139.407404 77.7227457,136.807168 77.7227457,136.807168" id="Fill-17" fill="#CCC5C2"></path>
                    <path d="M69.3859483,23.3208852 C69.3856787,23.3208852 69.3856787,23.3206157 69.3856787,23.3206157 L69.3859483,23.3208852 Z" id="Fill-19" fill="#EFEDED"></path>
                    <path d="M87.9455498,55.0631683 C85.9284591,56.6035217 83.2771189,56.1790553 81.6774942,55.696251 C82.0233212,57.5182598 82.1334631,58.7652904 81.8284726,58.7841918 C80.9884071,58.6766168 79.1682651,58.5867764 76.9768609,58.5132707 C71.2576481,58.3212224 63.0049377,58.2397827 63.0049377,58.2397827 L61.1381254,56.9563493 C61.1381254,56.9563493 60.9435103,54.8172157 60.593483,54.3117763 C60.2434557,53.8061035 59.3100495,53.4171065 59.5434011,54.5838642 C59.7767526,55.7506219 59.3879889,56.2562947 59.3879889,56.2562947 C59.3879889,56.2562947 58.1045555,55.2062128 56.2377432,54.1171611 C54.3709309,53.0283429 50.7150124,56.4896462 53.8262885,59.2508949 C56.9377978,62.012377 62.0715316,63.3345468 63.2382893,63.3345468 C63.880706,63.3345468 70.747775,64.0182668 77.0242312,64.3731944 C82.1476975,64.663017 86.8777331,64.7337226 87.5068489,64.0346014 C88.4743243,63.6829406 88.4689572,59.893545 87.9455498,55.0631683" id="Fill-21" fill="#FBA0A3"></path>
                    <path d="M43.060242,35.3033803 C41.8755163,38.6272396 40.9561112,41.1495363 40.6809898,41.3996892 C39.8252897,42.1774498 25.2408188,43.8886166 22.2851882,44.4719955 C21.9351609,44.1219682 18.0069212,43.5385893 17.0735151,43.110856 C16.1401089,42.6828893 16.2567847,43.577559 16.6847514,44.1609379 C17.1124848,44.7443167 18.3569485,45.3664319 18.3569485,45.3664319 C18.3569485,45.3664319 16.4901362,45.9110744 14.5066482,45.7554289 C12.5231601,45.5997834 10.1119387,48.9446443 13.2232147,50.2668141 C16.3347241,51.5892173 22.7129216,49.1779959 23.5686217,48.7889989 C24.4240884,48.4000019 39.7475836,47.6999473 42.6255081,46.9221866 C44.3824118,46.4473162 46.8302694,42.6681881 48.4709641,39.7956307 C47.0141504,39.3898324 44.2279331,38.2468766 43.060242,35.3033803" id="Fill-23" fill="#FBA0A3"></path>
                    <path d="M43.6862542,61.3292403 L43.6876543,60.4287368 L42.8403549,60.3580313 L21.4567203,48.012335 C20.5674176,47.4987282 19.0142298,47.5631333 17.9872497,48.1560795 L15.8180138,49.4084772 L3.11272279,56.7438827 L2.66025417,57.0050031 L1.25337776,56.8876272 L1.25337776,57.8172997 L2.8637367,58.7469723 L24.4942572,71.2354797 L26.1043828,72.1651522 L27.9637278,71.0915018 L40.6690189,63.7560963 L42.8382547,62.5036986 C43.4195334,62.1681391 43.7070225,61.7350387 43.6860208,61.3292403 L43.6862542,61.3292403 Z" id="Fill-25" fill="#9FC0F0"></path>
                    <path d="M43.0873808,59.5708899 L21.4568603,47.0823824 C20.5673243,46.569009 19.0141364,46.6334141 17.9873897,47.2263603 L15.8181538,48.478758 L3.11262945,55.8141635 L1.25351777,56.8875806 L2.86364336,57.8172531 L24.4941639,70.3057605 L26.1045228,71.235433 L27.9636345,70.162016 L40.6691589,62.8263771 L42.8383947,61.5739794 C43.8651415,60.9812665 43.9766835,60.0844966 43.0873808,59.5708899" id="Fill-27" fill="#C6E2FB"></path>
                    <path d="M33.2629078,63.2338789 L21.4004826,56.3850114 C20.9127779,56.1033561 20.0608114,56.1388255 19.4977342,56.4638842 L18.308108,57.1508711 L11.3404646,61.1736182 L10.3207183,61.7623641 L11.2037206,62.2720039 L23.0661458,69.1208714 L23.949148,69.6307445 L24.9688942,69.0419986 L31.9365377,65.0192515 L33.1261638,64.3324979 C33.6892411,64.0072059 33.7506125,63.5155342 33.2629078,63.2338789" id="Fill-29" fill="#2E3B70"></path>
                    <path d="M31.4913497,64.5498882 L23.6806071,60.0403698 C23.3595154,59.8550887 22.7987716,59.8781905 22.427976,60.0924072 L21.6448483,60.5446425 L17.0571571,63.1934158 L16.3855714,63.5810127 L16.9670834,63.9165722 L24.7775927,68.4260906 L25.3591047,68.7616501 L26.030457,68.3740532 L30.6181482,65.7255133 L31.401276,65.273278 C31.7720716,65.0590613 31.8124414,64.7351693 31.4913497,64.5498882" id="Fill-31" fill="#5A648F"></path>
                    <path d="M27.4199954,58.9540251 L20.7701767,55.1146923 C20.2442024,54.8111019 20.3109409,54.2757935 20.9181216,53.9250662 L25.2150568,51.444306 C25.8220041,51.093812 26.7493431,51.055309 27.2753175,51.3591327 L33.9251362,55.1982321 C34.4511105,55.5020558 34.384372,56.0371309 33.7771913,56.3878583 L29.4802561,58.8686184 C28.8733088,59.2191124 27.9459698,59.2576154 27.4199954,58.9540251" id="Fill-33" fill="#A7CBF0"></path>
                    <path d="M26.49548,71.0317871 L26.3564025,68.8046801 L25.4066617,53.5852597 L25.2444824,50.9868903 C25.1677097,49.7568944 24.384582,48.3434841 23.4952793,47.8301107 L1.86452543,35.3416033 C1.54530053,35.1572556 1.25664468,35.1159524 1.02002623,35.1931917 L1.01885947,35.1917916 L1.01045882,35.195992 C0.952354284,35.2158268 0.897983376,35.2433623 0.846646038,35.277665 L0.560557057,35.4204761 L0.622395213,35.5070495 C0.450881835,35.7628028 0.362908307,36.1480662 0.393477358,36.6392712 L0.555656675,39.2376405 L1.50539742,54.4568276 L1.64447494,56.684168 L3.25460053,57.6138405 L24.8853544,70.1021146 L25.5926429,70.5104798 L26.1081164,71.2331695 L26.49548,71.0317871 Z" id="Fill-35" fill="#C6E2FB"></path>
                    <g id="Group-39" transform="translate(0.000000, 35.322655)">
                        <mask id="mask-6" fill="white">
                            <use xlink:href="#path-5"></use>
                        </mask>
                        <g id="Clip-38"></g>
                        <path d="M23.1077757,12.708838 L1.47725523,0.220330519 C0.587952527,-0.293042857 -0.0705655041,0.288002464 0.00597379929,1.5179984 L0.168153116,4.11636774 L1.11812721,19.3355548 L1.25697138,21.5626619 L2.86733032,22.4925678 L24.4978508,34.9808418 L26.1079764,35.9105144 L25.9691323,33.6834073 L25.0191582,18.4639869 L24.8569788,15.8656175 C24.7802062,14.6356216 23.9973118,13.2222113 23.1077757,12.708838" id="Fill-37" fill="#B0B5D1" mask="url(#mask-6)"></path>
                    </g>
                    <path d="M14.0111729,53.3167887 C13.7549529,54.3601034 12.5394247,54.7173646 11.2963611,54.1150843 C10.0535308,53.512804 9.25336843,52.1789666 9.50982177,51.1356519 C9.76604175,50.0923372 10.9815699,49.7348427 12.2246335,50.337123 C13.4676971,50.9394033 14.2676262,52.273474 14.0111729,53.3167887" id="Fill-40" fill="#FFFFFF"></path>
                    <g id="Group-44" transform="translate(42.703331, 17.121235)">
                        <mask id="mask-8" fill="white">
                            <use xlink:href="#path-7"></use>
                        </mask>
                        <g id="Clip-43"></g>
                        <path d="M20.5349817,46.213358 C19.3682241,46.213358 14.2344903,44.8909548 11.1232143,42.1297061 C8.01170491,39.3684574 11.6676234,35.9069207 13.5344357,36.9959724 C15.401248,38.085024 16.6846814,39.1351059 16.6846814,39.1351059 C16.6846814,39.1351059 17.0736784,38.6294331 16.8403269,37.4626754 C16.6069753,36.2959177 17.5403815,36.6849148 17.8904088,37.1903542 C18.2404361,37.696027 18.4348179,39.8351605 18.4348179,39.8351605 L20.3016302,41.1185939 C20.3016302,41.1185939 26.9309139,41.1839323 32.4242424,41.3358442 C32.8778778,30.9309326 35.3917739,25.6784229 35.3917739,25.6784229 C36.5438304,28.6118851 37.4006973,34.9882157 38.1140529,38.7461089 C39.7136777,39.2289132 43.952975,39.3920259 45.970299,37.8516724 C45.1050315,29.8666163 42.0954968,19.1259118 40.4475682,16.2666555 C37.8029953,11.6773308 27.3021762,7.16594561 26.7745684,6.38818495 C26.7421326,6.33988118 26.7134303,6.28224335 26.6884617,6.21690492 C26.8133048,6.58980067 28.7832584,12.8898254 18.979227,11.8329763 C17.0470763,10.7359907 14.0716109,3.44725555 16.691682,0.912824534 C12.6472332,0.365381833 8.73042764,-0.0607180693 7.85535938,0.199702243 C6.5355231,0.592199525 2.4983082,10.734824 4.6670307e-05,17.7444707 C0.777807336,20.6226286 4.47269554,22.8394681 6.14489263,22.6838227 C7.19170762,20.8508464 7.53263421,19.3779315 7.53263421,19.3779315 C7.53263421,19.3779315 8.5563474,28.7896989 8.32299586,32.684336 C8.08964433,36.5789732 7.15623819,43.6464911 7.70064732,45.5133034 C8.24505645,47.3801156 15.3235419,51.1914463 22.8684971,54.1473102 C27.7770466,56.0703602 31.0049984,55.2267944 32.8342411,53.525195 C32.5980893,51.2572514 32.4590118,49.1274519 32.3957735,47.1343965 C26.7127303,46.765001 21.1120601,46.213358 20.5349817,46.213358" id="Fill-42" fill="#3AAB25" mask="url(#mask-8)"></path>
                    </g>
                    <path d="M78.0951048,42.7996584 C78.0951048,42.7996584 75.5812087,48.0521681 75.1275733,58.4570797 C75.7629895,58.474581 76.3839379,58.4932491 76.9768842,58.513084 C77.1635654,50.9606616 78.0951048,42.7996584 78.0951048,42.7996584" id="Fill-45" fill="#EFEEED"></path>
                    <path d="M75.0991511,64.2557019 C75.1623893,66.2487574 75.3014668,68.3783235 75.5376186,70.6465004 C76.5200286,69.7324625 77.0996738,68.5715386 77.3171574,67.457285 C77.1780799,66.5483808 77.0835725,65.5048327 77.0245346,64.3733111 C76.3865515,64.3371416 75.7422679,64.2974719 75.0991511,64.2557019" id="Fill-47" fill="#EFEEED"></path>
                    <path d="M61.6825812,28.9542351 C71.4866126,30.0110842 69.5164256,23.7110595 69.3918159,23.3381637 C69.3894824,23.3327966 69.3880823,23.3264961 69.3859821,23.3208957 L69.3857488,23.320429 C69.0193868,22.3174841 69.4779226,19.5548353 69.4779226,19.5548353 C69.4779226,19.5548353 64.3409219,18.7035689 59.3948028,18.0340833 C56.7749651,20.5687477 59.7504305,27.8572495 61.6825812,28.9542351" id="Fill-49" fill="#FBA0A3"></path>
                    <path d="M61.6825812,28.9542351 C61.6825812,28.9542351 63.0437207,31.385058 63.0437207,32.6295218 C64.1134042,32.9989172 70.9466372,28.8328923 71.1762551,24.5765603 C70.8609972,23.8107006 69.3857488,23.320429 69.3857488,23.320429 C69.3857488,23.320429 69.713841,26.8347031 61.6825812,28.9542351" id="Fill-51" fill="#2A7E1B"></path>
                    <path d="M61.6825812,28.9542351 C61.6825812,28.9542351 60.0491205,28.9932048 58.2212779,30.9377231 C56.9765808,28.2541805 55.1487383,22.6927134 59.5047114,19.0367949 L61.3715236,19.4257919 C61.3715236,19.4257919 58.687981,23.5871498 61.6825812,28.9542351" id="Fill-53" fill="#2A7E1B"></path>
                    <path d="M55.868161,6.8927143 C55.868161,6.8927143 54.7014034,9.7512706 54.9930928,13.8932603 C55.2847822,18.0352501 55.4714634,21.4771852 55.4072918,22.3230845 C55.3431201,23.1689838 55.2847822,25.2983166 59.3100962,25.123303 C63.3354102,24.9482893 67.7716562,24.5028212 68.935847,20.0479071 C70.5984767,18.6186289 70.1901115,18.3269395 71.2693623,18.2102637 C72.3486132,18.093588 73.6710163,16.9753674 73.739155,14.7197915 C74.2154255,11.063873 73.5445398,5.78429451 68.6733265,3.97582011 C63.8021132,2.16734572 57.5891286,2.31319043 55.868161,6.8927143" id="Fill-55" fill="#FBA0A3"></path>
                    <g id="Group-59" transform="translate(55.771017, 0.086573)">
                        <mask id="mask-10" fill="white">
                            <use xlink:href="#path-9"></use>
                        </mask>
                        <g id="Clip-58"></g>
                        <path d="M11.9787043,7.16596895 C11.9787043,7.16596895 7.64233277,8.90630469 0.0971442439,6.80614088 C0.388833662,-1.35136207 15.1289501,-2.05141668 17.1901442,4.91015966 C19.0569564,6.15485675 21.6238233,7.94372961 17.9681382,14.6332181 C18.2110571,13.777518 15.2358251,11.1523132 14.5649394,15.4693166 C13.9815606,15.5859924 13.748209,15.4693166 13.748209,15.4693166 C13.748209,15.4693166 14.4482636,12.1440572 14.2149121,10.6856101 C13.3106749,9.89804871 12.1635188,9.30510246 11.9787043,7.16596895" id="Fill-57" fill="#23083E" mask="url(#mask-10)"></path>
                    </g>
                </g>
            </g>
            <g id="编组-10">
                <g id="Group-2" transform="translate(-0.000000, -0.000000)">
                    <path d="M57.0934507,214.481869 C53.0021582,216.807293 48.0751665,214.418889 46.0912893,209.147928 L1.2517894,90.0838072 C-0.75146631,84.7595556 0.958689109,78.5487362 5.06936014,76.2136232 L137.160699,1.19448249 C141.278637,-1.14063057 146.212895,1.29379747 148.184661,6.63742757 L192.341068,126.089119 C194.293455,131.377036 192.561499,137.546676 188.470206,139.869677 L57.0934507,214.481869 Z" id="Fill-166" fill-opacity="0.790000021" fill="#242E47"></path>
                    <g id="Group" transform="translate(17.893512, 59.048589)">
                        <path d="M29.7519752,16.3436475 L2.24899414,31.962744 C1.46900824,32.4060279 0.531571771,31.9457878 0.15611272,30.9405264 C-0.219346331,29.9328428 0.105244075,28.7580193 0.885229974,28.3147354 L28.3906333,12.6932166 C29.1706192,12.252355 30.1056334,12.7101728 30.4810924,13.7178564 C30.8565515,14.7255401 30.5295388,15.9003636 29.7519752,16.3436475" id="Fill-192" fill="#FFFFFF" opacity="0.789999962"></path>
                        <path d="M53.1475951,3.8205698 L37.1385056,12.9115235 C36.3585197,13.3548074 35.4235056,12.8969896 35.0480465,11.8893059 C34.6725875,10.8792 34.9996002,9.70437647 35.7771638,9.26351487 L51.7910979,0.167716578 C52.5710838,-0.273145017 53.5036756,0.184672794 53.8791347,1.19477876 C54.2545937,2.2024624 53.9251587,3.37728588 53.1475951,3.8205698" id="Fill-194" fill="#FFFFFF" opacity="0.789999962"></path>
                        <path d="M20.5069569,31.5565875 L5.82287451,39.8966231 C5.04288861,40.3374847 4.10787446,39.8796669 3.73241541,38.8719832 C3.35937868,37.8618773 3.68881371,36.6870538 4.4663773,36.2437699 L19.152882,27.9037343 C19.9328679,27.4604504 20.8654597,27.9206905 21.2409188,28.9283742 C21.6139555,29.9384802 21.2845205,31.1133036 20.5069569,31.5565875" id="Fill-196" fill="#FFFFFF" opacity="0.789999962"></path>
                        <path d="M26.5877407,41.930497 L10.1595905,51.26126 C9.4982981,51.636719 9.21973171,52.6322911 9.5418998,53.4873688 C9.85922326,54.3400242 10.6537431,54.7251725 11.3126131,54.3521358 L27.7431857,45.0213728 C28.3996334,44.6483361 28.6781998,43.6503417 28.3608764,42.7976863 C28.0435529,41.9426086 27.2466108,41.5574603 26.5877407,41.930497" id="Fill-198" fill="#FFFFFF" opacity="0.789999962"></path>
                        <path d="M39.8419297,34.4033908 L31.3662444,39.2189559 C30.704952,39.594415 30.4263856,40.5875647 30.7461314,41.4426425 C31.0634548,42.2977202 31.8555523,42.6828685 32.519267,42.3098317 L40.9949523,37.4942666 C41.6538224,37.1212299 41.9299665,36.1256578 41.612643,35.2705801 C41.2953195,34.4155024 40.5007997,34.0279318 39.8419297,34.4033908" id="Fill-200" fill="#FFFFFF" opacity="0.789999962"></path>
                        <path d="M68.9995951,17.8446778 L44.175696,31.9425595 C43.5144036,32.3180186 43.2382596,33.3135907 43.555583,34.1662461 C43.8753288,35.0213238 44.6674263,35.4088944 45.3287187,35.0358577 L70.1477731,20.9379759 C70.8066432,20.5649391 71.0852096,19.5669448 70.7678861,18.7118671 C70.4505627,17.8567893 69.6584652,17.4692187 68.9995951,17.8446778" id="Fill-202" fill="url(#linearGradient-11)"></path>
                        <path d="M78.717202,12.3259142 L73.3323925,15.3828775 C72.6735225,15.7583366 72.3949561,16.7539087 72.7122795,17.6089864 C73.029603,18.4640641 73.8217005,18.8516347 74.4805705,18.478598 L79.86538,15.4192123 C80.5242501,15.0461756 80.8028165,14.0481812 80.485493,13.1931035 C80.1705919,12.3380258 79.3784944,11.9504551 78.717202,12.3259142" id="Fill-204" fill="#FFFFFF" opacity="0.789999962"></path>
                        <path d="M23.3587929,59.0926091 L14.8831076,63.9057519 C14.2242375,64.2787886 13.9480934,65.276783 14.2654169,66.1294384 C14.5851627,66.9796715 15.3796825,67.3672421 16.0385525,66.9942054 L24.5118155,62.1810626 C25.1706856,61.8080258 25.4468297,60.8100315 25.1295062,59.9573761 C24.8121827,59.1047207 24.0152406,58.7195724 23.3587929,59.0926091" id="Fill-206" fill="#FFFFFF" opacity="0.789999962"></path>
                        <path d="M48.0857993,45.0494717 L28.1331786,56.381068 C27.4718862,56.7565271 27.1957421,57.7520992 27.5130656,58.6047546 C27.8328114,59.4574099 28.6249088,59.8449806 29.2837789,59.4719438 L49.2363996,48.1403475 C49.8952697,47.7648884 50.1714137,46.7693163 49.8540903,45.916661 C49.5391891,45.0640056 48.7446693,44.6740126 48.0857993,45.0494717" id="Fill-208" fill="#FFFFFF" opacity="0.789999962"></path>
                        <path d="M30.668375,31.3340737 L7.60550002,44.4315387 C6.94662995,44.8069978 6.66806356,45.8025698 6.98780933,46.6552252 C7.30513278,47.510303 8.1020749,47.8978736 8.76094497,47.5224145 L31.8213976,34.4273718 C32.4802677,34.0519127 32.7588341,33.0563407 32.4390883,32.2012629 C32.1217649,31.3461852 31.3272451,30.9586146 30.668375,31.3340737" id="Fill-210" fill="#FFFFFF" opacity="0.789999962"></path>
                        <path d="M47.4613261,21.7974138 L35.0033525,28.8705778 C34.3444825,29.2460369 34.0683384,30.2416089 34.3856618,31.0966866 C34.7029853,31.9517643 35.4975051,32.339335 36.1563752,31.9662982 L48.6119264,24.8907119 C49.2707965,24.5176751 49.5493629,23.5196808 49.2320394,22.6646031 C48.914716,21.8095253 48.1201962,21.4219547 47.4613261,21.7974138" id="Fill-212" fill="#FFFFFF" opacity="0.789999962"></path>
                        <path d="M35.6171675,44.6120013 L12.5639818,57.7021994 C11.9075341,58.0776585 11.6289677,59.0732306 11.9487134,59.925886 C12.2660369,60.7785413 13.0605567,61.1636897 13.7194268,60.7906529 L36.7677679,47.7004548 C37.4290602,47.3274181 37.7052043,46.3294237 37.3854585,45.4767683 C37.0705574,44.6241129 36.2760376,44.2365423 35.6171675,44.6120013" id="Fill-214" fill="url(#linearGradient-12)"></path>
                        <path d="M52.4006716,35.0775215 L39.9475427,42.1482632 C39.2910949,42.5237223 39.0149508,43.5192944 39.329852,44.3743721 C39.6471754,45.2270275 40.4416952,45.6145981 41.1005653,45.2415614 L53.5512719,38.1708196 C54.2077196,37.7977829 54.486286,36.7973662 54.1689626,35.9447108 C53.8540614,35.0920554 53.0571193,34.7044848 52.4006716,35.0775215" id="Fill-216" fill="#FFFFFF" opacity="0.789999962"></path>
                        <path d="M81.1063327,18.7743628 L56.7305622,32.6179014 C56.0716922,32.9933604 55.7955481,33.9889325 56.1128715,34.8415879 C56.4277727,35.6966656 57.2222925,36.0842362 57.8811626,35.7111995 L82.2545107,21.8676609 C82.9133808,21.4946242 83.1919472,20.4966298 82.8746238,19.6439744 C82.5597226,18.7888967 81.7676251,18.3989038 81.1063327,18.7743628" id="Fill-218" fill="#FFFFFF" opacity="0.789999962"></path>
                    </g>
                    <g id="Group" transform="translate(37.576375, 119.530896)">
                        <path d="M29.7519752,4.17382271 L2.24899414,19.7929192 C1.46900824,20.2362031 0.531571771,19.775963 0.15611272,18.7707017 C-0.219346331,17.763018 0.105244075,16.5881946 0.885229974,16.1449106 L28.3906333,0.523391811 C29.1706192,0.0825302154 30.1056334,0.540348026 30.4810924,1.54803167 C30.8565515,2.55571532 30.5295388,3.7305388 29.7519752,4.17382271" id="Fill-192" fill="#FFFFFF" opacity="0.79"></path>
                        <path d="M20.5069569,19.3867628 L5.82287451,27.7267983 C5.04288861,28.1676599 4.10787446,27.7098421 3.73241541,26.7021585 C3.35937868,25.6920525 3.68881371,24.517229 4.4663773,24.0739451 L19.152882,15.7339096 C19.9328679,15.2906257 20.8654597,15.7508658 21.2409188,16.7585494 C21.6139555,17.7686554 21.2845205,18.9434789 20.5069569,19.3867628" id="Fill-196" fill="url(#linearGradient-13)"></path>
                        <path d="M26.5877407,29.7606722 L10.1595905,39.0914352 C9.4982981,39.4668943 9.21973171,40.4624663 9.5418998,41.317544 C9.85922326,42.1701994 10.6537431,42.5553478 11.3126131,42.182311 L27.7431857,32.851548 C28.3996334,32.4785113 28.6781998,31.4805169 28.3608764,30.6278615 C28.0435529,29.7727838 27.2466108,29.3876355 26.5877407,29.7606722" id="Fill-198" fill="#FFFFFF" opacity="0.79"></path>
                        <path d="M39.8419297,22.2335661 L31.3662444,27.0491312 C30.704952,27.4245902 30.4263856,28.41774 30.7461314,29.2728177 C31.0634548,30.1278954 31.8555523,30.5130437 32.519267,30.140007 L40.9949523,25.3244419 C41.6538224,24.9514051 41.9299665,23.9558331 41.612643,23.1007554 C41.2953195,22.2456777 40.5007997,21.858107 39.8419297,22.2335661" id="Fill-200" fill="#FFFFFF" opacity="0.79"></path>
                        <path d="M68.9995951,5.674853 L44.175696,19.7727348 C43.5144036,20.1481938 43.2382596,21.1437659 43.555583,21.9964213 C43.8753288,22.851499 44.6674263,23.2390696 45.3287187,22.8660329 L70.1477731,8.76815111 C70.8066432,8.39511438 71.0852096,7.39712 70.7678861,6.54204229 C70.4505627,5.68696458 69.6584652,5.29939395 68.9995951,5.674853" id="Fill-202" fill="#FFFFFF" opacity="0.79"></path>
                        <path d="M78.717202,0.156089415 L73.3323925,3.21305278 C72.6735225,3.58851183 72.3949561,4.5840839 72.7122795,5.43916161 C73.029603,6.29423932 73.8217005,6.68180995 74.4805705,6.30877322 L79.86538,3.24938753 C80.5242501,2.8763508 80.8028165,1.87835642 80.485493,1.02327871 C80.1705919,0.168200997 79.3784944,-0.219369636 78.717202,0.156089415" id="Fill-204" fill="#FFFFFF" opacity="0.79"></path>
                        <path d="M23.3587929,46.9227843 L14.8831076,51.7359271 C14.2242375,52.1089639 13.9480934,53.1069582 14.2654169,53.9596136 C14.5851627,54.8098467 15.3796825,55.1974173 16.0385525,54.8243806 L24.5118155,50.0112378 C25.1706856,49.6382011 25.4468297,48.6402067 25.1295062,47.7875513 C24.8121827,46.9348959 24.0152406,46.5497476 23.3587929,46.9227843" id="Fill-206" fill="#FFFFFF" opacity="0.79"></path>
                        <path d="M48.0857993,32.8796469 L28.1331786,44.2112433 C27.4718862,44.5867023 27.1957421,45.5822744 27.5130656,46.4349298 C27.8328114,47.2875852 28.6249088,47.6751558 29.2837789,47.3021191 L49.2363996,35.9705227 C49.8952697,35.5950636 50.1714137,34.5994916 49.8540903,33.7468362 C49.5391891,32.8941808 48.7446693,32.5041878 48.0857993,32.8796469" id="Fill-208" fill="#FFFFFF" opacity="0.79"></path>
                        <path d="M30.668375,19.1642489 L7.60550002,32.261714 C6.94662995,32.637173 6.66806356,33.6327451 6.98780933,34.4854005 C7.30513278,35.3404782 8.1020749,35.7280488 8.76094497,35.3525898 L31.8213976,22.257547 C32.4802677,21.882088 32.7588341,20.8865159 32.4390883,20.0314382 C32.1217649,19.1763605 31.3272451,18.7887898 30.668375,19.1642489" id="Fill-210" fill="#FFFFFF" opacity="0.79"></path>
                        <path d="M47.4613261,9.62758899 L35.0033525,16.700753 C34.3444825,17.0762121 34.0683384,18.0717842 34.3856618,18.9268619 C34.7029853,19.7819396 35.4975051,20.1695102 36.1563752,19.7964735 L48.6119264,12.7208871 C49.2707965,12.3478504 49.5493629,11.349856 49.2320394,10.4947783 C48.914716,9.63970058 48.1201962,9.25212994 47.4613261,9.62758899" id="Fill-212" fill="#FFFFFF" opacity="0.79"></path>
                        <path d="M35.6171675,32.4421765 L12.5639818,45.5323747 C11.9075341,45.9078337 11.6289677,46.9034058 11.9487134,47.7560612 C12.2660369,48.6087166 13.0605567,48.9938649 13.7194268,48.6208282 L36.7677679,35.53063 C37.4290602,35.1575933 37.7052043,34.1595989 37.3854585,33.3069435 C37.0705574,32.4542881 36.2760376,32.0667175 35.6171675,32.4421765" id="Fill-214" fill="#FFFFFF" opacity="0.79"></path>
                        <path d="M52.4006716,22.9076967 L39.9475427,29.9784385 C39.2910949,30.3538975 39.0149508,31.3494696 39.329852,32.2045473 C39.6471754,33.0572027 40.4416952,33.4447733 41.1005653,33.0717366 L53.5512719,26.0009949 C54.2077196,25.6279581 54.486286,24.6275414 54.1689626,23.774886 C53.8540614,22.9222306 53.0571193,22.53466 52.4006716,22.9076967" id="Fill-216" fill="url(#linearGradient-14)"></path>
                    </g>
                    <g id="Group-4" transform="translate(110.045098, 30.418970)" fill="#FFFFFF" opacity="0.100000001">
                        <path d="M22.8401992,33.0272324 C18.9148881,35.2565007 14.5848394,34.7168507 11.5203985,32.0603595 C10.1873345,30.9071789 9.09197355,29.3492608 8.37244024,27.447637 L8.34353042,27.3737564 C7.62720932,25.4400106 7.37665754,23.3681402 7.54047985,21.3380283 C7.90345871,16.8473696 10.2772762,12.5398064 14.0323406,10.2591427 L14.2250728,10.1435035 L14.3342876,10.0824716 C19.9909758,6.87026937 26.4828366,9.40469695 28.8309564,15.7391598 C29.3898796,17.2521071 29.6629168,18.8421472 29.6789778,20.4321873 C29.7303731,25.5106791 27.1477624,30.5827464 22.8401992,33.0272324 M11.4561544,2.33463978 L11.3533639,2.39567162 C11.2184514,2.47276448 11.0867511,2.54985733 10.9550509,2.63016239 C4.66555883,6.45268307 0.688852438,13.6640771 0.0817462112,21.1838426 C-0.194503183,24.588777 0.223083111,28.0579555 1.43087116,31.3022797 L1.47905419,31.4211312 C2.68041784,34.6076359 4.51458533,37.2127319 6.7470659,39.1496899 C11.8833773,43.59859 19.13653,44.4947944 25.711908,40.7622154 C32.6181429,36.8401164 36.8775231,28.8834914 37.1505603,20.7469831 C37.2533507,17.727513 36.8100668,14.6855575 35.7468279,11.8138486 C31.8150923,1.19430798 20.9385755,-3.04901121 11.4561544,2.33463978" id="Fill-172"></path>
                    </g>
                    <g id="Group-5" transform="translate(108.255747, 32.208321)">
                        <path d="M39.2387228,18.5325553 C38.9671835,26.7401531 34.6775095,34.763492 27.7144667,38.7169745 C21.0876155,42.479733 13.7786834,41.5681369 8.59680895,37.0748085 C6.34691212,35.1223118 4.49785899,32.4909669 3.28239748,29.2777522 L3.23390833,29.154913 C2.01844682,25.8802787 1.59497486,22.3825943 1.86974674,18.9495621 C2.48071011,11.3593929 6.48591437,4.08601952 12.8250633,0.235980558 C12.9543677,0.155165298 13.0901374,0.0775826492 13.2226744,0 L16.1255585,7.81968451 L15.9283693,7.93605849 C12.1462151,10.2344445 9.75408347,14.5758402 9.3920311,19.1047274 C9.22716797,21.1542023 9.47931158,23.2457013 10.2066489,25.1981979 L10.2292772,25.2693154 C10.9566145,27.1894859 12.0621673,28.7637672 13.4069332,29.9275069 C16.4973087,32.6105735 20.8613327,33.1568847 24.8180478,30.9102205 C29.1594436,28.4437388 31.7616949,23.3329817 31.7067406,18.2092943 L39.2387228,18.5325553 Z" id="Fill-367" fill="#5AB700"></path>
                        <polygon id="Path-2" fill="#5AB700" points="18.425308 1.82313451 13.1169577 0.000291235545 12.732818 8.01363725"></polygon>
                        <polygon id="Path-3" fill="#55AE00" points="39.1898199 18.4652073 44.4592902 20.3142617 36.9790508 19.9877867 31.7640416 18.2103761"></polygon>
                        <path d="M44.4770779,20.2765146 C44.2055386,28.4841124 39.9158647,36.5074513 32.9528219,40.4609338 C26.3259706,44.2236923 19.0170385,43.3120962 13.8351641,38.8187677 C11.5852673,36.8662711 9.73621414,34.2349262 8.52075264,31.0217115 L8.47226348,30.8988723 C7.25680198,27.624238 6.83333002,24.1265536 7.1081019,20.6935213 C7.71906526,13.1033522 11.7242695,5.8299788 18.0634185,1.97993983 C18.1927229,1.89912457 18.3284925,1.82154192 18.4610296,1.74395927 L21.3639137,9.56364379 L21.1667245,9.68001776 C17.3845703,11.9784037 14.9924386,16.3197995 14.6303863,20.8486866 C14.4655231,22.8981616 14.7176667,24.9896605 15.4450041,26.9421572 L15.4676323,27.0132746 C16.1949697,28.9334452 17.3005224,30.5077265 18.6452884,31.6714662 C21.7356639,34.3545328 26.0996879,34.900844 30.056403,32.6541797 C34.3977987,30.187698 37.0000501,25.076941 36.9450957,19.9532536 L44.4770779,20.2765146 Z" id="Fill-367" fill="#B4EE73"></path>
                    </g>
                </g>
                <g id="Group-2" transform="translate(131.526259, 26.952102)">
                    <path d="M28.5467253,107.240934 C26.5010791,108.403646 24.0375833,107.209444 23.0456447,104.573964 L0.6258947,45.0419036 C-0.375733155,42.3797778 0.479344554,39.2743681 2.53468007,38.1068116 L68.5803494,0.597241246 C70.6393184,-0.570315286 73.1064477,0.646898733 74.0923305,3.31871379 L96.1705339,63.0445595 C97.1467274,65.6885179 96.2807493,68.7733379 94.235103,69.9348387 L28.5467253,107.240934 Z" id="Fill-166" fill-opacity="0.789999962" fill="#242E47"></path>
                    <g id="Group" transform="translate(8.946756, 29.524295)">
                        <path d="M14.8759876,8.17182374 L1.12449707,15.981372 C0.73450412,16.203014 0.265785886,15.9728939 0.0780563601,15.4702632 C-0.109673165,14.9664214 0.0526220373,14.3790097 0.442614987,14.1573677 L14.1953167,6.34660829 C14.5853096,6.12617749 15.0528167,6.3550864 15.2405462,6.85892822 C15.4282757,7.36277004 15.2647694,7.95018178 14.8759876,8.17182374" id="Fill-192" fill="#FFFFFF" opacity="0.100000001"></path>
                        <path d="M26.5737975,1.9102849 L18.5692528,6.45576173 C18.1792599,6.67740369 17.7117528,6.44849478 17.5240233,5.94465296 C17.3362937,5.43959998 17.4998001,4.85218823 17.8885819,4.63175744 L25.8955489,0.0838582892 C26.2855419,-0.136572508 26.7518378,0.0923363968 26.9395673,0.597389378 C27.1272969,1.1012312 26.9625793,1.68864294 26.5737975,1.9102849" id="Fill-194" fill="#FFFFFF" opacity="0.100000001"></path>
                        <path d="M10.2534784,15.7782938 L2.91143726,19.9483116 C2.52144431,20.1687424 2.05393723,19.9398334 1.86620771,19.4359916 C1.67968934,18.9309386 1.84440686,18.3435269 2.23318865,18.1218849 L9.57644099,13.9518672 C9.96643394,13.7302252 10.4327299,13.9603453 10.6204594,14.4641871 C10.8069777,14.9692401 10.6422602,15.5566518 10.2534784,15.7782938" id="Fill-196" fill="#FFFFFF" opacity="0.100000001"></path>
                        <path d="M13.2938704,20.9652485 L5.07979525,25.63063 C4.74914905,25.8183595 4.60986586,26.3161455 4.7709499,26.7436844 C4.92961163,27.1700121 5.32687153,27.3625863 5.65630657,27.1760679 L13.8715928,22.5106864 C14.1998167,22.324168 14.3390999,21.8251708 14.1804382,21.3988431 C14.0217764,20.9713043 13.6233054,20.7787301 13.2938704,20.9652485" id="Fill-198" fill="#FFFFFF" opacity="0.100000001"></path>
                        <path d="M19.9209648,17.2016954 L15.6831222,19.609478 C15.352476,19.7972075 15.2131928,20.2937824 15.3730657,20.7213212 C15.5317274,21.1488601 15.9277762,21.3414342 16.2596335,21.1549159 L20.4974762,18.7471333 C20.8269112,18.5606149 20.9649832,18.0628289 20.8063215,17.6352901 C20.6476598,17.2077512 20.2503999,17.0139659 19.9209648,17.2016954" id="Fill-200" fill="#FFFFFF" opacity="0.100000001"></path>
                        <path d="M34.4997975,8.92233888 L22.087848,15.9712798 C21.7572018,16.1590093 21.6191298,16.6567953 21.7777915,17.083123 C21.9376644,17.5106619 22.3337131,17.7044472 22.6643593,17.5179288 L35.0738865,10.4689879 C35.4033216,10.2824696 35.5426048,9.78347238 35.3839431,9.35593353 C35.2252813,8.92839467 34.8292326,8.73460936 34.4997975,8.92233888" id="Fill-202" fill="url(#linearGradient-15)"></path>
                        <path d="M39.358601,6.16295709 L36.6661963,7.69143877 C36.3367612,7.8791683 36.197478,8.37695433 36.3561398,8.80449319 C36.5148015,9.23203204 36.9108502,9.42581736 37.2402853,9.23929899 L39.93269,7.70960615 C40.2621251,7.52308778 40.4014082,7.02409059 40.2427465,6.59655174 C40.0852959,6.16901288 39.6892472,5.97522756 39.358601,6.16295709" id="Fill-204" fill="#FFFFFF" opacity="0.100000001"></path>
                        <path d="M11.6793964,29.5463045 L7.44155379,31.9528759 C7.11211876,32.1393943 6.97404672,32.6383915 7.13270845,33.0647192 C7.29258133,33.4898357 7.68984123,33.6836211 8.01927627,33.4971027 L12.2559078,31.0905313 C12.5853428,30.9040129 12.7234148,30.4050157 12.5647531,29.978688 C12.4060914,29.5523603 12.0076203,29.3597862 11.6793964,29.5463045" id="Fill-206" fill="#FFFFFF" opacity="0.100000001"></path>
                        <path d="M24.0428996,22.5247358 L14.0665893,28.190534 C13.7359431,28.3782635 13.5978711,28.8760496 13.7565328,29.3023773 C13.9164057,29.728705 14.3124544,29.9224903 14.6418895,29.7359719 L24.6181998,24.0701737 C24.9476348,23.8824442 25.0857069,23.3846582 24.9270451,22.9583305 C24.7695946,22.5320028 24.3723347,22.3370063 24.0428996,22.5247358" id="Fill-208" fill="#FFFFFF" opacity="0.100000001"></path>
                        <path d="M15.3341875,15.6670368 L3.80275001,22.2157694 C3.47331497,22.4034989 3.33403178,22.9012849 3.49390466,23.3276126 C3.65256639,23.7551515 4.05103745,23.9489368 4.38047249,23.7612073 L15.9106988,17.2136859 C16.2401339,17.0259564 16.3794171,16.5281703 16.2195442,16.1006315 C16.0608824,15.6730926 15.6636225,15.4793073 15.3341875,15.6670368" id="Fill-210" fill="#FFFFFF" opacity="0.100000001"></path>
                        <path d="M23.730663,10.8987069 L17.5016763,14.4352889 C17.1722412,14.6230184 17.0341692,15.1208045 17.1928309,15.5483433 C17.3514927,15.9758822 17.7487526,16.1696675 18.0781876,15.9831491 L24.3059632,12.4453559 C24.6353982,12.2588376 24.7746814,11.7598404 24.6160197,11.3323015 C24.457358,10.9047627 24.0600981,10.7109774 23.730663,10.8987069" id="Fill-212" fill="#FFFFFF" opacity="0.100000001"></path>
                        <path d="M17.8085838,22.3060007 L6.28199091,28.8510997 C5.95376703,29.0388292 5.81448383,29.5366153 5.97435672,29.962943 C6.13301844,30.3892707 6.53027834,30.5818448 6.85971338,30.3953265 L18.3838839,23.8502274 C18.7145301,23.663709 18.8526022,23.1647118 18.6927293,22.7383841 C18.5352787,22.3120564 18.1380188,22.1182711 17.8085838,22.3060007" id="Fill-214" fill="url(#linearGradient-16)"></path>
                        <path d="M26.2003358,17.5387608 L19.9737713,21.0741316 C19.6455475,21.2618611 19.5074754,21.7596472 19.664926,22.187186 C19.8235877,22.6135137 20.2208476,22.807299 20.5502826,22.6207807 L26.7756359,19.0854098 C27.1038598,18.8988914 27.243143,18.3986831 27.0844813,17.9723554 C26.9270307,17.5460277 26.5285597,17.3522424 26.2003358,17.5387608" id="Fill-216" fill="#FFFFFF" opacity="0.100000001"></path>
                        <path d="M40.5531664,9.38718141 L28.3652811,16.3089507 C28.0358461,16.4966802 27.897774,16.9944662 28.0564358,17.4207939 C28.2138863,17.8483328 28.6111462,18.0421181 28.9405813,17.8555997 L41.1272554,10.9338305 C41.4566904,10.7473121 41.5959736,10.2483149 41.4373119,9.82198721 C41.2798613,9.39444836 40.8838126,9.19945188 40.5531664,9.38718141" id="Fill-218" fill="#FFFFFF" opacity="0.100000001"></path>
                    </g>
                    <g id="Group" transform="translate(18.788187, 59.495927)">
                        <path d="M14.8759876,2.35643238 L1.12449707,10.1659806 C0.73450412,10.3876226 0.265785886,10.1575025 0.0780563601,9.65487186 C-0.109673165,9.15103004 0.0526220373,8.5636183 0.442614987,8.34197634 L14.1953167,0.531216928 C14.5853096,0.31078613 15.0528167,0.539695036 15.2405462,1.04353686 C15.4282757,1.54737868 15.2647694,2.13479042 14.8759876,2.35643238" id="Fill-192" fill="#FFFFFF" opacity="0.100000001"></path>
                        <path d="M10.2534784,9.96290241 L2.91143726,14.1329202 C2.52144431,14.353351 2.05393723,14.1244421 1.86620771,13.6206003 C1.67968934,13.1155473 1.84440686,12.5281355 2.23318865,12.3064936 L9.57644099,8.13647581 C9.96643394,7.91483385 10.4327299,8.14495391 10.6204594,8.64879574 C10.8069777,9.15384872 10.6422602,9.74126046 10.2534784,9.96290241" id="Fill-196" fill="url(#linearGradient-17)"></path>
                        <path d="M13.2938704,15.1498571 L5.07979525,19.8152386 C4.74914905,20.0029682 4.60986586,20.5007542 4.7709499,20.928293 C4.92961163,21.3546207 5.32687153,21.5471949 5.65630657,21.3606765 L13.8715928,16.695295 C14.1998167,16.5087767 14.3390999,16.0097795 14.1804382,15.5834518 C14.0217764,15.1559129 13.6233054,14.9633388 13.2938704,15.1498571" id="Fill-198" fill="#FFFFFF" opacity="0.100000001"></path>
                        <path d="M19.9209648,11.3863041 L15.6831222,13.7940866 C15.352476,13.9818161 15.2131928,14.478391 15.3730657,14.9059299 C15.5317274,15.3334687 15.9277762,15.5260429 16.2596335,15.3395245 L20.4974762,12.931742 C20.8269112,12.7452236 20.9649832,12.2474376 20.8063215,11.8198987 C20.6476598,11.3923598 20.2503999,11.1985745 19.9209648,11.3863041" id="Fill-200" fill="#FFFFFF" opacity="0.100000001"></path>
                        <path d="M34.4997975,3.10694752 L22.087848,10.1558884 C21.7572018,10.3436179 21.6191298,10.841404 21.7777915,11.2677317 C21.9376644,11.6952705 22.3337131,11.8890558 22.6643593,11.7025375 L35.0738865,4.65359658 C35.4033216,4.46707821 35.5426048,3.96808102 35.3839431,3.54054217 C35.2252813,3.11300331 34.8292326,2.919218 34.4997975,3.10694752" id="Fill-202" fill="#FFFFFF" opacity="0.100000001"></path>
                        <path d="M39.358601,0.34756573 L36.6661963,1.87604741 C36.3367612,2.06377694 36.197478,2.56156297 36.3561398,2.98910183 C36.5148015,3.41664068 36.9108502,3.610426 37.2402853,3.42390763 L39.93269,1.89421479 C40.2621251,1.70769642 40.4014082,1.20869923 40.2427465,0.781160376 C40.0852959,0.353621521 39.6892472,0.159836205 39.358601,0.34756573" id="Fill-204" fill="#FFFFFF" opacity="0.100000001"></path>
                        <path d="M11.6793964,23.7309132 L7.44155379,26.1374846 C7.11211876,26.324003 6.97404672,26.8230001 7.13270845,27.2493278 C7.29258133,27.6744444 7.68984123,27.8682297 8.01927627,27.6817113 L12.2559078,25.2751399 C12.5853428,25.0886216 12.7234148,24.5896244 12.5647531,24.1632967 C12.4060914,23.736969 12.0076203,23.5443948 11.6793964,23.7309132" id="Fill-206" fill="#FFFFFF" opacity="0.100000001"></path>
                        <path d="M24.0428996,16.7093445 L14.0665893,22.3751427 C13.7359431,22.5628722 13.5978711,23.0606582 13.7565328,23.4869859 C13.9164057,23.9133136 14.3124544,24.1070989 14.6418895,23.9205806 L24.6181998,18.2547824 C24.9476348,18.0670528 25.0857069,17.5692668 24.9270451,17.1429391 C24.7695946,16.7166114 24.3723347,16.5216149 24.0428996,16.7093445" id="Fill-208" fill="#FFFFFF" opacity="0.100000001"></path>
                        <path d="M15.3341875,9.85164547 L3.80275001,16.400378 C3.47331497,16.5881075 3.33403178,17.0858936 3.49390466,17.5122213 C3.65256639,17.9397601 4.05103745,18.1335454 4.38047249,17.9458159 L15.9106988,11.3982945 C16.2401339,11.210565 16.3794171,10.712779 16.2195442,10.2852401 C16.0608824,9.85770126 15.6636225,9.66391594 15.3341875,9.85164547" id="Fill-210" fill="#FFFFFF" opacity="0.100000001"></path>
                        <path d="M23.730663,5.08331552 L17.5016763,8.61989755 C17.1722412,8.80762707 17.0341692,9.3054131 17.1928309,9.73295196 C17.3514927,10.1604908 17.7487526,10.3542761 18.0781876,10.1677578 L24.3059632,6.62996458 C24.6353982,6.44344621 24.7746814,5.94444902 24.6160197,5.51691017 C24.457358,5.08937131 24.0600981,4.89558599 23.730663,5.08331552" id="Fill-212" fill="#FFFFFF" opacity="0.100000001"></path>
                        <path d="M17.8085838,16.4906093 L6.28199091,23.0357084 C5.95376703,23.2234379 5.81448383,23.7212239 5.97435672,24.1475516 C6.13301844,24.5738793 6.53027834,24.7664535 6.85971338,24.5799351 L18.3838839,18.034836 C18.7145301,17.8483177 18.8526022,17.3493205 18.6927293,16.9229928 C18.5352787,16.4966651 18.1380188,16.3028798 17.8085838,16.4906093" id="Fill-214" fill="#FFFFFF" opacity="0.100000001"></path>
                        <path d="M26.2003358,11.7233694 L19.9737713,15.2587403 C19.6455475,15.4464698 19.5074754,15.9442558 19.664926,16.3717947 C19.8235877,16.7981224 20.2208476,16.9919077 20.5502826,16.8053893 L26.7756359,13.2700184 C27.1038598,13.0835001 27.243143,12.5832917 27.0844813,12.156964 C26.9270307,11.7306363 26.5285597,11.536851 26.2003358,11.7233694" id="Fill-216" fill="url(#linearGradient-18)"></path>
                    </g>
                    <g id="Group-4" transform="translate(55.022549, 15.209485)" fill="#FFFFFF" opacity="0.100000001">
                        <path d="M11.4200996,16.5136162 C9.45744403,17.6282504 7.2924197,17.3584254 5.76019923,16.0301797 C5.09366726,15.4535894 4.54598677,14.6746304 4.18622012,13.7238185 L4.17176521,13.6868782 C3.81360466,12.7200053 3.68832877,11.6840701 3.77023993,10.6690142 C3.95172936,8.42368479 5.13863809,6.26990318 7.01617031,5.12957137 L7.11253638,5.07175173 L7.16714382,5.04123581 C9.9954879,3.43513468 13.2414183,4.70234847 14.4154782,7.8695799 C14.6949398,8.62605353 14.8314584,9.42107359 14.8394889,10.2160937 C14.8651865,12.7553395 13.5738812,15.2913732 11.4200996,16.5136162 M5.7280772,1.16731989 L5.67668197,1.19783581 C5.60922572,1.23638224 5.54337557,1.27492866 5.47752543,1.31508119 C2.33277942,3.22634154 0.344426219,6.83203857 0.0408731056,10.5919213 C-0.0972515915,12.2943885 0.111541555,14.0289777 0.71543558,15.6511399 L0.739527097,15.7105656 C1.34020892,17.3038179 2.25729266,18.6063659 3.37353295,19.5748449 C5.94168865,21.799295 9.568265,22.2473972 12.855954,20.3811077 C16.3090714,18.4200582 18.4387615,14.4417457 18.5752801,10.3734916 C18.6266754,8.8637565 18.4050334,7.34277873 17.8734139,5.90692432 C15.9075462,0.597153988 10.4692877,-1.5245056 5.7280772,1.16731989" id="Fill-172"></path>
                    </g>
                    <g id="Group-5" transform="translate(54.127873, 16.104161)">
                        <path d="M19.6193614,9.26627766 C19.4835917,13.3700765 17.3387548,17.381746 13.8572334,19.3584873 C10.5438077,21.2398665 6.8893417,20.7840685 4.29840447,18.5374042 C3.17345606,17.5611559 2.24892949,16.2454835 1.64119874,14.6388761 L1.61695416,14.5774565 C1.00922341,12.9401394 0.797487431,11.1912971 0.934873372,9.47478103 C1.24035505,5.67969644 3.24295719,2.04300976 6.41253166,0.117990279 C6.47718387,0.0775826492 6.54506869,0.0387913246 6.6113372,0 L8.06277926,3.90984226 L7.96418465,3.96802924 C6.07310757,5.11722223 4.87704173,7.28792011 4.69601555,9.55236368 C4.61358399,10.5771012 4.73965579,11.6228506 5.10332446,12.599099 L5.1146386,12.6346577 C5.47830726,13.594743 6.03108364,14.3818836 6.7034666,14.9637535 C8.24865436,16.3052868 10.4306664,16.5784423 12.4090239,15.4551102 C14.5797218,14.2218694 15.8808475,11.6664909 15.8533703,9.10464714 L19.6193614,9.26627766 Z" id="Fill-367" fill="#00D1A0"></path>
                        <polygon id="Path-2" fill="#00D1A0" points="9.21265399 0.911567255 6.55847885 0.000145617772 6.36640901 4.00681863"></polygon>
                        <polygon id="Path-3" fill="#00D1A0" points="19.5949099 9.23260363 22.2296451 10.1571309 18.4895254 9.99389334 15.8820208 9.10518807"></polygon>
                        <path d="M22.238539,10.1382573 C22.1027693,14.2420562 19.9579323,18.2537257 16.476411,20.2304669 C13.1629853,22.1118462 9.50851927,21.6560481 6.91758205,19.4093839 C5.79263364,18.4331355 4.86810707,17.1174631 4.26037632,15.5108558 L4.23613174,15.4494362 C3.62840099,13.812119 3.41666501,12.0632768 3.55405095,10.3467607 C3.85953263,6.55167608 5.86213476,2.9149894 9.03170924,0.989969916 C9.09636145,0.949562286 9.16424627,0.910770961 9.23051478,0.871979637 L10.6819568,4.78182189 L10.5833622,4.84000888 C8.69228515,5.98920187 7.49621931,8.15989974 7.31519313,10.4243433 C7.23276156,11.4490808 7.35883337,12.4948303 7.72250204,13.4710786 L7.73381617,13.5066373 C8.09748484,14.4667226 8.65026122,15.2538632 9.32264418,15.8357331 C10.8678319,17.1772664 13.0498439,17.450422 15.0282015,16.3270899 C17.1988994,15.093849 18.5000251,12.5384705 18.4725479,9.97662678 L22.238539,10.1382573 Z" id="Fill-367" fill="#00FFFB"></path>
                    </g>
                </g>
            </g>
        </g>
    </g>
</svg>