<?xml version="1.0" encoding="UTF-8"?>
<svg width="246px" height="233px" viewBox="0 0 246 233" version="1.1" xmlns="http://www.w3.org/2000/svg" xmlns:xlink="http://www.w3.org/1999/xlink">
    <!-- Generator: Sketch 55.1 (78136) - https://sketchapp.com -->
    <title>编组 10</title>
    <desc>Created with Sketch.</desc>
    <defs>
        <linearGradient x1="101.999998%" y1="29.7699163%" x2="13.4039324%" y2="64.5327292%" id="linearGradient-1">
            <stop stop-color="#19FFF3" offset="0%"></stop>
            <stop stop-color="#00A4FF" stop-opacity="0" offset="100%"></stop>
        </linearGradient>
        <linearGradient x1="101.999998%" y1="29.4833501%" x2="13.4039324%" y2="64.7385904%" id="linearGradient-2">
            <stop stop-color="#B619FF" offset="0%"></stop>
            <stop stop-color="#00A4FF" stop-opacity="0" offset="100%"></stop>
        </linearGradient>
        <linearGradient x1="101.999998%" y1="26.0536351%" x2="13.4039324%" y2="67.2024023%" id="linearGradient-3">
            <stop stop-color="#96FF19" offset="0%"></stop>
            <stop stop-color="#00A4FF" stop-opacity="0" offset="100%"></stop>
        </linearGradient>
        <linearGradient x1="101.999998%" y1="26.0642114%" x2="13.4039324%" y2="67.1948045%" id="linearGradient-4">
            <stop stop-color="#196DFF" offset="0%"></stop>
            <stop stop-color="#00A4FF" stop-opacity="0" offset="100%"></stop>
        </linearGradient>
        <linearGradient x1="101.999998%" y1="29.7699163%" x2="13.4039324%" y2="64.5327292%" id="linearGradient-5">
            <stop stop-color="#19FFF3" offset="0%"></stop>
            <stop stop-color="#00A4FF" stop-opacity="0" offset="100%"></stop>
        </linearGradient>
        <linearGradient x1="101.999998%" y1="29.4833501%" x2="13.4039324%" y2="64.7385904%" id="linearGradient-6">
            <stop stop-color="#B619FF" offset="0%"></stop>
            <stop stop-color="#00A4FF" stop-opacity="0" offset="100%"></stop>
        </linearGradient>
        <linearGradient x1="101.999998%" y1="26.0536351%" x2="13.4039324%" y2="67.2024023%" id="linearGradient-7">
            <stop stop-color="#96FF19" offset="0%"></stop>
            <stop stop-color="#00A4FF" stop-opacity="0" offset="100%"></stop>
        </linearGradient>
        <linearGradient x1="101.999998%" y1="26.0642114%" x2="13.4039324%" y2="67.1948045%" id="linearGradient-8">
            <stop stop-color="#196DFF" offset="0%"></stop>
            <stop stop-color="#00A4FF" stop-opacity="0" offset="100%"></stop>
        </linearGradient>
    </defs>
    <g id="官网主页" stroke="none" stroke-width="1" fill="none" fill-rule="evenodd">
        <g id="ONT-ID-2.0-Lite" transform="translate(-445.000000, -1733.000000)">
            <g id="编组-6" transform="translate(445.000000, 1733.000000)">
                <g id="编组-10">
                    <g id="Group-2" transform="translate(-0.000000, -0.000000)">
                        <path d="M61.5793647,231.334016 C57.1666135,233.842151 51.852501,231.266087 49.7127478,225.58098 L1.35014428,97.1618206 C-0.810510092,91.419235 1.03401468,84.7204227 5.467667,82.2018364 L147.937611,1.28833469 C152.379101,-1.23025155 157.701052,1.39545298 159.827742,7.15893974 L207.45358,135.996121 C209.559369,141.699517 207.691331,148.353915 203.278579,150.859438 L61.5793647,231.334016 Z" id="Fill-166" fill-opacity="0.790000021" fill="#242E47"></path>
                        <g id="Group" transform="translate(19.299431, 63.688121)">
                            <path d="M32.0896304,17.6277912 L2.42570082,34.4741024 C1.58443032,34.9522158 0.573338124,34.455814 0.16837872,33.3715678 C-0.236580685,32.284709 0.113513252,31.017578 0.954783757,30.5394646 L30.621326,13.6905407 C31.4625965,13.21504 32.471076,13.7088292 32.8760354,14.795688 C33.2809948,15.8825468 32.9282883,17.1496778 32.0896304,17.6277912" id="Fill-192" fill="#FFFFFF" opacity="0.789999962"></path>
                            <path d="M57.3234776,4.12075742 L40.0565311,13.9260003 C39.2152606,14.4041137 38.206781,13.9103245 37.8018216,12.8234657 C37.3968622,11.7339942 37.7495688,10.4668632 38.5882266,9.99136247 L55.8603984,0.180894309 C56.7016689,-0.294606411 57.7075358,0.199182799 58.1124952,1.28865423 C58.5174546,2.37551302 58.1621354,3.64264406 57.3234776,4.12075742" id="Fill-194" fill="#FFFFFF" opacity="0.789999962"></path>
                            <path d="M22.1182178,34.0360337 L6.28038608,43.0313578 C5.43911558,43.5068585 4.43063603,43.0130693 4.02567662,41.9262105 C3.62332986,40.8367391 3.97864908,39.569608 4.81730694,39.0914947 L20.6577513,30.0961706 C21.4990218,29.6180572 22.5048887,30.1144591 22.9098481,31.2013179 C23.3121949,32.2907893 22.9568756,33.5579204 22.1182178,34.0360337" id="Fill-196" fill="#FFFFFF" opacity="0.789999962"></path>
                            <path d="M28.6767775,45.225036 L10.957844,55.2889304 C10.244593,55.6938898 9.9441392,56.7676854 10.2916205,57.6899478 C10.6338765,58.6095975 11.4908229,59.0250075 12.2014613,58.6226607 L29.9230074,48.5587664 C30.6310332,48.1564196 30.9314869,47.0800114 30.5892309,46.1603616 C30.2469749,45.2380992 29.3874159,44.8226893 28.6767775,45.225036" id="Fill-198" fill="#FFFFFF" opacity="0.789999962"></path>
                            <path d="M42.972367,37.1065144 L33.830735,42.3004453 C33.1174839,42.7054048 32.8170302,43.7765877 33.1618988,44.6988501 C33.5041548,45.6211125 34.3584886,46.0365224 35.0743523,45.6341757 L44.2159843,40.4402447 C44.9266227,40.037898 45.2244638,38.9641024 44.8822078,38.04184 C44.5399518,37.1195776 43.6830054,36.701555 42.972367,37.1065144" id="Fill-200" fill="#FFFFFF" opacity="0.789999962"></path>
                            <path d="M74.4209919,19.2467596 L47.6466436,34.4523321 C46.9333925,34.8572915 46.6355514,35.9310871 46.9778074,36.8507368 C47.3226761,37.7729992 48.1770098,38.1910218 48.8902609,37.788675 L75.6593838,22.5831026 C76.3700223,22.1807558 76.670476,21.1043476 76.32822,20.1820852 C75.985964,19.2598228 75.1316303,18.8418002 74.4209919,19.2467596" id="Fill-202" fill="url(#linearGradient-1)"></path>
                            <path d="M84.902125,13.2943789 L79.0942234,16.5915322 C78.3835849,16.9964916 78.0831312,18.0702872 78.4253872,18.9925496 C78.7676432,19.914812 79.6219769,20.3328346 80.3326154,19.9304878 L86.140517,16.6307218 C86.8511555,16.2283751 87.1516092,15.1519668 86.8093532,14.2297045 C86.4697098,13.3074421 85.6153761,12.8894195 84.902125,13.2943789" id="Fill-204" fill="#FFFFFF" opacity="0.789999962"></path>
                            <path d="M25.1941266,63.7355998 L16.0524946,68.9269181 C15.3418562,69.3292649 15.0440151,70.4056731 15.3862711,71.3253228 C15.7311397,72.2423599 16.5880861,72.6603826 17.2987245,72.2580358 L26.4377439,67.0667175 C27.1483823,66.6643707 27.4462234,65.5879625 27.1039674,64.6683128 C26.7617114,63.748663 25.9021524,63.333253 25.1941266,63.7355998" id="Fill-206" fill="#FFFFFF" opacity="0.789999962"></path>
                            <path d="M51.8639692,48.589073 L30.3436426,60.8110091 C29.6303916,61.2159685 29.3325505,62.2897641 29.6748065,63.2094138 C30.0196751,64.1290636 30.8740088,64.5470862 31.5846473,64.1447394 L53.1049738,51.9228033 C53.8156123,51.5178439 54.1134534,50.4440483 53.7711974,49.5243986 C53.431554,48.6047489 52.5746076,48.1841136 51.8639692,48.589073" id="Fill-208" fill="#FFFFFF" opacity="0.789999962"></path>
                            <path d="M33.078033,33.7960366 L8.20307503,47.9225882 C7.49243659,48.3275476 7.19198284,49.4013432 7.53685149,50.3209929 C7.8791075,51.2432553 8.7386665,51.6612779 9.44930494,51.2563185 L34.3216503,37.1323795 C35.0322888,36.7274201 35.3327425,35.6536246 34.9878739,34.7313622 C34.6456178,33.8090998 33.7886715,33.3910772 33.078033,33.7960366" id="Fill-210" fill="#FFFFFF" opacity="0.789999962"></path>
                            <path d="M51.1904303,23.5100677 L37.753616,31.1389804 C37.0429775,31.5439398 36.7451364,32.6177353 37.0873924,33.5399977 C37.4296484,34.4622601 38.2865948,34.8802827 38.9972332,34.477936 L52.4314349,26.8464107 C53.1420733,26.4440639 53.4425271,25.3676557 53.1002711,24.4453933 C52.7580151,23.5231309 51.9010687,23.1051083 51.1904303,23.5100677" id="Fill-212" fill="#FFFFFF" opacity="0.789999962"></path>
                            <path d="M38.4156593,48.11723 L13.5511518,62.2359437 C12.843126,62.6409031 12.5426723,63.7146987 12.8875409,64.6343484 C13.2297969,65.5539982 14.0867433,65.9694081 14.7973817,65.5670614 L39.6566639,51.4483477 C40.369915,51.0460009 40.6677561,49.9695927 40.3228874,49.0499429 C39.9832441,48.1302932 39.1262977,47.7122706 38.4156593,48.11723" id="Fill-214" fill="url(#linearGradient-2)"></path>
                            <path d="M56.5178672,37.8336125 L43.0862782,45.4599125 C42.3782524,45.8648719 42.0804113,46.9386675 42.4200546,47.8609299 C42.7623106,48.7805796 43.619257,49.1986022 44.3298954,48.7962555 L57.7588718,41.1699554 C58.4668976,40.7676087 58.7673514,39.6885878 58.4250954,38.7689381 C58.085452,37.8492883 57.225893,37.4312657 56.5178672,37.8336125" id="Fill-216" fill="#FFFFFF" opacity="0.789999962"></path>
                            <path d="M87.4789732,20.2494913 L61.1879636,35.1807365 C60.4773251,35.5856959 60.179484,36.6594915 60.52174,37.5791412 C60.8613834,38.5014036 61.7183297,38.9194262 62.4289682,38.5170794 L88.7173652,23.5858343 C89.4280036,23.1834875 89.7284574,22.1070793 89.3862013,21.1874296 C89.046558,20.2651672 88.1922243,19.8445319 87.4789732,20.2494913" id="Fill-218" fill="#FFFFFF" opacity="0.789999962"></path>
                        </g>
                        <g id="Group" transform="translate(40.528804, 128.922609)">
                            <path d="M32.0896304,4.50176592 L2.42570082,21.3480772 C1.58443032,21.8261905 0.573338124,21.3297887 0.16837872,20.2455425 C-0.236580685,19.1586837 0.113513252,17.8915527 0.954783757,17.4134393 L30.621326,0.564515453 C31.4625965,0.0890147323 32.471076,0.582803942 32.8760354,1.66966273 C33.2809948,2.75652152 32.9282883,4.02365256 32.0896304,4.50176592" id="Fill-192" fill="#FFFFFF" opacity="0.79"></path>
                            <path d="M22.1182178,20.9100084 L6.28038608,29.9053325 C5.43911558,30.3808332 4.43063603,29.887044 4.02567662,28.8001852 C3.62332986,27.7107138 3.97864908,26.4435828 4.81730694,25.9654694 L20.6577513,16.9701453 C21.4990218,16.492032 22.5048887,16.9884338 22.9098481,18.0752926 C23.3121949,19.164764 22.9568756,20.4318951 22.1182178,20.9100084" id="Fill-196" fill="url(#linearGradient-3)"></path>
                            <path d="M28.6767775,32.0990108 L10.957844,42.1629051 C10.244593,42.5678645 9.9441392,43.6416601 10.2916205,44.5639225 C10.6338765,45.4835722 11.4908229,45.8989822 12.2014613,45.4966355 L29.9230074,35.4327411 C30.6310332,35.0303943 30.9314869,33.9539861 30.5892309,33.0343364 C30.2469749,32.112074 29.3874159,31.696664 28.6767775,32.0990108" id="Fill-198" fill="#FFFFFF" opacity="0.79"></path>
                            <path d="M42.972367,23.9804891 L33.830735,29.1744201 C33.1174839,29.5793795 32.8170302,30.6505624 33.1618988,31.5728248 C33.5041548,32.4950872 34.3584886,32.9104972 35.0743523,32.5081504 L44.2159843,27.3142194 C44.9266227,26.9118727 45.2244638,25.8380771 44.8822078,24.9158147 C44.5399518,23.9935523 43.6830054,23.5755297 42.972367,23.9804891" id="Fill-200" fill="#FFFFFF" opacity="0.79"></path>
                            <path d="M74.4209919,6.12073431 L47.6466436,21.3263068 C46.9333925,21.7312662 46.6355514,22.8050618 46.9778074,23.7247115 C47.3226761,24.6469739 48.1770098,25.0649965 48.8902609,24.6626498 L75.6593838,9.45707727 C76.3700223,9.05473051 76.670476,7.97832229 76.32822,7.0560599 C75.985964,6.13379751 75.1316303,5.7157749 74.4209919,6.12073431" id="Fill-202" fill="#FFFFFF" opacity="0.79"></path>
                            <path d="M84.902125,0.168353583 L79.0942234,3.46550693 C78.3835849,3.87046634 78.0831312,4.94426192 78.4253872,5.86652431 C78.7676432,6.78878669 79.6219769,7.2068093 80.3326154,6.80446254 L86.140517,3.50469655 C86.8511555,3.10234979 87.1516092,2.02594156 86.8093532,1.10367918 C86.4697098,0.18141679 85.6153761,-0.236605821 84.902125,0.168353583" id="Fill-204" fill="#FFFFFF" opacity="0.79"></path>
                            <path d="M25.1941266,50.6095745 L16.0524946,55.8008928 C15.3418562,56.2032396 15.0440151,57.2796478 15.3862711,58.1992976 C15.7311397,59.1163347 16.5880861,59.5343573 17.2987245,59.1320105 L26.4377439,53.9406922 C27.1483823,53.5383454 27.4462234,52.4619372 27.1039674,51.5422875 C26.7617114,50.6226377 25.9021524,50.2072278 25.1941266,50.6095745" id="Fill-206" fill="#FFFFFF" opacity="0.79"></path>
                            <path d="M51.8639692,35.4630477 L30.3436426,47.6849838 C29.6303916,48.0899432 29.3325505,49.1637388 29.6748065,50.0833886 C30.0196751,51.0030383 30.8740088,51.4210609 31.5846473,51.0187142 L53.1049738,38.7967781 C53.8156123,38.3918186 54.1134534,37.3180231 53.7711974,36.3983733 C53.431554,35.4787236 52.5746076,35.0580883 51.8639692,35.4630477" id="Fill-208" fill="#FFFFFF" opacity="0.79"></path>
                            <path d="M33.078033,20.6700113 L8.20307503,34.7965629 C7.49243659,35.2015223 7.19198284,36.2753179 7.53685149,37.1949677 C7.8791075,38.11723 8.7386665,38.5352527 9.44930494,38.1302933 L34.3216503,24.0063543 C35.0322888,23.6013949 35.3327425,22.5275993 34.9878739,21.6053369 C34.6456178,20.6830745 33.7886715,20.2650519 33.078033,20.6700113" id="Fill-210" fill="#FFFFFF" opacity="0.79"></path>
                            <path d="M51.1904303,10.3840424 L37.753616,18.0129551 C37.0429775,18.4179145 36.7451364,19.4917101 37.0873924,20.4139724 C37.4296484,21.3362348 38.2865948,21.7542574 38.9972332,21.3519107 L52.4314349,13.7203854 C53.1420733,13.3180386 53.4425271,12.2416304 53.1002711,11.319368 C52.7580151,10.3971056 51.9010687,9.97908301 51.1904303,10.3840424" id="Fill-212" fill="#FFFFFF" opacity="0.79"></path>
                            <path d="M38.4156593,34.9912047 L13.5511518,49.1099184 C12.843126,49.5148778 12.5426723,50.5886734 12.8875409,51.5083231 C13.2297969,52.4279729 14.0867433,52.8433829 14.7973817,52.4410361 L39.6566639,38.3223224 C40.369915,37.9199756 40.6677561,36.8435674 40.3228874,35.9239177 C39.9832441,35.0042679 39.1262977,34.5862453 38.4156593,34.9912047" id="Fill-214" fill="#FFFFFF" opacity="0.79"></path>
                            <path d="M56.5178672,24.7075872 L43.0862782,32.3338872 C42.3782524,32.7388466 42.0804113,33.8126422 42.4200546,34.7349046 C42.7623106,35.6545543 43.619257,36.0725769 44.3298954,35.6702302 L57.7588718,28.0439302 C58.4668976,27.6415834 58.7673514,26.5625625 58.4250954,25.6429128 C58.085452,24.723263 57.225893,24.3052404 56.5178672,24.7075872" id="Fill-216" fill="url(#linearGradient-4)"></path>
                        </g>
                        <g id="Group-4" transform="translate(118.691499, 32.809032)" fill="#FFFFFF" opacity="0.100000001">
                            <path d="M24.6347863,35.6222292 C20.4010578,38.0266544 15.7307911,37.4446033 12.4255726,34.5793877 C10.9877679,33.3356001 9.8063429,31.6552741 9.03027483,29.6042371 L8.99909352,29.5245515 C8.22649005,27.4388686 7.95625206,25.2042083 8.13294613,23.0145877 C8.52444475,18.1710915 11.0847765,13.5250769 15.1348817,11.0652183 L15.342757,10.940493 L15.4605531,10.8746658 C21.5616953,7.41007625 28.5636309,10.1436374 31.0962459,16.9758081 C31.6990844,18.6076298 31.9935746,20.3226016 32.0108975,22.0375734 C32.0663309,27.5150896 29.2808009,32.9856765 24.6347863,35.6222292 M12.3562808,2.51807576 L12.245414,2.58390296 C12.0999012,2.66705311 11.957853,2.75020326 11.8158049,2.836818 C5.03213846,6.9596796 0.742976558,14.7376832 0.0881691278,22.8482874 C-0.209785576,26.5207524 0.240611069,30.2625091 1.54329675,33.7617446 L1.59526559,33.8899344 C2.8910221,37.3268073 4.86930275,40.1365894 7.2771925,42.2257369 C12.8170712,47.0241935 20.6401145,47.990814 27.7321294,43.9649609 C35.180997,39.734697 39.7750428,31.1529086 40.0695329,22.3771032 C40.1803997,19.120389 39.7022864,15.8394227 38.5555072,12.7420796 C34.3148496,1.28814646 22.5837493,-3.28857637 12.3562808,2.51807576" id="Fill-172"></path>
                        </g>
                        <g id="Group-5" transform="translate(116.761556, 34.738975)">
                            <path d="M42.3217653,19.9886847 C42.0288908,28.8411651 37.402171,37.4949093 29.892032,41.7590225 C22.7444995,45.8174263 14.8612942,44.8342048 9.27227251,39.9878291 C6.84559808,37.881922 4.85126219,35.0438286 3.54030014,31.578147 L3.48800112,31.4456562 C2.17703907,27.9137292 1.72029432,24.1412267 2.01665542,20.4384562 C2.67562304,12.2519166 6.99552193,4.40706391 13.8327469,0.254521887 C13.9722109,0.167356857 14.1186482,0.0836784287 14.2615988,0 L17.3925667,8.4340883 L17.179884,8.55960594 C13.1005606,11.0385794 10.5204757,15.7210848 10.1299764,20.6058131 C9.95215974,22.8163182 10.2241146,25.0721492 11.0085999,27.1780563 L11.0330061,27.2547616 C11.8174914,29.3258027 13.009909,31.0237775 14.4603351,32.2789539 C17.7935258,35.1728329 22.5004375,35.7620685 26.7680373,33.3388807 C31.4505427,30.6786039 34.2572567,25.1662874 34.1979845,19.6400245 L42.3217653,19.9886847 Z" id="Fill-367" fill="#5AB700"></path>
                            <polygon id="Path-2" fill="#5AB700" points="19.8730108 1.96638079 14.1475758 0.000314118338 13.7332537 8.64328018"></polygon>
                            <polygon id="Path-3" fill="#55AE00" points="42.26902 19.916045 47.9525201 21.9103823 39.8845477 21.5582556 34.2597877 19.6411914"></polygon>
                            <path d="M47.9717055,21.8696693 C47.678831,30.7221498 43.0521112,39.3758939 35.5419722,43.6400072 C28.3944397,47.698411 20.5112344,46.7151894 14.9222127,41.8688138 C12.4955383,39.7629067 10.5012024,36.9248133 9.19024034,33.4591317 L9.13794133,33.3266408 C7.82697928,29.7947138 7.37023452,26.0222113 7.66659562,22.3194409 C8.32556325,14.1329013 12.6454621,6.28804856 19.4826871,2.13550653 C19.6221511,2.0483415 19.7685884,1.96466307 19.911539,1.88098465 L23.0425069,10.3150729 L22.8298242,10.4405906 C18.7505008,12.919564 16.1704159,17.6020694 15.7799166,22.4867977 C15.6020999,24.6973029 15.8740548,26.9531339 16.6585401,29.059041 L16.6829463,29.1357462 C17.4674316,31.2067873 18.6598492,32.9047621 20.1102753,34.1599385 C23.443466,37.0538175 28.1503777,37.6430531 32.4179775,35.2198653 C37.1004829,32.5595886 39.9071969,27.0472721 39.8479247,21.5210092 L47.9717055,21.8696693 Z" id="Fill-367" fill="#B4EE73"></path>
                        </g>
                    </g>
                    <g id="Group-2" transform="translate(141.860465, 29.069767)">
                        <path d="M30.7896823,115.667008 C28.5833067,116.921076 25.9262505,115.633044 24.8563739,112.79049 L0.675072141,48.5809103 C-0.405255046,45.7096175 0.517007341,42.3602113 2.7338335,41.1009182 L73.9688055,0.644167344 C76.1895506,-0.615125773 78.8505258,0.697726491 79.9138708,3.57946987 L103.72679,67.9980606 C104.779685,70.8497586 103.845665,74.1769573 101.63929,75.4297189 L30.7896823,115.667008 Z" id="Fill-166" fill-opacity="0.789999962" fill="#242E47"></path>
                        <g id="Group" transform="translate(9.649715, 31.844061)">
                            <path d="M16.0448152,8.8138956 L1.21285041,17.2370512 C0.792215158,17.4761079 0.286669062,17.227907 0.0841893598,16.6857839 C-0.118290343,16.1423545 0.0567566259,15.508789 0.477391879,15.2697323 L15.310663,6.84527037 C15.7312982,6.60752001 16.235538,6.85441461 16.4380177,7.39784401 C16.6404974,7.9412734 16.4641441,8.57483892 16.0448152,8.8138956" id="Fill-192" fill="#FFFFFF" opacity="0.100000001"></path>
                            <path d="M28.6617388,2.06037871 L20.0282655,6.96300015 C19.6076303,7.20205683 19.1033905,6.95516223 18.9009108,6.41173283 C18.6984311,5.86699712 18.8747844,5.2334316 19.2941133,4.99568124 L27.9301992,0.0904471547 C28.3508345,-0.147303206 28.8537679,0.0995913994 29.0562476,0.644327115 C29.2587273,1.18775651 29.0810677,1.82132203 28.6617388,2.06037871" id="Fill-194" fill="#FFFFFF" opacity="0.100000001"></path>
                            <path d="M11.0591089,17.0180169 L3.14019304,21.5156789 C2.71955779,21.7534293 2.21531801,21.5065346 2.01283831,20.9631053 C1.81166493,20.4183695 1.98932454,19.784804 2.40865347,19.5457473 L10.3288756,15.0480853 C10.7495109,14.8090286 11.2524443,15.0572295 11.454924,15.6006589 C11.6560974,16.1453947 11.4784378,16.7789602 11.0591089,17.0180169" id="Fill-196" fill="#FFFFFF" opacity="0.100000001"></path>
                            <path d="M14.3383887,22.612518 L5.47892202,27.6444652 C5.12229648,27.8469449 4.9720696,28.3838427 5.14581025,28.8449739 C5.31693826,29.3047988 5.74541143,29.5125038 6.10073065,29.3113304 L14.9615037,24.2793832 C15.3155166,24.0782098 15.4657435,23.5400057 15.2946155,23.0801808 C15.1234875,22.6190496 14.693708,22.4113446 14.3383887,22.612518" id="Fill-198" fill="#FFFFFF" opacity="0.100000001"></path>
                            <path d="M21.4861835,18.5532572 L16.9153675,21.1502227 C16.558742,21.3527024 16.4085151,21.8882938 16.5809494,22.349425 C16.7520774,22.8105562 17.1792443,23.0182612 17.5371761,22.8170878 L22.1079921,20.2201224 C22.4633114,20.018949 22.6122319,19.4820512 22.4411039,19.02092 C22.2699759,18.5597888 21.8415027,18.3507775 21.4861835,18.5532572" id="Fill-200" fill="#FFFFFF" opacity="0.100000001"></path>
                            <path d="M37.2104959,9.62337979 L23.8233218,17.226166 C23.4666963,17.4286457 23.3177757,17.9655435 23.4889037,18.4253684 C23.661338,18.8864996 24.0885049,19.0955109 24.4451304,18.8943375 L37.8296919,11.2915513 C38.1850111,11.0903779 38.335238,10.5521738 38.16411,10.0910426 C37.992982,9.6299114 37.5658151,9.42090009 37.2104959,9.62337979" id="Fill-202" fill="url(#linearGradient-5)"></path>
                            <path d="M42.4510625,6.64718943 L39.5471117,8.29576611 C39.1917925,8.49824581 39.0415656,9.0351436 39.2126936,9.49627479 C39.3838216,9.95740599 39.8109885,10.1664173 40.1663077,9.96524391 L43.0702585,8.31536092 C43.4255777,8.11418753 43.5758046,7.57598342 43.4046766,7.11485223 C43.2348549,6.65372104 42.8076881,6.44470973 42.4510625,6.64718943" id="Fill-204" fill="#FFFFFF" opacity="0.100000001"></path>
                            <path d="M12.5970633,31.8677999 L8.02624731,34.4634591 C7.67092809,34.6646324 7.52200753,35.2028365 7.69313554,35.6626614 C7.86556987,36.12118 8.29404304,36.3301913 8.64936226,36.1290179 L13.2188719,33.5333587 C13.5741912,33.3321854 13.7231117,32.7939813 13.5519837,32.3341564 C13.3808557,31.8743315 12.9510762,31.6666265 12.5970633,31.8677999" id="Fill-206" fill="#FFFFFF" opacity="0.100000001"></path>
                            <path d="M25.9319846,24.2945365 L15.1718213,30.4055046 C14.8151958,30.6079843 14.6662752,31.144882 14.8374032,31.6047069 C15.0098376,32.0645318 15.4370044,32.2735431 15.7923236,32.0723697 L26.5524869,25.9614017 C26.9078061,25.758922 27.0567267,25.2220242 26.8855987,24.7621993 C26.715777,24.3023744 26.2873038,24.0920568 25.9319846,24.2945365" id="Fill-208" fill="#FFFFFF" opacity="0.100000001"></path>
                            <path d="M16.5390165,16.8980183 L4.10153751,23.9612941 C3.74621829,24.1637738 3.59599142,24.7006716 3.76842574,25.1604965 C3.93955375,25.6216277 4.36933325,25.830639 4.72465247,25.6281593 L17.1608252,18.5661898 C17.5161444,18.3637101 17.6663713,17.8268123 17.4939369,17.3656811 C17.3228089,16.9045499 16.8943357,16.6955386 16.5390165,16.8980183" id="Fill-210" fill="#FFFFFF" opacity="0.100000001"></path>
                            <path d="M25.5952151,11.7550338 L18.876808,15.5694902 C18.5214888,15.7719699 18.3725682,16.3088677 18.5436962,16.7699989 C18.7148242,17.2311301 19.1432974,17.4401414 19.4986166,17.238968 L26.2157175,13.4232053 C26.5710367,13.222032 26.7212635,12.6838278 26.5501355,12.2226966 C26.3790075,11.7615655 25.9505344,11.5525541 25.5952151,11.7550338" id="Fill-212" fill="#FFFFFF" opacity="0.100000001"></path>
                            <path d="M19.2078296,24.058615 L6.77557591,31.1179718 C6.42156301,31.3204515 6.27133613,31.8573493 6.44377046,32.3171742 C6.61489846,32.7769991 7.04337164,32.9847041 7.39869086,32.7835307 L19.8283319,25.7241738 C20.1849575,25.5230005 20.333878,24.9847963 20.1614437,24.5249715 C19.991622,24.0651466 19.5631489,23.8561353 19.2078296,24.058615" id="Fill-214" fill="url(#linearGradient-6)"></path>
                            <path d="M28.2589336,18.9168062 L21.5431391,22.7299562 C21.1891262,22.932436 21.0402056,23.4693337 21.2100273,23.9304649 C21.3811553,24.3902898 21.8096285,24.5993011 22.1649477,24.3981277 L28.8794359,20.5849777 C29.2334488,20.3838043 29.3836757,19.8442939 29.2125477,19.384469 C29.042726,18.9246442 28.6129465,18.7156329 28.2589336,18.9168062" id="Fill-216" fill="#FFFFFF" opacity="0.100000001"></path>
                            <path d="M43.7394866,10.1247457 L30.5939818,17.5903682 C30.2386626,17.7928479 30.089742,18.3297457 30.26087,18.7895706 C30.4306917,19.2507018 30.8591649,19.4597131 31.2144841,19.2585397 L44.3586826,11.7929171 C44.7140018,11.5917438 44.8642287,11.0535397 44.6931007,10.5937148 C44.523279,10.1325836 44.0961121,9.92226596 43.7394866,10.1247457" id="Fill-218" fill="#FFFFFF" opacity="0.100000001"></path>
                        </g>
                        <g id="Group" transform="translate(20.264402, 64.170607)">
                            <path d="M16.0448152,2.54158064 L1.21285041,10.9647363 C0.792215158,11.2037929 0.286669062,10.955592 0.0841893598,10.4134689 C-0.118290343,9.87003954 0.0567566259,9.23647402 0.477391879,8.99741734 L15.310663,0.572955401 C15.7312982,0.335205041 16.235538,0.582099645 16.4380177,1.12552904 C16.6404974,1.66895844 16.4641441,2.30252396 16.0448152,2.54158064" id="Fill-192" fill="#FFFFFF" opacity="0.100000001"></path>
                            <path d="M11.0591089,10.7457019 L3.14019304,15.2433639 C2.71955779,15.4811143 2.21531801,15.2342197 2.01283831,14.6907903 C1.81166493,14.1460546 1.98932454,13.512489 2.40865347,13.2734324 L10.3288756,8.77577033 C10.7495109,8.53671365 11.2524443,8.78491458 11.454924,9.32834397 C11.6560974,9.87307969 11.4784378,10.5066452 11.0591089,10.7457019" id="Fill-196" fill="url(#linearGradient-7)"></path>
                            <path d="M14.3383887,16.3402031 L5.47892202,21.3721502 C5.12229648,21.5746299 4.9720696,22.1115277 5.14581025,22.5726589 C5.31693826,23.0324838 5.74541143,23.2401888 6.10073065,23.0390154 L14.9615037,18.0070682 C15.3155166,17.8058948 15.4657435,17.2676907 15.2946155,16.8078659 C15.1234875,16.3467347 14.693708,16.1390297 14.3383887,16.3402031" id="Fill-198" fill="#FFFFFF" opacity="0.100000001"></path>
                            <path d="M21.4861835,12.2809422 L16.9153675,14.8779077 C16.558742,15.0803874 16.4085151,15.6159789 16.5809494,16.0771101 C16.7520774,16.5382413 17.1792443,16.7459463 17.5371761,16.5447729 L22.1079921,13.9478074 C22.4633114,13.746634 22.6122319,13.2097362 22.4411039,12.748605 C22.2699759,12.2874738 21.8415027,12.0784625 21.4861835,12.2809422" id="Fill-200" fill="#FFFFFF" opacity="0.100000001"></path>
                            <path d="M37.2104959,3.35106483 L23.8233218,10.9538511 C23.4666963,11.1563308 23.3177757,11.6932286 23.4889037,12.1530534 C23.661338,12.6141846 24.0885049,12.8231959 24.4451304,12.6220226 L37.8296919,5.01923631 C38.1850111,4.81806293 38.335238,4.27985882 38.16411,3.81872762 C37.992982,3.35759643 37.5658151,3.14858513 37.2104959,3.35106483" id="Fill-202" fill="#FFFFFF" opacity="0.100000001"></path>
                            <path d="M42.4510625,0.374874466 L39.5471117,2.02345114 C39.1917925,2.22593084 39.0415656,2.76282863 39.2126936,3.22395983 C39.3838216,3.68509102 39.8109885,3.89410233 40.1663077,3.69292894 L43.0702585,2.04304595 C43.4255777,1.84187257 43.5758046,1.30366846 43.4046766,0.842537263 C43.2348549,0.381406069 42.8076881,0.172394764 42.4510625,0.374874466" id="Fill-204" fill="#FFFFFF" opacity="0.100000001"></path>
                            <path d="M12.5970633,25.5954849 L8.02624731,28.1911441 C7.67092809,28.3923175 7.52200753,28.9305216 7.69313554,29.3903465 C7.86556987,29.848865 8.29404304,30.0578763 8.64936226,29.8567029 L13.2188719,27.2610438 C13.5741912,27.0598704 13.7231117,26.5216663 13.5519837,26.0618414 C13.3808557,25.6020165 12.9510762,25.3943116 12.5970633,25.5954849" id="Fill-206" fill="#FFFFFF" opacity="0.100000001"></path>
                            <path d="M25.9319846,18.0222215 L15.1718213,24.1331896 C14.8151958,24.3356693 14.6662752,24.8725671 14.8374032,25.332392 C15.0098376,25.7922168 15.4370044,26.0012281 15.7923236,25.8000548 L26.5524869,19.6890867 C26.9078061,19.486607 27.0567267,18.9497092 26.8855987,18.4898843 C26.715777,18.0300595 26.2873038,17.8197418 25.9319846,18.0222215" id="Fill-208" fill="#FFFFFF" opacity="0.100000001"></path>
                            <path d="M16.5390165,10.6257033 L4.10153751,17.6889791 C3.74621829,17.8914588 3.59599142,18.4283566 3.76842574,18.8881815 C3.93955375,19.3493127 4.36933325,19.558324 4.72465247,19.3558443 L17.1608252,12.2938748 C17.5161444,12.0913951 17.6663713,11.5544973 17.4939369,11.0933661 C17.3228089,10.6322349 16.8943357,10.4232236 16.5390165,10.6257033" id="Fill-210" fill="#FFFFFF" opacity="0.100000001"></path>
                            <path d="M25.5952151,5.48271888 L18.876808,9.29717521 C18.5214888,9.49965491 18.3725682,10.0365527 18.5436962,10.4976839 C18.7148242,10.9588151 19.1432974,11.1678264 19.4986166,10.966653 L26.2157175,7.15089037 C26.5710367,6.94971698 26.7212635,6.41151287 26.5501355,5.95038168 C26.3790075,5.48925049 25.9505344,5.28023918 25.5952151,5.48271888" id="Fill-212" fill="#FFFFFF" opacity="0.100000001"></path>
                            <path d="M19.2078296,17.7863 L6.77557591,24.8456569 C6.42156301,25.0481366 6.27133613,25.5850344 6.44377046,26.0448592 C6.61489846,26.5046841 7.04337164,26.7123891 7.39869086,26.5112157 L19.8283319,19.4518589 C20.1849575,19.2506855 20.333878,18.7124814 20.1614437,18.2526565 C19.991622,17.7928316 19.5631489,17.5838203 19.2078296,17.7863" id="Fill-214" fill="#FFFFFF" opacity="0.100000001"></path>
                            <path d="M28.2589336,12.6444913 L21.5431391,16.4576413 C21.1891262,16.660121 21.0402056,17.1970188 21.2100273,17.65815 C21.3811553,18.1179748 21.8096285,18.3269861 22.1649477,18.1258128 L28.8794359,14.3126628 C29.2334488,14.1114894 29.3836757,13.5719789 29.2125477,13.1121541 C29.042726,12.6523292 28.6129465,12.4433179 28.2589336,12.6444913" id="Fill-216" fill="url(#linearGradient-8)"></path>
                        </g>
                        <g id="Group-4" transform="translate(59.345749, 16.404516)" fill="#FFFFFF" opacity="0.100000001">
                            <path d="M12.3173931,17.8111146 C10.2005289,19.0133272 7.86539554,18.7223017 6.21278631,17.2896939 C5.49388397,16.6678 4.90317145,15.8276371 4.51513742,14.8021185 L4.49954676,14.7622758 C4.11324502,13.7194343 3.97812603,12.6021042 4.06647306,11.5072939 C4.26222238,9.08554574 5.54238823,6.76253843 7.56744083,5.53260913 L7.67137852,5.47024651 L7.73027654,5.43733291 C10.7808477,3.70503812 14.2818154,5.07181871 15.5481229,8.48790404 C15.8495422,9.30381488 15.9967873,10.1613008 16.0054488,11.0187867 C16.0331655,13.7575448 14.6404005,16.4928383 12.3173931,17.8111146 M6.17814041,1.25903788 L6.12270698,1.29195148 C6.0499506,1.33352656 5.97892651,1.37510163 5.90790243,1.418409 C2.51606923,3.4798398 0.371488279,7.3688416 0.0440845639,11.4241437 C-0.104892788,13.2603762 0.120305535,15.1312546 0.771648375,16.8808723 L0.797632797,16.9449672 C1.44551105,18.6634036 2.43465137,20.0682947 3.63859625,21.1128685 C6.40853562,23.5120967 10.3200573,23.995407 13.8660647,21.9824804 C17.5904985,19.8673485 19.8875214,15.5764543 20.0347664,11.1885516 C20.0901999,9.56019451 19.8511432,7.91971135 19.2777536,6.3710398 C17.1574248,0.64407323 11.2918746,-1.64428819 6.17814041,1.25903788" id="Fill-172"></path>
                        </g>
                        <g id="Group-5" transform="translate(58.380778, 17.369488)">
                            <path d="M21.1608826,9.99434233 C21.0144454,14.4205826 18.7010855,18.7474546 14.946016,20.8795113 C11.3722498,22.9087132 7.43064711,22.4171024 4.63613625,19.9939146 C3.42279904,18.940961 2.4256311,17.5219143 1.77015007,15.7890735 L1.74400056,15.7228281 C1.08851954,13.9568646 0.860147158,12.0706133 1.00832771,10.2192281 C1.33781152,6.1259583 3.49776096,2.20353196 6.91637344,0.127260944 C6.98610546,0.0836784287 7.05932409,0.0418392144 7.13079941,0 L8.69628335,4.21704415 L8.58994201,4.27980297 C6.55028031,5.5192897 5.26023787,7.8605424 5.0649882,10.3029065 C4.97607987,11.4081591 5.11205732,12.5360746 5.50429995,13.5890282 L5.51650306,13.6273808 C5.90874569,14.6629013 6.5049545,15.5118887 7.23016755,16.1394769 C8.89676292,17.5864164 11.2502187,17.8810342 13.3840187,16.6694403 C15.7252714,15.339302 17.1286283,12.5831437 17.0989922,9.82001227 L21.1608826,9.99434233 Z" id="Fill-367" fill="#00D1A0"></path>
                            <polygon id="Path-2" fill="#00D1A0" points="9.93650538 0.983190397 7.07378791 0.000157059169 6.86662686 4.32164009"></polygon>
                            <polygon id="Path-3" fill="#00D1A0" points="21.13451 9.95802248 23.9762601 10.9551911 19.9422738 10.7791278 17.1298938 9.82059571"></polygon>
                            <path d="M23.9858527,10.9348347 C23.8394155,15.3610749 21.5260556,19.687947 17.7709861,21.8200036 C14.1972199,23.8492055 10.2556172,23.3575947 7.46110636,20.9344069 C6.24776914,19.8814533 5.2506012,18.4624066 4.59512017,16.7295658 L4.56897066,16.6633204 C3.91348964,14.8973569 3.68511726,13.0111057 3.83329781,11.1597204 C4.16278162,7.06645063 6.32273107,3.14402428 9.74134354,1.06775327 C9.81107556,1.02417075 9.88429419,0.982331537 9.95576951,0.940492323 L11.5212535,5.15753647 L11.4149121,5.22029529 C9.37525041,6.45978202 8.08520797,8.80103472 7.8899583,11.2433989 C7.80104997,12.3486514 7.93702742,13.4765669 8.32927005,14.5295205 L8.34147316,14.5678731 C8.73371579,15.6033937 9.3299246,16.4523811 10.0551376,17.0799693 C11.721733,18.5269088 14.0751888,18.8215266 16.2089888,17.6099326 C18.5502415,16.2797943 19.9535984,13.523636 19.9239623,10.7605046 L23.9858527,10.9348347 Z" id="Fill-367" fill="#00FFFB"></path>
                        </g>
                    </g>
                </g>
            </g>
        </g>
    </g>
</svg>