<?xml version="1.0" encoding="UTF-8"?>
<svg width="213px" height="242px" viewBox="0 0 213 242" version="1.1" xmlns="http://www.w3.org/2000/svg" xmlns:xlink="http://www.w3.org/1999/xlink">
    <!-- Generator: Sketch 55.1 (78136) - https://sketchapp.com -->
    <title>编组 8</title>
    <desc>Created with Sketch.</desc>
    <defs>
        <polygon id="path-1" points="0 0.22763595 47.2622654 0.22763595 47.2622654 29.9002508 0 29.9002508"></polygon>
        <polygon id="path-3" points="0 0.22763595 47.2622654 0.22763595 47.2622654 29.9002508 0 29.9002508"></polygon>
        <polygon id="path-5" points="0 0.036149566 28.1593174 0.036149566 28.1593174 38.7320548 0 38.7320548"></polygon>
        <polygon id="path-7" points="5.03372596e-05 0.130742416 49.5822007 0.130742416 49.5822007 59.5902406 5.03372596e-05 59.5902406"></polygon>
        <polygon id="path-9" points="0.104777006 0.158310682 21.3783618 0.158310682 21.3783618 16.7406932 0.104777006 16.7406932"></polygon>
    </defs>
    <g id="官网主页" stroke="none" stroke-width="1" fill="none" fill-rule="evenodd">
        <g id="ONT-ID-2.0-Lite" transform="translate(-540.000000, -1791.000000)">
            <g id="编组-6" transform="translate(445.000000, 1733.000000)">
                <g id="编组-8" transform="translate(95.348837, 58.139535)">
                    <g id="Group-6" transform="translate(0.000000, 132.395349)">
                        <g id="1" transform="translate(90.232558, 54.965116) scale(-1, -1) translate(-90.232558, -54.965116) translate(0.232558, 0.465116)" fill="#FAFAFA">
                            <path d="M61.2084788,0.146871697 C92.7655043,-1.33059032 106.861869,11.651165 102.819317,26.8649301 C98.4650839,38.7348673 100.542028,47.4746568 109.05015,53.0842985 C121.812333,61.498761 133.283132,65.6920363 162.595123,70.4072615 C191.907113,75.1224866 178.795103,91.8648852 160.399398,98.6641877 C142.003694,105.46349 91.4769118,115.530328 50.5778232,99.8299685 C9.67873463,84.1296086 -2.21167125,69.3363806 0.338532386,47.3633199 C2.88873603,25.3902592 29.6514532,1.62433371 61.2084788,0.146871697 Z" id="Path"></path>
                        </g>
                        <g id="Page-1" transform="translate(15.116279, 18.186047)">
                            <g id="Group-3" transform="translate(0.000000, 4.725302)">
                                <mask id="mask-2" fill="white">
                                    <use xlink:href="#path-1"></use>
                                </mask>
                                <g id="Clip-2"></g>
                                <path d="M0.00199335548,25.0060937 L-0.000104913446,17.8942735 L3.20631229,15.4453314 L5.92514426,7.59701871 C6.68445532,5.40511453 10.5337297,4.23296905 14.4795244,4.99201784 C15.1095296,5.11345515 15.7051757,5.27738241 16.2585942,5.47540654 L20.4026753,2.30990558 L20.3166463,8.93912397 C20.355202,9.08364225 20.3806435,9.22894737 20.3934954,9.37451478 L30.4192866,5.9611558 L34.4440287,3.63732296 C35.9107187,2.79040916 38.0013814,2.47698024 40.0907326,2.668185 L47.2584193,0.22763595 L47.2584193,7.29565483 C47.3155971,8.31410212 46.7356881,9.29425599 45.489054,10.0139622 L41.3171708,12.4225127 L43.5384508,15.7123361 L43.5384508,22.7929446 C43.5434342,22.8794982 43.5426473,22.9652649 43.5384508,23.0502448 L43.5384508,23.0505071 C43.452684,24.7283354 41.5726351,26.1396835 38.6303375,26.4796031 L9.88484001,29.7988022 C8.66233607,29.9632541 7.30265781,29.9330914 5.9309145,29.6692341 C4.67824795,29.4281955 3.56091974,29.0198199 2.64292709,28.5049572 C2.60463368,28.4837122 2.56765169,28.4614181 2.52988285,28.4396485 C2.49237629,28.417879 2.4538206,28.396634 2.41710089,28.3746022 C1.5253366,27.8442647 0.817695401,27.1993093 0.400139885,26.4759311 C0.146511628,26.0366061 0.0216646267,25.5999038 0.00592760972,25.1768404 L0.00199335548,25.1771026 L0.00199335548,25.0501574 C0.0022556391,25.0354695 0.00146878825,25.0207816 0.00199335548,25.0060937" id="Fill-1" fill="#2A8819" mask="url(#mask-2)"></path>
                            </g>
                            <path d="M2.5299353,25.8271201 C2.49242875,25.8050883 2.45387305,25.7838433 2.41689106,25.7618115 C1.52538905,25.231474 0.817747858,24.5867809 0.400192341,23.8634027 C-0.0569680014,23.0715685 -0.109162441,22.2865536 0.17593985,21.5807484 L5.92493443,4.98422801 C6.6842455,2.79232383 10.5337821,1.62017835 14.4795768,2.37948942 C18.4251093,3.13880049 21.0319461,5.55364574 20.2726351,7.7458122 L19.640007,9.57156846 L34.4440811,1.02479454 C37.0745235,-0.494089876 41.7116978,-0.301835985 44.7492044,1.45152999 C47.7864487,3.20542053 48.1192866,5.88281168 45.4891065,7.40143382 L30.6850323,15.94847 L33.8479105,15.5831089 C37.6444658,15.1445707 41.8271026,16.6500787 43.1421927,18.9277496 L43.1421927,18.9277496 C44.4572827,21.2059451 42.4272076,23.4282742 38.6303899,23.8668124 L9.88489246,27.1862738 C8.66212625,27.3507257 7.30271026,27.320563 5.93096695,27.0564434 C4.67803812,26.8156671 3.5609722,26.4070292 2.64297954,25.8921665 C2.60468613,25.8709215 2.56770414,25.8486274 2.5299353,25.8271201" id="Fill-4" fill="#3AAB25"></path>
                        </g>
                        <g id="Page-1" transform="translate(156.031474, 70.569767) scale(-1, 1) translate(-156.031474, -70.569767) translate(132.031474, 53.069767)">
                            <g id="Group-3" transform="translate(0.000000, 4.725302)">
                                <mask id="mask-4" fill="white">
                                    <use xlink:href="#path-3"></use>
                                </mask>
                                <g id="Clip-2"></g>
                                <path d="M0.00199335548,25.0060937 L-0.000104913446,17.8942735 L3.20631229,15.4453314 L5.92514426,7.59701871 C6.68445532,5.40511453 10.5337297,4.23296905 14.4795244,4.99201784 C15.1095296,5.11345515 15.7051757,5.27738241 16.2585942,5.47540654 L20.4026753,2.30990558 L20.3166463,8.93912397 C20.355202,9.08364225 20.3806435,9.22894737 20.3934954,9.37451478 L30.4192866,5.9611558 L34.4440287,3.63732296 C35.9107187,2.79040916 38.0013814,2.47698024 40.0907326,2.668185 L47.2584193,0.22763595 L47.2584193,7.29565483 C47.3155971,8.31410212 46.7356881,9.29425599 45.489054,10.0139622 L41.3171708,12.4225127 L43.5384508,15.7123361 L43.5384508,22.7929446 C43.5434342,22.8794982 43.5426473,22.9652649 43.5384508,23.0502448 L43.5384508,23.0505071 C43.452684,24.7283354 41.5726351,26.1396835 38.6303375,26.4796031 L9.88484001,29.7988022 C8.66233607,29.9632541 7.30265781,29.9330914 5.9309145,29.6692341 C4.67824795,29.4281955 3.56091974,29.0198199 2.64292709,28.5049572 C2.60463368,28.4837122 2.56765169,28.4614181 2.52988285,28.4396485 C2.49237629,28.417879 2.4538206,28.396634 2.41710089,28.3746022 C1.5253366,27.8442647 0.817695401,27.1993093 0.400139885,26.4759311 C0.146511628,26.0366061 0.0216646267,25.5999038 0.00592760972,25.1768404 L0.00199335548,25.1771026 L0.00199335548,25.0501574 C0.0022556391,25.0354695 0.00146878825,25.0207816 0.00199335548,25.0060937" id="Fill-1" fill="#2A8819" mask="url(#mask-4)"></path>
                            </g>
                            <path d="M2.5299353,25.8271201 C2.49242875,25.8050883 2.45387305,25.7838433 2.41689106,25.7618115 C1.52538905,25.231474 0.817747858,24.5867809 0.400192341,23.8634027 C-0.0569680014,23.0715685 -0.109162441,22.2865536 0.17593985,21.5807484 L5.92493443,4.98422801 C6.6842455,2.79232383 10.5337821,1.62017835 14.4795768,2.37948942 C18.4251093,3.13880049 21.0319461,5.55364574 20.2726351,7.7458122 L19.640007,9.57156846 L34.4440811,1.02479454 C37.0745235,-0.494089876 41.7116978,-0.301835985 44.7492044,1.45152999 C47.7864487,3.20542053 48.1192866,5.88281168 45.4891065,7.40143382 L30.6850323,15.94847 L33.8479105,15.5831089 C37.6444658,15.1445707 41.8271026,16.6500787 43.1421927,18.9277496 L43.1421927,18.9277496 C44.4572827,21.2059451 42.4272076,23.4282742 38.6303899,23.8668124 L9.88489246,27.1862738 C8.66212625,27.3507257 7.30271026,27.320563 5.93096695,27.0564434 C4.67803812,26.8156671 3.5609722,26.4070292 2.64297954,25.8921665 C2.60468613,25.8709215 2.56770414,25.8486274 2.5299353,25.8271201" id="Fill-4" fill="#3AAB25"></path>
                        </g>
                    </g>
                    <g id="Page-1" transform="translate(116.860465, 0.000000)">
                        <path d="M90.1013037,123.897916 C90.5045052,124.449612 90.8651717,125.127152 90.9006594,125.821303 C90.9847226,127.457264 90.6910047,129.848283 89.9150559,130.855029 C89.1388553,131.861774 89.1808869,134.672103 88.9292006,136.266284 C88.6775143,137.860213 87.2522148,144.278969 84.5674771,145.809725 C84.9090154,145.796386 85.2915786,145.650156 85.7174318,145.326991 C88.425828,143.271469 89.8939142,138.069868 90.2714437,131.819742 C91.2364089,131.484244 92.0752794,130.309624 92.578652,126.53433 C92.4885483,125.485805 91.4787828,124.675878 90.1013037,123.897916" id="Fill-1" fill="#000000"></path>
                        <path d="M88.9291503,136.266309 C89.1808366,134.672128 89.138805,131.861799 89.9150055,130.855054 C90.6909544,129.848309 90.9846723,127.457289 90.9006091,125.821328 C90.8651213,125.127177 90.5044548,124.449638 90.1012534,123.897941 C87.6218917,122.497055 83.9472717,121.199612 82.2753196,118.799532 C82.1912564,122.28136 78.8616984,125.905139 78.8616984,125.905139 C78.8616984,125.905139 80.6235025,126.828073 81.3785614,128.464034 C82.1336203,130.099995 82.4645877,139.874736 82.2571982,141.090884 C82.0822763,142.115499 82.7364089,145.880978 84.5674268,145.80975 C87.2521645,144.278994 88.677464,137.860239 88.9291503,136.266309" id="Fill-3" fill="#626262"></path>
                        <path d="M81.9239404,123.472214 C81.9239404,123.472214 85.1538307,126.282795 86.0347327,125.527736 C86.9156348,124.772677 87.3769757,123.304339 82.6789993,121.039162" id="Fill-5" fill="#FB9FA1"></path>
                        <path d="M79.5747257,173.348007 C81.266561,173.26495 83.2994312,171.718841 84.7353015,169.768524 C85.5117538,168.126523 85.9220024,166.168152 85.6151968,164.119425 C84.0212675,157.240084 86.2026326,157.240084 84.105079,149.773306 C82.6790245,151.241644 77.2677691,151.702985 77.2677691,151.702985 C77.2677691,151.702985 78.0228279,157.030429 77.2677691,162.022123 C76.7294121,165.580464 75.7664603,168.797267 76.5179956,171.293491 C77.1957868,172.315338 78.2395298,173.413697 79.5747257,173.348007" id="Fill-7" fill="#626262"></path>
                        <path d="M79.5747257,173.348007 C78.2395298,173.413697 77.1957868,172.315338 76.5179956,171.293491 C76.8207742,172.29923 77.4004077,173.188438 78.4003574,173.935191 C80.1276805,175.083635 83.1748465,173.069138 84.7353015,169.768524 C83.2994312,171.718841 81.266561,173.26495 79.5747257,173.348007" id="Fill-9" fill="#000000"></path>
                        <path d="M82.9724907,121.379216 C82.9724907,123.99474 81.0400433,126.114693 78.656574,126.114693 C76.2726014,126.114693 74.340154,123.99474 74.340154,121.379216 C74.340154,118.763692 76.2726014,116.643486 78.656574,116.643486 C81.0400433,116.643486 82.9724907,118.763692 82.9724907,121.379216" id="Fill-11" fill="#B2AAA8"></path>
                        <path d="M84.9021695,148.577796 C84.9021695,151.23057 82.7517618,153.380978 80.0992399,153.380978 C77.4464663,153.380978 75.2960586,151.23057 75.2960586,148.577796 C75.2960586,145.925274 77.4464663,143.774867 80.0992399,143.774867 C82.7517618,143.774867 84.9021695,145.925274 84.9021695,148.577796" id="Fill-13" fill="#B2AAA8"></path>
                        <path d="M66.940753,110.058618 C66.9193597,111.889636 67.0477197,115.053836 67.7637672,119.799381 C68.201198,120.019606 68.6371187,120.237567 69.0692641,120.452507 C69.0138931,118.425174 68.9685895,115.089827 68.93134,111.298173 C68.2288835,110.870558 67.5571328,110.453765 66.940753,110.058618" id="Fill-15" fill="#B2AAA8"></path>
                        <path d="M83.8295329,147.556302 C83.8295329,147.556302 80.9590506,135.637194 78.8197171,127.331546 C78.6150961,126.536721 78.4550237,125.664125 78.3337109,124.7276 C82.5811688,124.161306 81.9532115,119.137899 79.8684939,117.893058 C79.6633696,117.687934 79.0220729,117.270135 78.1066898,116.713405 C78.4663495,108.466903 80.2646481,98.5502114 82.1442414,91.0884677 C84.9653931,79.8884275 83.3921021,72.7573996 83.3921021,72.7573996 C83.3921021,72.7573996 59.5657153,68.6466073 54.6160526,68.0470905 C53.4414326,73.8237944 54.11268,108.328979 54.6160526,111.265403 C54.9188312,113.031486 61.5039515,116.648973 67.7636414,119.799331 C67.0475939,115.053785 66.9192339,111.889585 66.9406272,110.058567 C64.8770512,108.735956 63.4303584,107.656977 63.5088845,107.238422 C63.7605708,105.896179 66.0257475,86.5163344 66.0257475,86.1805849 C66.0257475,85.8450871 68.7942968,87.5230796 68.7942968,87.5230796 C68.7942968,87.5230796 68.8315464,101.063047 68.9314658,111.298122 C68.9684637,115.089777 69.0140189,118.425123 69.0691382,120.452708 C69.0885181,121.148369 69.1084013,121.693522 69.1297946,122.045882 C69.3814809,126.198958 75.2331874,145.138352 76.1140894,147.969823 C75.9882462,150.675451 78.9455603,152.122647 81.5253448,151.241745 C84.1051294,150.360843 83.8295329,147.556302 83.8295329,147.556302" id="Fill-17" fill="#CCC5C2"></path>
                        <path d="M74.8377013,25.1532405 C74.8374107,25.1532405 74.8374107,25.1529498 74.8374107,25.1529498 L74.8377013,25.1532405 Z" id="Fill-19" fill="#EFEDED"></path>
                        <path d="M94.8555572,59.3895601 C92.6799809,61.0509413 89.8203212,60.5931239 88.0950116,60.072385 C88.4680107,62.0375516 88.5868066,63.3825632 88.2578526,63.4029498 C87.3517819,63.2869224 85.3886288,63.1900232 83.0250428,63.110742 C76.8564633,62.9036041 67.9553257,62.8157656 67.9553257,62.8157656 L65.9418353,61.431491 C65.9418353,61.431491 65.7319289,59.1242827 65.3543995,58.5791302 C64.97687,58.033726 63.9701248,57.6141649 64.2218111,58.8725964 C64.4734974,60.1310279 64.0541881,60.6764321 64.0541881,60.6764321 C64.0541881,60.6764321 62.6699134,59.5438438 60.656423,58.3692238 C58.6429326,57.1948555 54.6997634,60.9281184 58.0554968,63.9063224 C61.4114819,66.884778 66.9485805,68.3108326 68.207012,68.3108326 C68.8999044,68.3108326 76.3065287,69.0482734 83.0761351,69.4310883 C88.6021595,69.7436827 93.7038407,69.8199436 94.382387,69.0658915 C95.4258784,68.6866002 95.4200896,64.5994664 94.8555572,59.3895601" id="Fill-21" fill="#FBA0A3"></path>
                        <path d="M46.4435468,38.0772174 C45.1657354,41.662237 44.1740914,44.3827142 43.8773533,44.6525219 C42.9544196,45.4913923 27.224026,47.337008 24.0361673,47.9662237 C23.6586379,47.5886943 19.4217507,46.9594785 18.4150055,46.4981375 C17.4082603,46.0365449 17.5341035,47.0015101 17.9956962,47.6307259 C18.4570371,48.2599416 19.7992802,48.9309373 19.7992802,48.9309373 C19.7992802,48.9309373 17.7857898,49.5183731 15.6464563,49.3504983 C13.5071227,49.1826236 10.9064482,52.790295 14.2621816,54.2163495 C17.6181667,55.6426558 24.4975083,53.0419813 25.420442,52.6224202 C26.3431239,52.2028592 42.8706081,51.4478003 45.9746552,50.6089298 C47.8696013,50.0967482 50.5097906,46.0206886 52.279397,42.9224303 C50.7081194,42.4847478 47.702985,41.2519883 46.4435468,38.0772174" id="Fill-23" fill="#FBA0A3"></path>
                        <path d="M47.1187456,66.1479664 L47.1202557,65.1767089 L46.2063828,65.100448 L23.1426055,51.7847327 C22.183429,51.2307712 20.508205,51.3002366 19.4005336,51.9397715 L17.0608577,53.2905718 L3.35729387,61.2023306 L2.86927414,61.4839676 L1.35185744,61.3573694 L1.35185744,62.3600876 L3.08874459,63.3628058 L26.418806,76.8325531 L28.1554415,77.8352713 L30.1608779,76.6772627 L43.8644418,68.7655039 L46.2041176,67.4147035 C46.8310682,67.0527786 47.1411457,66.5856488 47.1184939,66.1479664 L47.1187456,66.1479664 Z" id="Fill-25" fill="#9FC0F0"></path>
                        <path d="M46.4728179,64.2514598 L23.1427565,50.7817125 C22.1833283,50.2280026 20.5081043,50.297468 19.4006846,50.9370029 L17.0610088,52.2878033 L3.35719319,60.1995621 L1.35200846,61.357319 L3.08864391,62.3600372 L26.4187053,75.8297846 L28.1555925,76.8325028 L30.1607772,75.6747458 L43.8645928,67.7627353 L46.2042686,66.411935 C47.3116883,65.7726518 47.4319944,64.8054213 46.4728179,64.2514598" id="Fill-27" fill="#C6E2FB"></path>
                        <path d="M35.876422,68.2022551 L23.0819491,60.8152623 C22.5559247,60.5114769 21.637018,60.5497332 21.029699,60.9003322 L19.7466022,61.6412967 L12.2315011,65.9801168 L11.1316319,66.6151213 L12.0840129,67.1648042 L24.8784859,74.551797 L25.8308668,75.1017316 L26.9307359,74.4667271 L34.4458371,70.127907 L35.7289339,69.3871942 C36.3362529,69.0363435 36.4024464,68.5060405 35.876422,68.2022551" id="Fill-29" fill="#2E3B70"></path>
                        <path d="M33.96567,69.6216652 L25.5412262,64.7578274 C25.1949059,64.5579885 24.5901037,64.5829055 24.1901742,64.8139535 L23.345515,65.3017215 L18.3973623,68.1586127 L17.6730092,68.5766636 L18.3002114,68.9385885 L26.7244035,73.8024263 L27.3516058,74.1643512 L28.0757072,73.7463002 L33.0238599,70.8896607 L33.8685191,70.4018927 C34.2684486,70.1708447 34.3119903,69.8215041 33.96567,69.6216652" id="Fill-31" fill="#5A648F"></path>
                        <path d="M29.5744236,63.5861271 L22.4021192,59.4451324 C21.8348183,59.1176885 21.9068006,58.5403201 22.5616883,58.1620356 L27.1962398,55.4863586 C27.8508759,55.1083258 28.8510772,55.0667975 29.4183781,55.3944931 L36.5906826,59.5352361 C37.1579835,59.8629316 37.0860012,60.4400483 36.4311135,60.8183328 L31.796562,63.4940099 C31.1419259,63.8720427 30.1417246,63.9135709 29.5744236,63.5861271" id="Fill-33" fill="#A7CBF0"></path>
                        <path d="M28.5772677,76.6128561 L28.4272627,74.2107621 L27.4028994,57.7955301 L27.2279774,54.9930031 C27.1451727,53.6663646 26.3005134,52.1419007 25.341337,51.5881909 L2.01102386,38.1184436 C1.666717,37.9196114 1.35538105,37.8750629 1.10017115,37.9583711 L1.09891272,37.956861 L1.08985201,37.9613913 C1.02718212,37.9827847 0.968539213,38.0124836 0.913168227,38.0494815 L0.604600826,38.2035135 L0.671297695,38.2968892 C0.486308265,38.5727373 0.391422531,38.9882714 0.424393436,39.5180711 L0.599315413,42.320598 L1.62367865,58.7355784 L1.77368368,61.1379241 L3.51031914,62.1406423 L26.8406322,75.6101379 L27.6034934,76.0505889 L28.1594684,76.8300614 L28.5772677,76.6128561 Z" id="Fill-35" fill="#C6E2FB"></path>
                        <g id="Group-39" transform="translate(0.000000, 38.098007)">
                            <mask id="mask-6" fill="white">
                                <use xlink:href="#path-5"></use>
                            </mask>
                            <g id="Clip-38"></g>
                            <path d="M24.9233867,13.7073895 L1.59332528,0.237642203 C0.634148797,-0.316067653 -0.0761099366,0.310631229 0.00644316923,1.63726971 L0.181365146,4.43979664 L1.20598007,20.854777 L1.35573341,23.256871 L3.09262056,24.2598409 L26.422682,37.7293366 L28.1593174,38.7320548 L28.0095641,36.3299607 L26.9849492,19.9147287 L26.8100272,17.1122018 C26.7272224,15.7855633 25.8828149,14.2610994 24.9233867,13.7073895" id="Fill-37" fill="#B0B5D1" mask="url(#mask-6)"></path>
                        </g>
                        <path d="M15.1120507,57.505965 C14.8356992,58.6312544 13.5246653,59.0165861 12.1839323,58.3669838 C10.8434511,57.7173815 9.98041881,56.2787426 10.257022,55.1534531 C10.5333736,54.0281637 11.8444075,53.6425803 13.1851404,54.2921826 C14.5258734,54.941785 15.388654,56.3806755 15.1120507,57.505965" id="Fill-40" fill="#FFFFFF"></path>
                        <g id="Group-44" transform="translate(46.058593, 18.466475)">
                            <mask id="mask-8" fill="white">
                                <use xlink:href="#path-7"></use>
                            </mask>
                            <g id="Clip-43"></g>
                            <path d="M22.1484446,49.8444075 C20.8900131,49.8444075 15.3529145,48.4181013 11.9971811,45.4398973 C8.64119601,42.4616933 12.5843652,38.7281788 14.5978556,39.9027988 C16.611346,41.0774187 17.9956207,42.210007 17.9956207,42.210007 C17.9956207,42.210007 18.4151817,41.6646028 18.1634954,40.4061713 C17.9118091,39.1477399 18.9185543,39.5673009 19.2960838,40.1124534 C19.6736132,40.6578576 19.8832679,42.9650659 19.8832679,42.9650659 L21.8967583,44.3493406 C21.8967583,44.3493406 29.0469143,44.4198127 34.9718615,44.5836605 C35.4611396,33.3612202 38.1725561,27.6960133 38.1725561,27.6960133 C39.4151314,30.8599617 40.3393235,37.7372898 41.1087285,41.790446 C42.8340381,42.3111849 47.406423,42.4871137 49.5822511,40.8257324 C48.6489983,32.213279 45.4030001,20.628662 43.6255915,17.5447498 C40.7732306,12.5948354 29.4473472,7.72898419 28.8782845,6.89011376 C28.8433001,6.8380147 28.8123427,6.77584818 28.7854123,6.70537602 C28.9200644,7.10757072 31.0448002,13.9025974 20.470452,12.7627102 C18.3864895,11.5795329 15.1772375,3.71811135 18.0031712,0.984546461 C13.6409443,0.394090406 9.41638981,-0.0654887748 8.47256619,0.215393134 C7.04902849,0.638729488 2.69460385,11.5782744 5.03372596e-05,19.1386792 C0.838920769,22.242978 4.82412161,24.6339978 6.62770563,24.466123 C7.75677036,22.4891272 8.12448404,20.9004832 8.12448404,20.9004832 C8.12448404,20.9004832 9.22863183,31.0517467 8.97694554,35.252391 C8.72525924,39.4530353 7.71851404,47.0758583 8.30569818,49.0893486 C8.89288231,51.102839 16.5275345,55.2136313 24.6653076,58.4017417 C29.9595288,60.4758885 33.4411054,59.5660425 35.4140743,57.730746 C35.1593678,55.2846069 35.0093627,52.987466 34.9411557,50.8378133 C28.8115876,50.4393939 22.7708648,49.8444075 22.1484446,49.8444075" id="Fill-42" fill="#3AAB25" mask="url(#mask-8)"></path>
                        </g>
                        <path d="M84.2311487,46.1624887 C84.2311487,46.1624887 81.5197322,51.8276956 81.030454,63.0501359 C81.7157958,63.0690124 82.3855331,63.0891473 83.025068,63.1105406 C83.226417,54.9647136 84.2311487,46.1624887 84.2311487,46.1624887" id="Fill-45" fill="#EFEEED"></path>
                        <path d="M80.9997987,69.3043642 C81.0680056,71.4540169 81.2180107,73.7509061 81.4727172,76.1972969 C82.5323165,75.2114417 83.1575053,73.9593023 83.3920769,72.7575003 C83.2420719,71.7771821 83.1401389,70.651641 83.0764623,69.4312141 C82.388352,69.3922028 81.6934461,69.3494161 80.9997987,69.3043642" id="Fill-47" fill="#EFEEED"></path>
                        <path d="M66.5290698,31.2292107 C77.1034179,32.369098 74.9784305,25.5740713 74.84403,25.1718766 C74.8415131,25.1660878 74.840003,25.1592923 74.8377378,25.1532518 L74.8374862,25.1527484 C74.4423387,24.0710007 74.9369022,21.0912866 74.9369022,21.0912866 C74.9369022,21.0912866 69.3962801,20.173135 64.0615373,19.451047 C61.2358552,22.1848636 64.4451072,30.0460334 66.5290698,31.2292107" id="Fill-49" fill="#FBA0A3"></path>
                        <path d="M66.5290698,31.2292107 C66.5290698,31.2292107 67.9971559,33.8510269 67.9971559,35.1932699 C69.1508859,35.5916893 76.5210158,31.0983338 76.7686751,26.5075758 C76.4286469,25.6815413 74.8374862,25.1527484 74.8374862,25.1527484 C74.8374862,25.1527484 75.1913571,28.9431441 66.5290698,31.2292107" id="Fill-51" fill="#2A7E1B"></path>
                        <path d="M66.5290698,31.2292107 C66.5290698,31.2292107 64.7672657,31.2712423 62.7958069,33.3685442 C61.4533122,30.4741518 59.4818534,24.4757123 64.1800815,20.532543 L66.1935719,20.9521041 C66.1935719,20.9521041 63.2991795,25.4404259 66.5290698,31.2292107" id="Fill-53" fill="#2A7E1B"></path>
                        <path d="M60.2578023,7.43428471 C60.2578023,7.43428471 58.9993708,10.5174419 59.3139787,14.9848737 C59.6285865,19.4523054 59.8299356,23.1646783 59.7607218,24.0770412 C59.6915081,24.989404 59.6285865,27.2860415 63.9701752,27.0972768 C68.3117638,26.908512 73.096572,26.4280429 74.352235,21.6230998 C76.1454998,20.0815212 75.7050488,19.7669133 76.869098,19.6410702 C78.0331471,19.515227 79.4594533,18.3091463 79.5329457,15.8763465 C80.0466375,11.9331773 79.3230394,6.23877479 74.0690879,4.28820598 C68.8151364,2.33763717 62.1139887,2.49494111 60.2578023,7.43428471" id="Fill-55" fill="#FBA0A3"></path>
                        <g id="Group-59" transform="translate(60.153025, 0.093376)">
                            <mask id="mask-10" fill="white">
                                <use xlink:href="#path-9"></use>
                            </mask>
                            <g id="Clip-58"></g>
                            <path d="M12.9198883,7.72900936 C12.9198883,7.72900936 8.24280177,9.60608577 0.104777006,7.34090909 C0.419384879,-1.45754052 16.3176533,-2.21259942 18.5407983,5.29595792 C20.5542887,6.63845263 23.322838,8.56787979 19.3799205,15.7829709 C19.6419259,14.8600372 16.4329256,12.0285664 15.7093275,16.6847629 C15.0801117,16.8106061 14.8284255,16.6847629 14.8284255,16.6847629 C14.8284255,16.6847629 15.5834843,13.0982332 15.331798,11.5251938 C14.3565136,10.6757525 13.1192238,10.0362177 12.9198883,7.72900936" id="Fill-57" fill="#23083E" mask="url(#mask-10)"></path>
                        </g>
                    </g>
                </g>
            </g>
        </g>
    </g>
</svg>