<?xml version="1.0" encoding="UTF-8"?>
<svg width="200px" height="200px" viewBox="0 0 200 200" version="1.1" xmlns="http://www.w3.org/2000/svg" xmlns:xlink="http://www.w3.org/1999/xlink">
    <!-- Generator: Sketch 55 (78076) - https://sketchapp.com -->
    <title>齿轮1</title>
    <desc>Created with Sketch.</desc>
    <g id="官网h5" stroke="none" stroke-width="1" fill="none" fill-rule="evenodd" opacity="0.1">
        <g id="ONT-ID-2.0-Landingpage" transform="translate(-809.000000, -4679.000000)" fill="#FFFFFF">
            <g id="编组-7" transform="translate(809.000000, 4612.000000)">
                <path d="M186.95629,166.999611 C186.95629,159.753567 192.270558,152.990143 200,150.092348 C199.033982,143.811284 197.101167,137.530999 195.16939,131.73463 C186.95629,132.700389 179.226848,129.801556 175.362257,123.52153 C171.497406,117.241505 172.946822,109.028664 178.26109,102.266018 C174.396239,97.4343708 170.04799,93.0871596 165.21738,88.7391699 C157.971336,94.0531777 149.758495,95.5025941 143.47847,91.6377432 C137.198444,87.7731518 134.299611,80.0437095 135.265629,71.8306095 C129.469001,69.8988328 123.187938,67.9660181 116.907912,67 C114.010117,74.7294423 107.246433,80.0437095 99.9996108,80.0437095 C92.7535668,80.0437095 85.9898831,74.7294423 83.0920883,67 C76.8110245,67.9660181 70.5309986,69.8988328 64.734371,71.8306095 C65.7003891,80.0437095 62.8015563,87.7731518 56.5215304,91.6377432 C50.2415045,95.5025941 42.028664,94.0531777 35.2660182,88.7391699 C30.4343708,92.6037613 26.0871596,96.9520105 21.7389104,101.78262 C26.56952,108.546044 28.0189363,116.758106 24.6377432,123.03917 C20.7731518,129.319196 13.0437095,132.216991 4.83060952,131.250973 C2.89883276,137.048638 0.966018114,143.328664 0,149.60869 C7.72944228,152.990143 13.0437095,159.753567 13.0437095,166.999611 C13.0437095,174.246433 7.72944228,181.010117 0,183.907912 C0.966018114,190.187938 2.89883276,196.469001 4.83060952,202.265629 C13.0437095,201.299611 21.2565501,203.715045 24.6377432,210.47847 C28.5025941,216.758495 27.0531777,224.971595 21.7389104,231.733982 C25.6037613,236.565629 29.9520105,240.91284 34.78262,245.26109 C41.5460441,239.947082 49.7581063,238.981064 56.03917,242.362257 C62.3191959,246.227108 65.2169908,253.95655 64.2509727,262.16939 C70.0486382,264.101167 76.3286641,266.034241 82.60869,267 C85.9898831,259.270558 92.269909,253.95655 99.5169909,253.95655 C106.763035,253.95655 113.526459,259.270558 116.425292,267 C122.705318,266.034241 128.501945,264.101167 134.783009,262.16939 C133.816213,253.95655 136.715045,246.227108 142.995071,242.362257 C149.275097,238.497665 157.487938,239.947082 164.251621,245.26109 C169.082231,241.396239 173.43048,237.048249 177.777432,232.21738 C172.463424,225.453956 171.497406,217.242153 174.878859,210.961089 C178.74345,204.680804 186.472892,201.783009 194.685733,202.749027 C196.618807,196.951362 198.550584,190.671336 199.516602,184.39131 C192.270558,180.526719 186.95629,174.246433 186.95629,166.999611 Z M49.7581063,184.874708 C47.82607,179.077302 46.8603114,173.280675 46.8603114,166.999611 C46.8603114,140.913489 65.7003891,119.174319 90.3381323,114.82633 L90.3381323,161.686381 L49.7581063,184.874708 Z M99.9996108,220.139948 C84.0581064,220.139948 69.56524,212.893904 59.4203632,201.299611 L99.9996108,178.111284 L140.579637,201.299611 C130.43476,212.893904 115.941894,220.139948 99.9996108,220.139948 Z M150.241894,184.874708 L109.661868,161.686381 L109.661868,114.82633 C134.299611,119.174319 153.139689,140.913489 153.139689,166.999611 C153.139689,173.280675 152.17393,179.077302 150.241894,184.874708 Z" id="齿轮1"></path>
            </g>
        </g>
    </g>
</svg>