<?xml version="1.0" encoding="UTF-8"?>
<svg width="302px" height="267px" viewBox="0 0 302 267" version="1.1" xmlns="http://www.w3.org/2000/svg" xmlns:xlink="http://www.w3.org/1999/xlink">
    <!-- Generator: Sketch 55 (78076) - https://sketchapp.com -->
    <title>编组 7</title>
    <desc>Created with Sketch.</desc>
    <g id="官网h5" stroke="none" stroke-width="1" fill="none" fill-rule="evenodd">
        <g id="ONT-ID-2.0-Landingpage" transform="translate(-809.000000, -4612.000000)" fill="#FFFFFF">
            <g id="编组-7" transform="translate(809.000000, 4612.000000)">
                <path d="M186.95629,166.999611 C186.95629,159.753567 192.270558,152.990143 200,150.092348 C199.033982,143.811284 197.101167,137.530999 195.16939,131.73463 C186.95629,132.700389 179.226848,129.801556 175.362257,123.52153 C171.497406,117.241505 172.946822,109.028664 178.26109,102.266018 C174.396239,97.4343708 170.04799,93.0871596 165.21738,88.7391699 C157.971336,94.0531777 149.758495,95.5025941 143.47847,91.6377432 C137.198444,87.7731518 134.299611,80.0437095 135.265629,71.8306095 C129.469001,69.8988328 123.187938,67.9660181 116.907912,67 C114.010117,74.7294423 107.246433,80.0437095 99.9996108,80.0437095 C92.7535668,80.0437095 85.9898831,74.7294423 83.0920883,67 C76.8110245,67.9660181 70.5309986,69.8988328 64.734371,71.8306095 C65.7003891,80.0437095 62.8015563,87.7731518 56.5215304,91.6377432 C50.2415045,95.5025941 42.028664,94.0531777 35.2660182,88.7391699 C30.4343708,92.6037613 26.0871596,96.9520105 21.7389104,101.78262 C26.56952,108.546044 28.0189363,116.758106 24.6377432,123.03917 C20.7731518,129.319196 13.0437095,132.216991 4.83060952,131.250973 C2.89883276,137.048638 0.966018114,143.328664 0,149.60869 C7.72944228,152.990143 13.0437095,159.753567 13.0437095,166.999611 C13.0437095,174.246433 7.72944228,181.010117 0,183.907912 C0.966018114,190.187938 2.89883276,196.469001 4.83060952,202.265629 C13.0437095,201.299611 21.2565501,203.715045 24.6377432,210.47847 C28.5025941,216.758495 27.0531777,224.971595 21.7389104,231.733982 C25.6037613,236.565629 29.9520105,240.91284 34.78262,245.26109 C41.5460441,239.947082 49.7581063,238.981064 56.03917,242.362257 C62.3191959,246.227108 65.2169908,253.95655 64.2509727,262.16939 C70.0486382,264.101167 76.3286641,266.034241 82.60869,267 C85.9898831,259.270558 92.269909,253.95655 99.5169909,253.95655 C106.763035,253.95655 113.526459,259.270558 116.425292,267 C122.705318,266.034241 128.501945,264.101167 134.783009,262.16939 C133.816213,253.95655 136.715045,246.227108 142.995071,242.362257 C149.275097,238.497665 157.487938,239.947082 164.251621,245.26109 C169.082231,241.396239 173.43048,237.048249 177.777432,232.21738 C172.463424,225.453956 171.497406,217.242153 174.878859,210.961089 C178.74345,204.680804 186.472892,201.783009 194.685733,202.749027 C196.618807,196.951362 198.550584,190.671336 199.516602,184.39131 C192.270558,180.526719 186.95629,174.246433 186.95629,166.999611 Z M49.7581063,184.874708 C47.82607,179.077302 46.8603114,173.280675 46.8603114,166.999611 C46.8603114,140.913489 65.7003891,119.174319 90.3381323,114.82633 L90.3381323,161.686381 L49.7581063,184.874708 Z M99.9996108,220.139948 C84.0581064,220.139948 69.56524,212.893904 59.4203632,201.299611 L99.9996108,178.111284 L140.579637,201.299611 C130.43476,212.893904 115.941894,220.139948 99.9996108,220.139948 Z M150.241894,184.874708 L109.661868,161.686381 L109.661868,114.82633 C134.299611,119.174319 153.139689,140.913489 153.139689,166.999611 C153.139689,173.280675 152.17393,179.077302 150.241894,184.874708 Z" id="Fill-1" opacity="0.1"></path>
                <path d="M284.173774,59.9997665 C284.173774,55.6521401 287.362335,51.5940856 292,49.8554087 C291.420389,46.0867704 290.2607,42.3185992 289.101634,38.8407783 C284.173774,39.4202334 279.536109,37.6809338 277.217354,33.9129183 C274.898444,30.1449027 275.768093,25.2171984 278.956654,21.1596109 C276.637743,18.2606225 274.028794,15.6522958 271.130428,13.043502 C266.782802,16.2319066 261.855097,17.1015564 258.087082,14.7826459 C254.319066,12.4638911 252.579767,7.82622572 253.159377,2.89836571 C249.681401,1.73929966 245.912763,0.579610868 242.144747,0 C240.40607,4.63766537 236.34786,7.82622572 231.999766,7.82622572 C227.65214,7.82622572 223.59393,4.63766537 221.855253,0 C218.086615,0.579610868 214.318599,1.73929966 210.840623,2.89836571 C211.420233,7.82622572 209.680934,12.4638911 205.912918,14.7826459 C202.144903,17.1015564 197.217198,16.2319066 193.159611,13.043502 C190.260623,15.3622568 187.652296,17.9712063 185.043346,20.869572 C187.941712,24.9276265 188.811362,29.8548638 186.782646,33.623502 C184.463891,37.3915176 179.826226,39.1301945 174.898366,38.5505836 C173.7393,42.0291829 172.579611,45.7971985 172,49.565214 C176.637665,51.5940856 179.826226,55.6521401 179.826226,59.9997665 C179.826226,64.3478599 176.637665,68.4060701 172,70.144747 C172.579611,73.9127626 173.7393,77.6814008 174.898366,81.1593774 C179.826226,80.5797666 184.75393,82.0290272 186.782646,86.0870817 C189.101556,89.8550973 188.231907,94.7829573 185.043346,98.8403891 C187.362257,101.739377 189.971206,104.347704 192.869572,106.956654 C196.927626,103.768249 201.854864,103.188638 205.623502,105.217354 C209.391518,107.536265 211.130194,112.17393 210.550584,117.101634 C214.029183,118.2607 217.797198,119.420545 221.565214,120 C223.59393,115.362335 227.361945,112.17393 231.710195,112.17393 C236.057821,112.17393 240.115875,115.362335 241.855175,120 C245.623191,119.420545 249.101167,118.2607 252.869806,117.101634 C252.289728,112.17393 254.029027,107.536265 257.797043,105.217354 C261.565058,102.898599 266.492763,103.768249 270.550973,106.956654 C273.449339,104.637743 276.058288,102.028949 278.666459,99.130428 C275.478054,95.0723735 274.898444,90.1452919 276.927315,86.3766537 C279.24607,82.6084824 283.883735,80.8698055 288.81144,81.4494164 C289.971284,77.9708171 291.13035,74.2028015 291.709961,70.434786 C287.362335,68.1160312 284.173774,64.3478599 284.173774,59.9997665 Z M201.854864,70.724825 C200.695642,67.2463813 200.116187,63.7684047 200.116187,59.9997665 C200.116187,44.3480935 211.420233,31.3045915 226.202879,28.6957977 L226.202879,56.8118289 L201.854864,70.724825 Z M231.999766,91.8839688 C222.434864,91.8839688 213.739144,87.5363424 207.652218,80.5797666 L231.999766,66.6667705 L256.347782,80.5797666 C250.260856,87.5363424 241.565136,91.8839688 231.999766,91.8839688 Z M262.145136,70.724825 L237.797121,56.8118289 L237.797121,28.6957977 C252.579767,31.3045915 263.883813,44.3480935 263.883813,59.9997665 C263.883813,63.7684047 263.304358,67.2463813 262.145136,70.724825 Z" id="Fill-1复制-2" opacity="0.25"></path>
                <path d="M296.130331,175.999825 C296.130331,172.739105 298.521751,169.695564 302,168.391556 C301.565292,165.565078 300.695525,162.738949 299.826226,160.130584 C296.130331,160.565175 292.652082,159.2607 290.913016,156.434689 C289.173833,153.608677 289.82607,149.912899 292.21749,146.869708 C290.478307,144.695467 288.521595,142.739222 286.347821,140.782626 C283.087101,143.17393 279.391323,143.826167 276.565311,142.086984 C273.7393,140.347918 272.434825,136.869669 272.869533,133.173774 C270.261051,132.304475 267.434572,131.434708 264.60856,131 C263.304553,134.478249 260.260895,136.869669 256.999825,136.869669 C253.739105,136.869669 250.695447,134.478249 249.39144,131 C246.564961,131.434708 243.738949,132.304475 241.130467,133.173774 C241.565175,136.869669 240.2607,140.347918 237.434689,142.086984 C234.608677,143.826167 230.912899,143.17393 227.869708,140.782626 C225.695467,142.521693 223.739222,144.478405 221.78251,146.652179 C223.956284,149.69572 224.608521,153.391148 223.086984,156.217627 C221.347918,159.043638 217.869669,160.347646 214.173774,159.912938 C213.304475,162.521887 212.434708,165.347899 212,168.173911 C215.478249,169.695564 217.869669,172.739105 217.869669,175.999825 C217.869669,179.260895 215.478249,182.304553 212,183.60856 C212.434708,186.434572 213.304475,189.261051 214.173774,191.869533 C217.869669,191.434825 221.565448,192.52177 223.086984,195.565311 C224.826167,198.391323 224.17393,202.087218 221.78251,205.130292 C223.521693,207.304533 225.478405,209.260778 227.652179,211.21749 C230.69572,208.826187 234.391148,208.391479 237.217627,209.913016 C240.043638,211.652198 241.347646,215.130447 240.912938,218.826226 C243.521887,219.695525 246.347899,220.565409 249.173911,221 C250.695447,217.521751 253.521459,215.130447 256.782646,215.130447 C260.043366,215.130447 263.086907,217.521751 264.391381,221 C267.217393,220.565409 269.825875,219.695525 272.652354,218.826226 C272.217296,215.130447 273.52177,211.652198 276.347782,209.913016 C279.173794,208.173949 282.869572,208.826187 285.91323,211.21749 C288.087004,209.478307 290.043716,207.521712 291.999844,205.347821 C289.608541,202.30428 289.173833,198.608969 290.695486,195.78249 C292.434552,192.956362 295.912801,191.652354 299.60858,192.087062 C300.478463,189.478113 301.347763,186.652101 301.782471,183.826089 C298.521751,182.087023 296.130331,179.260895 296.130331,175.999825 Z M234.391148,184.043619 C233.521732,181.434786 233.08714,178.826304 233.08714,175.999825 C233.08714,164.26107 241.565175,154.478444 252.65216,152.521848 L252.65216,173.608872 L234.391148,184.043619 Z M256.999825,199.912977 C249.826148,199.912977 243.304358,196.652257 238.739163,191.434825 L256.999825,181.000078 L275.260837,191.434825 C270.695642,196.652257 264.173852,199.912977 256.999825,199.912977 Z M279.608852,184.043619 L261.34784,173.608872 L261.34784,152.521848 C272.434825,154.478444 280.91286,164.26107 280.91286,175.999825 C280.91286,178.826304 280.478268,181.434786 279.608852,184.043619 Z" id="Fill-1复制-3" opacity="0.4"></path>
            </g>
        </g>
    </g>
</svg>