<?xml version="1.0" encoding="UTF-8"?>
<svg width="90px" height="90px" viewBox="0 0 90 90" version="1.1" xmlns="http://www.w3.org/2000/svg" xmlns:xlink="http://www.w3.org/1999/xlink">
    <!-- Generator: Sketch 55 (78076) - https://sketchapp.com -->
    <title>齿轮3</title>
    <desc>Created with Sketch.</desc>
    <g id="官网h5" stroke="none" stroke-width="1" fill="none" fill-rule="evenodd" opacity="0.4">
        <g id="ONT-ID-2.0-Landingpage" transform="translate(-1021.000000, -4743.000000)" fill="#FFFFFF">
            <g id="编组-7" transform="translate(809.000000, 4612.000000)">
                <path d="M296.130331,175.999825 C296.130331,172.739105 298.521751,169.695564 302,168.391556 C301.565292,165.565078 300.695525,162.738949 299.826226,160.130584 C296.130331,160.565175 292.652082,159.2607 290.913016,156.434689 C289.173833,153.608677 289.82607,149.912899 292.21749,146.869708 C290.478307,144.695467 288.521595,142.739222 286.347821,140.782626 C283.087101,143.17393 279.391323,143.826167 276.565311,142.086984 C273.7393,140.347918 272.434825,136.869669 272.869533,133.173774 C270.261051,132.304475 267.434572,131.434708 264.60856,131 C263.304553,134.478249 260.260895,136.869669 256.999825,136.869669 C253.739105,136.869669 250.695447,134.478249 249.39144,131 C246.564961,131.434708 243.738949,132.304475 241.130467,133.173774 C241.565175,136.869669 240.2607,140.347918 237.434689,142.086984 C234.608677,143.826167 230.912899,143.17393 227.869708,140.782626 C225.695467,142.521693 223.739222,144.478405 221.78251,146.652179 C223.956284,149.69572 224.608521,153.391148 223.086984,156.217627 C221.347918,159.043638 217.869669,160.347646 214.173774,159.912938 C213.304475,162.521887 212.434708,165.347899 212,168.173911 C215.478249,169.695564 217.869669,172.739105 217.869669,175.999825 C217.869669,179.260895 215.478249,182.304553 212,183.60856 C212.434708,186.434572 213.304475,189.261051 214.173774,191.869533 C217.869669,191.434825 221.565448,192.52177 223.086984,195.565311 C224.826167,198.391323 224.17393,202.087218 221.78251,205.130292 C223.521693,207.304533 225.478405,209.260778 227.652179,211.21749 C230.69572,208.826187 234.391148,208.391479 237.217627,209.913016 C240.043638,211.652198 241.347646,215.130447 240.912938,218.826226 C243.521887,219.695525 246.347899,220.565409 249.173911,221 C250.695447,217.521751 253.521459,215.130447 256.782646,215.130447 C260.043366,215.130447 263.086907,217.521751 264.391381,221 C267.217393,220.565409 269.825875,219.695525 272.652354,218.826226 C272.217296,215.130447 273.52177,211.652198 276.347782,209.913016 C279.173794,208.173949 282.869572,208.826187 285.91323,211.21749 C288.087004,209.478307 290.043716,207.521712 291.999844,205.347821 C289.608541,202.30428 289.173833,198.608969 290.695486,195.78249 C292.434552,192.956362 295.912801,191.652354 299.60858,192.087062 C300.478463,189.478113 301.347763,186.652101 301.782471,183.826089 C298.521751,182.087023 296.130331,179.260895 296.130331,175.999825 Z M234.391148,184.043619 C233.521732,181.434786 233.08714,178.826304 233.08714,175.999825 C233.08714,164.26107 241.565175,154.478444 252.65216,152.521848 L252.65216,173.608872 L234.391148,184.043619 Z M256.999825,199.912977 C249.826148,199.912977 243.304358,196.652257 238.739163,191.434825 L256.999825,181.000078 L275.260837,191.434825 C270.695642,196.652257 264.173852,199.912977 256.999825,199.912977 Z M279.608852,184.043619 L261.34784,173.608872 L261.34784,152.521848 C272.434825,154.478444 280.91286,164.26107 280.91286,175.999825 C280.91286,178.826304 280.478268,181.434786 279.608852,184.043619 Z" id="齿轮3"></path>
            </g>
        </g>
    </g>
</svg>