<?xml version="1.0" encoding="UTF-8"?>
<svg width="120px" height="120px" viewBox="0 0 120 120" version="1.1" xmlns="http://www.w3.org/2000/svg" xmlns:xlink="http://www.w3.org/1999/xlink">
    <!-- Generator: Sketch 55 (78076) - https://sketchapp.com -->
    <title>齿轮2</title>
    <desc>Created with Sketch.</desc>
    <g id="官网h5" stroke="none" stroke-width="1" fill="none" fill-rule="evenodd" opacity="0.25">
        <g id="ONT-ID-2.0-Landingpage" transform="translate(-981.000000, -4612.000000)" fill="#FFFFFF">
            <g id="编组-7" transform="translate(809.000000, 4612.000000)">
                <path d="M284.173774,59.9997665 C284.173774,55.6521401 287.362335,51.5940856 292,49.8554087 C291.420389,46.0867704 290.2607,42.3185992 289.101634,38.8407783 C284.173774,39.4202334 279.536109,37.6809338 277.217354,33.9129183 C274.898444,30.1449027 275.768093,25.2171984 278.956654,21.1596109 C276.637743,18.2606225 274.028794,15.6522958 271.130428,13.043502 C266.782802,16.2319066 261.855097,17.1015564 258.087082,14.7826459 C254.319066,12.4638911 252.579767,7.82622572 253.159377,2.89836571 C249.681401,1.73929966 245.912763,0.579610868 242.144747,0 C240.40607,4.63766537 236.34786,7.82622572 231.999766,7.82622572 C227.65214,7.82622572 223.59393,4.63766537 221.855253,0 C218.086615,0.579610868 214.318599,1.73929966 210.840623,2.89836571 C211.420233,7.82622572 209.680934,12.4638911 205.912918,14.7826459 C202.144903,17.1015564 197.217198,16.2319066 193.159611,13.043502 C190.260623,15.3622568 187.652296,17.9712063 185.043346,20.869572 C187.941712,24.9276265 188.811362,29.8548638 186.782646,33.623502 C184.463891,37.3915176 179.826226,39.1301945 174.898366,38.5505836 C173.7393,42.0291829 172.579611,45.7971985 172,49.565214 C176.637665,51.5940856 179.826226,55.6521401 179.826226,59.9997665 C179.826226,64.3478599 176.637665,68.4060701 172,70.144747 C172.579611,73.9127626 173.7393,77.6814008 174.898366,81.1593774 C179.826226,80.5797666 184.75393,82.0290272 186.782646,86.0870817 C189.101556,89.8550973 188.231907,94.7829573 185.043346,98.8403891 C187.362257,101.739377 189.971206,104.347704 192.869572,106.956654 C196.927626,103.768249 201.854864,103.188638 205.623502,105.217354 C209.391518,107.536265 211.130194,112.17393 210.550584,117.101634 C214.029183,118.2607 217.797198,119.420545 221.565214,120 C223.59393,115.362335 227.361945,112.17393 231.710195,112.17393 C236.057821,112.17393 240.115875,115.362335 241.855175,120 C245.623191,119.420545 249.101167,118.2607 252.869806,117.101634 C252.289728,112.17393 254.029027,107.536265 257.797043,105.217354 C261.565058,102.898599 266.492763,103.768249 270.550973,106.956654 C273.449339,104.637743 276.058288,102.028949 278.666459,99.130428 C275.478054,95.0723735 274.898444,90.1452919 276.927315,86.3766537 C279.24607,82.6084824 283.883735,80.8698055 288.81144,81.4494164 C289.971284,77.9708171 291.13035,74.2028015 291.709961,70.434786 C287.362335,68.1160312 284.173774,64.3478599 284.173774,59.9997665 Z M201.854864,70.724825 C200.695642,67.2463813 200.116187,63.7684047 200.116187,59.9997665 C200.116187,44.3480935 211.420233,31.3045915 226.202879,28.6957977 L226.202879,56.8118289 L201.854864,70.724825 Z M231.999766,91.8839688 C222.434864,91.8839688 213.739144,87.5363424 207.652218,80.5797666 L231.999766,66.6667705 L256.347782,80.5797666 C250.260856,87.5363424 241.565136,91.8839688 231.999766,91.8839688 Z M262.145136,70.724825 L237.797121,56.8118289 L237.797121,28.6957977 C252.579767,31.3045915 263.883813,44.3480935 263.883813,59.9997665 C263.883813,63.7684047 263.304358,67.2463813 262.145136,70.724825 Z" id="齿轮2"></path>
            </g>
        </g>
    </g>
</svg>