<?xml version="1.0" encoding="UTF-8"?>
<svg width="400px" height="300px" viewBox="0 0 400 300" version="1.1" xmlns="http://www.w3.org/2000/svg" xmlns:xlink="http://www.w3.org/1999/xlink">
    <!-- Generator: Sketch 55.2 (78181) - https://sketchapp.com -->
    <title>3</title>
    <desc>Created with Sketch.</desc>
    <defs>
        <linearGradient x1="21.2501189%" y1="79.6004792%" x2="62.8404403%" y2="35.1111821%" id="linearGradient-1">
            <stop stop-color="#2AC6FF" offset="0%"></stop>
            <stop stop-color="#FFFFFF" stop-opacity="0" offset="99.77%"></stop>
        </linearGradient>
    </defs>
    <g id="3" stroke="none" stroke-width="1" fill="none" fill-rule="evenodd">
        <g id="1" transform="translate(55.000000, 67.000000)" fill-rule="nonzero">
            <path d="M175.771636,40.1465455 C175.771636,40.1465455 175.392,68.0498182 172.354909,77.5407273 C169.222909,86.9367273 193.804364,83.4250909 193.804364,83.4250909 L197.600727,47.6443636 L175.771636,40.1465455 Z" id="路径" fill="#000000"></path>
            <path d="M211.932,18.0327273 C211.932,18.0327273 213.165818,36.4450909 215.348727,52.1050909 C217.152,65.1076364 222.182182,74.8832727 225.598909,85.608 C233.096727,109.62 199.214182,77.5407273 199.214182,77.5407273 L190.862182,34.0723636 L211.932,18.0327273 Z" id="路径" fill="#000000"></path>
            <circle id="椭圆形" fill="#000000" cx="190.482545" cy="22.2087273" r="21.8290909"></circle>
            <path d="M187.065818,13.6669091 C196.082182,13.6669091 203.390182,20.9749091 203.390182,29.9912727 C203.390182,39.0076364 196.082182,45.1767273 187.065818,45.1767273 C182.605091,45.1767273 178.998545,48.3087273 176.056364,45.4614545 C173.019273,42.5192727 170.741455,34.6418182 170.741455,29.9912727 C170.836364,20.9749091 178.049455,13.6669091 187.065818,13.6669091 Z" id="路径" fill="#FFE5CF"></path>
            <path d="M181.466182,43.2785455 C181.466182,43.2785455 188.109818,53.244 187.160727,57.6098182 C187.160727,57.6098182 182.794909,59.6029091 182.794909,60.2672727 C182.794909,60.9316364 178.808727,67.1956364 178.808727,67.1956364 L174.158182,73.5545455 L172.165091,81.9065455 L181.845818,81.9065455 L192.475636,73.5545455 L202.820727,62.2603636 C202.820727,62.2603636 209.749091,58.9385455 213.450545,61.596 L215.443636,63.3043636 C215.443636,63.3043636 208.515273,54.0032727 205.098545,52.0101818 C205.098545,52.0101818 199.119273,44.7021818 199.783636,37.3941818 L181.466182,43.2785455 Z" id="路径" fill="#FFE5CF"></path>
            <path d="M184.123636,57.3250909 C184.123636,57.3250909 177.48,60.9316364 174.822545,67.9549091 C172.165091,74.8832727 160.206545,98.2309091 160.206545,98.2309091 C160.206545,98.2309091 159.162545,113.226545 159.921818,113.890909 C160.586182,114.555273 168.273818,107.247273 169.602545,105.254182 C170.931273,103.261091 176.246182,79.344 176.246182,79.344 L184.882909,65.3923636 L186.591273,57.42 L184.123636,57.3250909 L184.123636,57.3250909 L184.123636,57.3250909 Z" id="路径" fill="#FFE5CF"></path>
            <path d="M163.148727,99.18 L160.111636,98.136 C160.111636,98.136 140.845091,87.1265455 139.801091,82.1912727 C138.757091,77.1610909 125.185091,60.1723636 124.805455,69.1887273 C124.520727,78.2050909 135.435273,88.1705455 135.435273,88.1705455 C135.435273,88.1705455 159.352364,121.768364 160.776,112.087636 L163.148727,99.18 Z" id="路径" fill="#FFE5CF"></path>
            <path d="M193.424727,76.3069091 C193.424727,76.3069091 193.709455,85.608 206.712,88.9298182 C206.712,88.9298182 218.670545,107.247273 221.328,114.84 C224.46,123.951273 257.583273,163.813091 257.583273,163.813091 C257.583273,163.813091 289.852364,167.799273 289.852364,163.813091 C289.852364,159.826909 262.898182,156.505091 262.898182,156.505091 C262.898182,156.505091 234.994909,114.460364 233.286545,108.860727 C232.147636,105.349091 219.809455,66.4363636 213.260727,61.596 C213.260727,61.596 207.566182,58.9385455 204.244364,60.9316364 C201.112364,62.9247273 193.424727,76.3069091 193.424727,76.3069091 Z" id="路径" fill="#FFE5CF"></path>
            <path d="M154.512,113.890909 C154.512,113.890909 131.164364,90.9229091 126.229091,88.9298182 C121.198909,86.9367273 113.511273,82.7607273 109.904727,87.4112727 C105.823636,92.6312727 107.152364,88.4552727 64.3483636,141.224727 C64.3483636,141.224727 49.068,156.884727 41.3803636,153.847636 C41.3803636,153.847636 37.3941818,157.169455 46.6952727,157.833818 C55.9963636,158.498182 64.6330909,155.840727 64.6330909,155.840727 C64.6330909,155.840727 70.3276364,156.884727 74.3138182,157.833818 C78.3,158.877818 83.3301818,159.162545 82.9505455,156.505091 L81.6218182,145.875273 C81.6218182,145.875273 115.884,117.592364 116.928,105.633818 C116.928,105.633818 116.263636,99.9392727 116.928,100.603636 C117.592364,101.268 131.544,116.263636 137.902909,119.585455 C144.261818,122.907273 159.921818,127.557818 159.921818,127.557818 L154.512,113.890909 Z" id="路径" fill="#FFE5CF"></path>
            <path d="M154.512,113.890909 C154.512,113.890909 131.164364,90.9229091 126.229091,88.9298182 C121.198909,86.9367273 113.511273,82.7607273 109.904727,87.4112727 C105.823636,92.6312727 107.152364,88.4552727 64.3483636,141.224727 C64.3483636,141.224727 49.068,156.884727 41.3803636,153.847636 C41.3803636,153.847636 37.3941818,157.169455 46.6952727,157.833818 C55.9963636,158.498182 64.6330909,155.840727 64.6330909,155.840727 C64.6330909,155.840727 70.3276364,156.884727 74.3138182,157.833818 C78.3,158.877818 83.3301818,159.162545 82.9505455,156.505091 L81.6218182,145.875273 C81.6218182,145.875273 115.884,117.592364 116.928,105.633818 C116.928,105.633818 116.263636,99.9392727 116.928,100.603636 C117.592364,101.268 131.544,116.263636 137.902909,119.585455 C144.261818,122.907273 159.921818,127.557818 159.921818,127.557818 L154.512,113.890909 Z" id="路径" fill="#000000" opacity="0.06"></path>
            <path d="M219.619636,71.6563636 C219.619636,71.6563636 216.677455,64.4432727 212.881091,62.3552727 C212.501455,62.2603636 212.121818,62.1654545 211.837091,61.9756364 C210.223636,61.3112727 205.288364,59.9825455 201.681818,64.9178182 C197.316,70.8970909 193.329818,77.9203636 196.651636,81.9065455 C199.973455,85.8927273 206.617091,88.2654545 206.617091,88.2654545 L210.413455,94.3396364 C210.413455,94.3396364 199.498909,108.860727 201.871636,122.907273 C201.871636,122.907273 201.207273,124.236 195.512727,118.256727 C189.818182,112.277455 166.660364,108.101455 166.660364,108.101455 C166.660364,108.101455 171.405818,100.698545 169.128,94.2447273 C166.660364,86.7469091 164.762182,79.4389091 172.449818,70.8021818 L184.408364,57.2301818 L187.065818,57.5149091 C187.065818,57.5149091 183.554182,60.7418182 183.269455,62.3552727 C182.984727,63.9687273 172.829455,75.168 178.144364,77.256 C183.459273,79.2490909 188.869091,75.4527273 192.570545,70.4225455 C194.563636,67.6701818 197.410909,63.8738182 201.017455,61.596 C204.718909,59.1283636 209.559273,58.9385455 213.450545,60.9316364 L214.589455,61.5010909 L214.589455,61.5010909 C216.772364,63.0196364 217.816364,65.772 218.860364,68.2396364 L219.24,70.1378182 L219.619636,71.6563636 Z" id="路径" fill="#0066CC"></path>
            <ellipse id="椭圆形" fill="#000000" cx="185.262545" cy="20.0258182" rx="13.0025455" ry="10.1552727"></ellipse>
            <path d="M193.709455,2.27781818 L193.709455,3.51163636 L186.021818,3.51163636 L186.021818,2.27781818 C186.021818,1.32872727 186.781091,0.474545455 187.825091,0.474545455 L191.906182,0.474545455 C192.950182,0.474545455 193.709455,1.32872727 193.709455,2.27781818 Z" id="路径" fill="#000000" opacity="0.1"></path>
            <path d="M179.662909,24.1069091 C179.662909,24.1069091 188.964,33.0283636 189.248727,38.4381818 L191.906182,33.1232727 L191.906182,50.2069091 L207.186545,45.1767273 L200.732727,14.8058182 L179.662909,24.1069091 Z" id="路径" fill="#000000"></path>
            <path d="M212.216727,99.18 L226.832727,89.5941818 L217.531636,64.728 C217.531636,64.728 210.128727,56.2810909 204.434182,61.0265455 C198.834545,65.6770909 190.482545,81.2421818 190.482545,81.2421818 L212.216727,99.18 Z" id="路径" fill="#0066CC"></path>
            <path d="M170.836364,74.5985455 L176.341091,64.4432727 C178.524,61.9756364 180.232364,57.9894545 184.123636,57.3250909 L186.401455,57.3250909 L170.836364,74.5985455 Z" id="路径" fill="#0066CC"></path>
            <path d="M37.0145455,160.586182 L83.8996364,159.067636 L83.4250909,146.539636 L82.7607273,144.736364 L82.6658182,144.831273 C82.6658182,144.831273 74.5036364,152.424 65.9618182,144.926182 L58.0843636,144.261818 L44.2276364,151.949455 C44.1327273,151.949455 31.8894545,152.424 37.0145455,160.586182 Z" id="路径" fill="#000000"></path>
            <path d="M37.0145455,160.586182 L83.8996364,159.067636 L83.4250909,146.539636 L82.7607273,144.736364 L82.6658182,144.831273 C82.6658182,144.831273 74.5036364,152.424 65.9618182,144.926182 L58.0843636,144.261818 L44.2276364,151.949455 C44.1327273,151.949455 31.8894545,152.424 37.0145455,160.586182 Z" id="路径" fill="#FFFFFF" opacity="0.2"></path>
            <path d="M158.118545,118.161818 C158.118545,118.161818 127.462909,106.488 123.476727,103.830545 C119.490545,101.173091 105.159273,95.8581818 97.8512727,101.837455 C90.5432727,107.816727 54.9523636,135.435273 42.8989091,138.092727 C30.9403636,140.750182 10.2501818,147.109091 10.2501818,147.109091 C10.2501818,147.109091 -3.03709091,148.153091 11.2941818,153.752727 C11.2941818,153.752727 28.9472727,155.461091 31.8894545,158.118545 C34.8316364,160.776 44.892,164.097818 45.5563636,159.826909 C46.2207273,155.461091 48.2138182,149.861455 51.9152727,149.197091 C55.5218182,148.532727 99.5596364,134.676 106.203273,121.673455 C106.203273,121.673455 121.578545,131.923636 130.974545,141.604364 C140.275636,151.285091 161.82,156.6 161.82,156.6 L158.118545,118.161818 Z" id="路径" fill="#FFE5CF"></path>
            <path d="M166.945091,108.101455 C166.945091,108.101455 151.949455,110.284364 150.620727,108.860727 C149.292,107.437091 140.180727,116.643273 146.729455,132.588 C153.278182,148.532727 145.495636,151.285091 149.197091,153.657818 C152.803636,155.935636 169.792364,159.352364 178.903636,158.972727 C183.933818,158.782909 188.964,160.016727 195.322909,151.949455 C207.661091,136.384364 203.010545,125.28 201.871636,123.002182 C200.732727,120.724364 194.943273,115.314545 194.943273,115.314545 L182.984727,109.62 L166.945091,108.101455 Z" id="路径" fill="#0066CC"></path>
            <path d="M0.854181818,151.474909 L43.1836364,164.382545 L49.6374545,152.708727 L49.6374545,150.810545 L52.1050909,149.292 C52.1050909,149.292 36.54,150.620727 33.6927273,145.210909 L26.4796364,141.889091 L10.9145455,144.451636 C10.9145455,144.451636 -1.23381818,142.078909 0.854181818,151.474909 Z" id="路径" fill="#000000"></path>
            <path d="M201.302182,85.608 L195.797455,118.161818 C195.797455,118.161818 200.827636,144.736364 186.496364,147.488727 C172.165091,150.241091 149.481818,145.780364 149.481818,145.780364 C149.481818,145.780364 146.539636,153.468 149.292,153.468 C152.044364,153.468 189.153818,170.646545 200.353091,144.166909 C200.353091,144.166909 207.091636,133.537091 201.966545,122.812364 C201.966545,122.812364 199.878545,108.576 208.894909,96.9021818 L204.908727,79.2490909 L201.302182,85.608 Z" id="路径" fill="#000000" opacity="0.1"></path>
            <path d="M172.734545,21.2596364 C172.734545,21.2596364 174.442909,25.9101818 175.676727,26.9541818 C176.815636,27.9981818 180.327273,28.7574545 181.181455,29.6116364 C181.845818,32.1741818 182.510182,32.9334545 182.415273,35.7807273 C182.415273,41.4752727 180.232364,44.892 182.510182,45.1767273 C184.598182,44.892 178.713818,50.5865455 174.727636,43.9429091 C174.822545,43.9429091 167.229818,32.5538182 172.734545,21.2596364 Z" id="路径" fill="#FFFFFF" opacity="0.4"></path>
            <g id="编组" transform="translate(115.789091, 23.727273)">
                <g transform="translate(0.000000, 28.472727)" id="路径">
                    <path d="M1.23381818,6.16909091 L1.044,5.97927273 L26.8592727,30.0861818 L26.2898182,30.6556364 C24.8661818,32.0792727 22.5883636,30.3709091 21.1647273,28.9472727 L2.18290909,11.0094545 C0.759272727,9.77563636 -0.189818182,7.59272727 1.23381818,6.16909091 Z" fill="#000000"></path>
                    <g>
                        <path d="M31.9843636,24.8661818 L26.6694545,30.4658182 C26.1,31.0352727 25.1509091,31.0352727 24.5814545,30.4658182 L1.32872727,8.25709091 C0.759272727,7.68763636 0.759272727,6.73854545 1.32872727,6.16909091 L6.64363636,0.569454545 C7.21309091,-1.34892097e-14 8.16218182,-1.34892097e-14 8.73163636,0.569454545 L31.9843636,22.7781818 C32.5538182,23.3476364 32.5538182,24.2967273 31.9843636,24.8661818 Z" fill="#000000"></path>
                        <path d="M6.64363636,1.80327273 L6.35890909,2.088 L7.02327273,2.65745455 C7.308,2.94218182 7.49781818,3.41672727 7.308,3.60654545 L4.36581818,6.73854545 C4.176,6.92836364 3.79636364,6.83345455 3.41672727,6.54872727 L2.75236364,5.97927273 L2.46763636,6.264 C1.80327273,6.92836364 2.18290909,8.44690909 3.32181818,9.58581818 L23.1578182,28.5676364 C24.2967273,29.7065455 25.8152727,29.9912727 26.4796364,29.3269091 L30.7505455,24.8661818 C31.4149091,24.2018182 31.0352727,22.6832727 29.8963636,21.5443636 L10.0603636,2.56254545 C8.82654545,1.42363636 7.308,1.044 6.64363636,1.80327273 Z" fill="#FFFFFF"></path>
                    </g>
                </g>
                <polygon id="路径" fill="#FFFFFF" points="2.75236364 34.3570909 6.35890909 30.5607273 8.25709091 32.0792727 5.03018182 35.8756364 3.132 35.8756364"></polygon>
                <g opacity="0.3" transform="translate(0.949091, 0.000000)" fill="url(#linearGradient-1)" id="路径">
                    <polyline points="57.8945455 42.7090909 24.012 59.6029091 0.379636364 36.2552727 15.3752727 0.189818182"></polyline>
                </g>
            </g>
        </g>
    </g>
</svg>