<?xml version="1.0" encoding="UTF-8"?>
<svg width="400px" height="300px" viewBox="0 0 400 300" version="1.1" xmlns="http://www.w3.org/2000/svg" xmlns:xlink="http://www.w3.org/1999/xlink">
    <!-- Generator: Sketch 55.2 (78181) - https://sketchapp.com -->
    <title>4</title>
    <desc>Created with Sketch.</desc>
    <g id="4" stroke="none" stroke-width="1" fill="none" fill-rule="evenodd">
        <g id="编组-14" transform="translate(110.000000, 48.000000)" fill-rule="nonzero">
            <g id="编组">
                <path d="M79.7391304,46.5217391 C79.7391304,46.5217391 82.2608696,54.7826087 63.2173913,64.3478261 C44.173913,73.9130435 65.1304348,84.0869565 65.1304348,84.0869565 L87.3913043,89.1304348 C87.3913043,89.1304348 110.347826,85.9130435 112.869565,82.173913 C115.391304,78.3478261 119.826087,65.6521739 118.608696,63.7391304 C117.652174,62.3478261 116.608696,61.1304348 115.391304,59.9130435 C115.391304,59.9130435 100.086957,57.3913043 100.782609,50.3478261 C101.391304,43.3043478 79.7391304,46.5217391 79.7391304,46.5217391 Z" id="路径" fill="#F7CDCD"></path>
                <path d="M79.7391304,46.5217391 C79.7391304,46.5217391 82.2608696,54.7826087 63.2173913,64.3478261 C44.173913,73.9130435 65.1304348,84.0869565 65.1304348,84.0869565 L87.3913043,89.1304348 C87.3913043,89.1304348 110.347826,85.9130435 112.869565,82.173913 C115.391304,78.3478261 119.826087,65.6521739 118.608696,63.7391304 C117.652174,62.3478261 116.608696,61.1304348 115.391304,59.9130435 C115.391304,59.9130435 100.086957,57.3913043 100.782609,50.3478261 C101.391304,43.3043478 79.7391304,46.5217391 79.7391304,46.5217391 Z" id="路径" fill="#000000" opacity="0.1"></path>
                <path d="M89.6521739,9.82608696 C89.6521739,9.82608696 108.173913,10.7826087 108.347826,24.6956522 C108.347826,24.6956522 109.826087,36.5217391 100.956522,49.826087 C100.956522,49.826087 91.2173913,62 78.8695652,49.826087 C78.8695652,49.826087 72.5217391,40.173913 71.9999363,24.3478261 C71.9999363,24.3478261 71.826087,11.6521739 89.6521739,9.82608696 Z" id="路径" fill="#FFE5CF"></path>
                <path d="M32.6956522,138.086957 C32.6956522,138.086957 38.4347826,147.043478 53.0434783,148.869565 C67.6521739,150.782609 70.2608696,145.652174 68.9565217,144.434783 C67.6521739,143.217391 52.4347826,137.478261 52.4347826,137.478261 L43.4782609,130.521739 L32.6956522,138.086957 Z" id="路径" fill="#FFE5CF"></path>
                <path d="M136.956522,130.521739 L120.434783,140.086957 C120.434783,140.086957 98.7826087,138.782609 107.043478,145.130435 C115.304348,151.478261 130.608696,148.956522 130.608696,148.956522 L145.217391,142 L136.956522,130.521739 Z" id="路径" fill="#FFE5CF"></path>
                <path d="M54.2608696,147.043478 C54.2608696,147.043478 38.9565217,174.608696 57.4782609,178.782609 C76,182.956522 126.869565,182.086957 138.26087,176.434783 C149.73913,170.782609 152.869565,163.391304 150.956522,161.043478 C149.043478,158.695652 136.347826,152.173913 127.391304,151.73913 C118.521739,151.217391 54.2608696,147.043478 54.2608696,147.043478 Z" id="路径" fill="#000000"></path>
                <path d="M126.347826,149.391304 C126.347826,149.391304 180.26087,129.913043 179.565217,153.391304 C178.869565,176.869565 145.217391,183.304348 145.217391,183.304348 L135.043478,184.608696 L79.0434783,186.521739 C79.0434783,186.521739 80.9565217,176.347826 76.5217391,175.043478 C76.5217391,175.043478 91.1304348,171.217391 91.826087,170.608696 C92.5217391,169.913043 128.695652,157.217391 131.304348,156.608696 C133.913043,156 141.478261,150.869565 147.217391,151.565217 C147.217391,151.565217 153.565217,146.521739 160.608696,147.73913 L140.869565,149.043478 L126.347826,149.391304 Z" id="路径" fill="#2F2E41"></path>
                <path d="M126.347826,149.391304 C126.347826,149.391304 180.26087,129.913043 179.565217,153.391304 C178.869565,176.869565 145.217391,183.304348 145.217391,183.304348 L135.043478,184.608696 L79.0434783,186.521739 C79.0434783,186.521739 80.9565217,176.347826 76.5217391,175.043478 C76.5217391,175.043478 91.1304348,171.217391 91.826087,170.608696 C92.5217391,169.913043 128.695652,157.217391 131.304348,156.608696 C133.913043,156 141.478261,150.869565 147.217391,151.565217 C147.217391,151.565217 153.565217,146.521739 160.608696,147.73913 L140.869565,149.043478 L126.347826,149.391304 Z" id="路径" fill="#000000"></path>
                <polygon id="路径" fill="#2F2E41" points="116.782609 152.521739 123.652174 168 165.043478 153.391304 168.173913 145.130435 157.391304 143.217391 135.565217 147.043478 126.173913 149.565217"></polygon>
                <polygon id="路径" fill="#000000" points="116.782609 152.521739 123.652174 168 165.043478 153.391304 168.173913 145.130435 157.391304 143.217391 135.565217 147.043478 126.173913 149.565217"></polygon>
                <path d="M28.7826087,164.869565 C28.7826087,164.869565 40.8695652,177.130435 54.8695652,180.173913 C68.8695652,183.217391 76.5217391,179.130435 76.5217391,179.130435 L72.0869565,164.869565 L70.173913,155.652174 L61.9130435,151.043478 L45.3913043,144.956522 L25.6521739,139.826087 C25.6521739,139.826087 17.3913043,138.782609 17.3913043,139.826087 C17.3913043,140.869565 25.0434783,156.173913 25.0434783,156.173913 L28.7826087,164.869565 Z" id="路径" fill="#000000"></path>
                <path d="M43.4782609,179.478261 C43.4782609,179.478261 46,197.913043 49.2173913,199.217391 C52.4347826,200.521739 61.9130435,197.913043 64.5217391,196.695652 C67.0434783,195.391304 75.7391304,189.565217 75.7391304,189.565217 C75.7391304,189.565217 45.3913043,178.173913 43.4782609,179.478261 Z" id="路径" fill="#FFFFFF"></path>
                <polygon id="路径" fill="#FFE5CF" points="101.391304 181.391304 113.478261 183.304348 112.173913 197.913043 95.3043478 193.826087"></polygon>
                <path d="M108.956522,185.391304 C108.956522,185.391304 103.304348,192.173913 109.043478,196 L112.869565,199.217391 C112.869565,199.217391 125.565217,201.73913 126.869565,203.043478 C128.173913,204.347826 133.217391,201.130435 133.217391,201.130435 C133.217391,201.130435 133.913043,182.086957 133.217391,180.782609 C132.521739,179.478261 124.956522,178.26087 124.26087,179.478261 C123.565217,180.782609 116,182.695652 111.565217,181.391304 L108.956522,185.391304 Z" id="路径" fill="#FFFFFF"></path>
                <path d="M58.0869565,151.478261 C58.0869565,151.478261 13.5652174,125.391304 6.60869565,134.956522 C-0.347826087,144.521739 -6.43478261,161.565217 13.9130435,171.73913 C18.9565217,174.26087 29.1304348,180.782609 37.826087,183.826087 C63.826087,192.956522 97.2173913,197.217391 97.2173913,197.217391 C97.2173913,197.217391 105.826087,184.434783 105.826087,180.608696 C105.826087,180.608696 72.0869565,165.304348 66.3478261,164.086957 C60.6086957,162.782609 37.7391304,148.173913 34.5217391,146.869565 C31.3043478,145.565217 26.8695652,141.826087 26.8695652,141.826087 L58.0869565,151.478261 Z" id="路径" fill="#000000"></path>
                <path d="M45.3913043,72.6086957 L42.8695652,74.5217391 C42.8695652,74.5217391 37.1304348,89.1304348 36.5217391,97.4782609 C35.826087,105.73913 28.2608696,131.217391 28.8695652,134.347826 C29.4782609,137.565217 30.173913,140.086957 33.9130435,143.304348 C33.9130435,143.304348 38.9565217,131.826087 47.9130435,133.73913 L58.6956522,94.2608696 L45.3913043,72.6086957 Z" id="路径" fill="#0066CC"></path>
                <path d="M134.434783,72.6086957 L139.478261,78.3478261 C139.478261,78.3478261 142.695652,86 142.695652,87.9130435 C142.695652,89.826087 149.043478,117.826087 149.652174,119.130435 C150.26087,120.434783 152.869565,136.347826 149.652174,140.086957 C146.434783,143.826087 140.695652,146.434783 140.695652,146.434783 C140.695652,146.434783 144.521739,133.043478 132.434783,132.434783 L133.73913,127.391304 L122.26087,89.2173913 L134.434783,72.6086957 Z" id="路径" fill="#0066CC"></path>
                <path d="M104.173913,27.4782609 C104.173913,27.4782609 114.086957,28.9565217 110.608696,12.5217391 C110.608696,12.5217391 108.086957,5.47826087 100.173913,2.17391304 C100.173913,2.17391304 83.3043478,-3.30434783 73.6521739,7.13043478 C72.173913,8.7826087 71.1304348,10.7826087 70.6956522,12.9565217 C69.9130435,16.8695652 70.2608696,23.3043478 78.7826087,26.2608696 C78.7826087,26.2608696 95.2173913,25.2173913 104.695652,32.7826087 C104.695652,32.7826087 105.826087,30.0869565 104.173913,27.4782609 Z" id="路径" fill="#000000"></path>
                <path d="M70.9565217,15.9130435 C70.9565217,15.9130435 69.1304348,27.3043478 70.2608696,32.7826087 L73.0434783,34 C73.0434783,34 74.8695652,21.5652174 76.6956522,19.9130435 L70.9565217,15.9130435 Z" id="路径" fill="#000000"></path>
                <path d="M106,26.173913 C106,26.173913 107.826087,30.0869565 107.565217,34 L109.478261,32.7826087 C109.478261,32.7826087 110.434783,26.2608696 109.478261,22.6956522 L106,26.173913 Z" id="路径" fill="#000000"></path>
                <path d="M106.956522,32.173913 C106.956522,32.173913 109.565217,29.3913043 110.956522,32.5217391 C110.956522,32.5217391 111.73913,37.4782609 105.391304,44.173913 L103.130435,45.6521739 L106.956522,32.173913 Z" id="路径" fill="#FFE5CF"></path>
                <path d="M73.3913043,31.826087 C73.3913043,31.826087 70.7826087,29.0434783 69.3913043,32.173913 C69.3913043,32.173913 68.6086957,37.1304348 74.9565217,43.826087 L77.2173913,45.3043478 L73.3913043,31.826087 Z" id="路径" fill="#FFE5CF"></path>
                <path d="M89.3913043,73.826087 C89.3913043,73.826087 88.6086957,67.4782609 87.9130435,63.3043478 C86.3478261,62 83.3043478,60.6956522 81.5652174,60.6086957 C79.2173913,60.4347826 77.826087,57.7391304 75.5652174,55.826087 C70.3478261,59.826087 71.3043478,60.5217391 64.8695652,63.3043478 C64.8695652,63.3043478 56.173913,62.2608696 53.5652174,64.8695652 C51.0434783,67.3913043 42.7826087,69.3043478 42.7826087,75.6521739 C42.7826087,82 54.7826087,108.173913 54.7826087,108.173913 C54.7826087,108.173913 64.4347826,126.521739 61.3043478,130.956522 C58.0869565,135.391304 57.4782609,146.869565 57.4782609,146.869565 C57.4782609,146.869565 89.3043478,144.347826 94.3478261,146.869565 C99.4782609,149.391304 119.826087,149.391304 121.043478,146.869565 C122.347826,144.347826 125.217391,125.130435 125.217391,125.130435 C125.217391,125.130435 128.347826,113.652174 127.130435,104.782609 L139.565217,78.173913 C139.565217,78.173913 133.826087,60.9565217 124.956522,60.9565217 C124.956522,60.9565217 114.173913,59.2173913 112.521739,58.8695652 C110.956522,58.5217391 106.26087,57.826087 101.391304,52.8695652 C99.9130435,56.4347826 93.1304348,65.4782609 89.3913043,73.826087 Z" id="路径" fill="#0978D3"></path>
                <path d="M46.6956522,116.434783 L46.6956522,150 C46.6956522,154.434783 50.2608696,158 54.6086957,158.086957 L124.695652,159.130435 C129.043478,159.217391 132.695652,155.73913 132.869565,151.391304 L134.173913,117.826087 C134.347826,113.391304 130.869565,109.652174 126.434783,109.478261 C126.347826,109.478261 126.26087,109.478261 126.26087,109.478261 L54.8695652,108.434783 C50.4347826,108.347826 46.7826087,111.913043 46.6956522,116.347826 C46.6956522,116.26087 46.6956522,116.347826 46.6956522,116.434783 Z" id="路径" fill="#3F3D56"></path>
                <circle id="椭圆形" fill="#F2F2F2" cx="89.5652174" cy="134" r="5.04347826"></circle>
            </g>
        </g>
    </g>
</svg>