<?xml version="1.0" encoding="UTF-8"?>
<svg width="400px" height="300px" viewBox="0 0 400 300" version="1.1" xmlns="http://www.w3.org/2000/svg" xmlns:xlink="http://www.w3.org/1999/xlink">
    <!-- Generator: Sketch 55.2 (78181) - https://sketchapp.com -->
    <title>5</title>
    <desc>Created with Sketch.</desc>
    <g id="5" stroke="none" stroke-width="1" fill="none" fill-rule="evenodd">
        <g id="编组" transform="translate(110.000000, 24.000000)" fill-rule="nonzero">
            <polygon id="矩形" fill="#0978D3" opacity="0.1" transform="translate(121.911638, 53.512217) rotate(-73.286488) translate(-121.911638, -53.512217) " points="84.2656262 6.64942393 159.557649 6.64942393 159.557649 100.375011 84.2656262 100.375011"></polygon>
            <g opacity="0.3" transform="translate(106.442308, 41.538462)" fill="#0066CC">
                <path d="M14.8846154,23.5384615 L7.00961538,30.0288462 L14.8846154,23.5384615 Z M24.8365385,31.9326923 L21.6346154,24.3173077 L24.8365385,31.9326923 Z M24.2307692,7.26923077 L21.2019231,16.875 L24.2307692,7.26923077 Z M7.09615385,7.26923077 L17.6538462,18.0865385 L7.09615385,7.26923077 Z" id="形状"></path>
                <path d="M29.5961538,20.9423077 L26.3076923,20.9423077 C26.3942308,20.5096154 26.3942308,20.0769231 26.3942308,19.6442308 C26.3942308,16.9615385 24.9230769,14.5384615 22.5865385,13.2403846 L23.8846154,8.91346154 C24.2307692,9 24.5769231,9 24.9230769,9 C26.1346154,9 27.2596154,8.48076923 28.0384615,7.70192308 C28.9038462,6.83653846 29.3365385,5.71153846 29.3365385,4.5 C29.3365385,2.07692308 27.3461538,0.0865384615 24.9230769,0.0865384615 C22.5,0.0865384615 20.5096154,2.07692308 20.5096154,4.5 C20.5096154,6.31730769 21.5480769,7.96153846 23.2788462,8.65384615 L21.9807692,12.8942308 C19.4711538,11.7692308 16.5288462,12.2884615 14.4519231,14.1923077 L8.04807692,7.61538462 C8.82692308,6.75 9.17307692,5.71153846 9.17307692,4.58653846 C9.17307692,3.375 8.74038462,2.25 7.96153846,1.38461538 C7.09615385,0.519230769 5.97115385,-1.42108547e-14 4.84615385,-1.42108547e-14 C2.42307692,-1.42108547e-14 0.432692308,2.07692308 0.432692308,4.5 C0.432692308,5.71153846 0.865384615,6.83653846 1.73076923,7.70192308 C2.59615385,8.56730769 3.72115385,9 4.84615385,9.08653846 C5.97115385,9.08653846 7.09615385,8.65384615 7.875,7.875 L7.61538462,8.13461538 L14.1923077,14.7980769 C11.8557692,17.3942308 11.6826923,21.2884615 13.7596154,24.1442308 L8.13461538,28.7307692 C7.35576923,27.6057692 6.05769231,27 4.67307692,27 C2.16346154,27 0.173076923,28.9903846 0.173076923,31.5 C0.173076923,34.0096154 2.16346154,36 4.67307692,36 C5.88461538,36 7.00961538,35.4807692 7.78846154,34.7019231 C8.65384615,33.8365385 9.08653846,32.7115385 9.08653846,31.5 C9.08653846,30.7211538 8.91346154,30.0288462 8.56730769,29.3365385 L14.2788462,24.6634615 C15.5769231,26.1346154 17.4807692,27 19.4711538,27 C20.5096154,27 21.4615385,26.7403846 22.4134615,26.3076923 L24.4038462,30.8942308 C23.0192308,31.6730769 22.1538462,33.2307692 22.1538462,34.7884615 C22.2403846,37.2115385 24.2307692,39.1153846 26.6538462,39.1153846 C29.0769231,39.1153846 30.9807692,37.125 30.9807692,34.7019231 C30.9807692,32.2788462 28.9903846,30.375 26.5673077,30.375 C26.0480769,30.375 25.4423077,30.4615385 25.0096154,30.6346154 L23.0192308,26.0480769 C24.6634615,25.0961538 25.875,23.4519231 26.3076923,21.6346154 L29.5961538,21.6346154 C29.1634615,23.9711538 30.7211538,26.3076923 33.0576923,26.8269231 C35.3942308,27.3461538 37.7307692,25.9615385 38.3365385,23.625 C38.9423077,21.2884615 37.6442308,18.8653846 35.3076923,18.1730769 C32.7980769,17.3942308 30.375,18.6057692 29.5961538,20.9423077 L29.5961538,20.9423077 L29.5961538,20.9423077 Z" id="路径"></path>
            </g>
            <path d="M62.8269231,175.846154 L78.9230769,170.826923 C78.0576923,164.163462 75.9807692,157.673077 72.9519231,151.701923 L56.8557692,156.721154 C60.5769231,162.432692 62.6538462,169.009615 62.8269231,175.846154 Z" id="路径" fill="#0066CC" opacity="0.3"></path>
            <circle id="椭圆形" fill="#000000" cx="24.2307692" cy="40.3269231" r="14.9711538"></circle>
            <polygon id="路径" fill="#FFE5CF" points="8.04807692 228.201923 5.19230769 240.403846 12.1153846 240.403846 14.9711538 226.557692"></polygon>
            <polygon id="路径" fill="#FFE5CF" points="41.4519231 228.201923 41.4519231 239.625 48.375 240.403846 48.375 228.201923"></polygon>
            <path d="M6.05769231,98.6538462 C6.05769231,98.6538462 6.83653846,116.134615 7.70192308,117.432692 C8.48076923,118.644231 15.8365385,136.211538 15.8365385,136.211538 L19.4711538,124.788462 C19.4711538,124.788462 13.7596154,115.442308 14.625,110.163462 C15.4038462,104.884615 14.8846154,98.3942308 14.8846154,98.3942308 L6.05769231,98.6538462 Z" id="路径" fill="#FFE5CF"></path>
            <path d="M29.25,33.4903846 C35.5673077,33.4903846 39.2019231,36 39.2019231,42.3173077 C39.2019231,45.4326923 39.0288462,53.1346154 36.9519231,55.125 C34.875,57.2019231 32.3653846,56.25 29.25,56.25 C22.9326923,56.25 17.8269231,51.1442308 17.8269231,44.8269231 C17.8269231,38.5096154 22.9326923,33.4903846 29.25,33.4903846 Z" id="路径" fill="#FFE5CF"></path>
            <path d="M19.9038462,46.125 C19.9038462,46.125 20.3365385,62.3942308 17.4807692,64.9038462 C14.625,67.3269231 33.75,65.3365385 33.75,65.3365385 C33.75,65.3365385 29.6826923,53.9134615 32.9711538,51.4903846 C36.2596154,49.0673077 19.9038462,46.125 19.9038462,46.125 Z" id="路径" fill="#FFE5CF"></path>
            <path d="M34.9615385,64.4711538 C34.9615385,64.4711538 32.5384615,59.9711538 29.25,60.4038462 C25.9615385,60.8365385 15.4038462,61.6153846 14.9711538,62.4807692 C14.5384615,63.2596154 13.3269231,66.1153846 12.5480769,66.9807692 C11.7692308,67.8461538 5.625,69.0576923 5.19230769,73.9038462 C4.84615385,78.1442308 16.0961538,100.990385 19.125,107.048077 C19.6442308,108 19.8173077,109.125 19.7307692,110.163462 C19.4711538,112.326923 19.125,116.134615 18.8653846,117.259615 C18.5192308,119.423077 18,122.105769 17.3942308,124.269231 C16.7884615,126.259615 13.2403846,134.394231 14.0192308,154.125 L13.7596154,181.471154 C13.7596154,181.471154 5.79807692,220.5 7.875,227.25 C9.25961538,231.663462 13.7596154,230.278846 15.8365385,229.067308 C17.9134615,227.855769 32.9711538,166.326923 32.9711538,166.326923 L37.0384615,145.557692 L37.4711538,191.163462 C37.4711538,191.163462 38.8557692,224.826923 41.4519231,229.846154 C42.8365385,232.615385 48.4615385,232.269231 49.3269231,229.846154 C49.9326923,227.942308 51.5769231,195.75 59.2788462,154.990385 C59.7115385,147.288462 59.1057692,139.586538 57.4615385,132.144231 C55.7307692,124.442308 53.3076923,115.442308 50.5384615,111.721154 C45.2596154,104.798077 41.9711538,82.8173077 41.9711538,82.8173077 L48.8942308,70.1826923 C48.8942308,70.1826923 44.8269231,66.1153846 42.4038462,66.1153846 C39.9807692,66.1153846 34.9615385,64.4711538 34.9615385,64.4711538 Z" id="路径" fill="#0066CC"></path>
            <path d="M7.70192308,70.9615385 L5.53846154,72.4326923 C5.53846154,72.4326923 3.98076923,98.6538462 5.27884615,100.298077 C6.49038462,101.942308 14.9711538,101.163462 15.6634615,99.6923077 C16.3557692,98.2211538 7.70192308,70.9615385 7.70192308,70.9615385 Z" id="路径" fill="#0066CC"></path>
            <path d="M41.1057692,95.4519231 C41.1057692,95.4519231 41.5384615,112.586538 43.9615385,117.432692 C46.3846154,122.278846 55.3846154,142.701923 55.3846154,142.701923 C55.3846154,142.701923 54.8653846,165.115385 59.3653846,159.576923 C63.8653846,154.038462 61.0096154,141.057692 61.0096154,141.057692 L53.3076923,110.942308 C53.3076923,110.942308 49.2403846,97.5288462 49.6730769,93.4615385 C50.0192308,89.3076923 41.1057692,95.4519231 41.1057692,95.4519231 Z" id="路径" fill="#FFE5CF"></path>
            <path d="M48.375,233.048077 C48.375,233.048077 48.8076923,232.701923 50.0192308,233.913462 C51.2307692,235.125 54.5192308,236.769231 54.0865385,241.269231 C53.6538462,245.769231 51.2307692,246.548077 51.2307692,246.548077 L51.2307692,245.336538 L50.0192308,245.336538 L50.0192308,247.413462 C50.0192308,247.413462 47.9423077,253.903846 38.5961538,249.836538 C38.5961538,249.836538 38.1634615,246.548077 38.5961538,244.557692 C39.0288462,242.480769 39.0288462,232.701923 40.2403846,233.134615 C41.4519231,233.567308 44.7403846,233.913462 45.5192308,235.557692 C46.2980769,237.201923 48.8076923,236.596154 48.375,233.048077 Z" id="路径" fill="#000000"></path>
            <path d="M6.49038462,233.394231 C6.49038462,233.394231 6.05769231,233.048077 4.84615385,234.259615 C3.63461538,235.471154 0.346153846,237.115385 0.778846154,241.615385 C1.21153846,246.115385 3.63461538,246.894231 3.63461538,246.894231 L3.63461538,245.682692 L4.84615385,245.682692 L4.84615385,247.759615 C4.84615385,247.759615 6.92307692,254.25 16.2692308,250.182692 C16.2692308,250.182692 16.7019231,246.894231 16.2692308,244.903846 C15.8365385,242.826923 15.8365385,233.048077 14.625,233.480769 C13.4134615,233.913462 10.125,234.259615 9.34615385,235.903846 C8.56730769,237.548077 6.05769231,237.028846 6.49038462,233.394231 Z" id="路径" fill="#000000"></path>
            <path d="M43.0961538,68.9711538 L48.8076923,70.1826923 C48.8076923,70.1826923 48.8076923,79.1826923 50.4519231,82.8173077 C52.0961538,86.4519231 54.9519231,95.0192308 53.7403846,95.4519231 C52.5288462,95.8846154 41.1057692,101.596154 40.3269231,98.3076923 C39.4615385,95.0192308 37.3846154,68.9711538 43.0961538,68.9711538 Z" id="路径" fill="#0066CC"></path>
            <circle id="椭圆形" fill="#000000" cx="11.7692308" cy="26.0480769" r="6.83653846"></circle>
            <path d="M5.88461538,31.6730769 C9,33.9230769 13.2403846,33.2307692 15.4903846,30.1153846 C15.9230769,29.5096154 16.2692308,28.8173077 16.5288462,28.0384615 C16.0961538,31.8461538 12.6346154,34.4423077 8.82692308,34.0096154 C5.01923077,33.5769231 2.42307692,30.1153846 2.85576923,26.3076923 C2.94230769,25.9615385 2.94230769,25.5288462 3.11538462,25.1826923 C2.76923077,27.7788462 3.80769231,30.2019231 5.88461538,31.6730769 Z" id="路径" fill="#000000"></path>
            <circle id="椭圆形" fill="#000000" cx="20.25" cy="42.8365385" r="10.9903846"></circle>
            <ellipse id="椭圆形" fill="#000000" cx="29.5096154" cy="38.7692308" rx="9.77884615" ry="7.61538462"></ellipse>
            <ellipse id="椭圆形" fill="#FFE5CF" cx="32.1057692" cy="46.5576923" rx="1.81730769" ry="3.28846154"></ellipse>
            <rect id="矩形" fill="#0978D3" opacity="0.1" x="81.3461538" y="0.173076923" width="31.9326923" height="39.6346154"></rect>
            <rect id="矩形" fill="#0978D3" opacity="0.1" x="147.894231" y="37.9038462" width="31.9326923" height="39.6346154"></rect>
            <g opacity="0.3" transform="translate(152.307692, 45.865385)" fill="#0066CC" id="矩形">
                <rect x="0.0865384615" y="0.519230769" width="22.8461538" height="1.03846154"></rect>
                <rect x="0.0865384615" y="4.15384615" width="22.8461538" height="1.03846154"></rect>
                <rect x="0.0865384615" y="7.875" width="22.8461538" height="1.03846154"></rect>
                <rect x="0.0865384615" y="11.5961538" width="22.8461538" height="1.03846154"></rect>
                <rect x="0.0865384615" y="15.2307692" width="22.8461538" height="1.03846154"></rect>
                <rect x="5.53846154" y="19.125" width="11.9423077" height="4.24038462"></rect>
            </g>
            <rect id="矩形" fill="#0978D3" opacity="0.1" x="84.1153846" y="78.6634615" width="31.9326923" height="39.6346154"></rect>
            <rect id="矩形" fill="#0066CC" opacity="0.3" x="88.7884615" y="100.730769" width="22.8461538" height="1.03846154"></rect>
            <rect id="矩形" fill="#0066CC" opacity="0.3" x="88.7884615" y="104.451923" width="22.8461538" height="1.03846154"></rect>
            <rect id="矩形" fill="#0066CC" opacity="0.3" x="88.7884615" y="108.086538" width="22.8461538" height="1.03846154"></rect>
            <rect id="矩形" fill="#0066CC" opacity="0.3" x="88.7884615" y="111.807692" width="22.8461538" height="1.03846154"></rect>
            <path d="M95.7115385,92.7692308 L88.4423077,92.7692308 C87.9230769,89.9134615 87.9230769,86.9711538 88.4423077,84.1153846 L95.7115385,84.1153846 C94.9326923,86.9711538 94.9326923,89.9134615 95.7115385,92.7692308 Z" id="路径" fill="#0066CC" opacity="0.3"></path>
            <rect id="矩形" fill="#0066CC" opacity="0.3" x="98.7403846" y="84.8942308" width="13.3269231" height="1"></rect>
            <rect id="矩形" fill="#0066CC" opacity="0.3" x="98.7403846" y="88.0961538" width="13.3269231" height="1"></rect>
            <rect id="矩形" fill="#0066CC" opacity="0.3" x="98.7403846" y="91.2115385" width="13.3269231" height="1"></rect>
            <rect id="矩形" fill="#0066CC" opacity="0.3" x="98.7403846" y="94.4134615" width="13.3269231" height="1"></rect>
            <g opacity="0.3" transform="translate(84.807692, 4.326923)" fill="#0066CC" id="形状">
                <path d="M15.1442308,27.7788462 L23.2788462,27.7788462 C23.8846154,27.7788462 24.3173077,28.2115385 24.3173077,28.7307692 C24.3173077,29.25 23.8846154,29.6826923 23.2788462,29.6826923 L15.1442308,29.6826923 C15.3173077,29.4230769 15.4038462,29.0769231 15.4038462,28.7307692 C15.4038462,28.3846154 15.3173077,28.125 15.1442308,27.7788462 L15.1442308,27.7788462 Z M12.2884615,26.3942308 C13.5865385,26.3942308 14.625,27.4326923 14.625,28.7307692 C14.625,30.0288462 13.5865385,31.0673077 12.2884615,31.0673077 C10.9903846,31.0673077 9.95192308,30.0288462 9.95192308,28.7307692 C9.95192308,27.4326923 10.9903846,26.3942308 12.2884615,26.3942308 Z M11.3365385,25.9615385 L13.2403846,25.9615385 L13.2403846,24.0576923 L11.3365385,24.0576923 L11.3365385,25.9615385 Z M1.21153846,27.7788462 L9.51923077,27.7788462 C9.34615385,28.0384615 9.25961538,28.3846154 9.25961538,28.7307692 C9.25961538,29.0769231 9.34615385,29.4230769 9.51923077,29.6826923 L1.21153846,29.6826923 C0.605769231,29.6826923 0.173076923,29.25 0.173076923,28.7307692 C0.173076923,28.2115385 0.605769231,27.7788462 1.21153846,27.7788462 Z M19.7307692,4.5 L21.6346154,4.5 L21.6346154,2.59615385 L19.7307692,2.59615385 L19.7307692,4.5 Z M17.3942308,2.59615385 C16.875,2.59615385 16.4423077,3.02884615 16.4423077,3.54807692 C16.4423077,4.06730769 16.875,4.5 17.3942308,4.5 C17.9134615,4.5 18.3461538,4.06730769 18.3461538,3.54807692 C18.3461538,3.02884615 17.9134615,2.59615385 17.3942308,2.59615385 Z M14.1923077,2.59615385 C13.6730769,2.59615385 13.2403846,3.02884615 13.2403846,3.54807692 C13.2403846,4.06730769 13.6730769,4.5 14.1923077,4.5 C14.7115385,4.5 15.1442308,4.06730769 15.1442308,3.54807692 C15.1442308,3.02884615 14.625,2.59615385 14.1923077,2.59615385 Z M23.0192308,6.83653846 L1.55769231,6.83653846 C0.778846154,6.83653846 0.173076923,6.23076923 0.173076923,5.36538462 L0.173076923,1.81730769 C0.173076923,1.03846154 0.778846154,0.346153846 1.55769231,0.346153846 L23.0192308,0.346153846 C23.7980769,0.346153846 24.4038462,0.951923077 24.4038462,1.81730769 L24.4038462,5.45192308 C24.4038462,6.23076923 23.7980769,6.83653846 23.0192308,6.83653846 Z M19.7307692,12.8942308 L21.6346154,12.8942308 L21.6346154,10.9903846 L19.7307692,10.9903846 C19.7307692,10.9903846 19.7307692,12.8942308 19.7307692,12.8942308 Z M17.3942308,10.9903846 C16.875,10.9903846 16.4423077,11.4230769 16.4423077,11.9423077 C16.4423077,12.4615385 16.875,12.8942308 17.3942308,12.8942308 C17.9134615,12.8942308 18.3461538,12.4615385 18.3461538,11.9423077 C18.3461538,11.5096154 17.9134615,10.9903846 17.3942308,10.9903846 Z M14.1923077,10.9903846 C13.6730769,10.9903846 13.2403846,11.4230769 13.2403846,11.9423077 C13.2403846,12.4615385 13.6730769,12.8942308 14.1923077,12.8942308 C14.7115385,12.8942308 15.1442308,12.4615385 15.1442308,11.9423077 C15.1442308,11.5096154 14.625,10.9903846 14.1923077,10.9903846 Z M23.0192308,15.2307692 L1.55769231,15.2307692 C0.778846154,15.2307692 0.173076923,14.625 0.173076923,13.7596154 L0.173076923,10.125 C0.173076923,9.34615385 0.778846154,8.65384615 1.55769231,8.65384615 L23.0192308,8.65384615 C23.7980769,8.65384615 24.4038462,9.25961538 24.4038462,10.125 L24.4038462,13.7596154 C24.4038462,14.625 23.7980769,15.2307692 23.0192308,15.2307692 Z M19.7307692,21.2884615 L21.6346154,21.2884615 L21.6346154,19.3846154 L19.7307692,19.3846154 L19.7307692,21.2884615 Z M17.3942308,19.3846154 C16.875,19.3846154 16.4423077,19.8173077 16.4423077,20.3365385 C16.4423077,20.8557692 16.875,21.2884615 17.3942308,21.2884615 C17.9134615,21.2884615 18.3461538,20.8557692 18.3461538,20.3365385 C18.3461538,19.8173077 17.9134615,19.3846154 17.3942308,19.3846154 Z M14.1923077,19.3846154 C13.6730769,19.3846154 13.2403846,19.8173077 13.2403846,20.3365385 C13.2403846,20.8557692 13.6730769,21.2884615 14.1923077,21.2884615 C14.7115385,21.2884615 15.1442308,20.8557692 15.1442308,20.3365385 C15.1442308,19.8173077 14.625,19.3846154 14.1923077,19.3846154 Z M23.0192308,23.625 L1.55769231,23.625 C0.778846154,23.625 0.173076923,23.0192308 0.173076923,22.1538462 L0.173076923,18.5192308 C0.173076923,17.7403846 0.778846154,17.0480769 1.55769231,17.0480769 L23.0192308,17.0480769 C23.7980769,17.0480769 24.4038462,17.6538462 24.4038462,18.5192308 L24.4038462,22.1538462 C24.4038462,22.9326923 23.7980769,23.625 23.0192308,23.625 Z"></path>
            </g>
        </g>
    </g>
</svg>