<?xml version="1.0" encoding="UTF-8"?>
<svg width="400px" height="300px" viewBox="0 0 400 300" version="1.1" xmlns="http://www.w3.org/2000/svg" xmlns:xlink="http://www.w3.org/1999/xlink">
    <!-- Generator: Sketch 55.2 (78181) - https://sketchapp.com -->
    <title>6</title>
    <desc>Created with Sketch.</desc>
    <g id="6" stroke="none" stroke-width="1" fill="none" fill-rule="evenodd">
        <g id="编组" transform="translate(125.000000, 16.000000)" fill-rule="nonzero">
            <path d="M63.245614,70.3508772 C63.245614,70.3508772 81.3157895,70.877193 84.2982456,71.9298246 C87.2807018,72.9824561 88.5964912,80.7894737 88.5964912,80.7894737 L74.5614035,85.1754386 L64.0350877,84.5614035 L56.1403509,85.0877193 L60.5263158,73.5087719 L63.245614,70.3508772 Z" id="路径" fill="#0066CC"></path>
            <path d="M64.0350877,64.3859649 C64.0350877,64.3859649 65.2631579,69.0350877 62.5438596,72.1929825 C59.9122807,75.4385965 73.8596491,87.0175439 73.8596491,87.0175439 L81.2280702,85.7017544 C81.2280702,85.7017544 79.6491228,71.5789474 81.754386,68.0701754 C84.0350877,64.5614035 64.0350877,64.3859649 64.0350877,64.3859649 Z" id="路径" fill="#FFE5CF"></path>
            <path d="M64.0350877,64.2982456 C64.0350877,64.2982456 65.2631579,68.9473684 62.5438596,72.1052632 C59.9122807,75.3508772 73.8596491,86.9298246 73.8596491,86.9298246 L81.2280702,85.6140351 C81.2280702,85.6140351 79.6491228,71.4912281 81.754386,67.9824561 C84.0350877,64.4736842 64.0350877,64.2982456 64.0350877,64.2982456 Z" id="路径" fill="#000000" opacity="0.1"></path>
            <polygon id="路径" fill="#FFE5CF" points="113.070175 198.596491 96.8421053 220.175439 107.894737 226.666667 123.245614 201.666667"></polygon>
            <path d="M101.666667,220.526316 C101.666667,220.526316 95.7017544,213.596491 95.9649123,215.087719 C96.2280702,216.666667 91.6666667,229.824561 95.9649123,231.052632 C100.175439,232.368421 136.315789,235.701754 136.842105,231.578947 C137.368421,227.45614 126.052632,224.649123 126.052632,224.649123 C126.052632,224.649123 119.385965,218.245614 117.894737,218.859649 C116.315789,219.561404 101.666667,220.526316 101.666667,220.526316 Z" id="路径" fill="#000000"></path>
            <polygon id="路径" fill="#FFE5CF" points="109.385965 219.210526 122.45614 241.403509 132.280702 235.701754 119.122807 217.54386"></polygon>
            <path d="M129.912281,166.578947 L126.052632,172.017544 C126.052632,172.017544 107.631579,197.54386 109.649123,199.649123 C111.578947,201.666667 119.736842,209.473684 123.859649,207.982456 C127.982456,206.491228 142.631579,180.350877 142.631579,180.350877 L138.77193,165 L129.912281,166.578947 Z" id="路径" fill="#000000"></path>
            <path d="M50.7894737,161.403509 C50.7894737,161.403509 54.9122807,169.122807 65.3508772,171.666667 C75.7894737,174.298246 86.6666667,179.561404 87.1052632,179.473684 C87.4561404,179.385965 88.5964912,178.859649 88.8596491,180.350877 C89.122807,181.929825 92.0175439,184.649123 92.0175439,184.649123 C92.0175439,184.649123 103.508772,223.77193 107.894737,223.859649 C112.280702,223.859649 121.315789,220.789474 121.578947,219.473684 C121.754386,218.245614 108.070175,178.245614 107.982456,177.45614 L106.403509,168.157895 C106.403509,168.157895 124.473684,171.052632 126.140351,171.578947 C127.807018,172.105263 142.807018,180.263158 142.807018,180.263158 C142.807018,180.263158 158.070175,169.298246 143.77193,158.157895 C129.473684,147.017544 104.912281,138.859649 104.912281,138.859649 L96.0526316,136.403509 L88.3333333,135.964912 L87.1929825,131.578947 L68.9473684,132.631579 L50,140.701754 L50.7894737,161.403509 Z" id="路径" fill="#000000"></path>
            <path d="M74.8245614,43.5087719 C82.6315789,43.5087719 87.9824561,49.2982456 86.754386,57.0175439 C86.3157895,59.4736842 85.5263158,63.9473684 84.9122807,65.877193 C83.4210526,70.6140351 80.2631579,74.4736842 76.6666667,74.4736842 C70.6140351,74.4736842 64.3859649,65.3508772 63.245614,57.6315789 C61.4035088,45.6140351 67.0175439,43.5087719 74.8245614,43.5087719 Z" id="路径" fill="#FFE5CF"></path>
            <path d="M61.9298246,70.7894737 L63.5964912,70.5263158 C63.5964912,70.5263158 66.6666667,82.3684211 76.2280702,84.3859649 C76.2280702,84.3859649 80.877193,78.7719298 80.7017544,77.8070175 C80.5263158,76.8421053 84.3859649,71.754386 86.4912281,74.6491228 C88.5964912,77.5438596 85.9649123,127.45614 87.7192982,128.333333 C89.4736842,129.210526 93.245614,130.175439 90.1754386,133.508772 C87.1052632,136.842105 75.0877193,141.315789 72.4561404,139.736842 C69.8245614,138.157895 64.3859649,125.175439 62.0175439,120.789474 C59.6491228,116.403509 55.877193,101.491228 55.877193,101.491228 C55.877193,101.491228 51.0526316,85.1754386 54.0350877,81.4035088 C57.1052632,77.6315789 61.9298246,70.7894737 61.9298246,70.7894737 Z" id="路径" fill="#FFFFFF"></path>
            <path d="M75.5263158,132.280702 C75.2631579,135.789474 74.6491228,139.210526 73.9473684,142.631579 C73.245614,145.438596 72.4561404,147.105263 71.4912281,147.017544 C69.122807,146.842105 68.0701754,150.263158 67.5438596,154.298246 C66.9298246,158.508772 66.9298246,163.333333 66.6666667,165.087719 C66.2280702,167.368421 63.5087719,169.035088 57.9824561,168.508772 C54.7368421,168.157895 51.4912281,167.368421 48.5087719,166.140351 C41.1403509,163.421053 41.3157895,141.578947 42.5438596,125.438596 C43.3333333,115.526316 44.3859649,107.719298 44.3859649,107.719298 C44.3859649,107.719298 42.1052632,101.052632 41.4035088,96.4035088 C41.3157895,95.5263158 41.2280702,94.7368421 41.2280702,93.8596491 C41.3157895,89.8245614 48.6842105,79.0350877 53.0701754,72.1929825 C57.5438596,65.4385965 63.5964912,70.4385965 63.5964912,70.4385965 L61.4912281,76.754386 C61.4912281,76.754386 64.7368421,81.754386 64.7368421,86.5789474 C64.7368421,91.3157895 72.5438596,94.8245614 75.3508772,97.1929825 C77.0175439,98.6842105 77.0175439,118.157895 75.5263158,132.280702 Z" id="路径" fill="#0066CC"></path>
            <path d="M81.6666667,72.8070175 C81.6666667,72.8070175 82.1929825,73.4210526 84.5614035,73.0701754 C87.3684211,72.7192982 91.2280702,73.6842105 92.1052632,76.3157895 C93.7719298,81.2280702 98.3333333,101.22807 98.3333333,101.22807 C98.3333333,101.22807 100.263158,124.035088 101.140351,129.122807 C102.017544,134.210526 101.578947,138.596491 102.45614,141.315789 C103.333333,143.947368 94.0350877,136.403509 90.6140351,137.368421 C87.1929825,138.333333 85,125.526316 85.4385965,121.052632 C85.877193,116.578947 86.2280702,111.754386 85.0877193,107.105263 C83.8596491,102.54386 86.0526316,90.3508772 85.9649123,87.5438596 C85.7894737,84.8245614 78.245614,77.8070175 81.6666667,72.8070175 Z" id="路径" fill="#0066CC"></path>
            <path d="M91.6666667,143.77193 C91.6666667,143.77193 106.666667,151.929825 108.157895,163.596491 C109.649123,175.263158 88.0701754,152.280702 88.0701754,152.280702 L91.6666667,143.77193 Z" id="路径" fill="#FFE5CF"></path>
            <path d="M100.263158,135.526316 C100.263158,135.526316 104.912281,158.684211 112.017544,157.45614 C119.210526,156.22807 107.982456,134.122807 107.982456,134.122807 L100.263158,135.526316 Z" id="路径" fill="#FFE5CF"></path>
            <path d="M124.824561,236.578947 C124.824561,236.578947 121.140351,240.789474 120.263158,240.175439 C119.385965,239.561404 117.280702,248.245614 119.122807,249.912281 C120.964912,251.578947 128.333333,254.385965 128.333333,257.105263 C128.333333,259.824561 147.894737,259.298246 148.596491,256.403509 C149.298246,253.508772 146.140351,246.842105 143.947368,245.614035 C141.754386,244.385965 133.596491,233.157895 133.596491,233.157895 C133.596491,233.157895 127.192982,234.122807 124.824561,236.578947 Z" id="路径" fill="#000000"></path>
            <path d="M89.2982456,157.894737 C85.7894737,155.438596 76.1403509,154.824561 67.4561404,154.298246 C63.6842105,154.035088 60.0877193,153.859649 57.3684211,153.421053 C54.7368421,153.070175 52.3684211,150.614035 50.2631579,147.017544 C47.1052632,141.578947 44.4736842,133.333333 42.4561404,125.438596 C43.245614,115.526316 44.2982456,107.719298 44.2982456,107.719298 C44.2982456,107.719298 42.0175439,101.052632 41.3157895,96.4035088 C41.8421053,95.7017544 42.4561404,95.0877193 43.245614,94.7368421 C52.4561404,90.7894737 61.1403509,129.473684 62.1929825,135.526316 C62.1929825,135.614035 62.1929825,135.701754 62.1929825,135.789474 C62.7192982,138.859649 68.5087719,141.578947 73.7719298,142.631579 C76.9298246,143.245614 80,143.333333 81.3157895,142.45614 C84.9122807,140.263158 96.0526316,149.122807 96.8421053,149.385965 C97.8947368,149.649123 94.2982456,161.491228 89.2982456,157.894737 Z" id="路径" fill="#000000" opacity="0.1"></path>
            <path d="M43.245614,92.3684211 C43.245614,92.3684211 36.5789474,95.5263158 39.5614035,110.175439 C42.5438596,124.824561 48.4210526,149.824561 57.3684211,151.052632 C66.4035088,152.280702 84.2982456,152.017544 89.2982456,155.526316 C94.2982456,159.035088 97.8947368,147.280702 97.0175439,147.017544 C96.1403509,146.754386 85.0877193,137.894737 81.4912281,140.087719 C77.8947368,142.280702 63.245614,138.421053 62.3684211,133.421053 C61.4912281,128.333333 52.6315789,88.3333333 43.245614,92.3684211 Z" id="路径" fill="#0066CC"></path>
            <path d="M91.2280702,85.3508772 L98.5087719,102.368421 C98.5087719,102.368421 99.2105263,102.017544 100.087719,104.649123 C100.964912,107.368421 101.315789,109.649123 102.894737,111.403509 C104.385965,113.157895 111.052632,137.982456 111.22807,139.122807 C111.403509,140.263158 102.017544,144.298246 99.9122807,141.052632 C97.8070175,137.719298 91.2280702,85.3508772 91.2280702,85.3508772 Z" id="路径" fill="#0066CC"></path>
            <g opacity="0.4" transform="translate(108.771930, 5.263158)" fill="#0978D3">
                <path d="M16.4912281,4.12280702 L16.4912281,4.12280702 C16.4912281,4.12280702 16.4912281,4.03508772 16.4912281,4.03508772 C15.7894737,3.94736842 15.0877193,3.85964912 14.4736842,3.68421053 C14.2982456,3.59649123 14.0350877,3.59649123 13.8596491,3.50877193 C13.245614,3.33333333 12.7192982,3.07017544 12.1929825,2.80701754 L12.1929825,2.80701754 C12.0175439,2.71929825 11.8421053,2.63157895 11.754386,2.54385965 C11.5789474,2.45614035 11.3157895,2.28070175 11.1403509,2.19298246 L11.1403509,2.19298246 C10.9649123,2.10526316 10.877193,2.01754386 10.7017544,1.92982456 C10.6140351,1.84210526 10.5263158,1.75438596 10.4385965,1.75438596 L10.1754386,1.57894737 C9.64912281,1.14035088 9.12280702,0.701754386 8.59649123,0.263157895 C8.07017544,0.701754386 7.54385965,1.22807018 7.01754386,1.57894737 C6.92982456,1.66666667 6.84210526,1.66666667 6.75438596,1.75438596 C6.66666667,1.84210526 6.57894737,1.92982456 6.49122807,1.92982456 C6.31578947,2.01754386 6.22807018,2.10526316 6.05263158,2.19298246 L6.05263158,2.19298246 C5.87719298,2.36842105 5.61403509,2.45614035 5.43859649,2.54385965 C5.26315789,2.63157895 5.0877193,2.71929825 5,2.80701754 L5,2.80701754 C4.47368421,3.07017544 3.94736842,3.33333333 3.33333333,3.50877193 C3.15789474,3.59649123 2.89473684,3.68421053 2.71929825,3.68421053 C2.10526316,3.85964912 1.40350877,4.03508772 0.701754386,4.03508772 L0.701754386,4.03508772 L0.701754386,4.12280702 L0.701754386,4.12280702 C0.701754386,4.47368421 0.701754386,4.8245614 0.789473684,5.26315789 L0.789473684,5.26315789 C0.877192982,6.92982456 1.22807018,9.38596491 1.75438596,10.7894737 C1.75438596,10.877193 1.75438596,10.877193 1.84210526,10.9649123 C1.84210526,10.9649123 1.84210526,11.0526316 1.84210526,11.0526316 C2.19298246,11.9298246 2.63157895,12.8070175 3.15789474,13.5964912 C4.38596491,15.4385965 5.96491228,16.8421053 7.80701754,17.3684211 L7.80701754,17.3684211 C8.15789474,17.4561404 8.42105263,17.5438596 8.68421053,17.6315789 C8.94736842,17.6315789 9.21052632,17.5438596 9.56140351,17.3684211 L9.56140351,17.3684211 C11.4035088,16.754386 12.9824561,15.4385965 14.2105263,13.5964912 C14.7368421,12.8070175 15.1754386,11.9298246 15.5263158,11.0526316 C15.5263158,11.0526316 15.5263158,10.9649123 15.5263158,10.9649123 C15.5263158,10.877193 15.5263158,10.877193 15.6140351,10.7894737 C16.1403509,9.38596491 16.4912281,7.01754386 16.5789474,5.26315789 L16.5789474,5.26315789 C16.4912281,4.8245614 16.4912281,4.38596491 16.4912281,4.12280702 L16.4912281,4.12280702 Z M15.5263158,5 C15.5263158,5 15.5263158,5.0877193 15.5263158,5.0877193 C15.4385965,6.66666667 15.0877193,9.03508772 14.5614035,10.4385965 C14.5614035,10.4385965 14.5614035,10.5263158 14.5614035,10.5263158 C14.2105263,11.4912281 13.6842105,12.4561404 13.1578947,13.3333333 C12.0175439,14.9122807 10.7017544,15.9649123 9.12280702,16.4912281 C9.12280702,16.4912281 9.03508772,16.4912281 9.03508772,16.4912281 C8.85964912,16.5789474 8.68421053,16.5789474 8.59649123,16.5789474 C8.42105263,16.5789474 8.33333333,16.4912281 8.15789474,16.4912281 C8.15789474,16.4912281 8.07017544,16.4912281 8.07017544,16.4035088 C6.49122807,15.877193 5.1754386,14.8245614 4.03508772,13.245614 C3.50877193,12.4561404 2.98245614,11.5789474 2.63157895,10.6140351 L2.63157895,10.5263158 C2.63157895,10.5263158 2.63157895,10.4385965 2.63157895,10.4385965 L2.63157895,10.3508772 C2.10526316,8.94736842 1.84210526,6.57894737 1.66666667,5 C1.66666667,4.9122807 1.66666667,4.9122807 1.66666667,4.9122807 L1.66666667,4.73684211 C2.10526316,4.64912281 2.63157895,4.56140351 3.07017544,4.38596491 C3.24561404,4.29824561 3.50877193,4.29824561 3.68421053,4.21052632 C4.21052632,4.03508772 4.8245614,3.77192982 5.43859649,3.42105263 C5.43859649,3.42105263 5.43859649,3.42105263 5.43859649,3.42105263 C5.61403509,3.33333333 5.78947368,3.24561404 5.96491228,3.15789474 C6.22807018,3.07017544 6.40350877,2.89473684 6.66666667,2.71929825 L6.66666667,2.71929825 C6.92982456,2.54385965 7.19298246,2.36842105 7.36842105,2.19298246 L7.45614035,2.19298246 L7.54385965,2.10526316 L7.71929825,2.01754386 C8.07017544,1.75438596 8.42105263,1.49122807 8.77192982,1.22807018 C9.12280702,1.49122807 9.47368421,1.75438596 9.8245614,2.01754386 C9.9122807,2.01754386 9.9122807,2.10526316 10,2.10526316 L10.0877193,2.19298246 L10.0877193,2.19298246 C10.1754386,2.28070175 10.2631579,2.36842105 10.3508772,2.36842105 C10.5263158,2.45614035 10.7017544,2.54385965 10.7894737,2.71929825 L10.7894737,2.71929825 C11.1403509,2.98245614 11.5789474,3.15789474 11.9298246,3.42105263 L11.9298246,3.42105263 C12.6315789,3.77192982 13.245614,4.03508772 13.6842105,4.21052632 C13.8596491,4.29824561 14.122807,4.38596491 14.2982456,4.38596491 C14.7368421,4.56140351 15.1754386,4.64912281 15.7017544,4.73684211 L15.5263158,5 L15.5263158,5 Z" id="形状"></path>
                <path d="M12.4561404,6.84210526 L7.80701754,11.5789474 L5.43859649,9.12280702 C5.26315789,8.94736842 5,8.94736842 4.8245614,9.12280702 C4.8245614,9.12280702 4.8245614,9.12280702 4.8245614,9.12280702 C4.64912281,9.29824561 4.64912281,9.56140351 4.8245614,9.73684211 L7.45614035,12.4561404 C7.63157895,12.6315789 7.89473684,12.6315789 8.07017544,12.4561404 C8.07017544,12.4561404 8.07017544,12.4561404 8.07017544,12.4561404 L12.9824561,7.45614035 C13.1578947,7.28070175 13.1578947,7.01754386 12.9824561,6.84210526 C12.8070175,6.66666667 12.5438596,6.66666667 12.4561404,6.84210526 C12.4561404,6.75438596 12.4561404,6.84210526 12.4561404,6.84210526 L12.4561404,6.84210526 Z" id="路径"></path>
            </g>
            <path d="M79.4736842,13.9473684 L79.4736842,13.7719298 L79.4736842,13.5964912 C79.2982456,11.5789474 77.1929825,10 74.7368421,10 C72.2807018,10 70.2631579,11.5789474 70,13.5087719 L70,13.9473684 C70,14.7368421 70.6140351,15.3508772 71.4035088,15.3508772 L77.8947368,15.3508772 C78.7719298,15.4385965 79.4736842,14.7368421 79.4736842,13.9473684 Z M74.7368421,19.3859649 C69.5614035,19.3859649 65.3508772,15.1754386 65.3508772,10 C65.3508772,4.8245614 69.5614035,0.614035088 74.7368421,0.614035088 C79.9122807,0.614035088 84.122807,4.8245614 84.122807,10 C84.122807,15.1754386 79.9122807,19.3859649 74.7368421,19.3859649 Z M74.7368421,9.21052632 C76.4912281,9.21052632 77.8070175,7.80701754 77.8070175,6.14035088 C77.8070175,4.47368421 76.4035088,2.98245614 74.7368421,2.98245614 C72.9824561,2.98245614 71.6666667,4.38596491 71.6666667,6.14035088 C71.6666667,7.89473684 72.9824561,9.21052632 74.7368421,9.21052632 Z" id="形状" fill="#0978D3" opacity="0.4"></path>
            <g opacity="0.4" transform="translate(19.298246, 4.385965)" fill="#0978D3" id="形状">
                <path d="M4.56140351,7.45614035 L15.7894737,7.45614035 C16.5789474,7.45614035 17.2807018,8.15789474 17.2807018,9.12280702 L17.2807018,15.3508772 C17.2807018,16.2280702 16.5789474,17.0175439 15.7894737,17.0175439 L4.56140351,17.0175439 C3.77192982,17.0175439 3.07017544,16.3157895 3.07017544,15.3508772 L3.07017544,9.12280702 C3.07017544,8.15789474 3.77192982,7.45614035 4.56140351,7.45614035 Z M4.03508772,0.438596491 C3.50877193,0.350877193 2.98245614,0.438596491 2.54385965,0.789473684 C2.10526316,1.14035088 1.84210526,1.57894737 1.75438596,2.19298246 L0.789473684,8.15789474 C0.701754386,8.68421053 0.789473684,9.29824561 1.14035088,9.8245614 C1.31578947,10.0877193 1.57894737,10.3508772 1.84210526,10.5263158 L1.84210526,9.21052632 C1.84210526,9.03508772 1.84210526,8.94736842 1.84210526,8.77192982 C1.84210526,8.68421053 1.84210526,8.59649123 1.84210526,8.50877193 L2.80701754,2.54385965 C2.80701754,2.28070175 2.98245614,2.01754386 3.15789474,1.92982456 C3.33333333,1.75438596 3.59649123,1.75438596 3.85964912,1.75438596 L13.8596491,3.68421053 C14.122807,3.77192982 14.2982456,3.85964912 14.4736842,4.12280702 C14.6491228,4.29824561 14.6491228,4.56140351 14.6491228,4.9122807 L14.5614035,5.61403509 L4.29824561,3.59649123 L3.85964912,6.31578947 C4.12280702,6.22807018 4.47368421,6.14035088 4.73684211,6.14035088 L15.6140351,6.14035088 L15.7894737,5 C15.877193,4.47368421 15.7894737,3.85964912 15.4385965,3.33333333 C15.1754386,2.89473684 14.6491228,2.54385965 14.122807,2.45614035 L4.03508772,0.438596491 Z M12.6315789,8.68421053 C11.8421053,8.68421053 11.1403509,9.38596491 11.1403509,10.2631579 C11.1403509,11.1403509 11.754386,11.8421053 12.6315789,11.8421053 C12.9824561,11.8421053 13.3333333,11.6666667 13.5964912,11.4912281 C13.8596491,11.754386 14.2105263,11.8421053 14.5614035,11.8421053 C15.3508772,11.8421053 16.0526316,11.1403509 16.0526316,10.2631579 C16.0526316,9.38596491 15.4385965,8.68421053 14.5614035,8.68421053 C14.2105263,8.68421053 13.8596491,8.85964912 13.5964912,9.03508772 C13.3333333,8.77192982 12.9824561,8.68421053 12.6315789,8.68421053 Z M13.7719298,13.9473684 L13.7719298,15 L16.2280702,15 L16.2280702,13.9473684 L13.7719298,13.9473684 Z M10.6140351,13.9473684 L10.6140351,15 L13.0701754,15 L13.0701754,13.9473684 L10.6140351,13.9473684 L10.6140351,13.9473684 Z M7.45614035,13.9473684 L7.45614035,15 L9.9122807,15 L9.9122807,13.9473684 L7.45614035,13.9473684 Z M4.38596491,13.9473684 L4.38596491,15 L6.84210526,15 L6.84210526,13.9473684 L4.38596491,13.9473684 L4.38596491,13.9473684 Z"></path>
            </g>
            <g opacity="0.4" transform="translate(0.000000, 36.842105)" fill="#0978D3" id="形状">
                <path d="M16.4912281,17.4561404 C16.9298246,18.1578947 16.5789474,18.4210526 16.3157895,18.3333333 L13.7719298,17.6315789 L13.0701754,20.2631579 C12.9824561,20.5263158 12.6315789,20.7017544 12.2807018,20 L9.56140351,15.2631579 C9.21052632,15.3508772 8.85964912,15.3508772 8.42105263,15.3508772 C8.15789474,15.3508772 7.80701754,15.3508772 7.54385965,15.2631579 L4.8245614,20 C4.38596491,20.7017544 4.03508772,20.5263158 4.03508772,20.2631579 L3.33333333,17.6315789 L0.789473684,18.3333333 C0.526315789,18.4210526 0.175438596,18.1578947 0.614035088,17.4561404 L3.15789474,12.9824561 C1.92982456,11.5789474 1.22807018,9.8245614 1.22807018,7.98245614 C1.22807018,3.94736842 4.47368421,0.614035088 8.50877193,0.614035088 C12.5438596,0.614035088 15.7894737,3.85964912 15.7894737,7.98245614 C15.7894737,9.8245614 15.0877193,11.4912281 14.0350877,12.8070175 L16.4912281,17.4561404 L16.4912281,17.4561404 Z M8.33333333,14.6491228 C11.9298246,14.6491228 14.9122807,11.6666667 14.9122807,8.07017544 C14.9122807,4.47368421 12.0175439,1.49122807 8.33333333,1.49122807 C4.73684211,1.49122807 1.75438596,4.47368421 1.75438596,8.07017544 C1.75438596,11.6666667 4.73684211,14.6491228 8.33333333,14.6491228 Z M8.42105263,2.28070175 C11.5789474,2.28070175 14.0350877,4.8245614 14.0350877,7.98245614 C14.0350877,11.1403509 11.4912281,13.6842105 8.42105263,13.6842105 C5.26315789,13.6842105 2.80701754,11.1403509 2.80701754,7.98245614 C2.71929825,4.9122807 5.26315789,2.28070175 8.42105263,2.28070175 L8.42105263,2.28070175 Z"></path>
            </g>
            <g opacity="0.4" transform="translate(121.052632, 30.701754)" fill="#0978D3" id="路径">
                <path d="M9.21052632,14.9122807 L5.1754386,17.0175439 C4.64912281,17.2807018 4.12280702,17.1052632 3.85964912,16.6666667 C3.77192982,16.4912281 3.68421053,16.3157895 3.77192982,16.0526316 L4.56140351,11.5789474 C4.64912281,11.3157895 4.47368421,10.9649123 4.29824561,10.7017544 L1.05263158,7.54385965 C0.701754386,7.19298246 0.701754386,6.57894737 1.05263158,6.14035088 C1.22807018,5.96491228 1.40350877,5.87719298 1.57894737,5.87719298 L6.05263158,5.26315789 C6.40350877,5.1754386 6.66666667,5 6.75438596,4.73684211 L8.77192982,0.701754386 C9.03508772,0.175438596 9.56140351,-6.21724894e-15 10.0877193,0.263157895 C10.2631579,0.350877193 10.4385965,0.526315789 10.5263158,0.701754386 L12.5438596,4.73684211 C12.7192982,5 12.9824561,5.26315789 13.245614,5.26315789 L17.7192982,5.87719298 C18.245614,5.96491228 18.6842105,6.49122807 18.5087719,7.01754386 C18.4210526,7.19298246 18.3333333,7.36842105 18.245614,7.54385965 L15,10.7017544 C14.7368421,10.9649123 14.6491228,11.2280702 14.7368421,11.5789474 L15.5263158,16.0526316 C15.6140351,16.5789474 15.2631579,17.1052632 14.7368421,17.1929825 C14.5614035,17.2807018 14.2982456,17.1929825 14.122807,17.1052632 L10.0877193,15 C9.9122807,14.6491228 9.56140351,14.6491228 9.21052632,14.9122807 L9.21052632,14.9122807 Z" opacity="0.5"></path>
                <path d="M9.73684211,0.0877192982 C10.0877193,0.175438596 10.3508772,0.350877193 10.5263158,0.614035088 L12.5438596,4.64912281 C12.7192982,4.9122807 12.8947368,5.1754386 13.245614,5.1754386 L17.7192982,5.78947368 C17.8947368,5.87719298 18.0701754,5.96491228 18.245614,6.05263158 C18.5964912,6.40350877 18.5964912,7.01754386 18.245614,7.45614035 L15,10.6140351 C14.7368421,10.877193 14.6491228,11.2280702 14.7368421,11.4912281 L15.5263158,15.9649123 C15.6140351,16.2280702 15.5263158,16.4035088 15.4385965,16.5789474 C15.1754386,17.0175439 14.6491228,17.1929825 14.122807,16.9298246 L10.0877193,14.8245614 C10,14.7368421 9.8245614,14.7368421 9.73684211,14.6491228 L9.73684211,0.0877192982 L9.73684211,0.0877192982 Z"></path>
            </g>
            <path d="M64.8245614,58.5087719 C64.3859649,56.8421053 63.5087719,54.9122807 62.0175439,55.877193 L60.7894737,55.5263158 C60.7894737,55.5263158 59.2982456,44.7368421 61.4912281,42.2807018 C61.4912281,42.2807018 66.0526316,37.4561404 69.8245614,37.1052632 C69.8245614,37.1052632 74.2982456,35.7894737 79.122807,39.5614035 C79.122807,39.5614035 81.3157895,40 84.122807,40.3508772 C87.8070175,40.877193 86.4035088,44.5614035 89.122807,46.1403509 C91.8421053,47.7192982 87.3684211,52.2807018 86.8421053,55.2631579 C86.2280702,58.5087719 88.6842105,48.9473684 81.0526316,48.1578947 C73.4210526,47.3684211 71.9298246,49.4736842 68.9473684,47.0175439 C65.9649123,44.5614035 66.9298246,48.8596491 66.9298246,48.8596491 L67.1052632,53.5964912 L66.4035088,53.6842105 C65.7017544,53.7719298 65.1754386,54.3859649 65.1754386,55.0877193 L65.2631579,58.3333333 C65.2631579,58.6842105 64.9122807,58.7719298 64.8245614,58.5087719 Z" id="路径" fill="#000000"></path>
            <path d="M63.5087719,55.877193 C63.5087719,55.877193 60.0877193,53.5964912 61.8421053,57.8070175 C63.5964912,61.9298246 65.2631579,61.3157895 65.2631579,61.3157895 L63.5087719,55.877193 Z" id="路径" fill="#FFE5CF"></path>
        </g>
    </g>
</svg>