<?xml version="1.0" encoding="UTF-8"?>
<svg width="224px" height="60px" viewBox="0 0 224 60" version="1.1" xmlns="http://www.w3.org/2000/svg" xmlns:xlink="http://www.w3.org/1999/xlink">
    <!-- Generator: Sketch 55 (78076) - https://sketchapp.com -->
    <title>编组 3复制</title>
    <desc>Created with Sketch.</desc>
    <g id="官网h5" stroke="none" stroke-width="1" fill="none" fill-rule="evenodd">
        <g id="ONT-ID-2.0-Landingpage" transform="translate(-240.000000, -5112.000000)" fill="#FFFFFF">
            <g id="编组-5" transform="translate(0.000000, 5032.000000)">
                <g id="编组-3" transform="translate(240.000000, 80.000000)">
                    <g id="编组-3复制" transform="translate(0.000000, 0.000000)">
                        <g id="编组" transform="translate(0.000000, 22.162162)">
                            <path d="M17.5044687,7.98702703 C15.935259,7.98702703 14.5103259,8.41459459 13.23075,9.26702703 C11.9511741,10.1205405 10.9358349,11.3324324 10.1852729,12.9021622 C9.43417048,14.472973 9.0597,16.4183784 9.0597,18.7394595 C9.0597,20.9583784 9.41741928,22.8524324 10.1344789,24.4221622 C10.8509982,25.9924324 11.8566108,27.2308108 13.1540187,28.1340541 C14.4508861,29.0389189 15.935259,29.4908108 17.606597,29.4908108 C19.3130584,29.4908108 20.7974313,29.0556757 22.060256,28.1854054 C23.322,27.3151351 24.3119422,26.1037838 25.0290018,24.5502703 C25.7449807,22.9978378 26.1032404,21.0940541 26.1032404,18.8410811 C26.1032404,16.5551351 25.7195837,14.6091892 24.9511898,13.0048649 C24.1838765,11.4005405 23.1426,10.1632432 21.8295217,9.29297297 C20.5153627,8.4227027 19.0736783,7.98702703 17.5044687,7.98702703 M17.606597,-4.54747351e-13 C20.0636205,-4.54747351e-13 22.3752867,0.461081081 24.5421361,1.3827027 C26.7089855,2.30378378 28.5856608,3.60162162 30.172162,5.27351351 C31.7592036,6.94648649 32.9869048,8.94324324 33.8574271,11.2637838 C34.7279494,13.5854054 35.1629404,16.06 35.1629404,18.6881081 C35.1629404,21.4524324 34.7279494,24.0048649 33.8574271,26.3421622 C32.9869048,28.6805405 31.767309,30.6778378 30.1980994,32.3324324 C28.627809,33.9891892 26.7597795,35.26 24.5934705,36.147027 C22.4255404,37.0340541 20.0971229,37.4783784 17.606597,37.4783784 C15.081488,37.4783784 12.7357789,37.0340541 10.5694699,36.147027 C8.40208012,35.26 6.5340506,33.9891892 4.96484096,32.3324324 C3.39563133,30.6778378 2.17549518,28.6805405 1.30497289,26.3421622 C0.435531325,24.0048649 1.49213975e-13,21.4524324 1.49213975e-13,18.6881081 C1.49213975e-13,16.0254054 0.426345181,13.5427027 1.28011627,11.2383784 C2.13280663,8.93459459 3.34375663,6.94648649 4.91350663,5.27351351 C6.48271627,3.60162162 8.35939157,2.30378378 10.5435325,1.3827027 C12.7265928,0.461081081 15.081488,-4.54747351e-13 17.606597,-4.54747351e-13" id="Fill-1复制"></path>
                            <polygon id="Fill-3复制" points="39.0001551 0.307297297 39.870137 0.307297297 60.2920171 18.5856757 60.2920171 0.563513514 68.8399948 0.563513514 68.8399948 37.4781081 67.7133412 37.4781081 47.547052 19.3532432 47.547052 36.9148649 39.0001551 36.9148649"></polygon>
                            <polygon id="Fill-5复制" points="72.6772636 0.563351351 99.6504858 0.563351351 99.6504858 8.34551351 90.4373232 8.34551351 90.4373232 36.9147027 81.8904262 36.9147027 81.8904262 8.34551351 72.6772636 8.34551351"></polygon>
                        </g>
                        <g id="编组-2" transform="translate(106.991566, 22.702703)">
                            <path d="M25.3829926,7.78216216 L25.3829926,28.5691892 L27.9421444,28.5691892 C30.5018366,28.5691892 32.5827685,28.1675676 34.1865613,27.3659459 C35.790354,26.5648649 36.9667209,25.3691892 37.7178233,23.7816216 C38.467845,22.1945946 38.8439366,20.2745946 38.8439366,18.0221622 C38.8439366,15.9059459 38.4597396,14.0794595 37.6924263,12.5437838 C36.9245727,11.0075676 35.7217281,9.83027027 34.0849733,9.01081081 C32.446057,8.19135135 30.4159191,7.78216216 27.9934787,7.78216216 L25.3829926,7.78216216 Z M16.8360956,0 L27.9421444,0 C31.0130185,0 33.7937185,0.392432432 36.2858655,1.1772973 C38.7753107,1.9627027 40.8735342,3.10594595 42.5799956,4.60756757 C44.286457,6.10972973 45.5827842,7.98702703 46.470598,10.24 C47.3573311,12.4924324 47.8015083,15.0183784 47.8015083,17.8172973 C47.8015083,20.9578378 47.3405799,23.7054054 46.419804,26.06 C45.4979474,28.4151351 44.1670372,30.352973 42.4270733,31.8713514 C40.6865691,33.3902703 38.5796998,34.5167568 36.1059251,35.2502703 C33.6316101,35.9843243 30.8422643,36.3513514 27.7373474,36.3513514 L16.8360956,36.3513514 L16.8360956,0 Z" id="Fill-7复制"></path>
                            <polygon id="Fill-14复制" points="-1.42108547e-14 36.4625405 9.18614458 36.4625405 9.18614458 12.6787568 -1.42108547e-14 12.6787568"></polygon>
                            <polygon id="Fill-9复制" points="0 8.65227027 9.18614458 8.65227027 9.18614458 0.00362162162 0 0.00362162162"></polygon>
                        </g>
                        <g id="编组-4" transform="translate(159.406627, 0.000000)">
                            <path d="M12.1621622,3.69482223e-13 L52.4496279,3.74811293e-13 C59.1666045,3.67611531e-13 64.61179,5.44518548 64.61179,12.1621622 C64.61179,18.8791388 59.1666045,24.3243243 52.4496279,24.3243243 L4,24.3243243 C1.790861,24.3243243 1.9211708e-13,22.5334633 1.91846539e-13,20.3243243 L1.91846539e-13,12.1621622 C1.91023946e-13,5.44518548 5.44518548,3.67163398e-13 12.1621622,3.65929509e-13 Z M20.974196,4.86486486 L18.7582616,4.86486486 L18.7582616,19.1995048 L25.2919395,19.1995048 L25.2919395,17.1662884 L20.974196,17.1662884 L20.974196,4.86486486 Z M29.1246501,10.156798 L26.9847993,10.156798 L26.9847993,19.1995048 L29.1246501,19.1995048 L29.1246501,10.156798 Z M26.661444,6.39674025 C26.661444,6.78048469 26.7977591,7.10542471 27.0703933,7.37157004 C27.3430275,7.63771538 27.6727198,7.77078605 28.0594799,7.77078605 C28.4462401,7.77078605 28.7727622,7.63771538 29.0390561,7.37157004 C29.3116903,7.10542471 29.4480053,6.78357936 29.4480053,6.40602434 C29.4480053,6.02846933 29.3116903,5.70971865 29.0390561,5.44976274 C28.7664219,5.1836174 28.4367296,5.05054673 28.0499695,5.05054673 C27.6695496,5.05054673 27.3430275,5.1836174 27.0703933,5.44976274 C26.7977591,5.71590808 26.661444,6.03156409 26.661444,6.39674025 Z M34.0415518,12.1064576 L35.7058802,12.1064576 L35.7058802,10.156798 L34.0415518,10.156798 L34.0415518,6.84237673 L31.901701,6.84237673 L31.901701,10.156798 L30.9886979,10.156798 L30.9886979,12.1064576 L31.901701,12.1064576 L31.901701,19.1995048 L34.0415518,19.1995048 L34.0415518,12.1064576 Z M45.7679344,15.1702084 L45.7774448,14.6781514 C45.7774448,13.1864997 45.3843502,12.0198103 44.5981492,11.1780483 C43.8056079,10.3300969 42.7277679,9.9061275 41.3645969,9.9061275 C40.0141065,9.9061275 38.9299262,10.3424755 38.1120236,11.2151847 C37.3004613,12.1002726 36.8946862,13.257678 36.8946862,14.6874355 C36.8946862,16.1295719 37.3131418,17.2869773 38.1500654,18.1596864 C38.986989,19.0262061 40.0965302,19.4594595 41.4787222,19.4594595 C41.9605874,19.4594595 42.407574,19.4099448 42.8196954,19.310914 C43.2318169,19.2118831 43.6154012,19.0556025 43.9704597,18.8420673 C44.3255182,18.628532 44.6583805,18.3562014 44.9690567,18.0250671 C45.2797329,17.6939327 45.5745539,17.2962681 45.8535284,16.8320611 L44.0465433,15.8479472 C43.6090604,16.5164052 43.219136,16.9744159 42.8767581,17.221993 C42.52804,17.46957 42.0873936,17.5933567 41.5548058,17.5933567 C40.8700501,17.5933567 40.3089393,17.37673 39.8714565,16.9434702 C39.4339737,16.5040209 39.1867045,15.9129396 39.1296416,15.1702084 L45.7679344,15.1702084 Z M43.5710208,13.4619352 L39.2722983,13.4619352 C39.3420419,13.2019793 39.4434857,12.9698793 39.5766326,12.7656282 C39.7097796,12.5613772 39.8698705,12.3865285 40.0569103,12.241077 C40.24395,12.0956254 40.4515927,11.9842174 40.6798446,11.9068496 C40.9080965,11.8294818 41.1521956,11.7907984 41.4121491,11.7907984 C42.5534086,11.7907984 43.2730253,12.3478385 43.5710208,13.4619352 Z" id="形状结合"></path>
                        </g>
                    </g>
                </g>
            </g>
        </g>
    </g>
</svg>