<?xml version="1.0" encoding="UTF-8"?>
<svg width="123px" height="30px" viewBox="0 0 123 30" version="1.1" xmlns="http://www.w3.org/2000/svg" xmlns:xlink="http://www.w3.org/1999/xlink">
    <!-- Generator: Sketch 55 (78076) - https://sketchapp.com -->
    <title>编组 3</title>
    <desc>Created with Sketch.</desc>
    <g id="官网h5" stroke="none" stroke-width="1" fill="none" fill-rule="evenodd">
        <g id="ONT-ID-2.0-Landingpage" transform="translate(-100.000000, -80.000000)">
            <g id="编组-3" transform="translate(100.000000, 80.000000)">
                <g id="编组" fill="#fff">
                    <path d="M13.8831429,6.33257143 C12.6385714,6.33257143 11.5084286,6.67157143 10.4935714,7.34742857 C9.47871429,8.02414286 8.67342857,8.985 8.07814286,10.2295714 C7.48242857,11.475 7.18542857,13.0174286 7.18542857,14.8577143 C7.18542857,16.617 7.46914286,18.1187143 8.03785714,19.3632857 C8.60614286,20.6082857 9.40371429,21.5901429 10.4327143,22.3062857 C11.4612857,23.0237143 12.6385714,23.382 13.9641429,23.382 C15.3175714,23.382 16.4948571,23.037 17.4964286,22.347 C18.4971429,21.657 19.2822857,20.6965714 19.851,19.4648571 C20.4188571,18.234 20.703,16.7245714 20.703,14.9382857 C20.703,13.1258571 20.3987143,11.583 19.7892857,10.311 C19.1807143,9.039 18.3548571,8.058 17.3134286,7.368 C16.2711429,6.678 15.1277143,6.33257143 13.8831429,6.33257143 M13.9641429,-4.54747351e-13 C15.9128571,-4.54747351e-13 17.7462857,0.365571429 19.4648571,1.09628571 C21.1834286,1.82657143 22.6718571,2.85557143 23.9301429,4.18114286 C25.1888571,5.50757143 26.1625714,7.09071429 26.853,8.93057143 C27.5434286,10.7712857 27.8884286,12.7332857 27.8884286,14.817 C27.8884286,17.0087143 27.5434286,19.0324286 26.853,20.8855714 C26.1625714,22.7395714 25.1952857,24.3231429 23.9507143,25.635 C22.7052857,26.9485714 21.2237143,27.9561429 19.5055714,28.6594286 C17.7861429,29.3627143 15.9394286,29.715 13.9641429,29.715 C11.9614286,29.715 10.101,29.3627143 8.38285714,28.6594286 C6.66385714,27.9561429 5.18228571,26.9485714 3.93771429,25.635 C2.69314286,24.3231429 1.72542857,22.7395714 1.035,20.8855714 C0.345428571,19.0324286 1.49213975e-13,17.0087143 1.49213975e-13,14.817 C1.49213975e-13,12.7058571 0.338142857,10.7374286 1.01528571,8.91042857 C1.69157143,7.08385714 2.652,5.50757143 3.897,4.18114286 C5.14157143,2.85557143 6.63,1.82657143 8.36228571,1.09628571 C10.0937143,0.365571429 11.9614286,-4.54747351e-13 13.9641429,-4.54747351e-13" id="Fill-1复制"></path>
                    <polygon id="Fill-3复制" points="30.9318 0.243642857 31.6218 0.243642857 47.8188 14.7357857 47.8188 0.446785714 54.5983714 0.446785714 54.5983714 29.7147857 53.7048 29.7147857 37.7105143 15.3443571 37.7105143 29.2682143 30.9318 29.2682143"></polygon>
                    <polygon id="Fill-5复制" points="57.6417857 0.446657143 79.0347857 0.446657143 79.0347857 6.6168 71.7276429 6.6168 71.7276429 29.2680857 64.9489286 29.2680857 64.9489286 6.6168 57.6417857 6.6168"></polygon>
                </g>
                <g id="编组-2" transform="translate(84.801043, 0.446829)">
                    <path d="M20.1317571,6.17014286 L20.1317571,22.6512857 L22.1614714,22.6512857 C24.1916143,22.6512857 25.8420429,22.3328571 27.1140429,21.6972857 C28.3860429,21.0621429 29.3190429,20.1141429 29.9147571,18.8554286 C30.5096143,17.5971429 30.8079,16.0748571 30.8079,14.289 C30.8079,12.6111429 30.5031857,11.163 29.8946143,9.94542857 C29.2856143,8.72742857 28.3316143,7.794 27.0334714,7.14428571 C25.7336143,6.49457143 24.1234714,6.17014286 22.2021857,6.17014286 L20.1317571,6.17014286 Z M13.3530429,0 L22.1614714,0 C24.5970429,0 26.8024714,0.311142857 28.7790429,0.933428571 C30.7534714,1.55614286 32.4176143,2.46257143 33.7710429,3.65314286 C35.1244714,4.84414286 36.1526143,6.33257143 36.8567571,8.11885714 C37.5600429,9.90471429 37.9123286,11.9074286 37.9123286,14.1265714 C37.9123286,16.6165714 37.5467571,18.795 36.8164714,20.6618571 C36.0853286,22.5291429 35.0297571,24.0655714 33.6497571,25.2694286 C32.2693286,26.4737143 30.5983286,27.3668571 28.6363286,27.9484286 C26.6739,28.5304286 24.4616143,28.8214286 21.9990429,28.8214286 L13.3530429,28.8214286 L13.3530429,0 Z" id="Fill-7复制" fill="#fff"></path>
                    <polygon id="Fill-14复制" fill="#fff" points="-1.42108547e-14 28.9095857 7.28571429 28.9095857 7.28571429 10.0524429 -1.42108547e-14 10.0524429"></polygon>
                    <polygon id="Fill-9复制" fill="#fff" points="0 6.86001429 7.28571429 6.86001429 7.28571429 0.00287142857 0 0.00287142857"></polygon>
                </g>
            </g>
        </g>
    </g>
</svg>