<?xml version="1.0" encoding="UTF-8"?>
<svg width="430px" height="212px" viewBox="0 0 430 212" version="1.1" xmlns="http://www.w3.org/2000/svg" xmlns:xlink="http://www.w3.org/1999/xlink">
    <!-- Generator: Sketch 55.2 (78181) - https://sketchapp.com -->
    <title>编组</title>
    <desc>Created with Sketch.</desc>
    <defs>
        <polygon id="path-1" points="0 0.418431951 428.999895 0.418431951 428.999895 64.8730661 0 64.8730661"></polygon>
        <polygon id="path-3" points="0.261585366 0.209268293 49.6489024 0.209268293 49.6489024 49.596533 0.261585366 49.596533"></polygon>
    </defs>
    <g id="页面1" stroke="none" stroke-width="1" fill="none" fill-rule="evenodd">
        <g id="插画" transform="translate(-1122.000000, -517.000000)">
            <g id="编组" transform="translate(1122.500000, 516.786250)">
                <path d="M241.600035,45.5681707 C241.600035,45.5681707 241.181498,77.22 237.676254,87.8926829 C234.171533,98.5653659 262.003693,94.5892683 262.003693,94.5892683 L266.346533,54.0435366 L241.600035,45.5681707 Z" id="Fill-1" fill="#000000"></path>
                <path d="M282.668937,20.508345 C282.668937,20.508345 284.081498,41.3828572 286.5404,59.118345 C288.58129,73.8194426 294.336168,84.9629791 298.155314,97.048223 C306.682474,124.253101 268.281742,87.8927352 268.281742,87.8927352 L258.864669,38.6100523 L282.668937,20.508345 Z" id="Fill-3" fill="#000000"></path>
                <g transform="translate(0.000000, 147.324878)">
                    <mask id="mask-2" fill="white">
                        <use xlink:href="#path-1"></use>
                    </mask>
                    <g id="Clip-6"></g>
                    <path d="M214.499895,0.418431951 C332.965106,0.418431951 428.999895,14.8469576 428.999895,32.6462722 C428.999895,50.4445405 332.965106,64.8730661 214.499895,64.8730661 C96.0346844,64.8730661 -0.000104634146,50.4445405 -0.000104634146,32.6462722 C-0.000104634146,14.8469576 96.0346844,0.418431951 214.499895,0.418431951" id="Fill-5" fill="#F2F2F2" mask="url(#mask-2)"></path>
                </g>
                <g transform="translate(233.334146, 0.313902)">
                    <mask id="mask-4" fill="white">
                        <use xlink:href="#path-3"></use>
                    </mask>
                    <g id="Clip-8"></g>
                    <path d="M24.9552439,0.209215976 C38.5932585,0.209215976 49.6489024,11.2648599 49.6489024,24.9028745 C49.6489024,38.5408891 38.5932585,49.596533 24.9552439,49.596533 C11.3177524,49.596533 0.261585366,38.5408891 0.261585366,24.9028745 C0.261585366,11.2648599 11.3177524,0.209215976 24.9552439,0.209215976" id="Fill-7" fill="#000000" mask="url(#mask-4)"></path>
                </g>
                <path d="M254.470349,15.5905924 C264.672178,15.5905924 272.938275,23.85669 272.938275,34.0585193 C272.938275,44.2603485 264.672178,51.2708363 254.470349,51.2708363 C249.447386,51.2708363 245.314861,54.7760802 241.966568,51.5847388 C238.513641,48.2364461 235.950105,39.2902266 235.950105,34.0585193 C236.002422,23.85669 244.268519,15.5905924 254.470349,15.5905924" id="Fill-9" fill="#FFE5CF"></path>
                <path d="M248.087561,49.1779965 C248.087561,49.1779965 255.62122,60.4784843 254.522561,65.3962891 C254.522561,65.3962891 249.604756,67.6459233 249.604756,68.4306794 C249.604756,69.1631184 245.053171,76.3305574 245.053171,76.3305574 L239.769146,83.4979965 L237.519512,92.9150696 L248.45378,92.9150696 L260.539024,83.4979965 L272.258049,70.6803135 C272.258049,70.6803135 280.157927,66.9134843 284.343293,69.9478745 L286.592927,71.8312891 C286.592927,71.8312891 278.693049,61.2632404 274.873902,59.0136062 C274.873902,59.0136062 268.072683,50.6951916 268.857439,42.429094 L248.087561,49.1779965 Z" id="Fill-11" fill="#FFE5CF"></path>
                <path d="M251.069739,65.0302266 C251.069739,65.0302266 243.53608,69.1632754 240.50169,77.1154705 C237.4673,85.0153485 223.917178,111.43547 223.917178,111.43547 C223.917178,111.43547 222.765679,128.386202 223.550435,129.170958 C224.283397,129.903397 232.967508,121.6373 234.485227,119.387142 C236.002422,117.138031 242.018885,89.9854705 242.018885,89.9854705 L251.801655,74.1333973 L253.685592,65.0825437 L251.069739,65.0825437 L251.069739,65.0302266 Z" id="Fill-13" fill="#FFE5CF"></path>
                <path d="M227.317578,112.534024 L223.916969,111.383049 C223.916969,111.383049 202.048432,98.9315854 200.897456,93.2813415 C199.746481,87.6310976 184.312944,68.3784146 183.946725,78.5802439 C183.580505,88.7820732 196.031969,100.082561 196.031969,100.082561 C196.031969,100.082561 223.185053,138.16939 224.701725,127.235122 L227.317578,112.534024 Z" id="Fill-15" fill="#FFE5CF"></path>
                <path d="M261.637892,86.5323344 C261.637892,86.5323344 262.003589,97.1003832 276.705209,100.867212 C276.705209,100.867212 290.307648,121.637614 293.289721,130.269931 C296.847282,140.575871 334.410941,185.726028 334.410941,185.726028 C334.410941,185.726028 370.980575,190.27709 370.980575,185.726028 C370.980575,181.17392 340.427404,177.40709 340.427404,177.40709 C340.427404,177.40709 308.827369,129.74676 306.83932,123.468711 C305.584234,119.439773 291.562735,75.4411149 284.186551,69.8955051 C284.186551,69.8955051 277.751551,66.8611149 273.984721,69.1630661 C270.322526,71.4127002 261.637892,86.5323344 261.637892,86.5323344" id="Fill-17" fill="#FFE5CF"></path>
                <path d="M217.534181,129.170749 C217.534181,129.170749 191.114059,103.116847 185.463815,100.867212 C179.813571,98.6175783 171.07662,93.9090417 166.943571,99.1930661 C162.287352,105.157212 163.856864,100.396359 115.307143,160.142456 C115.307143,160.142456 97.9373517,177.878467 89.2527176,174.477858 C89.2527176,174.477858 84.7016554,178.244164 95.269181,179.02892 C105.83723,179.761359 115.620522,176.779286 115.620522,176.779286 C115.620522,176.779286 122.055522,177.930261 126.555314,179.02892 C131.106376,180.179895 136.757143,180.546115 136.338083,177.511725 L134.820888,165.426481 C134.820888,165.426481 173.692474,133.356115 174.791132,119.806516 C174.791132,119.806516 174.058693,113.370993 174.791132,114.155749 C175.523571,114.888188 191.375644,131.891237 198.543083,135.658066 C205.710522,139.425419 223.446533,144.70892 223.446533,144.70892 L217.534181,129.170749 Z" id="Fill-19" fill="#FFE5CF"></path>
                <path d="M217.534181,129.170749 C217.534181,129.170749 191.114059,103.116847 185.463815,100.867212 C179.813571,98.6175783 171.07662,93.9090417 166.943571,99.1930661 C162.287352,105.157212 163.856864,100.396359 115.307143,160.142456 C115.307143,160.142456 97.9373517,177.878467 89.2527176,174.477858 C89.2527176,174.477858 84.7016554,178.244164 95.269181,179.02892 C105.83723,179.761359 115.620522,176.779286 115.620522,176.779286 C115.620522,176.779286 122.055522,177.930261 126.555314,179.02892 C131.106376,180.179895 136.757143,180.546115 136.338083,177.511725 L134.820888,165.426481 C134.820888,165.426481 173.692474,133.356115 174.791132,119.806516 C174.791132,119.806516 174.058693,113.370993 174.791132,114.155749 C175.523571,114.888188 191.375644,131.891237 198.543083,135.658066 C205.710522,139.425419 223.446533,144.70892 223.446533,144.70892 L217.534181,129.170749 Z" id="Fill-21" fill="#000000" opacity="0.1"></path>
                <path d="M291.353885,81.3529965 C291.353885,81.3529965 288.005592,73.191533 283.76791,70.7849477 C283.349373,70.6803135 282.930313,70.5233623 282.564617,70.3664111 C280.733519,69.6339721 275.135592,68.0644599 271.107178,73.6623867 C266.18885,80.4636062 261.690105,88.3634843 265.456934,92.9150696 C269.223763,97.466655 276.757422,100.082509 276.757422,100.082509 L281.099216,106.988362 C281.099216,106.988362 268.75291,123.415923 271.473397,139.320314 C271.473397,139.320314 270.740958,140.837509 264.305958,134.036289 C257.870958,127.23507 231.659581,122.526533 231.659581,122.526533 C231.659581,122.526533 236.996446,114.155801 234.43291,106.831411 C231.659581,98.3560452 229.462788,90.0376306 238.147422,80.2543379 L251.645227,64.8208013 L254.679094,65.1870209 C254.679094,65.1870209 250.703519,68.7968989 250.3373,70.6803135 C249.970557,72.5637282 238.513641,85.2244599 244.582422,87.5264111 C250.598885,89.7760452 256.771777,85.4337282 260.905349,79.7311672 C263.2073,76.6444599 266.398641,72.3544599 270.427056,69.6862891 C274.664739,66.9134843 280.052874,66.6518989 284.552666,68.9538501 L285.807752,69.581655 C288.267178,71.3081184 289.469947,74.4471428 290.621446,77.2199477 L291.0923,79.4172648 L291.353885,81.3529965 Z" id="Fill-23" fill="#0066CC"></path>
                <path d="M252.429773,11.2481184 C260.549383,11.2481184 267.131394,16.4013501 267.131394,22.7578745 C267.131394,29.1143989 260.549383,34.2676306 252.429773,34.2676306 C244.310687,34.2676306 237.728676,29.1143989 237.728676,22.7578745 C237.728676,16.4013501 244.310687,11.2481184 252.429773,11.2481184" id="Fill-25" fill="#000000"></path>
                <path d="M262.003693,2.72054012 L262.003693,4.08078402 L253.319059,4.08078402 L253.319059,2.72054012 C253.319059,1.62188159 254.208972,0.680174268 255.359948,0.680174268 L260.015644,0.680174268 C261.114826,0.680174268 262.003693,1.62188159 262.003693,2.72054012" id="Fill-27" fill="#000000"></path>
                <path d="M246.099617,27.4664111 C246.099617,27.4664111 256.667666,37.5636062 256.981568,43.7370209 L259.963641,37.7205574 L259.963641,57.0778745 L277.228275,51.3753135 L269.903885,17.0029965 L246.099617,27.4664111 Z" id="Fill-29" fill="#000000"></path>
                <path d="M282.983153,112.481917 L299.515349,101.652282 L288.946777,73.4528568 C288.946777,73.4528568 280.524251,63.8793556 274.089251,69.2156971 C267.706568,74.4991983 258.289495,92.078258 258.289495,92.078258 L282.983153,112.481917 Z" id="Fill-31" fill="#0066CC"></path>
                <path d="M236.002526,84.5967596 L242.227735,73.0870035 C244.68716,70.3141987 246.674686,65.8149304 251.069843,65.0301743 L253.685697,65.0301743 L236.002526,84.5967596 Z" id="Fill-33" fill="#0066CC"></path>
                <path d="M84.3874913,182.063624 L137.489321,180.336637 L136.913833,166.159234 L136.181394,164.118345 L136.024443,164.222979 C136.024443,164.222979 126.816638,172.855296 117.085662,164.328136 L108.139443,163.595174 L92.4443206,172.280331 C92.4443206,172.280331 78.6326133,172.855296 84.3874913,182.063624" id="Fill-35" fill="#000000"></path>
                <path d="M84.3874913,182.063624 L137.489321,180.336637 L136.913833,166.159234 L136.181394,164.118345 L136.024443,164.222979 C136.024443,164.222979 126.816638,172.855296 117.085662,164.328136 L108.139443,163.595174 L92.4443206,172.280331 C92.4443206,172.280331 78.6326133,172.855296 84.3874913,182.063624" id="Fill-37" fill="#FFFFFF" opacity="0.1"></path>
                <path d="M221.667439,134.036132 C221.667439,134.036132 186.98122,120.852753 182.429634,117.81784 C177.878049,114.783449 161.659756,108.766986 153.393659,115.568205 C145.075244,122.369425 104.73878,153.655035 91.1363415,156.689948 C77.5339024,159.724338 54.1481707,166.891777 54.1481707,166.891777 C54.1481707,166.891777 39.0808537,168.04223 55.2991463,174.424913 C55.2991463,174.424913 75.2842683,176.30885 78.684878,179.343241 C82.0854878,182.377108 93.3859756,186.14446 94.1707317,181.226132 C94.9031707,176.30885 97.205122,169.926168 101.338171,169.141411 C105.47122,168.356655 155.277073,152.661533 162.810732,137.959913 C162.810732,137.959913 180.284634,149.522509 190.852683,160.509094 C201.420732,171.44284 225.800488,177.459303 225.800488,177.459303 L221.667439,134.036132 Z" id="Fill-39" fill="#FFE5CF"></path>
                <path d="M231.607683,122.579007 C231.607683,122.579007 214.604634,125.03791 213.139756,123.41608 C211.674878,121.794251 201.316098,132.204825 208.745122,150.307056 C216.174146,168.408763 207.384878,171.49547 211.517927,174.163641 C215.650976,176.779495 234.851341,180.598118 245.157805,180.232422 C250.808049,180.023153 256.51061,181.382874 263.730366,172.227386 C277.699024,154.597056 272.415,142.040958 271.15939,139.425105 C269.90378,136.809251 263.311829,130.74047 263.311829,130.74047 L249.70939,124.253153 L231.607683,122.579007 Z" id="Fill-41" fill="#0066CC"></path>
                <path d="M43.3709583,171.704425 L91.2933973,186.300888 L93.8814778,182.519214 L98.405431,171.290209 L99.7789348,169.861091 C99.7789348,169.861091 83.8120559,170.710924 80.5683973,164.589303 L79.5973765,159.405473 L56.9055188,163.595174 C56.9578359,163.595174 41.0690071,161.084059 43.3709583,171.704425 Z" id="Fill-43" fill="#000000"></path>
                <path d="M270.531795,97.1004878 L264.306063,134.036341 C264.306063,134.036341 270.008624,164.170976 253.737491,167.31 C237.467404,170.449024 211.832039,165.374268 211.832039,165.374268 C211.832039,165.374268 208.536063,174.11122 211.570453,174.058902 C214.604843,174.006585 256.771881,193.520854 269.432613,163.490854 C269.432613,163.490854 277.018589,151.457927 271.26371,139.320366 C271.26371,139.320366 268.909442,123.15439 279.164112,109.970488 L274.66432,89.9853659 L270.531795,97.1004878 Z" id="Fill-45" fill="#000000" opacity="0.1"></path>
                <path d="M175.052875,66.285784 L174.843606,66.0765157 L204.141167,93.438345 L203.513362,94.0661499 C201.891533,95.6879791 199.327996,93.7522474 197.706167,92.1304182 L176.151533,71.8313938 C174.529704,70.3141987 173.431045,67.9076133 175.052875,66.285784" id="Fill-49" fill="#000000"></path>
                <path d="M209.896098,87.4218293 L203.827317,93.7521951 C203.199512,94.4323171 202.100854,94.4323171 201.473049,93.8045122 L175.105244,68.5876829 C174.425122,67.959878 174.425122,66.8612195 175.052927,66.2334146 L181.121707,59.9030488 C181.749512,59.2229268 182.848171,59.2229268 183.475976,59.8507317 L209.791463,85.067561 C210.523902,85.6953659 210.523902,86.7417073 209.896098,87.4218293" id="Fill-51" fill="#000000"></path>
                <path d="M181.226446,61.2632927 L180.912544,61.6295122 L181.644983,62.3096341 C182.011202,62.6758537 182.168153,63.1467073 181.958885,63.3559756 L178.610592,66.8612195 C178.401324,67.0704878 177.93047,66.9658537 177.564251,66.5996341 L176.831812,65.9195122 L176.51791,66.2857317 C175.78547,67.0704878 176.204007,68.7446341 177.511934,70.0002439 L199.955958,91.502561 C201.263885,92.7581707 202.938031,93.1243902 203.67047,92.3396341 L208.483641,87.3171951 C209.21608,86.532439 208.797544,84.8582927 207.489617,83.6026829 L185.045592,62.1003659 C183.633031,60.8447561 181.958885,60.4785366 181.226446,61.2632927" id="Fill-53" fill="#FFFFFF"></path>
                <polygon id="Fill-55" fill="#FFFFFF" points="176.779495 65.9194599 180.912544 61.5771428 183.005227 63.3559233 179.343031 67.6459233 177.198031 67.6459233"></polygon>
            </g>
        </g>
    </g>
</svg>