<?xml version="1.0" encoding="UTF-8"?>
<svg width="500px" height="244px" viewBox="0 0 500 244" version="1.1" xmlns="http://www.w3.org/2000/svg" xmlns:xlink="http://www.w3.org/1999/xlink">
    <!-- Generator: Sketch 55 (78076) - https://sketchapp.com -->
    <title>分组</title>
    <desc>Created with Sketch.</desc>
    <defs>
        <polygon id="path-1" points="8.46828348e-05 0.175580654 499.489311 0.175580654 499.489311 49.2957746 8.46828348e-05 49.2957746"></polygon>
        <linearGradient x1="61.3693935%" y1="4.10704774%" x2="40.4960061%" y2="58.828116%" id="linearGradient-3">
            <stop stop-color="#009FE8" offset="0%"></stop>
            <stop stop-color="#0066CC" offset="100%"></stop>
        </linearGradient>
    </defs>
    <g id="官网h5" stroke="none" stroke-width="1" fill="none" fill-rule="evenodd">
        <g id="ONT-ID-2.0-Landingpage" transform="translate(-1011.000000, -1530.000000)">
            <g id="分组" transform="translate(1011.000000, 1530.000000)">
                <path d="M293.77484,55.1240077 C293.77484,55.1240077 293.24475,93.8576825 288.983547,106.932586 C284.722343,120.00749 318.758835,115.145134 318.758835,115.145134 L324.068054,65.5465429 L293.77484,55.1240077 Z" id="Fill-1" fill="#000000"></path>
                <path d="M344.048464,24.4529449 C344.048464,24.4529449 345.761652,49.987516 348.765493,71.7211908 C351.250768,89.7051857 358.305186,103.338988 362.953073,118.166773 C373.390333,151.463188 326.376248,106.932458 326.376248,106.932458 L314.835275,46.5982714 L344.048464,24.4529449 Z" id="Fill-3" fill="#000000"></path>
                <g transform="translate(0.000000, 194.430218)">
                    <mask id="mask-2" fill="white">
                        <use xlink:href="#path-1"></use>
                    </mask>
                    <g id="Clip-6"></g>
                    <path d="M342.448592,9.8871959 C389.061908,9.33790013 435.673303,9.65288092 482.283419,10.8334187 C486.293022,10.9352113 490.453713,11.0658131 493.994686,12.1272727 C497.535659,13.1887324 500.260371,15.4672215 499.291741,17.6554417 C481.097119,18.193854 462.883291,18.3596671 444.650256,18.1541613 C440.679706,20.0991037 436.320551,23.0286812 438.761012,25.6516005 C440.449232,27.4665813 444.617606,28.0069142 448.262292,28.0113956 C454.864085,28.0184379 461.492766,26.9352113 467.996607,27.5709347 C474.501088,28.2066581 480.990845,31.6272727 479.085595,35.1791293 C477.638732,37.8756722 472.149616,39.2111396 467.154097,39.4492958 C462.158579,39.687452 457.043982,39.1919334 452.16114,39.8302177 C447.520935,40.4377721 443.501088,42.0145967 439.158579,43.1151088 C432.307746,44.8513444 424.714277,45.3884763 417.243086,45.8449424 C359.874968,49.3494238 302.030538,49.321895 244.324392,49.2898848 C220.962676,49.2770807 197.283419,49.2418694 174.72388,45.8314981 C161.864085,43.8871959 149.541421,40.86863 136.519654,39.3014085 C120.965237,37.4300896 104.890333,37.6848912 88.9838028,37.740589 C61.059347,37.8391805 33.1585787,37.3007682 5.28149808,36.1259923 C3.20723431,36.0389245 0.66049936,35.7425096 0.100960307,34.6170294 C-0.55268886,33.3033291 2.09903969,32.2783611 4.34039693,31.7533931 C17.040781,28.8135723 29.9549936,26.8878361 42.9607554,25.9928297 C49.5471831,25.5299616 56.3339949,25.293726 62.3922535,23.7700384 C68.4505122,22.2450704 73.7424456,19.0478873 73.6854673,15.3180538 C73.668822,14.1804097 73.1886684,12.9633803 74.137452,11.9582586 C75.3986556,10.6240717 78.5004481,10.3180538 81.1771447,10.1720871 C110.846159,8.56005122 140.676504,7.8865557 170.479962,8.15736236 C180.963956,8.25211268 191.490845,8.46274008 201.899936,7.75723431 C210.429385,7.17848912 218.783419,5.99026889 227.189309,4.99282971 C238.472279,3.65416133 287.576633,-3.28053777 294.739885,2.34622279 C300.101601,6.55877081 289.031178,7.46786172 303.41274,9.18617157 C315.934507,10.6829706 329.748207,10.0370038 342.448592,9.8871959" id="Fill-5" fill-opacity="0.04" fill="#000000" mask="url(#mask-2)"></path>
                </g>
                <path d="M314.184507,0.000128040973 C330.861204,0.000128040973 344.37977,13.518694 344.37977,30.1953905 C344.37977,46.8720871 330.861204,60.390653 314.184507,60.390653 C297.50781,60.390653 283.988604,46.8720871 283.988604,30.1953905 C283.988604,13.518694 297.50781,0.000128040973 314.184507,0.000128040973" id="Fill-7" fill="#000000"></path>
                <path d="M309.52644,18.4234955 C322.019398,18.4234955 332.146799,28.5508963 332.146799,41.043854 C332.146799,53.5368118 322.019398,62.1110755 309.52644,62.1110755 C303.40096,62.1110755 298.323496,66.4234955 294.250512,62.4689501 C290.016837,58.3581946 286.906082,47.4106914 286.906082,41.043854 C286.906082,28.5508963 297.033483,18.4234955 309.52644,18.4234955" id="Fill-9" fill="#FFE5CF"></path>
                <path d="M301.678617,59.5091549 C301.678617,59.5091549 310.911012,73.3587068 309.526248,79.3599872 C309.526248,79.3599872 303.524968,82.1295134 303.524968,83.0526889 C303.524968,83.9758643 297.985275,92.7473111 297.985275,92.7473111 L291.522407,101.518118 L288.752881,113.059091 L302.140205,113.059091 L316.912292,101.518118 L331.223431,85.8228553 C331.223431,85.8228553 340.918054,81.206338 345.995519,84.8990397 L348.765685,87.2076184 C348.765685,87.2076184 339.071063,74.281242 334.454545,71.5117157 C334.454545,71.5117157 326.145327,61.356146 327.068502,51.199936 L301.678617,59.5091549 Z" id="Fill-11" fill="#FFE5CF"></path>
                <path d="M305.371703,78.8978873 C305.371703,78.8978873 296.139309,83.9759923 292.445967,93.6699744 C288.753265,103.364597 272.134187,135.678937 272.134187,135.678937 C272.134187,135.678937 270.748784,156.452945 271.672599,157.37612 C272.595775,158.299296 283.213572,148.143086 285.059923,145.37356 C286.906274,142.604033 294.292318,109.365877 294.292318,109.365877 L306.294878,89.9772727 L308.603457,78.8978873 L305.371703,78.8978873 Z" id="Fill-13" fill="#FFE5CF"></path>
                <path d="M276.288668,137.06402 L272.133739,135.679257 C272.133739,135.679257 245.359091,120.444942 243.974328,113.521127 C242.589565,106.596031 223.662548,83.053137 223.20096,95.5172855 C222.738732,107.980794 237.973047,121.830346 237.973047,121.830346 C237.973047,121.830346 271.210563,168.455186 273.057554,155.067862 L276.288668,137.06402 Z" id="Fill-15" fill="#FFE5CF"></path>
                <path d="M318.297695,105.211268 C318.297695,105.211268 318.759283,118.137004 336.763124,122.752881 C336.763124,122.752881 353.424456,148.138924 357.074904,158.761204 C361.403969,171.358515 407.393086,226.621639 407.393086,226.621639 C407.393086,226.621639 452.171575,232.161332 452.171575,226.621639 C452.171575,221.081306 414.779129,216.465429 414.779129,216.465429 C414.779129,216.465429 376.138284,158.134443 373.693982,150.451344 C372.126761,145.525608 354.995519,91.6606914 345.995519,84.8988476 C345.995519,84.8988476 338.147887,81.206146 333.53137,83.9756722 C328.914853,86.7458387 318.297695,105.211268 318.297695,105.211268" id="Fill-17" fill="#FFE5CF"></path>
                <path d="M264.286364,157.37612 C264.286364,157.37612 231.971383,113.982394 225.046927,111.212868 C218.123111,108.442702 209.351665,108.442702 204.27356,114.90557 C199.195455,121.368438 139.18265,195.230154 139.18265,195.230154 C139.18265,195.230154 117.947695,216.927337 107.329898,212.772407 C107.329898,212.772407 101.790845,217.388284 114.716581,218.3121 C127.642318,219.235275 139.644878,215.541933 139.644878,215.541933 C139.644878,215.541933 147.49251,216.927337 153.032202,218.3121 C158.571895,219.696863 165.496351,220.158451 165.034763,216.465749 L163.187772,201.693022 C163.187772,201.693022 210.736428,162.454225 212.121831,145.835147 C212.121831,145.835147 211.198015,137.987516 212.121831,138.910691 C213.044366,139.833867 232.433611,160.607875 241.204417,165.223752 C249.975224,169.840269 271.672407,176.302497 271.672407,176.302497 L264.286364,157.37612 Z" id="Fill-19" fill="#FFE5CF"></path>
                <path d="M264.286364,157.37612 C264.286364,157.37612 231.971383,113.982394 225.046927,111.212868 C218.123111,108.442702 209.351665,108.442702 204.27356,114.90557 C199.195455,121.368438 139.18265,195.230154 139.18265,195.230154 C139.18265,195.230154 117.947695,216.927337 107.329898,212.772407 C107.329898,212.772407 101.790845,217.388284 114.716581,218.3121 C127.642318,219.235275 139.644878,215.541933 139.644878,215.541933 C139.644878,215.541933 147.49251,216.927337 153.032202,218.3121 C158.571895,219.696863 165.496351,220.158451 165.034763,216.465749 L163.187772,201.693022 C163.187772,201.693022 210.736428,162.454225 212.121831,145.835147 C212.121831,145.835147 211.198015,137.987516 212.121831,138.910691 C213.044366,139.833867 232.433611,160.607875 241.204417,165.223752 C249.975224,169.840269 271.672407,176.302497 271.672407,176.302497 L264.286364,157.37612 Z" id="Fill-21" fill-opacity="0.04" fill="#000000"></path>
                <path d="M306.987516,13.1149808 C316.930538,13.1149808 324.991357,19.4190781 324.991357,27.1950064 C324.991357,34.9709347 316.930538,41.2743918 306.987516,41.2743918 C297.044494,41.2743918 288.983675,34.9709347 288.983675,27.1950064 C288.983675,19.4190781 297.044494,13.1149808 306.987516,13.1149808" id="Fill-25" fill="#000000"></path>
                <path d="M318.759091,2.66350832 L318.759091,4.34404609 L308.141933,4.34404609 L308.141933,2.66350832 C308.141933,1.29667093 309.249488,0.189756722 310.615685,0.189116517 L316.284699,0.189116517 C317.651536,0.189756722 318.759091,1.29667093 318.759091,2.66350832" id="Fill-27" fill="#000000"></path>
                <path d="M299.261908,32.9650448 C299.261908,32.9650448 312.163316,45.2947503 312.556402,52.8709347 L316.2363,45.5066581 L316.249104,69.1993598 L337.389949,62.2076825 L328.453329,20.1206146 L299.261908,32.9650448 Z" id="Fill-29" fill="#000000"></path>
                <polygon id="Fill-35" fill="#000000" points="247.873944 106.117862 243.065365 110.92644 215.657554 83.51863 220.466133 78.7100512"></polygon>
                <path d="M101.3758,222.129321 L166.330346,220.03265 L165.62356,202.68758 L164.715109,200.161332 L164.517286,200.261844 C164.517286,200.261844 153.259283,210.798976 141.330346,200.385403 L130.362356,199.46863 L111.230474,210.15493 C111.230474,210.15493 94.3277849,210.840589 101.3758,222.129321" id="Fill-37" fill="#FFFFFF"></path>
                <path d="M101.3758,222.129321 L166.330346,220.03265 L165.62356,202.68758 L164.715109,200.161332 L164.517286,200.261844 C164.517286,200.261844 153.259283,210.798976 141.330346,200.385403 L130.362356,199.46863 L111.230474,210.15493 C111.230474,210.15493 94.3277849,210.840589 101.3758,222.129321" id="Fill-39"></path>
                <path d="M269.364213,163.377401 C269.364213,163.377401 226.893662,147.220551 221.353969,143.526569 C215.814277,139.833867 195.964085,132.447823 185.807875,140.757042 C175.652305,149.066261 126.257298,187.382522 109.63822,191.075864 C93.0191421,194.768566 64.3981434,203.539373 64.3981434,203.539373 C64.3981434,203.539373 45.9327145,204.924136 65.7829065,212.772407 C65.7829065,212.772407 90.2496159,215.080346 94.4045455,218.773047 C98.559475,222.466389 112.407746,227.082907 113.331562,221.081626 C114.254738,215.080346 117.024264,207.232714 122.102369,206.309539 C127.180474,205.385723 188.116453,182.303777 197.348848,164.300576 C197.348848,164.300576 218.122855,173.995198 231.048592,187.382522 C243.974328,200.769846 274.442318,216.465749 274.442318,216.465749 L269.364213,163.377401 Z" id="Fill-41" fill="#FFE5CF"></path>
                <path d="M51.1800896,209.465877 L109.848464,227.357682 L118.842061,211.178425 L118.842061,208.492766 L122.321575,206.417862 C122.321575,206.417862 100.776761,208.289181 96.7607554,200.789821 L86.7511524,196.214917 L65.1314341,199.795583 C65.1314341,199.795583 48.3689501,196.458195 51.1800896,209.465877" id="Fill-45" fill="#FFFFFF"></path>
                <path d="M281.567841,149.323125 C281.566363,149.32286 281.565621,149.322727 281.565621,149.322727 C281.565621,149.322727 288.753201,139.372023 283.675096,135.217734 C278.596991,131.062804 273.024648,111.743982 285.043854,105.246543 L286.912178,102.884138 L286.906402,102.890525 L294.542125,88.7765685 C297.545967,85.4129321 299.955698,79.8463508 305.371831,78.8975672 L305.882119,78.8975672 L306.064341,78.6671575 L307.907618,78.8975672 L308.603585,78.8975672 L308.532903,78.9757278 L309.757042,79.1287452 C309.757042,79.1287452 304.910051,83.5141485 304.448464,85.8227273 C303.986876,88.1306658 285.521447,104.288156 292.90749,107.057682 C300.293534,109.827849 312.296735,103.826569 317.3742,96.9014725 C320.166773,93.0928937 324.077145,87.8880282 329.027849,84.5896927 C334.201985,81.2132522 340.785851,80.859219 346.292254,83.6626761 L347.84219,84.4379641 C350.859475,86.5493598 352.304417,90.3861076 353.755122,93.7721511 L354.185824,95.8619853 L364.599424,123.693214 L344.379834,136.96146 L340.004368,133.349022 C335.994549,139.698138 327.761551,154.955467 330.299936,169.840013 C330.299936,169.840013 330.277234,169.885432 330.20869,169.92998 C333.136326,186.986808 330.034859,200.344207 320.904289,210.002177 C311.131527,220.339433 296.819171,221.957714 289.979222,220.978841 C282.547084,219.914821 271.699525,216.33394 266.639346,213.102186 C261.579167,209.871712 262.711588,205.385659 253.602753,183.227529 C244.494558,161.069398 257.137964,148.322279 258.950384,150.319078 C260.763444,152.316517 281.565621,149.322919 281.565621,149.322919 L281.567841,149.323125 Z" id="形状结合" fill="url(#linearGradient-3)"></path>
            </g>
        </g>
    </g>
</svg>