<?xml version="1.0" encoding="UTF-8"?>
<svg width="390px" height="237px" viewBox="0 0 390 237" version="1.1" xmlns="http://www.w3.org/2000/svg" xmlns:xlink="http://www.w3.org/1999/xlink">
    <!-- Generator: Sketch 55.2 (78181) - https://sketchapp.com -->
    <title>编组</title>
    <desc>Created with Sketch.</desc>
    <defs>
        <polygon id="path-1" points="0.000368421053 0.387631579 389.764579 0.387631579 389.764579 58.9473684 0.000368421053 58.9473684"></polygon>
    </defs>
    <g id="页面1" stroke="none" stroke-width="1" fill="none" fill-rule="evenodd">
        <g id="插画" transform="translate(-1138.000000, -496.000000)">
            <g id="编组" transform="translate(1138.000000, 496.000000)">
                <path d="M186.777,51.2785789 C186.777,51.2785789 189.619105,60.5417368 168.250684,71.2259474 C146.882263,81.9101579 170.408579,93.3312105 170.408579,93.3312105 L195.355947,99.0154211 C195.355947,99.0154211 221.040684,95.4364737 223.882263,91.1733158 C226.724368,86.9101579 231.724368,72.647 230.303316,70.4891053 C229.250684,68.9627895 228.040158,67.5417368 226.724368,66.2259474 C226.724368,66.2259474 209.619105,63.3838421 210.303316,55.5417368 C211.040684,47.6996316 186.777,51.2785789 186.777,51.2785789" id="Fill-1" fill="#F7CDCD"></path>
                <path d="M186.777,51.2785789 C186.777,51.2785789 189.619105,60.5417368 168.250684,71.2259474 C146.882263,81.9101579 170.408579,93.3312105 170.408579,93.3312105 L195.355947,99.0154211 C195.355947,99.0154211 221.040684,95.4364737 223.882263,91.1733158 C226.724368,86.9101579 231.724368,72.647 230.303316,70.4891053 C229.250684,68.9627895 228.040158,67.5417368 226.724368,66.2259474 C226.724368,66.2259474 209.619105,63.3838421 210.303316,55.5417368 C211.040684,47.6996316 186.777,51.2785789 186.777,51.2785789" id="Fill-3" fill-opacity="0.1" fill="#000000"></path>
                <path d="M197.935,10.1732632 C197.935,10.1732632 218.671842,11.2785263 218.882368,26.8048421 C218.882368,26.8048421 220.566579,40.0153684 210.566579,55.0153684 C210.566579,55.0153684 199.619211,68.6469474 185.829737,55.0153684 C185.829737,55.0153684 178.724474,44.1732632 178.145437,26.4364211 C178.145437,26.4364211 177.935,12.2258947 197.935,10.1732632" id="Fill-5" fill="#FFE5CF"></path>
                <g transform="translate(0.000000, 177.137368)">
                    <mask id="mask-2" fill="white">
                        <use xlink:href="#path-1"></use>
                    </mask>
                    <g id="Clip-8"></g>
                    <path d="M194.882474,0.387631579 C302.513,0.387631579 389.764579,13.4965789 389.764579,29.6676316 C389.764579,45.8381579 302.513,58.9476316 194.882474,58.9476316 C87.2519474,58.9476316 0.000368421053,45.8381579 0.000368421053,29.6676316 C0.000368421053,13.4965789 87.2519474,0.387631579 194.882474,0.387631579" id="Fill-7" fill="#F2F2F2" mask="url(#mask-2)"></path>
                </g>
                <path d="M134.040053,153.910158 C134.040053,153.910158 140.461105,163.910158 156.882158,166.015421 C173.303737,168.173316 176.145316,162.436474 174.724789,161.015421 C173.303737,159.594368 156.198474,153.173316 156.198474,153.173316 L146.198474,145.331211 L134.040053,153.910158 Z" id="Fill-9" fill="#FFE5CF"></path>
                <path d="M250.935105,145.383737 L232.408789,156.067947 C232.408789,156.067947 208.145632,154.647421 217.408789,161.752684 C226.671421,168.857947 243.776684,166.015316 243.776684,166.015316 L260.198263,158.173211 L250.935105,145.383737 Z" id="Fill-11" fill="#FFE5CF"></path>
                <path d="M158.250579,163.910158 C158.250579,163.910158 141.145316,194.804895 161.830053,199.489105 C182.514263,204.173316 239.566368,203.173316 252.408474,196.857526 C265.251105,190.541737 268.830053,182.225947 266.671632,179.594368 C264.513737,176.962789 250.251105,169.647 240.303211,169.120684 C230.303211,168.647 158.250579,163.910158 158.250579,163.910158" id="Fill-13" fill="#000000"></path>
                <path d="M239.040053,166.541737 C239.040053,166.541737 299.461632,144.699632 298.724263,171.068053 C297.987421,197.436474 260.197947,204.594368 260.197947,204.594368 L248.776895,206.015421 L186.040579,208.173316 C186.040579,208.173316 188.197947,196.752263 183.197947,195.331211 C183.197947,195.331211 199.619526,191.068053 200.303211,190.331211 C201.040579,189.594368 241.671632,175.331211 244.513737,174.647 C247.356368,173.962789 255.935316,168.225947 262.356368,168.962789 C262.356368,168.962789 269.461632,163.278579 277.356368,164.699632 L255.251105,166.120684 L239.040053,166.541737 Z" id="Fill-15" fill="#2F2E41"></path>
                <path d="M239.040053,166.541737 C239.040053,166.541737 299.461632,144.699632 298.724263,171.068053 C297.987421,197.436474 260.197947,204.594368 260.197947,204.594368 L248.776895,206.015421 L186.040579,208.173316 C186.040579,208.173316 188.197947,196.752263 183.197947,195.331211 C183.197947,195.331211 199.619526,191.068053 200.303211,190.331211 C201.040579,189.594368 241.671632,175.331211 244.513737,174.647 C247.356368,173.962789 255.935316,168.225947 262.356368,168.962789 C262.356368,168.962789 269.461632,163.278579 277.356368,164.699632 L255.251105,166.120684 L239.040053,166.541737 Z" id="Fill-17" fill="#000000"></path>
                <polygon id="Fill-19" fill="#2F2E41" points="228.355947 170.068158 235.987526 187.436579 282.356474 171.067632 285.882263 161.752368 273.777 159.647105 249.408579 163.910263 238.829632 166.752368"></polygon>
                <polygon id="Fill-21" fill="#000000" points="228.355947 170.068158 235.987526 187.436579 282.356474 171.067632 285.882263 161.752368 273.777 159.647105 249.408579 163.910263 238.829632 166.752368"></polygon>
                <path d="M129.724684,183.962579 C129.724684,183.962579 143.250474,197.699947 158.935211,201.121 C174.619421,204.542053 183.198368,199.962579 183.198368,199.962579 L178.198368,183.962579 L176.040474,173.646789 L166.776789,168.489421 L148.250474,161.647316 L126.145211,155.909947 C126.145211,155.909947 116.882579,154.752053 116.882579,155.909947 C116.882579,157.067842 125.461,174.225737 125.461,174.225737 L129.724684,183.962579 Z" id="Fill-23" fill="#000000"></path>
                <path d="M146.145316,200.278368 C146.145316,200.278368 148.987421,220.963105 152.566368,222.383632 C156.145316,223.804684 166.829526,220.963105 169.671632,219.542053 C172.514263,218.120474 182.197947,211.541526 182.197947,211.541526 C182.197947,211.541526 148.303737,198.857842 146.145316,200.278368" id="Fill-25" fill="#FFFFFF"></path>
                <polygon id="Fill-27" fill="#FFE5CF" points="211.040474 202.436579 224.566263 204.541842 223.145737 220.962895 204.251 216.383947"></polygon>
                <path d="M219.513947,206.962684 C219.513947,206.962684 213.145526,214.541632 219.566579,218.804789 L223.829737,222.383737 C223.829737,222.383737 238.092895,225.225842 239.513947,226.646895 C240.935,228.068474 246.619211,224.489 246.619211,224.489 C246.619211,224.489 247.356053,203.120579 246.619211,201.646895 C245.882368,200.225842 237.356053,198.804789 236.619211,200.225842 C235.882368,201.646895 227.356053,203.804789 222.356053,202.383737 L219.513947,206.962684 Z" id="Fill-29" fill="#FFFFFF"></path>
                <path d="M162.566474,168.910158 C162.566474,168.910158 112.671737,139.699632 104.829632,150.383842 C96.9875263,161.068053 90.1980526,180.225947 113.040158,191.647 C118.724368,194.489105 130.092789,201.804895 139.829632,205.225947 C168.987526,215.489105 206.408579,220.278579 206.408579,220.278579 C206.408579,220.278579 216.040684,205.962789 216.040684,201.699632 C216.040684,201.699632 178.250684,184.594368 171.830158,183.173316 C165.408579,181.752263 139.724895,165.331211 136.198053,163.910158 C132.619632,162.489105 127.619632,158.225947 127.619632,158.225947 L162.566474,168.910158 Z" id="Fill-31" fill="#000000"></path>
                <path d="M148.303526,80.4891053 L145.461421,82.647 C145.461421,82.647 139.039842,99.0680526 138.356158,108.331211 C137.618789,117.594368 129.093,146.120684 129.777211,149.699632 C130.461421,153.278579 131.198263,156.120684 135.461421,159.699632 C135.461421,159.699632 141.145105,146.857526 151.145105,149.015421 L163.250368,104.804895 L148.303526,80.4891053 Z" id="Fill-33" fill="#0066CC"></path>
                <path d="M248.092789,80.4891053 L253.777,86.9101579 C253.777,86.9101579 257.356474,95.4891053 257.356474,97.5943684 C257.356474,99.6996316 264.461737,131.120684 265.198053,132.541737 C265.934895,133.962789 268.777,151.804895 265.198053,156.068053 C261.619105,160.331211 255.198053,163.173316 255.198053,163.173316 C255.198053,163.173316 259.461737,148.173316 245.934895,147.489105 L247.356474,141.804895 L234.513842,99.0154211 L248.092789,80.4891053 Z" id="Fill-35" fill="#0066CC"></path>
                <path d="M214.198368,29.9627895 C214.198368,29.9627895 225.355737,31.5943684 221.408368,13.2259474 C221.408368,13.2259474 218.566789,5.33121053 209.724684,1.59436842 C209.724684,1.59436842 190.829947,-4.51089474 180.040474,7.17331579 C178.355737,9.01542105 177.197842,11.2259474 176.724684,13.6996316 C175.882053,18.1206842 176.250474,25.2785789 185.776789,28.647 C185.776789,28.647 204.197842,27.4891053 214.777316,35.9101579 C214.777316,35.9101579 215.987316,32.8575263 214.198368,29.9627895" id="Fill-37" fill="#000000"></path>
                <path d="M176.987737,16.9626842 C176.987737,16.9626842 174.935105,29.7521579 176.198263,35.9100526 L179.356158,37.2258421 C179.356158,37.2258421 181.408263,23.3311053 183.461421,21.4363684 L176.987737,16.9626842 Z" id="Fill-39" fill="#000000"></path>
                <path d="M216.250684,28.4365263 C216.250684,28.4365263 218.303316,32.8575789 218.040158,37.226 L220.145421,35.9102105 C220.145421,35.9102105 221.250684,28.5944211 220.145421,24.6470526 L216.250684,28.4365263 Z" id="Fill-41" fill="#000000"></path>
                <path d="M217.250895,35.2259474 C217.250895,35.2259474 220.198263,32.1206842 221.777211,35.647 C221.777211,35.647 222.618789,41.1733158 215.513526,48.7522632 L212.935105,50.4364737 L217.250895,35.2259474 Z" id="Fill-43" fill="#FFE5CF"></path>
                <path d="M179.724684,34.805 C179.724684,34.805 176.776789,31.6997368 175.197842,35.2260526 C175.197842,35.2260526 174.356263,40.7523684 181.461526,48.3313158 L184.039947,50.0155263 L179.724684,34.805 Z" id="Fill-45" fill="#FFE5CF"></path>
                <path d="M197.566474,81.91 C197.566474,81.91 196.671737,74.7521053 195.934895,70.1205263 C194.145421,68.6468421 190.724368,67.2257895 188.777,67.1205263 C186.145421,66.9626316 184.566474,63.91 182.093316,61.8047368 C176.250684,66.3310526 177.303316,67.0678947 170.145421,70.2257895 C170.145421,70.2257895 160.355947,69.0678947 157.513842,71.9626316 C154.671737,74.8047368 145.408579,76.9626316 145.408579,84.0678947 C145.408579,91.1731579 158.829632,120.541579 158.829632,120.541579 C158.829632,120.541579 169.619105,141.067895 166.092789,146.067895 C162.513842,151.067895 161.830158,163.91 161.830158,163.91 C161.830158,163.91 197.461211,161.067895 203.198053,163.91 C208.935421,166.752632 231.724368,166.752632 233.145947,163.91 C234.566474,161.067895 237.777,139.541579 237.777,139.541579 C237.777,139.541579 241.303842,126.699474 239.882263,116.699474 L253.829632,86.91 C253.829632,86.91 247.408579,67.6468421 237.408579,67.6468421 C237.408579,67.6468421 225.303316,65.6994737 223.514368,65.3310526 C221.724368,64.9626316 216.513842,64.1205263 211.040684,58.6468421 C209.355947,62.4363158 201.830158,72.4889474 197.566474,81.91" id="Fill-47" fill="#0978D3"></path>
                <path d="M149.724684,129.594263 L149.724684,167.173211 C149.724684,172.120579 153.672053,176.120579 158.618895,176.226368 L237.145737,177.384271 C242.039947,177.436368 246.093105,173.594789 246.303632,168.699526 L247.724158,131.120579 C247.935211,126.120579 244.039947,121.962684 239.039947,121.752158 L238.829947,121.752158 L158.829947,120.593743 C153.829947,120.541632 149.724158,124.489 149.671526,129.489 C149.724684,129.489 149.724684,129.541632 149.724684,129.594263 Z" id="Fill-49" fill="#3F3D56"></path>
            </g>
        </g>
    </g>
</svg>