<?xml version="1.0" encoding="UTF-8"?>
<svg width="24px" height="28px" viewBox="0 0 24 28" version="1.1" xmlns="http://www.w3.org/2000/svg" xmlns:xlink="http://www.w3.org/1999/xlink">
    <!-- Generator: Sketch 55.2 (78181) - https://sketchapp.com -->
    <title>Fill 46</title>
    <desc>Created with Sketch.</desc>
    <g id="页面1" stroke="none" stroke-width="1" fill="none" fill-rule="evenodd">
        <g id="插画" transform="translate(-1225.000000, -467.000000)" fill="#0978D3">
            <g id="编组" transform="translate(1217.000000, 417.000000)">
                <g transform="translate(8.459656, 0.335743)" id="Fill-46">
                    <path d="M11.2620757,52.8524413 C15.5246849,52.8524413 18.9920864,56.3573825 18.9920864,60.6670485 C18.9920864,64.9767145 15.5246849,68.4816558 11.261547,68.4816558 C6.99946652,68.4816558 3.53206501,64.9761858 3.53206501,60.6670485 C3.53206501,56.3573825 6.99946652,52.8519125 11.2620757,52.8519125 L11.2620757,52.8524413 Z M11.2430415,69.6913866 C16.1766071,69.6913866 20.1901852,65.6333953 20.1901852,60.6464281 C20.1901852,55.6594609 16.1766071,51.6014696 11.2430415,51.6014696 C6.31000456,51.6014696 2.2964265,55.6594609 2.2964265,60.6464281 C2.2964265,65.6333953 6.31000456,69.6913866 11.2430415,69.6913866 L11.2430415,69.6913866 Z M22.3495124,73.5981615 C22.9057348,74.5741943 22.4393962,74.8676386 22.0936078,74.7703526 L18.5749196,73.8371468 L17.6152774,77.384915 C17.526451,77.7344045 17.0421357,77.9966539 16.4843271,77.0206211 L12.7853425,70.5442257 C12.2814643,70.6235349 11.7685976,70.6769365 11.2425128,70.6769365 C10.8433227,70.6769365 10.4515349,70.6462703 10.0639769,70.5997421 L6.39830222,77.0200923 C5.83996492,77.9961252 5.35512088,77.7344045 5.26682322,77.3843863 L4.30718099,73.836618 L0.787435358,74.7698238 C0.443233103,74.8676386 -0.023634164,74.5741943 0.534174405,73.5981615 L4.01532286,67.5019219 C2.28215083,65.6407975 1.3188075,63.1906697 1.32197987,60.6469568 C1.32197987,55.107997 5.76382802,50.6175059 11.2430415,50.6175059 C16.7222549,50.6175059 21.1646318,55.107997 21.1646318,60.6469568 C21.1646318,63.1700492 20.2356558,65.4694895 18.7134465,67.2322703 L22.3495124,73.5981615 Z"></path>
                </g>
            </g>
        </g>
    </g>
</svg>