<?xml version="1.0" encoding="UTF-8"?>
<svg width="24px" height="23px" viewBox="0 0 24 23" version="1.1" xmlns="http://www.w3.org/2000/svg" xmlns:xlink="http://www.w3.org/1999/xlink">
    <!-- Generator: Sketch 55.2 (78181) - https://sketchapp.com -->
    <title>Fill 44</title>
    <desc>Created with Sketch.</desc>
    <g id="页面1" stroke="none" stroke-width="1" fill="none" fill-rule="evenodd">
        <g id="插画" transform="translate(-1252.000000, -423.000000)" fill="#0978D3">
            <g id="编组" transform="translate(1217.000000, 417.000000)">
                <g transform="translate(8.459656, 0.335743)" id="Fill-44">
                    <path d="M32.147909,24.4590862 L32.147909,25.9432271 L35.5079786,25.9432271 L35.5079786,24.4590862 L32.1473803,24.4590862 L32.147909,24.4590862 Z M36.377737,25.9432271 L39.7378066,25.9432271 L39.7378066,24.4590862 L36.377737,24.4590862 L36.377737,25.9432271 Z M40.7344599,25.9432271 L44.0950582,25.9432271 L44.0950582,24.4590862 L40.7344599,24.4590862 L40.7344599,25.9432271 Z M44.9627017,25.9432271 L48.3227713,25.9432271 L48.3227713,24.4590862 L44.9627017,24.4590862 L44.9627017,25.9432271 Z M43.4949514,17.1631616 C42.3899088,17.1631616 41.493714,18.1391945 41.493714,19.3457529 C41.493714,20.5512539 42.3899088,21.5299303 43.4949514,21.5299303 C43.9914274,21.5299303 44.4466627,21.3327146 44.7956235,21.0064891 C45.1466992,21.3406455 45.6119803,21.5278154 46.0962956,21.5299303 C47.2013382,21.5299303 48.0985904,20.5512539 48.0985904,19.3457529 C48.0985904,18.1391945 47.2018669,17.1631616 46.0962956,17.1631616 C45.6003483,17.1631616 45.1461705,17.3587912 44.7956235,17.6855454 C44.4450765,17.3519177 43.9792667,17.1647478 43.4949514,17.1631616 L43.4949514,17.1631616 Z M31.674697,5.93931301 C30.9339483,5.79549885 30.2069467,5.99535823 29.6348624,6.4326167 C29.0601345,6.86776025 28.6387379,7.54347528 28.5054983,8.35137243 L27.1794473,16.4911477 C27.0499088,17.2636201 27.211171,18.0567128 27.6315101,18.7181522 C27.8704954,19.0935494 28.1903761,19.4092003 28.568417,19.6323237 L28.568417,17.7801878 C28.568417,17.5729262 28.582164,17.3698945 28.6086004,17.1695064 C28.5948535,17.0367955 28.5985545,16.9030272 28.619175,16.7708451 L29.947341,8.63054108 C30.0070873,8.2562013 30.2037743,7.94478021 30.4718396,7.74121974 C30.7388475,7.53131452 31.0835785,7.44724669 31.4172062,7.51016538 L45.0467695,10.1548654 C45.3899143,10.219899 45.6770139,10.434034 45.8620689,10.7258921 C46.04871,11.0161641 46.134364,11.3846878 46.0730315,11.7595564 L45.9175854,12.7117964 L31.883016,9.98937333 L31.2696909,13.7422882 C31.6509042,13.6085199 32.0511517,13.5397852 32.4551002,13.5392565 L47.2700729,13.5392565 L47.5138167,12.038725 C47.6412403,11.2662527 47.4805068,10.4736886 47.0628113,9.81172055 C46.6604489,9.18782092 46.042894,8.72676967 45.3026741,8.58295551 L31.674697,5.93931301 Z M32.4551002,15.5352066 L47.778181,15.5352066 C48.9101887,15.5352066 49.8370497,16.5445493 49.8370497,17.7801878 L49.8370497,26.3492906 C49.8370497,27.583343 48.9101887,28.5942718 47.778181,28.5942718 L32.4551002,28.5942718 C31.3225638,28.5942718 30.3972889,27.583343 30.3972889,26.3492906 L30.3972889,17.7801878 C30.3972889,16.5445493 31.3225638,15.5352066 32.4551002,15.5352066 L32.4551002,15.5352066 Z"></path>
                </g>
            </g>
        </g>
    </g>
</svg>