<?xml version="1.0" encoding="UTF-8"?>
<svg width="27px" height="27px" viewBox="0 0 27 27" version="1.1" xmlns="http://www.w3.org/2000/svg" xmlns:xlink="http://www.w3.org/1999/xlink">
    <!-- Generator: Sketch 55.2 (78181) - https://sketchapp.com -->
    <title>Fill 42</title>
    <desc>Created with Sketch.</desc>
    <g id="页面1" stroke="none" stroke-width="1" fill="none" fill-rule="evenodd">
        <g id="插画" transform="translate(-1314.000000, -417.000000)" fill="#0978D3">
            <g id="编组" transform="translate(1217.000000, 417.000000)">
                <g transform="translate(8.459656, 0.335743)" id="Fill-42">
                    <path d="M101.946257,11.9356229 C104.314432,11.9356229 106.189304,10.0607517 106.189304,7.69257672 C106.189304,5.32440176 104.314432,3.35065826 101.946257,3.35065826 C99.5780824,3.35065826 97.7032111,5.32440176 97.7032111,7.69257672 C97.7032111,10.0607517 99.5780824,11.9356229 101.946257,11.9356229 M101.946257,25.8491135 C94.8412037,25.8491135 89.1182464,20.1256274 89.1182464,13.0211026 C89.1182464,5.91657768 94.8412037,0.193091649 101.946257,0.193091649 C109.051311,0.193091649 114.774268,5.91657768 114.774268,13.0211026 C114.774268,20.1256274 109.051311,25.8491135 101.946257,25.8491135 M108.360263,18.4485006 L108.360263,18.2507562 L108.360263,17.9551969 C108.064175,15.1920618 105.301568,13.0211026 101.946257,13.0211026 C98.5909463,13.0211026 95.8283398,15.1920618 95.5322519,17.8563247 L95.5322519,18.4485006 C95.5322519,19.5339802 96.4205158,20.4217154 97.5059954,20.4217154 L106.386519,20.4217154 C107.471999,20.4217154 108.360263,19.5339802 108.360263,18.4485006"></path>
                </g>
            </g>
        </g>
    </g>
</svg>