<?xml version="1.0" encoding="UTF-8"?>
<svg width="23px" height="25px" viewBox="0 0 23 25" version="1.1" xmlns="http://www.w3.org/2000/svg" xmlns:xlink="http://www.w3.org/1999/xlink">
    <!-- Generator: Sketch 55.2 (78181) - https://sketchapp.com -->
    <title>编组</title>
    <desc>Created with Sketch.</desc>
    <g id="页面1" stroke="none" stroke-width="1" fill="none" fill-rule="evenodd">
        <g id="插画" transform="translate(-1374.000000, -423.000000)" fill="#0978D3">
            <g id="编组" transform="translate(1217.000000, 417.000000)">
                <g transform="translate(8.459656, 0.335743)">
                    <g transform="translate(149.101437, 6.344742)">
                        <path d="M20.596936,7.00306188 C20.5831891,7.06122201 20.5742007,7.12043961 20.5704996,7.1796572 C20.4176971,9.35326007 19.9899557,12.5700443 19.2994363,14.4792829 C19.2798733,14.5295121 19.2624253,14.5839711 19.2470922,14.6363153 C18.752731,15.9782282 18.0934066,17.2535213 17.2833945,18.4325859 C15.7812768,20.5681203 13.8720382,22.0860998 11.7666413,22.7697458 C11.7164121,22.7866651 11.6667116,22.8056993 11.6180686,22.8268485 C11.4060485,22.8924108 11.1945571,22.9468698 10.9936402,22.9949841 C10.783735,22.9468698 10.5764735,22.8908246 10.3707981,22.8268485 C10.3237412,22.8030557 10.2750982,22.7824353 10.224869,22.765516 C8.11524228,22.0797551 6.21023349,20.5596607 4.70758709,18.4299423 C3.94093076,17.3116815 3.3091002,16.1061805 2.82531362,14.839347 L2.7766706,14.728314 C2.76345239,14.6960616 2.75287782,14.6632804 2.74388943,14.6299705 L2.69418895,14.4835127 C2.00155462,12.5658144 1.57169834,9.35061643 1.41836708,7.17754228 C1.41519471,7.11726723 1.40620632,7.05752091 1.39245938,6.99883205 L1.37871244,6.76513405 C2.03433578,6.66203199 2.66775253,6.51821784 3.24195168,6.33686397 C3.52640762,6.25226741 3.80769118,6.16026865 4.08685983,6.06139642 C4.76680468,5.86047959 5.607483,5.49565692 6.52482695,5.01345653 C6.54227499,5.00658306 6.55496447,4.99600849 6.56871141,4.98913502 C6.79130611,4.87122856 7.01601573,4.74486245 7.23861043,4.61796761 C7.55320388,4.44031483 7.86251006,4.25473113 8.16705768,4.06121649 L8.20036757,4.0390099 C8.54562728,3.81958757 8.88454225,3.58959067 9.21552629,3.3490192 L9.28108863,3.30090491 L9.39053543,3.22476801 L9.59145226,3.08042512 C10.0720665,2.7219472 10.5431636,2.35077979 10.9888817,1.96004943 C11.4414733,2.35077979 11.9062256,2.72459084 12.3868398,3.0761953 C12.456632,3.12589578 12.5227231,3.17665371 12.5941014,3.22476801 L12.707778,3.30513474 L12.746904,3.33580099 C12.8759137,3.42515611 13.0075671,3.51926978 13.1249448,3.59805033 C13.3433097,3.74873795 13.5637895,3.89308083 13.7625914,4.02156186 L13.8196941,4.05910158 C14.3362618,4.39061435 14.867634,4.69992052 15.4116956,4.98490519 L15.4513502,5.00658306 C16.372924,5.49407073 17.2157173,5.85836467 17.897777,6.06139642 C18.1943937,6.16608466 18.4698613,6.25808342 18.7231222,6.33051922 C19.3100108,6.51610293 19.9481862,6.66203199 20.6080393,6.76513405 L20.596936,7.00306188 Z M21.8986656,5.76900956 L21.8769877,5.76900956 C21.8769877,5.71878035 21.8812176,5.66855114 21.8859761,5.62043685 C20.9406095,5.55804688 20.006875,5.38409521 19.103278,5.10281164 C18.8288679,5.02085873 18.5576302,4.93150361 18.2885074,4.83421756 C17.5091616,4.58201407 16.7567809,4.25261621 16.0429974,3.85131128 L16.0170897,3.83597815 C15.8071845,3.72230153 15.5930495,3.60439507 15.3767995,3.47591404 C15.0807116,3.30619219 14.7899109,3.12853942 14.50334,2.94295571 L14.4705589,2.92074912 C14.2601249,2.78698081 14.0528634,2.64845394 13.8477167,2.50622597 C13.7123622,2.41422721 13.5796513,2.31588371 13.4442969,2.21965512 L13.1423929,2.00129025 C12.3873686,1.43713694 11.6693553,0.823811879 10.9936402,0.166602351 C10.3184539,0.824869336 9.59991191,1.43766567 8.84383016,2.00129025 C8.74390047,2.07795588 8.64344206,2.14563313 8.54298364,2.21965512 C8.40710041,2.31588371 8.27386083,2.41422721 8.13903506,2.50358233 C7.93335968,2.65004012 7.72345446,2.78750953 7.51672162,2.92074912 L7.48341172,2.94295571 C7.1973696,3.12853942 6.9060402,3.30619219 6.60995224,3.47591404 C6.39158737,3.60439507 6.17956724,3.72441644 5.97019075,3.83597815 L5.94375433,3.84919637 C5.22891339,4.24891511 4.47706146,4.57831297 3.69877311,4.83421756 C3.42542047,4.93256107 3.15259656,5.02191618 2.88400249,5.10281164 C2.047554,5.37140572 1.07099245,5.5527596 0.101304381,5.62043685 L0.0970745529,5.62043685 L0.107649123,5.76900956 L0.0817414264,5.76900956 C0.107649123,6.19886583 0.138844105,6.76724897 0.171096543,7.38533259 L0.188544584,7.38533259 C0.352450419,9.6895314 0.822490057,12.9655332 1.52781388,14.8901049 C1.55583649,14.9725866 1.58438783,15.0598268 1.617169,15.1449521 C1.63038721,15.1846067 1.65206508,15.2195028 1.66475456,15.2586287 C2.13638038,16.4688882 2.73437232,17.6257462 3.44921325,18.7096396 C5.12052405,21.2649845 7.32214953,23.0996724 9.8203917,23.9229027 L9.8203917,23.9361209 C10.2877877,24.0889234 10.6764031,24.185152 10.9867668,24.2443696 C11.2971304,24.185152 11.6899757,24.0910383 12.1531418,23.9361209 L12.1531418,23.9229027 C14.6519127,23.0996724 16.8535382,21.2628696 18.5243203,18.7096396 C19.2391612,17.6252175 19.8371532,16.4688882 20.308779,15.2586287 C20.3214685,15.215273 20.3436751,15.1824918 20.3568933,15.1433659 C20.3875595,15.0577119 20.4134672,14.9704717 20.4462484,14.8874613 C21.1515722,12.9613034 21.6194969,9.68741648 21.784989,7.38321767 L21.802437,7.38321767 C21.8457927,6.76513405 21.8743441,6.19727964 21.8986656,5.76689464 L21.8986656,5.76900956 Z" id="Fill-38"></path>
                        <path d="M16.3226948,9.49072948 L10.0213085,15.951263 L6.79553594,12.644595 C6.57928598,12.4209428 6.22239425,12.4145981 5.99874209,12.6308481 C5.99451226,12.6356066 5.9897537,12.6398364 5.98499515,12.644595 C5.76345791,12.8767068 5.76345791,13.2420582 5.98499515,13.4746987 L9.61524504,17.1958899 C9.83255246,17.4195421 10.1889155,17.4243006 10.4120389,17.207522 C10.41574,17.2038209 10.4194411,17.2001198 10.4236709,17.1958899 L17.1284771,10.3203045 C17.3500143,10.0881927 17.3500143,9.72284129 17.1284771,9.49072948 C16.9132846,9.26760605 16.557979,9.26073258 16.3348556,9.47645381 C16.330097,9.48068364 16.3253385,9.48597092 16.3205799,9.49072948 L16.3226948,9.49072948 Z" id="Fill-40"></path>
                    </g>
                </g>
            </g>
        </g>
    </g>
</svg>