<?xml version="1.0" encoding="UTF-8"?>
<svg width="26px" height="24px" viewBox="0 0 26 24" version="1.1" xmlns="http://www.w3.org/2000/svg" xmlns:xlink="http://www.w3.org/1999/xlink">
    <!-- Generator: Sketch 55.2 (78181) - https://sketchapp.com -->
    <title>编组</title>
    <desc>Created with Sketch.</desc>
    <g id="页面1" stroke="none" stroke-width="1" fill="none" fill-rule="evenodd">
        <g id="插画" transform="translate(-1391.000000, -458.000000)" fill="#0978D3">
            <g id="编组" transform="translate(1217.000000, 417.000000)">
                <g transform="translate(8.459656, 0.335743)">
                    <g transform="translate(166.020750, 41.240823)">
                        <path d="M11.8568953,20.3994031 L6.39883095,23.2619392 C5.73316176,23.5945094 4.934253,23.3280302 4.60168277,22.7289808 C4.46844319,22.4630304 4.4018234,22.1965512 4.46844319,21.863981 L5.53330239,15.8063386 C5.59992218,15.4071485 5.46721133,14.9413387 5.13411237,14.6082398 L0.741435978,10.348803 C0.208477648,9.81584464 0.208477648,9.0174646 0.741435978,8.48450627 C0.940766623,8.28517562 1.20671706,8.15193604 1.47319622,8.08531625 L7.53030994,7.22031642 C7.99611975,7.15369663 8.32921871,6.88721746 8.52907808,6.48802745 L11.2578459,0.96334333 C11.5909448,0.297674146 12.3893249,0.0317237101 13.0555228,0.364293938 C13.3214732,0.497004792 13.5208039,0.696864165 13.6540434,0.96334333 L16.38334,6.48802745 C16.5826706,6.88721746 16.9818606,7.15369663 17.3815794,7.22031642 L23.4386931,8.08531625 C24.1709821,8.21855583 24.7034117,8.88422501 24.5707008,9.61598526 C24.504081,9.88246443 24.3708414,10.1489436 24.1709821,10.348803 L19.777777,14.6082398 C19.4452067,14.9413387 19.3119671,15.3405287 19.3785869,15.8063386 L20.4434461,21.863981 C20.5766857,22.5957413 20.1103472,23.2619392 19.3785869,23.39465 C19.1126365,23.4612698 18.7795375,23.39465 18.5130584,23.2619392 L13.0555228,20.3994031 C12.7224238,20.1334526 12.256614,20.1334526 11.8568953,20.3994031" id="Fill-48"></path>
                        <path d="M12.5890785,0.231054355 C13.055417,0.297674146 13.4546071,0.563624583 13.6544664,0.96334333 L16.3832342,6.48802745 C16.5830936,6.88721746 16.9161926,7.15369663 17.3814736,7.22031642 L23.4391161,8.08531625 C23.7050665,8.15193604 23.971017,8.28517562 24.1708763,8.48450627 C24.7033059,9.0174646 24.7033059,9.81584464 24.1708763,10.348803 L19.7781999,14.6082398 C19.445101,14.9413387 19.3118614,15.4071485 19.3784812,15.8063386 L20.4433404,21.863981 C20.5099602,22.1965512 20.4433404,22.4630304 20.3106295,22.7289808 C19.9780593,23.3280302 19.1791505,23.5945094 18.5129526,23.2619392 L13.055417,20.3994031 C12.9221775,20.3327833 12.7223181,20.2666922 12.5890785,20.2000724 L12.5890785,0.231054355 Z" id="Fill-50"></path>
                    </g>
                </g>
            </g>
        </g>
    </g>
</svg>