<?xml version="1.0" encoding="UTF-8"?>
<svg width="298px" height="312px" viewBox="0 0 298 312" version="1.1" xmlns="http://www.w3.org/2000/svg" xmlns:xlink="http://www.w3.org/1999/xlink">
    <!-- Generator: Sketch 55.2 (78181) - https://sketchapp.com -->
    <title>编组</title>
    <desc>Created with Sketch.</desc>
    <defs>
        <polygon id="path-1" points="0 0.346355122 228.392276 0.346355122 228.392276 33.804878 0 33.804878"></polygon>
    </defs>
    <g id="页面1" stroke="none" stroke-width="1" fill="none" fill-rule="evenodd">
        <g id="插画" transform="translate(-1184.000000, -470.000000)">
            <g id="编组" transform="translate(1184.500000, 470.000000)">
                <polygon id="Fill-1" fill="#0978D3" opacity="0.1" points="185.444675 4.60528683 294.167441 37.2530722 267.938719 124.598116 159.215953 91.9498478"></polygon>
                <g transform="translate(0.000000, 277.625459)">
                    <mask id="mask-2" fill="white">
                        <use xlink:href="#path-1"></use>
                    </mask>
                    <g id="Clip-8"></g>
                    <path d="M114.196017,0.346355122 C177.264812,0.346355122 228.392276,7.83606732 228.392276,17.0759063 C228.392276,26.3147795 177.264812,33.8049746 114.196017,33.8049746 C51.127222,33.8049746 -0.000241463415,26.3147795 -0.000241463415,17.0759063 C-0.000241463415,7.83606732 51.127222,0.346355122 114.196017,0.346355122" id="Fill-7" fill="#F2F2F2" mask="url(#mask-2)"></path>
                </g>
                <path d="M155.1231,212.771959 L174.573461,206.678871 C173.497017,198.589364 171.039402,190.745183 167.30831,183.487759 L147.857949,189.58133 C152.42209,196.469315 154.94152,204.51053 155.1231,212.771959" id="Fill-9" fill="#0066CC" opacity="0.3"></path>
                <path d="M108.373079,30.4699302 C118.402503,30.4699302 126.533059,38.6004863 126.533059,48.6299107 C126.533059,58.6593351 118.402503,66.7898912 108.373079,66.7898912 C98.3436541,66.7898912 90.213098,58.6593351 90.213098,48.6299107 C90.213098,38.6004863 98.3436541,30.4699302 108.373079,30.4699302" id="Fill-11" fill="#000000"></path>
                <polygon id="Fill-13" fill="#FFE5CF" points="88.7819927 276.195705 85.3276171 290.999827 93.717022 290.999827 97.1709146 274.2215"></polygon>
                <polygon id="Fill-15" fill="#FFE5CF" points="129.246915 276.195705 129.246915 290.012725 137.63632 290.999827 137.63632 276.195705"></polygon>
                <path d="M86.3145263,119.269743 C86.3145263,119.269743 87.3016288,140.489065 88.2882483,141.969719 C89.2753507,143.449889 98.1578239,164.669694 98.1578239,164.669694 L102.599302,150.852192 C102.599302,150.852192 95.6905507,139.502445 96.6776532,133.087245 C97.6647556,126.672045 97.0427459,118.77764 97.0427459,118.77764 L86.3145263,119.269743 Z" id="Fill-17" fill="#FFE5CF"></path>
                <path d="M114.442648,40.3133312 C122.073858,40.3133312 126.532721,43.3494922 126.532721,50.980702 C126.532721,54.7963068 126.291258,64.0448385 123.790662,66.5454337 C121.29055,69.0460288 118.258253,67.9483361 114.442648,67.9483361 C106.811438,67.9483361 100.625628,61.7620434 100.625628,54.1308337 C100.625628,46.4996239 106.811438,40.3133312 114.442648,40.3133312" id="Fill-19" fill="#FFE5CF"></path>
                <path d="M103.09295,55.611101 C103.09295,55.611101 103.586018,75.3502522 100.131642,78.3110766 C96.6777498,81.271901 119.870794,78.8046278 119.870794,78.8046278 C119.870794,78.8046278 114.936247,64.9871254 118.884174,62.026301 C122.831618,59.0654766 103.09295,55.611101 103.09295,55.611101" id="Fill-21" fill="#FFE5CF"></path>
                <path d="M121.351254,77.8177185 C121.351254,77.8177185 118.39043,72.389138 114.442503,72.8826893 C110.495059,73.3762405 97.664659,74.3633429 97.1711078,75.3504454 C96.6775566,76.3370649 95.1973859,79.7914405 94.2102834,80.7785429 C93.223181,81.7651624 85.8213615,83.2458161 85.3273273,89.1674649 C84.90042,94.2927673 98.5189566,121.963992 102.191132,129.318001 C102.781752,130.500206 103.018869,131.817631 102.877371,133.132158 C102.589064,135.80226 102.091649,140.334528 101.88061,141.723909 C101.477849,144.371797 100.812859,147.614167 100.060942,150.236943 C99.367942,152.655923 95.0505761,162.537572 95.9773127,186.360836 L95.6904541,219.44567 C95.6904541,219.44567 86.0101859,266.729036 88.5156102,274.948933 C90.1430737,280.289138 95.6904541,278.663123 98.1582102,277.18247 C100.625483,275.701816 118.884464,201.186689 118.884464,201.186689 L123.818527,176.01944 L124.312561,231.288967 C124.312561,231.288967 126.015361,272.019499 129.160181,278.124177 C130.881332,281.465548 137.700259,281.085484 138.686879,278.124177 C139.456664,275.815304 141.379679,236.814616 150.708859,187.484606 C151.270986,178.188265 150.539352,168.859084 148.536171,159.76364 C146.482283,150.447982 143.50021,139.502928 140.103303,135.060967 C133.688586,126.672045 129.740659,100.024143 129.740659,100.024143 L138.129581,84.7264698 C138.129581,84.7264698 133.194552,79.7914405 130.23421,79.7914405 C127.273386,79.7914405 121.351254,77.8177185 121.351254,77.8177185" id="Fill-23" fill="#0066CC"></path>
                <path d="M88.2882,85.7131859 L85.6857073,87.4845615 C85.6857073,87.4845615 83.8472049,119.26984 85.3273756,121.243561 C86.8080293,123.217766 97.1006488,122.254327 97.8762293,120.515308 C98.6513268,118.776288 88.2882,85.7131859 88.2882,85.7131859" id="Fill-25" fill="#0066CC"></path>
                <path d="M128.753605,115.321913 C128.753605,115.321913 129.246673,136.047683 132.20798,141.969815 C135.168805,147.891464 146.025483,172.565644 146.025483,172.565644 C146.025483,172.565644 145.395263,199.722069 150.891937,193.052849 C156.38861,186.382664 152.933751,170.59144 152.933751,170.59144 L143.557727,134.073961 C143.557727,134.073961 138.62318,117.789186 139.116732,112.85464 C139.6098,107.91961 128.753605,115.321913 128.753605,115.321913" id="Fill-27" fill="#FFE5CF"></path>
                <path d="M137.636368,282.018209 C137.636368,282.018209 138.129436,281.624141 139.61009,283.104312 C141.09026,284.584482 145.038187,286.558204 144.545119,291.987268 C144.051085,297.415365 141.09026,298.401985 141.09026,298.401985 L141.09026,296.921331 L139.61009,296.921331 L139.61009,299.389087 C139.61009,299.389087 137.142817,307.284458 125.79307,302.349912 C125.79307,302.349912 125.299036,298.401985 125.79307,295.934712 C126.286139,293.467439 126.286139,281.624141 127.766792,282.117209 C129.246963,282.611243 133.19489,283.104312 134.181992,285.078034 C135.169095,287.052239 138.129436,286.360204 137.636368,282.018209" id="Fill-29" fill="#000000"></path>
                <path d="M86.8078361,282.511519 C86.8078361,282.511519 86.3147678,282.117451 84.8341141,283.597621 C83.3539434,285.077792 79.4060166,287.051997 79.8990849,292.480578 C80.393119,297.908675 83.3539434,298.895778 83.3539434,298.895778 L83.3539434,297.415124 L84.8341141,297.415124 L84.8341141,299.88288 C84.8341141,299.88288 87.3013873,307.777768 98.6511337,302.843704 C98.6511337,302.843704 99.1451678,298.895778 98.6511337,296.428021 C98.1580654,293.960748 98.1580654,282.117451 96.6774117,282.611002 C95.197241,283.104553 91.2493141,283.597621 90.2622117,285.571826 C89.2751093,287.545548 86.3147678,286.853997 86.8078361,282.511519" id="Fill-31" fill="#000000"></path>
                <path d="M131.221071,83.245961 L138.129822,84.7261317 C138.129822,84.7261317 138.129822,95.5828098 140.103544,100.024288 C142.077266,104.465283 145.532125,114.82841 144.050988,115.321961 C142.570818,115.815512 128.753798,122.724263 127.766696,118.776337 C126.779593,114.82841 124.31232,83.245961 131.221071,83.245961" id="Fill-33" fill="#0066CC"></path>
                <path d="M93.2731156,22.9237156 C97.8715449,22.9237156 101.59974,26.6519107 101.59974,31.25034 C101.59974,35.8492522 97.8715449,39.5774473 93.2731156,39.5774473 C88.6746863,39.5774473 84.9464912,35.8492522 84.9464912,31.25034 C84.9464912,26.6519107 88.6746863,22.9237156 93.2731156,22.9237156" id="Fill-35" fill="#000000"></path>
                <path d="M86.0904966,38.1455693 C89.8182088,40.839818 95.0236771,40.00194 97.7174429,36.2742278 C98.2660478,35.5160327 98.6823307,34.6704278 98.9493893,33.7731498 C98.3756722,38.3368083 94.2113941,41.5704863 89.6482185,40.9967693 C85.0855259,40.4230522 81.8513649,36.2587741 82.425082,31.6955985 C82.4815844,31.2430961 82.576238,30.7959059 82.7061454,30.3583741 C82.326082,33.3776327 83.6241893,36.3640522 86.0904966,38.1455693" id="Fill-37" fill="#000000"></path>
                <path d="M103.530578,38.3391746 C110.885071,38.3391746 116.847768,44.3013893 116.847768,51.6563649 C116.847768,59.0113405 110.885071,64.9735551 103.530578,64.9735551 C96.1756024,64.9735551 90.2133878,59.0113405 90.2133878,51.6563649 C90.2133878,44.3013893 96.1756024,38.3391746 103.530578,38.3391746" id="Fill-39" fill="#000000"></path>
                <path d="M114.728927,37.431079 C121.247956,37.431079 126.532624,41.5644498 126.532624,46.6627083 C126.532624,51.7604839 121.247956,55.8938546 114.728927,55.8938546 C108.209898,55.8938546 102.925229,51.7604839 102.925229,46.6627083 C102.925229,41.5644498 108.209898,37.431079 114.728927,37.431079" id="Fill-41" fill="#000000"></path>
                <path d="M117.877368,52.1582224 C119.11511,52.1582224 120.117666,53.9324956 120.117666,56.1216029 C120.117666,58.3107102 119.11511,60.0854663 117.877368,60.0854663 C116.64011,60.0854663 115.637071,58.3107102 115.637071,56.1216029 C115.637071,53.9324956 116.64011,52.1582224 117.877368,52.1582224" id="Fill-43" fill="#FFE5CF"></path>
                <polygon id="Fill-45" fill="#0978D3" opacity="0.1" points="177.535976 48.0434927 216.225659 48.0434927 216.225659 0 177.535976 0"></polygon>
                <polygon id="Fill-47" fill="#0978D3" opacity="0.1" points="258.10459 93.7486537 296.794273 93.7486537 296.794273 45.705161 258.10459 45.705161"></polygon>
                <g opacity="0.3" transform="translate(263.195122, 55.479117)" fill="#0066CC">
                    <polygon id="Fill-49" points="0.436082927 1.70569756 28.0720537 1.70569756 28.0720537 0.430287805 0.436082927 0.430287805"></polygon>
                    <polygon id="Fill-51" points="0.436082927 6.16987317 28.0720537 6.16987317 28.0720537 4.89446341 0.436082927 4.89446341"></polygon>
                    <polygon id="Fill-52" points="0.436082927 10.6340488 28.0720537 10.6340488 28.0720537 9.3581561 0.436082927 9.3581561"></polygon>
                    <polygon id="Fill-53" points="0.436082927 15.0977415 28.0720537 15.0977415 28.0720537 13.8223317 0.436082927 13.8223317"></polygon>
                    <polygon id="Fill-54" points="0.436082927 19.5624 28.0720537 19.5624 28.0720537 18.2869902 0.436082927 18.2869902"></polygon>
                    <polygon id="Fill-55" points="7.02610244 28.0652927 21.4820341 28.0652927 21.4820341 22.9636537 7.02610244 22.9636537"></polygon>
                </g>
                <polygon id="Fill-56" fill="#0978D3" opacity="0.1" points="180.937229 143.067556 219.626912 143.067556 219.626912 95.0240634 180.937229 95.0240634"></polygon>
                <polygon id="Fill-58" fill="#0066CC" opacity="0.3" points="186.527107 123.043961 214.163078 123.043961 214.163078 121.768551 186.527107 121.768551"></polygon>
                <polygon id="Fill-60" fill="#0066CC" opacity="0.3" points="186.527107 127.508137 214.163078 127.508137 214.163078 126.232727 186.527107 126.232727"></polygon>
                <polygon id="Fill-62" fill="#0066CC" opacity="0.3" points="186.527107 131.972312 214.163078 131.972312 214.163078 130.696902 186.527107 130.696902"></polygon>
                <polygon id="Fill-64" fill="#0066CC" opacity="0.3" points="186.527107 136.436488 214.163078 136.436488 214.163078 135.161078 186.527107 135.161078"></polygon>
                <path d="M194.993346,112.124406 L186.21277,112.124406 C185.613458,108.660372 185.613458,105.119552 186.21277,101.655518 L194.993346,101.655518 C194.003829,105.075123 194.003829,108.704801 194.993346,112.124406" id="Fill-66" fill="#0066CC" opacity="0.3"></path>
                <polygon id="Fill-68" fill="#0066CC" opacity="0.3" points="198.644707 103.698878 214.800541 103.698878 214.800541 102.635956 198.644707 102.635956"></polygon>
                <polygon id="Fill-70" fill="#0066CC" opacity="0.3" points="198.644707 107.525107 214.800541 107.525107 214.800541 106.462185 198.644707 106.462185"></polygon>
                <polygon id="Fill-72" fill="#0066CC" opacity="0.3" points="198.644707 111.35182 214.800541 111.35182 214.800541 110.288898 198.644707 110.288898"></polygon>
                <polygon id="Fill-74" fill="#0066CC" opacity="0.3" points="198.644707 115.178049 214.800541 115.178049 214.800541 114.115127 198.644707 114.115127"></polygon>
                <path d="M209.617433,33.6011312 L183.620033,33.6011312 C182.715994,33.6011312 181.924477,32.8665995 181.924477,31.8490727 L181.924477,27.497419 C181.924477,26.59338 182.659491,25.7453605 183.620033,25.7453605 L209.617433,25.7453605 C210.521472,25.7453605 211.312989,26.4798922 211.312989,27.497419 L211.312989,31.8490727 C211.312989,32.7535946 210.521472,33.6011312 209.617433,33.6011312 L209.617433,33.6011312 Z M198.879555,28.5144629 C198.258028,28.5144629 197.749023,29.0234678 197.749023,29.6449946 C197.749023,30.2665215 198.258028,30.7750434 198.879555,30.7750434 C199.501081,30.7750434 200.009603,30.2665215 200.009603,29.6449946 C200.066106,29.0234678 199.501081,28.5144629 198.879555,28.5144629 L198.879555,28.5144629 Z M202.835208,28.5144629 C202.213681,28.5144629 201.70516,29.0234678 201.70516,29.6449946 C201.70516,30.2665215 202.213681,30.7750434 202.835208,30.7750434 C203.457218,30.7750434 203.96574,30.2665215 203.96574,29.6449946 C203.96574,29.0234678 203.457218,28.5144629 202.835208,28.5144629 L202.835208,28.5144629 Z M205.661296,30.7750434 L207.92236,30.7750434 L207.92236,28.5144629 L205.661296,28.5144629 L205.661296,30.7750434 Z M209.617433,23.4282776 L183.620033,23.4282776 C182.715994,23.4282776 181.924477,22.6937459 181.924477,21.676219 L181.924477,17.3245654 C181.924477,16.4205263 182.659491,15.5725068 183.620033,15.5725068 L209.617433,15.5725068 C210.521472,15.5725068 211.312989,16.3075215 211.312989,17.3245654 L211.312989,21.676219 C211.312989,22.6937459 210.521472,23.4282776 209.617433,23.4282776 L209.617433,23.4282776 Z M198.879555,18.3420922 C198.258028,18.3420922 197.749023,18.8506141 197.749023,19.472141 C197.749023,20.0941507 198.258028,20.6026727 198.879555,20.6026727 C199.501081,20.6026727 200.009603,20.0941507 200.009603,19.472141 C200.066106,18.9071166 199.501081,18.3420922 198.879555,18.3420922 L198.879555,18.3420922 Z M202.835208,18.3420922 C202.213681,18.3420922 201.70516,18.8506141 201.70516,19.472141 C201.70516,20.0941507 202.213681,20.6026727 202.835208,20.6026727 C203.457218,20.6026727 203.96574,20.0941507 203.96574,19.472141 C203.96574,18.9071166 203.457218,18.3420922 202.835208,18.3420922 L202.835208,18.3420922 Z M205.661296,20.6026727 L207.92236,20.6026727 L207.92236,18.3420922 L205.661296,18.3420922 L205.661296,20.6026727 Z M209.617433,13.2559068 L183.620033,13.2559068 C182.715994,13.2559068 181.924477,12.5208922 181.924477,11.5038483 L181.924477,7.15171171 C181.924477,6.24767268 182.659491,5.4001361 183.620033,5.4001361 L209.617433,5.4001361 C210.521472,5.4001361 211.312989,6.1346678 211.312989,7.15171171 L211.312989,11.5038483 C211.312989,12.5208922 210.521472,13.2559068 209.617433,13.2559068 L209.617433,13.2559068 Z M198.879555,8.16923854 C198.258028,8.16923854 197.749023,8.67776049 197.749023,9.29977024 C197.749023,9.92129707 198.258028,10.429819 198.879555,10.429819 C199.501081,10.429819 200.009603,9.92129707 200.009603,9.29977024 C200.009603,8.67776049 199.501081,8.16923854 198.879555,8.16923854 L198.879555,8.16923854 Z M202.835208,8.16923854 C202.213681,8.16923854 201.70516,8.67776049 201.70516,9.29977024 C201.70516,9.92129707 202.213681,10.429819 202.835208,10.429819 C203.457218,10.429819 203.96574,9.92129707 203.96574,9.29977024 C203.96574,8.67776049 203.457218,8.16923854 202.835208,8.16923854 L202.835208,8.16923854 Z M205.661296,10.429819 L207.92236,10.429819 L207.92236,8.16923854 L205.661296,8.16923854 L205.661296,10.429819 Z M183.168013,38.6873166 L193.227862,38.6873166 C193.058355,39.0263312 192.94535,39.4223312 192.94535,39.8178483 C192.94535,40.2133654 193.058355,40.6088824 193.227862,40.9478971 L183.168013,40.9478971 C182.433481,40.9478971 181.924477,40.4393751 181.924477,39.8178483 C181.924477,39.1958385 182.489984,38.6873166 183.168013,38.6873166 L183.168013,38.6873166 Z M195.488442,36.4267361 L197.749023,36.4267361 L197.749023,34.1661556 L195.488442,34.1661556 L195.488442,36.4267361 Z M196.618974,36.9917605 C198.14454,36.9917605 199.444579,38.2917995 199.444579,39.8178483 C199.444579,41.3438971 198.14454,42.6434532 196.618974,42.6434532 C195.092925,42.6434532 193.792886,41.3438971 193.792886,39.8178483 C193.792886,38.2917995 195.092925,36.9917605 196.618974,36.9917605 L196.618974,36.9917605 Z M200.066106,38.6873166 L209.956447,38.6873166 C210.690979,38.6873166 211.199501,39.1958385 211.199501,39.8178483 C211.199501,40.4393751 210.690979,40.9478971 209.956447,40.9478971 L200.066106,40.9478971 C200.235613,40.6088824 200.349101,40.2133654 200.349101,39.8178483 C200.349101,39.4223312 200.235613,39.0833166 200.066106,38.6873166 L200.066106,38.6873166 Z" id="Fill-76" fill="#0066CC" opacity="0.3"></path>
            </g>
        </g>
    </g>
</svg>